<svg xmlns="http://www.w3.org/2000/svg" width="18.044" height="24.933" viewBox="0 0 18.044 24.933">
  <g id="scooter-front-view" transform="translate(-80.325)">
    <g id="Layer_1_117_" transform="translate(80.325)">
      <g id="Group_48" data-name="Group 48" transform="translate(0)">
        <path id="Path_82" data-name="Path 82" d="M240.612,376.125a2.193,2.193,0,0,0-2.187,2.187v4.429a2.187,2.187,0,1,0,4.374,0v-4.429A2.194,2.194,0,0,0,240.612,376.125Z" transform="translate(-231.645 -359.995)" fill="#f04589"/>
        <path id="Path_83" data-name="Path 83" d="M97.22,2.734H93.01a3.9,3.9,0,0,0-7.436,0H81.419a1.094,1.094,0,1,0,0,2.187h4.21a3.776,3.776,0,0,0,1.7,2.187,7.168,7.168,0,0,0-5.14,6.835v5.741a1.82,1.82,0,0,0,1.8,1.8h1.476V18.372a3.882,3.882,0,1,1,7.764,0v3.117h1.476a1.82,1.82,0,0,0,1.8-1.8V14a7.118,7.118,0,0,0-5.14-6.835,3.776,3.776,0,0,0,1.695-2.187h4.21a1.1,1.1,0,0,0,1.094-1.094A1.192,1.192,0,0,0,97.22,2.734ZM89.292,6.069a2.187,2.187,0,1,1,2.187-2.187A2.126,2.126,0,0,1,89.292,6.069Z" transform="translate(-80.325)" fill="#f04589"/>
      </g>
    </g>
  </g>
</svg>
