<svg xmlns="http://www.w3.org/2000/svg" xmlns:xlink="http://www.w3.org/1999/xlink" width="913" height="956.666" viewBox="0 0 913 956.666">
  <defs>
    <linearGradient id="linear-gradient" x1="0.032" y1="1.251" x2="0.89" y2="-0.121" gradientUnits="objectBoundingBox">
      <stop offset="0" stop-color="#f29f9b"/>
      <stop offset="1" stop-color="#f86867"/>
    </linearGradient>
    <linearGradient id="linear-gradient-2" x1="-0.08" y1="-0.235" x2="0.741" y2="1.155" xlink:href="#linear-gradient"/>
    <linearGradient id="linear-gradient-3" x1="0.062" y1="0.739" x2="1.063" y2="0.739" xlink:href="#linear-gradient"/>
  </defs>
  <g id="Group_3026" data-name="Group 3026" transform="translate(0 0.666)">
    <rect id="Rectangle_983" data-name="Rectangle 983" width="913" height="956" fill="rgba(0,168,155,0.16)"/>
    <path id="Path_836" data-name="Path 836" d="M182.593,119.838c55.119-41.156,125.222-66,193.252-55.546,66.582,10.243,123.561,51.994,176,94.279,17.011,13.719,34.16,27.819,54.25,36.4,22.133,9.466,47.055,11.89,68.076,23.581,38.108,21.173,54.677,73.914,35.577,113.089-9.893,20.289-27.224,35.791-44.205,50.76Q581.7,456.451,498.019,530.548c-20.06,17.728-41.461,36.141-67.74,41.263-26.889,5.228-54.372-4.421-79.127-16.158A453.3,453.3,0,0,1,261.4,499.376c-25.3-20.365-49.083-43.87-79.264-56.08-24.16-9.8-50.683-11.585-76.368-16.142s-52.208-12.819-69.783-32.1c-16.036-17.591-22.453-42.894-19.039-66.46a97.129,97.129,0,0,1,29.175-56.4c15.243-14.374,25.456-31,37.635-48.016C111.85,185.185,144.013,148.708,182.593,119.838Z" transform="translate(84.688 211.91)" fill="none" stroke="#76bffb" stroke-miterlimit="10" stroke-width="1" opacity="0.27"/>
    <path id="Path_837" data-name="Path 837" d="M112.083,120.9a109.6,109.6,0,0,0-17.3,22.545c-17.331,30.181-22.163,67.192-36.949,98.806-11.006,23.459-27.788,43.275-36.416,67.923-31.538,89.782,36.141,159.794,112.6,194.761,49.906,22.865,103.409,34.053,158.025,37.1,56.826,3.171,110.68-18.81,167.141-19.816,69.3-1.158,147.294,35.059,211.7-5.3,30.73-19.3,49.952-54.235,54.144-90.285s-5.579-72.862-23.2-104.583C675,273.74,631.248,240.282,591.753,203.027c-37.5-35.379-67.725-77.267-115.848-99.2C416.961,77,350.577,75.732,287.013,74.863c-40.852-.534-82.679-.808-121.213,12.728A142.295,142.295,0,0,0,112.083,120.9Z" transform="translate(83.342 218.607)" fill="#76bffb" opacity="0.27"/>
    <path id="Path_838" data-name="Path 838" d="M588.9,111.622v339.36A16.254,16.254,0,0,1,573,467.474H77.625a16.254,16.254,0,0,1-15.9-16.492V111.622a16.254,16.254,0,0,1,15.9-16.492H573A16.254,16.254,0,0,1,588.9,111.622Z" transform="translate(131.687 246.053)" fill="#fff"/>
    <path id="Path_839" data-name="Path 839" d="M588.9,111.93v33.6H61.72v-33.6c0-9.24,7.154-16.8,15.9-16.8H573C581.75,95.13,588.9,102.69,588.9,111.93Z" transform="translate(131.688 246.053)" fill="#00a89b"/>
    <circle id="Ellipse_94" data-name="Ellipse 94" cx="7" cy="7" r="7" transform="translate(630.6 359.383)" fill="#fff"/>
    <circle id="Ellipse_95" data-name="Ellipse 95" cx="7" cy="7" r="7" transform="translate(653 359.383)" fill="#fff"/>
    <circle id="Ellipse_96" data-name="Ellipse 96" cx="7" cy="7" r="7" transform="translate(675.4 359.383)" fill="#fff"/>
    <text id="Month" transform="translate(432.248 415.639)" fill="#373ca6" font-size="16" font-family="SegoeUI-Semibold, Segoe UI" font-weight="600"><tspan x="0" y="0" letter-spacing="0.01em">M</tspan><tspan y="0">onth</tspan></text>
    <path id="Path_840" data-name="Path 840" d="M275.5,143.13l5.6,4.2-5.6,4.2" transform="translate(217.2 265.252)" fill="none" stroke="#373ca6" stroke-linecap="round" stroke-linejoin="round" stroke-width="0.75"/>
    <path id="Path_841" data-name="Path 841" d="M226.1,143.13l-5.6,4.2,5.6,4.2" transform="translate(195.2 265.252)" fill="none" stroke="#373ca6" stroke-linecap="round" stroke-linejoin="round" stroke-width="0.75"/>
    <path id="Path_842" data-name="Path 842" d="M389.418,145.64a5.754,5.754,0,1,1-5.754-5.74,5.754,5.754,0,0,1,5.754,5.74Z" transform="translate(258.164 263.961)" fill="none" stroke="#373ca6" stroke-linecap="round" stroke-linejoin="round" stroke-width="0.65"/>
    <line id="Line_110" data-name="Line 110" x2="4.83" y2="4.046" transform="translate(646.378 413.072)" fill="none" stroke="#373ca6" stroke-linecap="round" stroke-linejoin="round" stroke-width="0.65"/>
    <rect id="Rectangle_997" data-name="Rectangle 997" width="60.326" height="15.4" rx="1.29" transform="translate(216.648 402.949)" fill="#00a89b"/>
    <text id="Week" transform="translate(224.922 414.139)" fill="#fff" font-size="11" font-family="SegoeUI-Semibold, Segoe UI" font-weight="600"><tspan x="0" y="0" letter-spacing="-0.03em">W</tspan><tspan y="0">eek</tspan></text>
    <path id="Path_843" data-name="Path 843" d="M112.093,143.87h5.6a.35.35,0,0,1,.294.546l-2.6,3.654a.35.35,0,0,1-.56,0l-2.982-3.654a.336.336,0,0,1,.252-.546Z" transform="translate(151.707 265.549)" fill="#fff"/>
    <line id="Line_111" data-name="Line 111" x2="15.008" transform="translate(681.896 406.771)" fill="none" stroke="#373ca6" stroke-linecap="round" stroke-linejoin="round" stroke-width="0.75"/>
    <line id="Line_112" data-name="Line 112" x2="15.008" transform="translate(681.896 410.469)" fill="none" stroke="#373ca6" stroke-linecap="round" stroke-linejoin="round" stroke-width="0.75"/>
    <line id="Line_113" data-name="Line 113" x2="15.008" transform="translate(681.896 414.514)" fill="none" stroke="#373ca6" stroke-linecap="round" stroke-linejoin="round" stroke-width="0.75"/>
    <text id="_4" data-name="4" transform="translate(507.484 447.182)" fill="#fff" font-size="14" font-family="SegoeUI-Semibold, Segoe UI" font-weight="600"><tspan x="0" y="0">4</tspan></text>
    <path id="Path_844" data-name="Path 844" d="M295.492,189.546a4.116,4.116,0,1,1-4.116-4.116A4.116,4.116,0,0,1,295.492,189.546Z" transform="translate(221.904 282.172)" fill="#fff"/>
    <text id="_4-2" data-name="4" transform="translate(507.484 447.182)" fill="#373ca6" font-size="14" font-family="SegoeUI-Semibold, Segoe UI" font-weight="600"><tspan x="0" y="0">4</tspan></text>
    <rect id="Rectangle_998" data-name="Rectangle 998" width="73.64" height="56.322" transform="translate(276.96 486.039)" fill="#ff5757"/>
    <path id="Path_845" data-name="Path 845" d="M137.74,230.076a4.116,4.116,0,1,1-1.21-2.915,4.13,4.13,0,0,1,1.21,2.915Z" transform="translate(158.792 298.385)" fill="#fff"/>
    <rect id="Rectangle_999" data-name="Rectangle 999" width="37.058" height="7.266" rx="1.09" transform="translate(303.896 497.059)" fill="#f29f9b"/>
    <rect id="Rectangle_1000" data-name="Rectangle 1000" width="37.058" height="2.576" rx="0.71" transform="translate(303.896 507.348)" fill="#f29f9b"/>
    <rect id="Rectangle_1001" data-name="Rectangle 1001" width="37.058" height="2.576" rx="0.71" transform="translate(303.896 520.424)" fill="#f29f9b"/>
    <path id="Path_846" data-name="Path 846" d="M176.41,230.006H141.928a1.288,1.288,0,0,1-1.288-1.288h0a1.288,1.288,0,0,1,1.288-1.288H176.41a1.288,1.288,0,0,1,1.288,1.288h0A1.288,1.288,0,0,1,176.41,230.006Z" transform="translate(163.256 298.973)" fill="#f29f9b"/>
    <path id="Path_847" data-name="Path 847" d="M176.41,233.5H141.928a1.288,1.288,0,0,1-1.288-1.288h0a1.288,1.288,0,0,1,1.288-1.288H176.41a1.3,1.3,0,0,1,1.288,1.288h0A1.288,1.288,0,0,1,176.41,233.5Z" transform="translate(163.256 300.367)" fill="#f29f9b"/>
    <text id="_1" data-name="1" transform="translate(284.436 446.182)" fill="#373ca6" font-size="13" font-family="SegoeUI-Semibold, Segoe UI" font-weight="600"><tspan x="0" y="0">1</tspan></text>
    <text id="_3" data-name="3" transform="translate(433.144 447.182)" fill="#373ca6" font-size="14" font-family="SegoeUI-Semibold, Segoe UI" font-weight="600"><tspan x="0" y="0">3</tspan></text>
    <text id="_5" data-name="5" transform="translate(581.838 447.182)" fill="#373ca6" font-size="14" font-family="SegoeUI-Semibold, Segoe UI" font-weight="600"><tspan x="0" y="0">5</tspan></text>
    <text id="_6" data-name="6" transform="translate(656.192 447.182)" fill="#373ca6" font-size="14" font-family="SegoeUI-Semibold, Segoe UI" font-weight="600"><tspan x="0" y="0">6</tspan></text>
    <text id="_8" data-name="8" transform="translate(284.436 504.371)" fill="#fff" font-size="14" font-family="SegoeUI-Semibold, Segoe UI" font-weight="600"><tspan x="0" y="0">8</tspan></text>
    <text id="_9" data-name="9" transform="translate(358.79 504.371)" fill="#373ca6" font-size="14" font-family="SegoeUI-Semibold, Segoe UI" font-weight="600"><tspan x="0" y="0">9</tspan></text>
    <text id="_10" data-name="10" transform="translate(433.144 504.371)" fill="#373ca6" font-size="14" font-family="SegoeUI-Semibold, Segoe UI" font-weight="600"><tspan x="0" y="0">10</tspan></text>
    <text id="_11" data-name="11" transform="translate(507.484 504.371)" fill="#373ca6" font-size="14" font-family="SegoeUI-Semibold, Segoe UI" font-weight="600"><tspan x="0" y="0">11</tspan></text>
    <text id="_12" data-name="12" transform="translate(581.838 504.371)" fill="#373ca6" font-size="14" font-family="SegoeUI-Semibold, Segoe UI" font-weight="600"><tspan x="0" y="0">12</tspan></text>
    <text id="_13" data-name="13" transform="translate(656.192 504.371)" fill="#373ca6" font-size="14" font-family="SegoeUI-Semibold, Segoe UI" font-weight="600"><tspan x="0" y="0">13</tspan></text>
    <text id="_15" data-name="15" transform="translate(284.436 561.563)" fill="#373ca6" font-size="14" font-family="SegoeUI-Semibold, Segoe UI" font-weight="600"><tspan x="0" y="0">15</tspan></text>
    <text id="_16" data-name="16" transform="translate(358.79 561.563)" fill="#373ca6" font-size="14" font-family="SegoeUI-Semibold, Segoe UI" font-weight="600"><tspan x="0" y="0">16</tspan></text>
    <text id="_17" data-name="17" transform="translate(433.144 560.563)" fill="#373ca6" font-size="13" font-family="SegoeUI-Semibold, Segoe UI" font-weight="600"><tspan x="0" y="0">17</tspan></text>
    <text id="_18" data-name="18" transform="translate(507.484 561.563)" fill="#373ca6" font-size="14" font-family="SegoeUI-Semibold, Segoe UI" font-weight="600"><tspan x="0" y="0">18</tspan></text>
    <text id="_19" data-name="19" transform="translate(581.838 561.563)" fill="#373ca6" font-size="14" font-family="SegoeUI-Semibold, Segoe UI" font-weight="600"><tspan x="0" y="0">19</tspan></text>
    <text id="_20" data-name="20" transform="translate(656.192 560.563)" fill="#373ca6" font-size="13" font-family="SegoeUI-Semibold, Segoe UI" font-weight="600"><tspan x="0" y="0">20</tspan></text>
    <text id="_22" data-name="22" transform="translate(284.436 617.752)" fill="#373ca6" font-size="13" font-family="SegoeUI-Semibold, Segoe UI" font-weight="600"><tspan x="0" y="0">22</tspan></text>
    <text id="_23" data-name="23" transform="translate(358.79 617.752)" fill="#373ca6" font-size="13" font-family="SegoeUI-Semibold, Segoe UI" font-weight="600"><tspan x="0" y="0">23</tspan></text>
    <text id="_24" data-name="24" transform="translate(433.144 617.752)" fill="#373ca6" font-size="13" font-family="SegoeUI-Semibold, Segoe UI" font-weight="600"><tspan x="0" y="0">24</tspan></text>
    <text id="_25" data-name="25" transform="translate(507.484 617.752)" fill="#373ca6" font-size="13" font-family="SegoeUI-Semibold, Segoe UI" font-weight="600"><tspan x="0" y="0">25</tspan></text>
    <text id="_26" data-name="26" transform="translate(581.838 617.752)" fill="#373ca6" font-size="13" font-family="SegoeUI-Semibold, Segoe UI" font-weight="600"><tspan x="0" y="0">26</tspan></text>
    <text id="_27" data-name="27" transform="translate(656.192 618.752)" fill="#373ca6" font-size="14" font-family="SegoeUI-Semibold, Segoe UI" font-weight="600"><tspan x="0" y="0">27</tspan></text>
    <text id="_29" data-name="29" transform="translate(284.436 674.957)" fill="#373ca6" font-size="13" font-family="SegoeUI-Semibold, Segoe UI" font-weight="600"><tspan x="0" y="0">29</tspan></text>
    <text id="_7" data-name="7" transform="translate(203.894 503.371)" fill="#373ca6" font-size="13" font-family="SegoeUI-Semibold, Segoe UI" font-weight="600"><tspan x="0" y="0">7</tspan></text>
    <text id="_14" data-name="14" transform="translate(203.894 561.563)" fill="#373ca6" font-size="14" font-family="SegoeUI-Semibold, Segoe UI" font-weight="600"><tspan x="0" y="0">14</tspan></text>
    <text id="_21" data-name="21" transform="translate(203.894 618.752)" fill="#373ca6" font-size="14" font-family="SegoeUI-Semibold, Segoe UI" font-weight="600"><tspan x="0" y="0">21</tspan></text>
    <text id="_28" data-name="28" transform="translate(203.894 674.957)" fill="#373ca6" font-size="13" font-family="SegoeUI-Semibold, Segoe UI" font-weight="600"><tspan x="0" y="0">28</tspan></text>
    <text id="_30" data-name="30" transform="translate(358.79 674.957)" fill="#373ca6" font-size="13" font-family="SegoeUI-Semibold, Segoe UI" font-weight="600"><tspan x="0" y="0">30</tspan></text>
    <text id="_31" data-name="31" transform="translate(433.144 675.957)" fill="#373ca6" font-size="14" font-family="SegoeUI-Semibold, Segoe UI" font-weight="600"><tspan x="0" y="0">31</tspan></text>
    <path id="Path_848" data-name="Path 848" d="M193.082,170.206a8.092,8.092,0,1,1-2.37-5.736,8.106,8.106,0,0,1,2.37,5.736Z" transform="translate(177.748 272.84)" fill="#7991d9"/>
    <text id="_2" data-name="2" transform="translate(358.79 447.182)" fill="#fff" font-size="14" font-family="SegoeUI-Semibold, Segoe UI" font-weight="600"><tspan x="0" y="0">2</tspan></text>
    <line id="Line_114" data-name="Line 114" x2="527.184" transform="translate(193.408 429.719)" fill="none" stroke="#373ca6" stroke-miterlimit="10" stroke-width="0.49"/>
    <line id="Line_115" data-name="Line 115" x2="527.184" transform="translate(193.408 486.039)" fill="none" stroke="#373ca6" stroke-miterlimit="10" stroke-width="0.49"/>
    <line id="Line_116" data-name="Line 116" x2="527.184" transform="translate(193.408 542.361)" fill="none" stroke="#373ca6" stroke-miterlimit="10" stroke-width="0.49"/>
    <line id="Line_117" data-name="Line 117" x2="527.184" transform="translate(193.408 598.697)" fill="none" stroke="#373ca6" stroke-miterlimit="10" stroke-width="0.49"/>
    <line id="Line_118" data-name="Line 118" x2="527.184" transform="translate(193.408 655.02)" fill="none" stroke="#373ca6" stroke-miterlimit="10" stroke-width="0.49"/>
    <line id="Line_119" data-name="Line 119" y2="283.808" transform="translate(276.96 429.719)" fill="none" stroke="#373ca6" stroke-miterlimit="10" stroke-width="0.49"/>
    <line id="Line_120" data-name="Line 120" y2="283.808" transform="translate(350.6 429.719)" fill="none" stroke="#373ca6" stroke-miterlimit="10" stroke-width="0.49"/>
    <line id="Line_121" data-name="Line 121" y2="283.808" transform="translate(424.24 429.719)" fill="none" stroke="#373ca6" stroke-miterlimit="10" stroke-width="0.49"/>
    <line id="Line_122" data-name="Line 122" y2="283.808" transform="translate(497.866 429.719)" fill="none" stroke="#373ca6" stroke-miterlimit="10" stroke-width="0.49"/>
    <line id="Line_123" data-name="Line 123" y2="283.808" transform="translate(571.506 429.719)" fill="none" stroke="#373ca6" stroke-miterlimit="10" stroke-width="0.49"/>
    <line id="Line_124" data-name="Line 124" y2="283.808" transform="translate(645.132 429.719)" fill="none" stroke="#373ca6" stroke-miterlimit="10" stroke-width="0.49"/>
    <path id="Path_34658" data-name="Path 34658" d="M3.32,0h124.9a3.32,3.32,0,0,1,3.32,3.32V153.956a3.32,3.32,0,0,1-3.32,3.32H3.32A3.32,3.32,0,0,1,0,153.956V3.32A3.32,3.32,0,0,1,3.32,0Z" transform="translate(481.99 440.176)" fill="#00a89b"/>
    <path id="Path_849" data-name="Path 849" d="M273.61,196.85l-20.16,17.234,20.16,17.99Z" transform="translate(208.38 286.74)" fill="#00a89b"/>
    <text id="_10-2" data-name="10" transform="translate(498.02 467.326)" fill="#fff" font-size="16" font-family="SegoeUI-Semibold, Segoe UI" font-weight="600"><tspan x="0" y="0">10</tspan></text>
    <rect id="Rectangle_1003" data-name="Rectangle 1003" width="82.67" height="16.212" rx="2.42" transform="translate(517.13 504.465)" fill="#fed74b" stroke="#fed74b" stroke-width="1"/>
    <rect id="Rectangle_1004" data-name="Rectangle 1004" width="82.67" height="5.754" rx="1.58" transform="translate(517.13 527.424)" fill="#fed74b" stroke="#fed74b" stroke-width="1"/>
    <circle id="Ellipse_97" data-name="Ellipse 97" cx="12.306" cy="12.306" r="12.306" transform="translate(522.646 463.164)" fill="none" stroke="#fed74b" stroke-miterlimit="10" stroke-width="1"/>
    <path id="Path_850" data-name="Path 850" d="M305.68,187.82v6.23h6.174" transform="translate(229.272 283.129)" fill="none" stroke="#fed74b" stroke-linecap="round" stroke-linejoin="round" stroke-width="1"/>
    <path id="Path_851" data-name="Path 851" d="M304.139,181.621l-7.434,5.474a4.608,4.608,0,1,1,7.434-5.446Z" transform="translate(225.325 279.906)" fill="#fed74b"/>
    <path id="Path_852" data-name="Path 852" d="M316.516,187.063l-7.616-5.208a4.62,4.62,0,1,1,7.616,5.208Z" transform="translate(230.56 279.854)" fill="#fed74b"/>
    <rect id="Rectangle_1005" data-name="Rectangle 1005" width="41.216" height="6.664" rx="0.52" transform="translate(556.092 466.02)" fill="#fff"/>
    <rect id="Rectangle_1006" data-name="Rectangle 1006" width="41.216" height="6.664" rx="0.52" transform="translate(556.092 478.521)" fill="#fff"/>
    <circle id="Ellipse_98" data-name="Ellipse 98" cx="10.444" cy="10.444" r="10.444" transform="translate(525.348 570.955) rotate(-80.76)" fill="#fff"/>
    <path id="Path_853" data-name="Path 853" d="M303.22,253.84l5.824,6.888,9.912-15.848" transform="translate(228.288 305.951)" fill="none" stroke="#f29f9b" stroke-linecap="round" stroke-linejoin="round" stroke-width="1.17"/>
    <circle id="Ellipse_99" data-name="Ellipse 99" cx="10.444" cy="10.444" r="10.444" transform="translate(559.772 562.32) rotate(-45)" fill="#fff"/>
    <line id="Line_125" data-name="Line 125" x2="10.626" y2="11.256" transform="translate(569.546 556.697)" fill="none" stroke="#f29f9b" stroke-linecap="round" stroke-linejoin="round" stroke-width="1.17"/>
    <line id="Line_126" data-name="Line 126" x1="11.256" y2="10.626" transform="translate(569.224 557.006)" fill="none" stroke="#f29f9b" stroke-linecap="round" stroke-linejoin="round" stroke-width="1.17"/>
    <rect id="Rectangle_1007" data-name="Rectangle 1007" width="189.322" height="18.592" rx="6.64" transform="translate(507.484 627.916)" fill="#f29f9b"/>
    <path id="Path_854" data-name="Path 854" d="M236.3,359.762H138.562a9.282,9.282,0,0,1-9.282-9.3h0a9.3,9.3,0,0,1,9.282-9.3H236.3a9.3,9.3,0,0,1,9.3,9.3h0a9.3,9.3,0,0,1-9.3,9.3Z" transform="translate(158.712 344.469)" fill="#d95b72"/>
    <path id="Path_855" data-name="Path 855" d="M637.01,480.944H32.21l75.334-70.714H566.2Z" transform="translate(119.884 372.092)" fill="#feaa4b"/>
    <path id="Path_856" data-name="Path 856" d="M497.284,459.4H462.2a.714.714,0,0,1-.7-.7.7.7,0,0,1,.7-.7h35.1a.7.7,0,0,1,.7.7A.714.714,0,0,1,497.284,459.4Z" transform="translate(291.6 391.199)" fill="#b87893"/>
    <path id="Path_857" data-name="Path 857" d="M493.134,455.29H458.05a.7.7,0,0,1-.7-.7.714.714,0,0,1,.7-.7h35.084a.7.7,0,0,1,0,1.4Z" transform="translate(289.94 389.557)" fill="#b87893"/>
    <path id="Path_858" data-name="Path 858" d="M488.994,451.15H453.91a.7.7,0,0,1-.7-.7.714.714,0,0,1,.7-.7h35.084a.7.7,0,1,1,0,1.4Z" transform="translate(288.284 387.9)" fill="#b87893"/>
    <path id="Path_859" data-name="Path 859" d="M484.854,447.01H449.77a.7.7,0,0,1,0-1.4h35.084a.7.7,0,1,1,0,1.4Z" transform="translate(286.628 386.244)" fill="#b87893"/>
    <path id="Path_860" data-name="Path 860" d="M480.714,442.87H445.63a.7.7,0,1,1,0-1.4h35.084a.7.7,0,1,1,0,1.4Z" transform="translate(284.972 384.588)" fill="#b87893"/>
    <path id="Path_861" data-name="Path 861" d="M476.574,438.73H441.49a.7.7,0,1,1,0-1.4h35.084a.7.7,0,1,1,0,1.4Z" transform="translate(283.316 382.932)" fill="#b87893"/>
    <path id="Path_862" data-name="Path 862" d="M472.434,434.59H437.35a.7.7,0,1,1,0-1.4h35.084a.7.7,0,1,1,0,1.4Z" transform="translate(281.66 381.275)" fill="#b87893"/>
    <path id="Path_863" data-name="Path 863" d="M468.3,430.45H433.2a.7.7,0,1,1,0-1.4h35.084a.7.7,0,0,1,.7.7.714.714,0,0,1-.686.7Z" transform="translate(280 379.619)" fill="#b87893"/>
    <path id="Path_864" data-name="Path 864" d="M464.158,426.31h-35.1a.714.714,0,0,1-.7-.7.7.7,0,0,1,.7-.7h35.1a.7.7,0,0,1,.7.7A.714.714,0,0,1,464.158,426.31Z" transform="translate(278.344 377.965)" fill="#b87893"/>
    <path id="Path_865" data-name="Path 865" d="M460,422.16H424.92a.7.7,0,0,1-.7-.7.714.714,0,0,1,.7-.7H460a.7.7,0,0,1,0,1.4Z" transform="translate(276.688 376.305)" fill="#b87893"/>
    <path id="Path_866" data-name="Path 866" d="M455.864,418.02H420.78a.7.7,0,0,1-.7-.7.714.714,0,0,1,.7-.7h35.084a.7.7,0,0,1,0,1.4Z" transform="translate(275.032 374.648)" fill="#b87893"/>
    <path id="Path_867" data-name="Path 867" d="M451.724,413.88H416.64a.7.7,0,0,1,0-1.4h35.084a.7.7,0,0,1,0,1.4Z" transform="translate(273.376 372.992)" fill="#b87893"/>
    <path id="Path_868" data-name="Path 868" d="M48.224,458.23H13.14a.714.714,0,0,1-.7-.7.7.7,0,0,1,.7-.7H48.224a.7.7,0,0,1,.7.7.714.714,0,0,1-.7.7Z" transform="translate(111.976 390.732)" fill="#b87893"/>
    <path id="Path_869" data-name="Path 869" d="M52.56,454.08H17.28a.7.7,0,0,1-.7-.7.714.714,0,0,1,.7-.7H52.56a.714.714,0,0,1,.7.7A.7.7,0,0,1,52.56,454.08Z" transform="translate(113.632 389.072)" fill="#b87893"/>
    <path id="Path_870" data-name="Path 870" d="M56.878,449.94H21.43a.7.7,0,0,1,0-1.4H56.878a.714.714,0,0,1,.7.7A.7.7,0,0,1,56.878,449.94Z" transform="translate(115.292 387.416)" fill="#b87893"/>
    <path id="Path_871" data-name="Path 871" d="M61.2,445.8H25.57a.7.7,0,0,1,0-1.4H61.2a.7.7,0,0,1,0,1.4Z" transform="translate(116.948 385.76)" fill="#b87893"/>
    <path id="Path_872" data-name="Path 872" d="M65.522,441.66H29.71a.7.7,0,1,1,0-1.4H65.522a.7.7,0,1,1,0,1.4Z" transform="translate(118.604 384.104)" fill="#b87893"/>
    <path id="Path_873" data-name="Path 873" d="M69.844,437.52H33.85a.7.7,0,1,1,0-1.4H69.844a.7.7,0,1,1,0,1.4Z" transform="translate(120.26 382.447)" fill="#b87893"/>
    <path id="Path_874" data-name="Path 874" d="M74.166,433.4H37.99a.7.7,0,0,1,0-1.4H74.166a.7.7,0,0,1,0,1.4Z" transform="translate(121.916 380.801)" fill="#b87893"/>
    <path id="Path_875" data-name="Path 875" d="M78.5,429.24H42.1a.714.714,0,0,1-.7-.7.7.7,0,0,1,.7-.7H78.5a.7.7,0,1,1,0,1.4Z" transform="translate(123.56 379.137)" fill="#b87893"/>
    <path id="Path_876" data-name="Path 876" d="M82.824,425.1H46.27a.714.714,0,0,1-.7-.7.7.7,0,0,1,.7-.7H82.824a.7.7,0,0,1,.7.7A.714.714,0,0,1,82.824,425.1Z" transform="translate(125.228 377.48)" fill="#b87893"/>
    <path id="Path_877" data-name="Path 877" d="M87.146,420.95H50.41a.7.7,0,0,1-.7-.7.714.714,0,0,1,.7-.7H87.146a.714.714,0,0,1,.7.7A.7.7,0,0,1,87.146,420.95Z" transform="translate(126.884 375.82)" fill="#b87893"/>
    <path id="Path_878" data-name="Path 878" d="M91.464,416.81H54.56a.7.7,0,0,1,0-1.4h36.9a.714.714,0,0,1,.7.7A.7.7,0,0,1,91.464,416.81Z" transform="translate(128.544 374.164)" fill="#b87893"/>
    <path id="Path_879" data-name="Path 879" d="M95.8,412.67H58.7a.7.7,0,0,1,0-1.4H95.8a.7.7,0,0,1,0,1.4Z" transform="translate(130.2 372.508)" fill="#b87893"/>
    <path id="Path_880" data-name="Path 880" d="M122.192,410.23c-21.826,23.212-52.528,56-65.716,70.714H56c14.49-16.156,49.84-53.83,65.8-70.714Z" transform="translate(129.4 372.092)" fill="#fff"/>
    <path id="Path_881" data-name="Path 881" d="M145.538,410.23C128.15,433.2,103.622,465.782,92.59,480.944h-.42c12.152-16.716,40.46-54.236,52.934-70.714Z" transform="translate(143.868 372.092)" fill="#fff"/>
    <path id="Path_882" data-name="Path 882" d="M168.8,410.23c-13.076,22.764-31.584,55.132-40.278,70.714h-.392c9.6-17.248,31.024-54.6,40.264-70.714Z" transform="translate(158.252 372.092)" fill="#fff"/>
    <path id="Path_883" data-name="Path 883" d="M192.02,410.23c-8.89,22.582-21.532,54.74-27.692,70.714h-.378c6.846-17.752,21.518-55.034,27.706-70.714Z" transform="translate(172.58 372.092)" fill="#fff"/>
    <path id="Path_884" data-name="Path 884" d="M215.072,410.23c-3.262,15.12-11.3,52.4-15.2,70.714h-.378c3.906-18.2,11.928-55.44,15.232-70.714Z" transform="translate(186.796 372.092)" fill="#fff"/>
    <path id="Path_885" data-name="Path 885" d="M238.08,410.23c-.588,14.854-2.058,51.968-2.8,70.714h-.35c.8-18.746,2.282-56,2.87-70.714Z" transform="translate(200.972 372.092)" fill="#fff"/>
    <path id="Path_886" data-name="Path 886" d="M273.134,480.944h-.35c-2.492-19.222-7.476-56.392-9.394-70.714h.35C265.644,424.678,270.656,461.708,273.134,480.944Z" transform="translate(212.356 372.092)" fill="#fff"/>
    <path id="Path_887" data-name="Path 887" d="M311.636,480.944h-.378c-5.208-17.36-14.84-49-21.518-70.714h.364C294.6,424.916,305.826,461.61,311.636,480.944Z" transform="translate(222.896 372.092)" fill="#fff"/>
    <path id="Path_888" data-name="Path 888" d="M349.908,480.944H349.6c-9.478-20.146-27.188-57.33-33.6-70.714h.392C324.736,427.814,341.032,462.03,349.908,480.944Z" transform="translate(233.4 372.092)" fill="#fff"/>
    <path id="Path_889" data-name="Path 889" d="M388,480.944H387.6c-13.188-20.594-37.17-57.806-45.486-70.714h.42C359.288,436.228,377.488,464.508,388,480.944Z" transform="translate(243.844 372.092)" fill="#fff"/>
    <path id="Path_890" data-name="Path 890" d="M425.872,480.944h-.434c-17.01-21-47.222-58.3-57.288-70.714h.434C399.328,448.128,416.394,469.212,425.872,480.944Z" transform="translate(254.26 372.092)" fill="#fff"/>
    <path id="Path_891" data-name="Path 891" d="M463.542,480.944h-.49L394.06,410.23h.49Z" transform="translate(264.624 372.092)" fill="#fff"/>
    <path id="Path_892" data-name="Path 892" d="M237.6,217.172v-18.1l21.168.35s1.54,38.206-3.934,52.024-19.054,10.43-20.734,5.208S237.6,217.172,237.6,217.172Z" transform="translate(200.504 287.629)" fill="#ffe482"/>
    <path id="Path_893" data-name="Path 893" d="M238.84,189.628l.994,13.888,14.406.308-4.83-15.764Z" transform="translate(202.536 283.225)" fill="#ed9494"/>
    <path id="Path_894" data-name="Path 894" d="M243.3,199.75l10.57-1.554s3-12.6-1.05-20.076a109.3,109.3,0,0,0-10.808-15.4L227.68,177.364Z" transform="translate(198.072 273.088)" fill="#ed9494"/>
    <path id="Path_895" data-name="Path 895" d="M239.22,178.23a12,12,0,0,1,5.992,5.278" transform="translate(202.688 279.293)" fill="none" stroke="#f86867" stroke-linecap="round" stroke-linejoin="round" stroke-width="0.55"/>
    <path id="Path_896" data-name="Path 896" d="M.9,0H18.368a.9.9,0,0,1,.9.9v29.6a.91.91,0,0,1-.91.91H.9a.9.9,0,0,1-.9-.9V.91A.9.9,0,0,1,.9,0Z" transform="matrix(0.808, -0.589, 0.589, 0.808, 417.226, 435.908)" fill="#373ca6"/>
    <rect id="Rectangle_1008" data-name="Rectangle 1008" width="15.89" height="25.018" rx="0.52" transform="matrix(0.808, -0.589, 0.589, 0.808, 419.666, 436.412)" fill="#fff"/>
    <path id="Path_897" data-name="Path 897" d="M240.662,175.139a1.176,1.176,0,0,1-.252,1.652,1.19,1.19,0,0,1-1.666-.252,1.2,1.2,0,0,1,.266-1.666A1.19,1.19,0,0,1,240.662,175.139Z" transform="translate(202.408 277.861)" fill="#7991d9"/>
    <path id="Path_898" data-name="Path 898" d="M243.99,194.371s-17.024-13.664-17.948-16.408,6.888-2.058,9.492.14,4.816,4.536,7,6.5S243.99,194.371,243.99,194.371Z" transform="translate(197.386 278.467)" fill="#ed9494"/>
    <line id="Line_127" data-name="Line 127" x2="21.378" transform="translate(438.1 493.25)" fill="none" stroke="#373ca6" stroke-linecap="round" stroke-linejoin="round" stroke-width="0.27"/>
    <path id="Path_899" data-name="Path 899" d="M240.032,148.626a36.946,36.946,0,0,1,.8,14.882,10.542,10.542,0,0,1-1.078,4.2,3.794,3.794,0,0,1-3.57,2.058,4.984,4.984,0,0,1-2.17-1.008,22.218,22.218,0,0,1-8.96-14.182c-.728-4.2-.588-13.622,4.438-15.54S238.842,144.818,240.032,148.626Z" transform="translate(196.892 263.494)" fill="#1d1b49"/>
    <path id="Path_900" data-name="Path 900" d="M212.559,185.74s-23.436,11.34-15.624,44.576,15.652,55.65,15.652,55.65l44.576,2.87s8.526-44.058,1.134-57.4-23.31-36.722-23.31-36.722Z" transform="translate(185.136 282.297)" fill="#ffe482"/>
    <path id="Path_901" data-name="Path 901" d="M212.163,257.33s-18.2,35-15.484,57.638,20.566,80.668,20.566,80.668-7.826,47.7-5.474,70.77,9.38,37.156,9.38,37.156l18.774-1.96s14.854-84.462,16.03-111.048.784-130.354.784-130.354Z" transform="translate(185.561 310.932)" fill="#1d1b49"/>
    <path id="Path_902" data-name="Path 902" d="M198.832,309.258c4.116,14.224,8.26,28.434,12.208,42.7,1.946,7.154,3.99,14.252,5.684,21.5a9.8,9.8,0,0,1,.238,1.554l-.224,1.4-.434,2.8-.826,5.474c-.532,3.668-1.05,7.322-1.526,10.99-.938,7.336-1.764,14.686-2.352,22.05a164.114,164.114,0,0,0-.532,22.092c.322,3.612.952,7.28,1.54,10.92s1.26,7.28,1.974,10.906,1.47,7.238,2.394,10.794a46.2,46.2,0,0,0,3.682,10.346h0a.35.35,0,0,1-.14.462.322.322,0,0,1-.434-.126,28.406,28.406,0,0,1-2.38-5.082c-.672-1.75-1.232-3.528-1.75-5.32-1.008-3.57-1.848-7.2-2.632-10.822s-1.4-7.28-2.044-10.934-1.274-7.294-1.568-11.06a164.134,164.134,0,0,1,.644-22.274c.63-7.392,1.484-14.756,2.478-22.092q.742-5.516,1.582-11l.854-5.488.448-2.8.224-1.4c-.084-.392-.084-.7-.21-1.176-1.638-7.182-3.654-14.336-5.6-21.476L198.4,309.37a.21.21,0,1,1,.392-.112Z" transform="translate(186.348 331.623)" fill="#7991d9"/>
    <path id="Path_903" data-name="Path 903" d="M221.639,258s-12.418,33.712-11.69,46.746,17.794,74.032,17.066,82.376-4.368,112.9-3.836,115.374" transform="translate(190.967 311.199)" fill="none" stroke="#7991d9" stroke-linecap="round" stroke-linejoin="round" stroke-width="0.55"/>
    <path id="Path_904" data-name="Path 904" d="M211.38,289.432s20.86-11.41,25.2-30.7" transform="translate(191.552 311.492)" fill="none" stroke="#7991d9" stroke-linecap="round" stroke-linejoin="round" stroke-width="0.55"/>
    <path id="Path_905" data-name="Path 905" d="M220.024,309.24s-17.248,39.69-22.974,50.12-41.2,49.5-52.15,89.6l23.464,13.048,67.592-93.492Z" transform="translate(164.96 331.695)" fill="#1d1b49"/>
    <line id="Line_128" data-name="Line 128" y1="118.104" x2="71.12" transform="translate(321.9 669.496)" fill="none" stroke="#7991d9" stroke-linecap="round" stroke-linejoin="round" stroke-width="0.55"/>
    <path id="Path_906" data-name="Path 906" d="M215.889,439.6s-4.76,5.1-5.8,8.806-.658,13.1,1.89,15.638,19.74-1.4,27.37-.98,34.8-3.71,36.764-7.42-.392-9.394-5.1-9.982-34.608-7.42-34.608-7.42Z" transform="translate(190.823 383.297)" fill="#373ca6"/>
    <path id="Path_907" data-name="Path 907" d="M212.6,441s12.6,10.374,13.37,21.924" transform="translate(192.04 384.4)" fill="none" stroke="#fffdfd" stroke-miterlimit="10" stroke-width="0.27"/>
    <path id="Path_908" data-name="Path 908" d="M244.615,441.6s-3.99,9.8-2.534,18.76" transform="translate(203.705 384.641)" fill="none" stroke="#fffdfd" stroke-miterlimit="10" stroke-width="0.27"/>
    <path id="Path_909" data-name="Path 909" d="M216.054,433.524l-1.974,8.61s12.516,1.4,20.524-1.4l-3.346-8.834Z" transform="translate(192.632 380.76)" fill="#f29f9b"/>
    <path id="Path_910" data-name="Path 910" d="M148.16,414.83s-6.832,1.4-9.8,3.794-8.148,10.29-7.546,13.832,16.87,10.36,22.848,15.106,30.478,17.192,34.23,15.3,5.138-7.868,1.652-11.074-23.8-26.138-23.8-26.138Z" transform="translate(159.306 373.932)" fill="#373ca6"/>
    <path id="Path_911" data-name="Path 911" d="M141.528,415.39s4.2,15.736-1.848,25.62" transform="translate(162.872 374.156)" fill="none" stroke="#fffdfd" stroke-miterlimit="10" stroke-width="0.27"/>
    <path id="Path_912" data-name="Path 912" d="M169.7,434s-8.9,5.6-12.95,13.79" transform="translate(169.7 381.6)" fill="none" stroke="#fffdfd" stroke-miterlimit="10" stroke-width="0.27"/>
    <path id="Path_913" data-name="Path 913" d="M149.8,410.64l-6.608,5.866s9.394,8.4,17.5,10.822l2.408-9.142Z" transform="translate(164.276 372.256)" fill="#f29f9b"/>
    <path id="Path_914" data-name="Path 914" d="M230.458,189.086a123.5,123.5,0,0,0,1.134,15.652,2.8,2.8,0,0,1-3.584,3.052c-6.118-1.862-17.038-6.524-22.778-16.884l8.4-20.244.168-.392,16.8,8.092S230.346,183.08,230.458,189.086Z" transform="translate(189.092 276.107)" fill="#f29f9b"/>
    <path id="Path_915" data-name="Path 915" d="M228.12,178.362s-.182,4.718-.07,10.724c-7.938-1.834-14.714-14.112-16.8-18.424l.168-.392Z" transform="translate(191.5 276.107)" fill="url(#linear-gradient)"/>
    <path id="Path_916" data-name="Path 916" d="M249.205,172.952c0,2.114.2,4.2.28,6.384v.7a43.565,43.565,0,0,1-.476,7.966,7,7,0,0,1-1.54,3.724c-3.584,3.752-12.964.8-17.122-.476a45.906,45.906,0,0,1-16.8-8.974c-12.684-11.2-15.008-36.75,2.8-43.022,9.324-3.262,21.112-2.436,26.488,4.606C249.6,152.638,248.8,162.354,249.205,172.952Z" transform="translate(188.405 262.969)" fill="#f29f9b"/>
    <path id="Path_917" data-name="Path 917" d="M235.54,153.3s6.384,10.066,6.664,12.278-5.81,4.886-5.81,4.886Z" transform="translate(201.216 269.32)" fill="#f29f9b"/>
    <g id="Group_3013" data-name="Group 3013" transform="translate(436.756 422.619)" opacity="0.76">
      <path id="Path_918" data-name="Path 918" d="M235.54,153.3s6.384,10.066,6.664,12.278-5.81,4.886-5.81,4.886Z" transform="translate(-235.54 -153.3)" fill="url(#linear-gradient-2)"/>
    </g>
    <path id="Path_919" data-name="Path 919" d="M232.8,156.792a1.4,1.4,0,1,1-1.666-1.4,1.54,1.54,0,0,1,1.666,1.4Z" transform="translate(199 270.154)" fill="#1d1b49"/>
    <path id="Path_920" data-name="Path 920" d="M226.15,155.519a4.2,4.2,0,0,1,.994-2.632,5.683,5.683,0,0,1,2.352-1.68,6.4,6.4,0,0,1,2.8-.294,6.694,6.694,0,0,1,1.316.322,6.092,6.092,0,0,1,1.19.644.322.322,0,0,1,.084.448.308.308,0,0,1-.168.126h0a8.887,8.887,0,0,1-1.232.266c-.378.1-.756.14-1.12.224a17.658,17.658,0,0,0-1.988.56,11.984,11.984,0,0,0-3.6,2.212h0a.336.336,0,0,1-.476,0,.378.378,0,0,1-.154-.2Z" transform="translate(197.46 268.348)" fill="#1d1b49"/>
    <path id="Path_921" data-name="Path 921" d="M235.793,165.469a8.89,8.89,0,1,1-3.777-5.669A8.89,8.89,0,0,1,235.793,165.469Z" transform="translate(194.271 271.318)" opacity="0.65" fill="url(#linear-gradient-3)"/>
    <path id="Path_922" data-name="Path 922" d="M238.251,167.689v.7a4.9,4.9,0,0,1-.952.28c-2.562.518-5.362-1.4-5.516-1.54a.308.308,0,1,1,.35-.49S235.773,169.131,238.251,167.689Z" transform="translate(199.639 274.615)" fill="#1d1b49"/>
    <path id="Path_923" data-name="Path 923" d="M218.963,160.534s-5.1-14.224-11.508-7.8,1.288,20.916,10.458,17Z" transform="translate(189.037 268.428)" fill="#f29f9b"/>
    <path id="Path_924" data-name="Path 924" d="M214.7,156.74a10.71,10.71,0,0,0-2.282-2.674,2.632,2.632,0,0,0-3.738.2,5.124,5.124,0,0,0-.994,2.8,9.884,9.884,0,0,0,1.148,5.852,5.768,5.768,0,0,0,5.992,2.8" transform="translate(190.05 269.352)" fill="none" stroke="#1d1b49" stroke-linecap="round" stroke-linejoin="round" stroke-width="0.44"/>
    <path id="Path_925" data-name="Path 925" d="M210.06,153.42s3.206,7.854,3.234,12.39" transform="translate(191.024 269.367)" fill="none" stroke="#1d1b49" stroke-linecap="round" stroke-linejoin="round" stroke-width="0.44"/>
    <path id="Path_926" data-name="Path 926" d="M231.032,194.282s15.4,22.4,13.706,25.634S205.23,185,205.23,185Z" transform="translate(189.092 282)" fill="#f29f9b"/>
    <path id="Path_927" data-name="Path 927" d="M224.108,133.492a19.222,19.222,0,0,0-14.91,7.322c-1.4,1.876-2.548,4.018-4.046,5.852a33.389,33.389,0,0,1-8.96,7,35.28,35.28,0,0,0-9,7c-2.45,2.926-3.892,7-2.8,10.612s4.592,6.524,4.3,10.29c-.224,3.052-2.8,5.278-5.208,7.266-5.236,4.424-10.36,10.3-9.954,17.15a12.88,12.88,0,0,0,9.212,11.354c2.226.616,4.62.6,6.79,1.4,3.416,1.274,5.8,4.424,9.03,6.1a12.068,12.068,0,0,0,11.844-.5c3.318-2.114,5.936-6.006,9.87-6.034a14,14,0,0,1,4.354,1.036c2.562.812,5.6,1.162,7.756-.378s3-5.012,2.52-7.9-1.764-5.6-2.366-8.4-.336-6.188,1.806-8.162a20.018,20.018,0,0,1,4.2-2.436,12.6,12.6,0,0,0,5.908-13.762c-.5-2-1.54-3.934-1.4-6.006.14-3.276,2.94-5.684,5.054-8.19a23.31,23.31,0,0,0,5.32-16.6,12.222,12.222,0,0,0-2.8-7.5,13.538,13.538,0,0,0-5.4-3.15,61.6,61.6,0,0,0-21.112-3.36Z" transform="translate(176.402 261.395)" fill="#1d1b49"/>
    <path id="Path_928" data-name="Path 928" d="M220.667,192.706a14.546,14.546,0,0,0-13.594-1.4c-7.966,3.22-18.858,11.438-10.948,31.7,11.774,30.1,60.648,59.038,68.474,59.43s39.886-42.742,39.886-42.742l-9.394-14-33,24.64S241.079,206.706,220.667,192.706Z" transform="translate(184.351 284.094)" fill="#ffe482"/>
    <path id="Path_929" data-name="Path 929" d="M219.247,199.22q7.616,12.292,15.666,24.318c2.7,3.99,5.432,7.966,8.274,11.844a83.257,83.257,0,0,0,9.156,11.032h-.728l32.844-24.22a.336.336,0,0,1,.392.532L252.3,247.338h0a.532.532,0,0,1-.714,0h0a82.966,82.966,0,0,1-9.212-11.284c-2.8-3.92-5.6-7.924-8.19-11.956q-7.966-12.1-15.4-24.472a.308.308,0,0,1,.1-.434.336.336,0,0,1,.364.028Z" transform="translate(194.493 287.66)" fill="#373ca6"/>
    <path id="Path_930" data-name="Path 930" d="M200.21,221.195c4.34,5.04,8.932,9.8,13.594,14.63s9.492,9.31,14.518,13.678a155.608,155.608,0,0,0,15.792,12.04c5.6,3.542,11.41,6.874,17.906,8.4a.172.172,0,0,1-.07.336c-6.65-1.106-12.754-4.2-18.41-7.8a129.46,129.46,0,0,1-15.932-12.138c-5.026-4.4-9.8-9.044-14.434-13.888s-9.03-9.8-13.23-15.008a.182.182,0,0,1,0-.252A.2.2,0,0,1,200.21,221.195Z" transform="translate(186.958 296.457)" fill="#373ca6"/>
    <path id="Path_931" data-name="Path 931" d="M202.05,227.26s7,4.284,8.96,4.746" transform="translate(187.82 298.904)" fill="none" stroke="#373ca6" stroke-linecap="round" stroke-linejoin="round" stroke-width="0.27"/>
    <path id="Path_932" data-name="Path 932" d="M233.19,252.29s12.418-5.824,24.892,0" transform="translate(200.276 307.881)" fill="none" stroke="#373ca6" stroke-linecap="round" stroke-linejoin="round" stroke-width="0.27"/>
    <line id="Line_129" data-name="Line 129" x2="10.822" y2="14.21" transform="translate(475.144 513.396)" fill="none" stroke="#373ca6" stroke-linecap="round" stroke-linejoin="round" stroke-width="0.27"/>
    <path id="Path_933" data-name="Path 933" d="M292.63,219.008a10.413,10.413,0,0,1-.322-1.26,4.507,4.507,0,0,0-.434-1.68,6.5,6.5,0,0,0-1.624-1.316l-.756-1.218c-.238-1.176.266-2.226-.672-3.388a5.053,5.053,0,0,0-1.722-1.4.631.631,0,0,1,0-.28c.518-2.086,8.4-14,4.984-15.9s-14.63,15.4-19.334,19.292-5.6,15.316-5.6,15.316L275,238.846s17.248-11.284,18.55-15.26a6.818,6.818,0,0,0-.924-4.578Z" transform="translate(213.86 284.967)" fill="#f29f9b"/>
    <line id="Line_130" data-name="Line 130" x1="2.52" y2="3.486" transform="translate(498.482 493.74)" fill="none" stroke="#f86867" stroke-linecap="round" stroke-linejoin="round" stroke-width="0.27"/>
    <line id="Line_131" data-name="Line 131" x1="2.142" y2="2.604" transform="translate(501.604 499.383)" fill="none" stroke="#f86867" stroke-linecap="round" stroke-linejoin="round" stroke-width="0.27"/>
    <line id="Line_132" data-name="Line 132" x1="2.002" y2="3.066" transform="translate(504.474 503.932)" fill="none" stroke="#f86867" stroke-linecap="round" stroke-linejoin="round" stroke-width="0.27"/>
    <path id="Path_934" data-name="Path 934" d="M96.92,460.23a1.582,1.582,0,0,1-1.568-1.4L82.192,333.684a1.568,1.568,0,0,1,1.4-1.722,1.6,1.6,0,0,1,1.736,1.4l13.16,125.132a1.554,1.554,0,0,1-1.4,1.722Z" transform="translate(139.874 340.781)" fill="#1d1b49"/>
    <ellipse id="Ellipse_100" data-name="Ellipse 100" cx="55.58" cy="3.276" rx="55.58" ry="3.276" transform="translate(135.812 670.406)" fill="#1d1b49"/>
    <path id="Path_935" data-name="Path 935" d="M31.28,460.127h-.168a1.568,1.568,0,0,1-1.4-1.722L42.844,333.623a1.576,1.576,0,1,1,3.136.322L32.848,458.727a1.568,1.568,0,0,1-1.568,1.4Z" transform="translate(118.882 340.885)" fill="#1d1b49"/>
    <path id="Path_936" data-name="Path 936" d="M102.38,342.536H39.9a1.568,1.568,0,1,1,0-3.136H102.38a1.568,1.568,0,1,1,0,3.136Z" transform="translate(122.332 343.76)" fill="#1d1b49"/>
    <rect id="Rectangle_1009" data-name="Rectangle 1009" width="50.988" height="77.672" transform="translate(148.804 596.01)" fill="#f29f9b"/>
    <rect id="Rectangle_1010" data-name="Rectangle 1010" width="40.012" height="65.198" transform="translate(154.292 602.297)" fill="#fff"/>
    <path id="Path_937" data-name="Path 937" d="M60.688,337.856H33.78v-21.5c1.638-4.2,3.794-9.212,8.218-11.564a4.466,4.466,0,0,1,2.94-.616,3.92,3.92,0,0,1,2.38,2.184c2.8,5.222,3.78,11.088,5.376,16.688a30.8,30.8,0,0,0,5.054,10.864,32.424,32.424,0,0,1,2.94,3.948Z" transform="translate(120.512 329.652)" fill="#7991d9"/>
    <path id="Path_938" data-name="Path 938" d="M69.609,308.057a48.3,48.3,0,0,0-.812-5.068c-.616-2.8-2.184-6.146-5.082-6.258s-4.732,3.178-5.81,5.866c-2.338,5.95-4.69,11.914-7,17.878-.742,1.862-1.47,3.738-2.38,5.53-.21.392-.42.77-.644,1.148-.98,1.68-3.01,3.36-3.5,5.264-.686,2.618,1.218,6.174,3.374,8.4H69.427a2.888,2.888,0,0,0,.168-.364Z" transform="translate(124.695 326.691)" fill="#7991d9"/>
    <circle id="Ellipse_101" data-name="Ellipse 101" cx="5.25" cy="5.25" r="5.25" transform="translate(169.692 607.238)" fill="#7991d9"/>
    <path id="Path_939" data-name="Path 939" d="M42.983,295.778a2.03,2.03,0,0,0-1.6,1.526.728.728,0,0,1-.168.462c-.266.238-.756.126-1.162.084-1.4-.182-2.8.826-2.646,1.89a3.08,3.08,0,0,0-1.5.35.574.574,0,0,0,0,1.036,1.736,1.736,0,0,0,.6.07q7.35-.084,14.686.2c.574,0,1.33,0,1.4-.49s-.588-.714-1.148-.686a9.8,9.8,0,0,1-1.68.154,2.268,2.268,0,0,0-.2-1.218,1.316,1.316,0,0,0-1.232-.644c-.714,0-1.218.7-1.946.658C45.965,297.99,45.307,295.26,42.983,295.778Z" transform="translate(121.235 326.285)" fill="#7991d9"/>
    <path id="Path_940" data-name="Path 940" d="M65.665,292.676v2.282c-3.542-.1-7.1-.126-10.64-.084a1.527,1.527,0,0,1-.616-.07c-.448-.182-.378-.756,0-1.036a3.052,3.052,0,0,1,1.484-.336c-.126-1.064,1.288-2.086,2.66-1.9.392,0,.9.168,1.148-.07a.616.616,0,0,0,.168-.462,2.03,2.03,0,0,1,1.61-1.526c2.31-.546,3.01,2.212,3.444,3.388a1.287,1.287,0,0,0,.742-.182Z" transform="translate(128.639 323.76)" fill="#7991d9"/>
    <path id="Path_941" data-name="Path 941" d="M105.743,283.548c-.1-1.134-1.176-4.816-2.3-4.97h-1.19c-1.526-.238-2.058-2.156-3.234-3.15a4.3,4.3,0,0,0-4.62-.238,4.2,4.2,0,0,1-1.792.686c-.756,0-1.4-.518-2.17-.616a2.576,2.576,0,0,0-2.478,1.512,4.7,4.7,0,0,0-.2,3.038,9.534,9.534,0,0,0,7.112,6.9C98.729,287.608,106.219,288.686,105.743,283.548Z" transform="translate(142.041 317.852)" fill="#b87893"/>
    <path id="Path_942" data-name="Path 942" d="M94.71,277.677a5.6,5.6,0,0,0-2.044,0,2.085,2.085,0,0,0-1.008.462,2.576,2.576,0,0,0-.364,2.562,3.808,3.808,0,0,0,.672,1.47,4.607,4.607,0,0,0,1.946,1.176c1.554.616,6.23,1.26,6.4-1.4C100.45,279.567,96.474,278.013,94.71,277.677Z" transform="translate(143.442 319.033)" fill="#1d1b49"/>
    <path id="Path_943" data-name="Path 943" d="M94.372,284.4a127.555,127.555,0,0,0-11.8,26.726" transform="translate(140.028 321.76)" fill="none" stroke="#1d1b49" stroke-linecap="round" stroke-linejoin="round" stroke-width="0.48"/>
    <path id="Path_944" data-name="Path 944" d="M102.85,289.783c1.4-.784,3.878-2.52,4.326-3.934s-1.526-2.562-2.926-3.024a9.7,9.7,0,0,0-2.632-.1,8.525,8.525,0,0,1-4.858-2.17,20.663,20.663,0,0,0-4.354-3.094c-1.652-.714-3.92-2.142-5.278-.952s-1.4,4.774-1.106,6.622c.392,2.8,1.792,8.274,5.166,9.156a16.2,16.2,0,0,0,5.362-.364A17.276,17.276,0,0,0,102.85,289.783Z" transform="translate(141.35 318.422)" fill="#f29f9b"/>
    <path id="Path_945" data-name="Path 945" d="M83.219,289.65a8.708,8.708,0,0,0,.35,3.738,10.078,10.078,0,0,0,.686,1.918c.21.392,1.288,2.212,1.792,2.044s.2-2.282.112-2.8A8.722,8.722,0,0,0,83.219,289.65Z" transform="translate(140.261 323.859)" fill="#1d1b49"/>
    <path id="Path_946" data-name="Path 946" d="M100.97,283.18a25.479,25.479,0,0,1-5.348,4.018,13.846,13.846,0,0,1-6.342,2,17.753,17.753,0,0,0,6.188-2.282c.966-.532,1.89-1.148,2.8-1.764S100.088,283.88,100.97,283.18Z" transform="translate(142.712 321.271)" fill="#fff"/>
    <path id="Path_947" data-name="Path 947" d="M95.752,281.36a16.66,16.66,0,0,1-2.674,5.1,14.38,14.38,0,0,1-2.03,2.1,9.8,9.8,0,0,1-2.478,1.5,13.808,13.808,0,0,0,2.31-1.694,16.257,16.257,0,0,0,1.932-2.114,22.692,22.692,0,0,0,1.61-2.366A27.7,27.7,0,0,0,95.752,281.36Z" transform="translate(142.428 320.545)" fill="#fff"/>
    <path id="Path_948" data-name="Path 948" d="M89.621,279.42a26.909,26.909,0,0,0-.672,2.8,21.545,21.545,0,0,0-.378,2.8,16.043,16.043,0,0,0,0,2.8,14.742,14.742,0,0,0,.532,2.8,11.059,11.059,0,0,1-.8-2.8,14.167,14.167,0,0,1-.084-2.884,16.618,16.618,0,0,1,1.4-5.516Z" transform="translate(142.273 319.768)" fill="#fff"/>
    <path id="Path_949" data-name="Path 949" d="M90.559,289.169l2.156-.392a.77.77,0,0,0,.364-.14c.252-.21.1-.644-.182-.812a2.606,2.606,0,0,0-.938-.182,2.94,2.94,0,0,1-1.722-.8c-.364-.336-.714-.812-1.2-.784-.252,0-.518.154-.742,0s-.448-.42-.658-.28c-.434.294.462,2.03.672,2.324A2.016,2.016,0,0,0,90.559,289.169Z" transform="translate(142.007 322.297)" fill="#1d1b49"/>
    <path id="Path_950" data-name="Path 950" d="M68.576,283.414c.308-1.092,2.016-4.536,3.15-4.48.392,0,.77.154,1.176.168,1.54,0,2.408-1.75,3.738-2.534a4.3,4.3,0,0,1,4.592.588,4.34,4.34,0,0,0,1.638.994c.742.14,1.5-.252,2.24-.224a2.548,2.548,0,0,1,2.17,1.932,4.634,4.634,0,0,1-.35,3.024,9.478,9.478,0,0,1-8.218,5.6C74.834,288.608,67.218,288.356,68.576,283.414Z" transform="translate(134.366 318.463)" fill="#b87893"/>
    <path id="Path_951" data-name="Path 951" d="M77.7,279.242a5.124,5.124,0,0,1,2,.308,2,2,0,0,1,.924.616,2.6,2.6,0,0,1-.1,2.59,3.85,3.85,0,0,1-.924,1.33,4.648,4.648,0,0,1-2.114.812c-1.652.322-6.37.14-6.048-2.506C71.71,280.082,75.9,279.256,77.7,279.242Z" transform="translate(135.572 319.695)" fill="#1d1b49"/>
    <path id="Path_952" data-name="Path 952" d="M77.36,286.35a127.006,127.006,0,0,1,6.888,28.406" transform="translate(137.944 322.539)" fill="none" stroke="#1d1b49" stroke-linecap="round" stroke-linejoin="round" stroke-width="0.48"/>
    <path id="Path_953" data-name="Path 953" d="M71.224,289.69c-1.176-1.008-3.374-3.164-3.57-4.648s1.946-2.254,3.472-2.436a9.479,9.479,0,0,1,2.618.378A8.526,8.526,0,0,0,78.9,281.7a20.664,20.664,0,0,1,4.844-2.268c1.75-.42,4.2-1.4,5.362,0s.49,4.942-.084,6.706c-.882,2.646-3.234,7.84-6.706,8.106a16.367,16.367,0,0,1-5.208-1.3,17.262,17.262,0,0,1-5.88-3.248Z" transform="translate(134.056 319.48)" fill="#f29f9b"/>
    <path id="Path_954" data-name="Path 954" d="M85.316,292.9a11.536,11.536,0,0,1-2.016,5.376c-.266.35-1.652,1.96-2.114,1.694s.2-2.268.364-2.716a8.68,8.68,0,0,1,3.766-4.354Z" transform="translate(139.41 325.16)" fill="#1d1b49"/>
    <path id="Path_955" data-name="Path 955" d="M71,284c.728.84,1.5,1.638,2.3,2.422s1.6,1.526,2.45,2.226a18.072,18.072,0,0,0,5.684,3.346,14.168,14.168,0,0,1-5.894-3.094A25.522,25.522,0,0,1,71,284Z" transform="translate(135.4 321.6)" fill="#fff"/>
    <path id="Path_956" data-name="Path 956" d="M75.23,282.88a26.218,26.218,0,0,0,.854,2.8,21.88,21.88,0,0,0,1.162,2.618,15.64,15.64,0,0,0,1.526,2.422,13.791,13.791,0,0,0,1.974,2.072,10.138,10.138,0,0,1-2.184-1.918,14,14,0,0,1-1.61-2.422,16.422,16.422,0,0,1-1.722-5.572Z" transform="translate(137.092 321.152)" fill="#fff"/>
    <path id="Path_957" data-name="Path 957" d="M80.432,281.77A16.8,16.8,0,0,1,80.8,287.5a15.093,15.093,0,0,1-.6,2.8,11.046,11.046,0,0,1-1.274,2.576,13.917,13.917,0,0,0,1.022-2.66,17.165,17.165,0,0,0,.532-2.8,21.354,21.354,0,0,0,.126-2.8A27.907,27.907,0,0,0,80.432,281.77Z" transform="translate(138.568 320.707)" fill="#fff"/>
    <path id="Path_958" data-name="Path 958" d="M78.7,291.111l-2.058-.77a.686.686,0,0,1-.322-.2c-.21-.252,0-.644.322-.756a2.184,2.184,0,0,1,.952,0,3.094,3.094,0,0,0,1.848-.49c.406-.28.84-.672,1.316-.56.252,0,.476.252.728.2s.5-.35.686-.168-.812,1.918-1.064,2.17a2.03,2.03,0,0,1-2.408.574Z" transform="translate(137.496 323.322)" fill="#1d1b49"/>
    <path id="Path_959" data-name="Path 959" d="M101.918,345.27H69.69l2.6-14.378.35-1.89,1.232-6.874.42-2.408,1.722-9.422.462-2.632,1.428-7.9H94.736l.14.84.294,1.876,2.324,14.658.238,1.638,1.792,11.354.252,1.61.91,5.81.266,1.638Z" transform="translate(134.876 327.908)" fill="#7991d9"/>
    <path id="Path_960" data-name="Path 960" d="M93.378,302.23a14,14,0,0,1-5.81,3.206,26.839,26.839,0,0,1-4.2.658,19.209,19.209,0,0,0-5.25,1.064,10.793,10.793,0,0,0-3.948,2.94l.462-2.632a10.949,10.949,0,0,1,2.9-1.764,20.552,20.552,0,0,1,5.6-1.162,26.442,26.442,0,0,0,3.934-.616,12.6,12.6,0,0,0,5.908-3.514Z" transform="translate(136.668 328.164)" fill="#f29f9b"/>
    <path id="Path_961" data-name="Path 961" d="M96.536,313.826a13.313,13.313,0,0,1-3.3,1.162,24.556,24.556,0,0,1-8.218-.224c-3.178-.434-6.188-.868-8.974.182a9.366,9.366,0,0,0-3.36,2.212l.448-2.422a9.927,9.927,0,0,1,2.394-1.288c3.15-1.19,6.5-.728,9.8-.266a23.8,23.8,0,0,0,7.686.238,12.18,12.18,0,0,0,3.388-1.26Z" transform="translate(136.072 332.863)" fill="#f29f9b"/>
    <path id="Path_962" data-name="Path 962" d="M99.016,323.789a10.865,10.865,0,0,1-2.8.658,19.6,19.6,0,0,1-7.294-1.26l-.532-.154c-4.032-1.246-8.4-2.282-12.6-1.568a13.1,13.1,0,0,0-4.2,1.47l.35-1.89a13.063,13.063,0,0,1,3.626-1.134c4.592-.77,9.324.392,13.356,1.61l.532.168a18.033,18.033,0,0,0,6.692,1.19,8.679,8.679,0,0,0,2.674-.7Z" transform="translate(135.636 335.865)" fill="#f29f9b"/>
    <path id="Path_963" data-name="Path 963" d="M100.464,328.4a16.876,16.876,0,0,1-2.52,1.148,35.715,35.715,0,0,1-10.836,1.6c-1.4,0-2.674.1-4,.21a19.909,19.909,0,0,0-9.8,3.122H70.84c2.618-2.632,6.79-4.2,12.166-4.69,1.4-.112,2.7-.168,4.074-.224a34.216,34.216,0,0,0,10.36-1.484,17.961,17.961,0,0,0,2.8-1.316Z" transform="translate(135.336 338.703)" fill="#f29f9b"/>
    <path id="Path_964" data-name="Path 964" d="M92.668,300.022c0,.49-3.822.882-8.554.882s-8.554-.392-8.554-.882,3.836-.882,8.554-.882S92.668,299.546,92.668,300.022Z" transform="translate(137.224 327.656)" fill="#1d1b49"/>
    <path id="Path_965" data-name="Path 965" d="M491.26,353.3c-.364,4.886-.812,9.8-1.4,14.616a2.154,2.154,0,0,1-.07.658c-.84,7.574-1.834,15.036-2.912,22.162a4.82,4.82,0,0,1-.126.784c-.28,1.806-.56,3.584-.854,5.348a4.205,4.205,0,0,1-.112.714c-3.458,21.154-7.448,38.7-9.45,47.068a6.888,6.888,0,0,1-6.706,5.264H416.038a7.084,7.084,0,0,1-6.846-5.208c-3.234-11.746-5.446-29.988-6.93-47.11v-.672q-.182-2.282-.378-4.536v-.63c-.644-8.12-1.12-15.764-1.4-22.064v-.63c-.518-9.478-.714-15.764-.714-15.764Z" transform="translate(266.908 349.32)" fill="#ff5757"/>
    <ellipse id="Ellipse_102" data-name="Ellipse 102" cx="45.836" cy="6.174" rx="45.836" ry="6.174" transform="translate(666.496 696.445)" fill="#1d1b49"/>
    <path id="Path_966" data-name="Path 966" d="M489.756,363.743a2.155,2.155,0,0,1-.07.658c-13.09,5.908-27.93,7.84-41.72,7.84a183.08,183.08,0,0,1-47.8-6.72q0-.315,0-.63h.1c.518.154,52.15,15.75,89.362-1.148A.2.2,0,0,1,489.756,363.743Z" transform="translate(267.068 353.492)" fill="#3b42bf"/>
    <path id="Path_967" data-name="Path 967" d="M485.242,384.42a4.205,4.205,0,0,1-.112.714c-12.068,4.62-25.312,6.174-37.716,6.174a186.537,186.537,0,0,1-45.864-6.16v-.672C410.58,386.968,452.454,397.132,485.242,384.42Z" transform="translate(267.62 361.768)" fill="#3b42bf"/>
    <path id="Path_968" data-name="Path 968" d="M484.92,384.568a6.538,6.538,0,0,1-5.278-.812,1,1,0,0,0-.2-.14,13.649,13.649,0,0,0,2.464-5.88,6.51,6.51,0,0,0-.616-4.872A3.682,3.682,0,0,0,478.8,371.3a2.7,2.7,0,0,0-2.114.546,4.2,4.2,0,0,0-1.19,2.8,10.654,10.654,0,0,0,3.066,9,7.62,7.62,0,0,1-.728.77,8.064,8.064,0,0,1-7.084,2.184,9.576,9.576,0,0,1-5.32-3.668,16.2,16.2,0,0,0,1.9-4.732,6.327,6.327,0,0,0,0-3.542,2.982,2.982,0,0,0-2.884-2.086c-1.68.168-2.59,2.044-2.576,3.724a10.752,10.752,0,0,0,2.212,5.922l.546.756a11.859,11.859,0,0,1-3.178,3.332,8.918,8.918,0,0,1-9.338.658,8.2,8.2,0,0,1-2.142-1.876,10.3,10.3,0,0,0,1.274-9.7,2.8,2.8,0,0,0-1.4-1.68,2.17,2.17,0,0,0-2.576,1.05,4.872,4.872,0,0,0-.49,2.7,13.917,13.917,0,0,0,2.366,7.616c-.154.168-.294.336-.448.49a8.4,8.4,0,0,1-9.8,1.568,6.892,6.892,0,0,1-1.484-1.12,11.606,11.606,0,0,0,1.554-7.2c-.126-1.316-.826-2.674-2.03-2.674h-.14a2.3,2.3,0,0,0-1.764,1.638,8.078,8.078,0,0,0,1.582,8.3,8.09,8.09,0,0,1-.882,1.064,7.826,7.826,0,0,1-8.092,2.1,8.958,8.958,0,0,1-3.416-2.436,12.512,12.512,0,0,1-1.876-2.716c.154-.154.308-.294.448-.448,2.7-2.9,3.92-7.546,1.3-10.332a2.128,2.128,0,0,0-1.092-.686c-1.19-.238-2.058.98-2.38,2.24a13.817,13.817,0,0,0,.938,9.086c-2.408,2.128-5.964,3.346-8.75,1.834a7.433,7.433,0,0,1-2.8-2.954,11.3,11.3,0,0,1-1.134-2.8,16.8,16.8,0,0,0,3.738-6.426,3.612,3.612,0,0,0-.2-2.632,1.568,1.568,0,0,0-1.022-.742c-1.176-.266-2.1.826-2.576,1.932a12.516,12.516,0,0,0-.644,7.7c-.406.476-.826.924-1.232,1.4a12.165,12.165,0,0,1-4.2,3.36,4.747,4.747,0,0,1-1.554.336v.63a5.419,5.419,0,0,0,1.736-.378,12.6,12.6,0,0,0,4.48-3.528l.966-1.078a11.741,11.741,0,0,0,1.092,2.548,8.3,8.3,0,0,0,3.08,3.206c3,1.624,6.762.392,9.352-1.806a12.825,12.825,0,0,0,1.9,2.688,9.408,9.408,0,0,0,3.668,2.6,7.283,7.283,0,0,0,2.52.434,8.805,8.805,0,0,0,6.244-2.688,8.61,8.61,0,0,0,.854-1.036,7.667,7.667,0,0,0,1.54,1.134,9.058,9.058,0,0,0,10.542-1.68,3.747,3.747,0,0,0,.392-.42,8.4,8.4,0,0,0,2.226,1.932,9.576,9.576,0,0,0,10-.686,12.488,12.488,0,0,0,3.248-3.332,10.052,10.052,0,0,0,5.6,3.724,8.694,8.694,0,0,0,7.644-2.338,11.06,11.06,0,0,0,.784-.826l.238.168a7.182,7.182,0,0,0,5.782.91,7.457,7.457,0,0,0,1.148-.42,3.97,3.97,0,0,1,.126-.784A5.6,5.6,0,0,1,484.92,384.568Zm-75.474-12.1c.336-.77.938-1.6,1.652-1.6h.21a.952.952,0,0,1,.616.448,2.968,2.968,0,0,1,.14,2.142,15.751,15.751,0,0,1-3.318,5.824,11.913,11.913,0,0,1,.714-6.818Zm12.712,11.074a13.188,13.188,0,0,1-.826-8.47c.2-.756.728-1.792,1.47-1.792h.168a1.484,1.484,0,0,1,.756.5c2.338,2.478,1.148,6.846-1.3,9.464Zm14.9,2.044a7.462,7.462,0,0,1-1.4-7.518c.182-.434.6-1.19,1.246-1.246h.084c.868,0,1.316,1.274,1.4,2.114a10.92,10.92,0,0,1-1.316,6.65Zm10.43-8.106a4.438,4.438,0,0,1,.392-2.352,1.75,1.75,0,0,1,1.4-.882,1.12,1.12,0,0,1,.42.084,2.282,2.282,0,0,1,1.008,1.4,9.8,9.8,0,0,1-1.078,8.932,13.3,13.3,0,0,1-2.128-7.182Zm17.556,5.04c-.14-.168-.266-.35-.392-.532a10.15,10.15,0,0,1-2.1-5.6c0-1.4.742-2.968,2.016-3.094h.168a2.408,2.408,0,0,1,2.058,1.68,5.866,5.866,0,0,1,0,3.192,16.111,16.111,0,0,1-1.75,4.354Zm14,.756a9.968,9.968,0,0,1-2.8-8.4,3.612,3.612,0,0,1,.966-2.436,1.918,1.918,0,0,1,1.26-.434h.364a3.052,3.052,0,0,1,2.044,1.3,5.936,5.936,0,0,1,.532,4.41,13.146,13.146,0,0,1-2.422,5.488Z" transform="translate(267.48 356.076)" fill="#3b42bf"/>
    <path id="Path_969" data-name="Path 969" d="M438.034,390.714s-13.342-34.762,1.9-66.234,35.756-64.4,35.756-64.4,6.188,42.518,0,73.5S438.034,390.714,438.034,390.714Z" transform="translate(280.052 312.031)" fill="#7991d9"/>
    <path id="Path_970" data-name="Path 970" d="M436.49,390.73s31.458-99.4,37.66-130.69" transform="translate(281.596 312.016)" fill="none" stroke="#1d1b49" stroke-miterlimit="10" stroke-width="0.25"/>
    <path id="Path_971" data-name="Path 971" d="M454.32,275.31l4.032,12.852,10.99-9.114" transform="translate(288.728 318.123)" fill="none" stroke="#1d1b49" stroke-miterlimit="10" stroke-width="0.25"/>
    <path id="Path_972" data-name="Path 972" d="M448.58,285.48l6.454,18.284,17-9.142" transform="translate(286.432 322.191)" fill="none" stroke="#1d1b49" stroke-miterlimit="10" stroke-width="0.25"/>
    <path id="Path_973" data-name="Path 973" d="M443.14,295.6l9.52,19.306,20.79-9.646" transform="translate(284.256 326.24)" fill="none" stroke="#1d1b49" stroke-miterlimit="10" stroke-width="0.25"/>
    <path id="Path_974" data-name="Path 974" d="M437.86,306.08l12.194,20.594,22.792-8.288" transform="translate(282.144 330.432)" fill="none" stroke="#1d1b49" stroke-miterlimit="10" stroke-width="0.25"/>
    <path id="Path_975" data-name="Path 975" d="M433.49,319.87l12.88,19.082,21.672-9.548" transform="translate(280.396 335.947)" fill="none" stroke="#1d1b49" stroke-miterlimit="10" stroke-width="0.25"/>
    <path id="Path_976" data-name="Path 976" d="M432.71,333.5l9.422,14.686,16.716-9.338" transform="translate(280.084 341.4)" fill="none" stroke="#1d1b49" stroke-miterlimit="10" stroke-width="0.25"/>
    <path id="Path_977" data-name="Path 977" d="M449.062,368.314s-4.788-23-23.618-34.5S384.48,311.81,384.48,311.81s11.2,24.682,25.074,39S449.062,368.314,449.062,368.314Z" transform="translate(260.792 332.725)" fill="#7991d9"/>
    <path id="Path_978" data-name="Path 978" d="M449.062,368.314s-50.6-42-64.582-56.5" transform="translate(260.792 332.725)" fill="none" stroke="#1d1b49" stroke-miterlimit="10" stroke-width="0.16"/>
    <path id="Path_979" data-name="Path 979" d="M396.412,316.81l2.24,8.2-8.932-1.092" transform="translate(262.888 334.725)" fill="none" stroke="#1d1b49" stroke-miterlimit="10" stroke-width="0.16"/>
    <path id="Path_980" data-name="Path 980" d="M403.684,320.26l2.814,11.9-12.138.952" transform="translate(264.744 336.104)" fill="none" stroke="#1d1b49" stroke-miterlimit="10" stroke-width="0.16"/>
    <path id="Path_981" data-name="Path 981" d="M411.016,323.77l1.54,13.5L398.22,339.24" transform="translate(266.288 337.508)" fill="none" stroke="#1d1b49" stroke-miterlimit="10" stroke-width="0.16"/>
    <path id="Path_982" data-name="Path 982" d="M417.844,327.53l.546,15.092-14.91,3.388" transform="translate(268.392 339.012)" fill="none" stroke="#1d1b49" stroke-miterlimit="10" stroke-width="0.16"/>
    <path id="Path_983" data-name="Path 983" d="M425.068,333.36l-.322,14.518-14.756,2.338" transform="translate(270.996 341.344)" fill="none" stroke="#1d1b49" stroke-miterlimit="10" stroke-width="0.16"/>
    <path id="Path_984" data-name="Path 984" d="M429.274,340.32l.014,11.018-12.068.756" transform="translate(273.888 344.129)" fill="none" stroke="#1d1b49" stroke-miterlimit="10" stroke-width="0.16"/>
    <path id="Path_985" data-name="Path 985" d="M418.942,299.19s-21.588-14.1-18.018-33.6c0,0,15.3,6.2,18.018,15.26a36.469,36.469,0,0,1,0,18.34Z" transform="translate(267.21 314.236)" fill="#b87893"/>
    <path id="Path_986" data-name="Path 986" d="M418.126,312.028s-2.8-18.886,12.768-32.3c0,0,4.536,8.022,1.862,16.142S418.126,312.028,418.126,312.028Z" transform="translate(274.172 319.893)" fill="#b87893"/>
    <path id="Path_987" data-name="Path 987" d="M422.8,328.638s-2.73-18.872,12.768-32.3c0,0,4.55,8.022,1.876,16.156S422.8,328.638,422.8,328.638Z" transform="translate(276.047 326.535)" fill="#b87893"/>
    <path id="Path_988" data-name="Path 988" d="M426.386,344.018s-2.8-18.886,12.768-32.3c0,0,4.536,8.022,1.862,16.156S426.386,344.018,426.386,344.018Z" transform="translate(277.476 332.688)" fill="#b87893"/>
    <path id="Path_989" data-name="Path 989" d="M427.964,313.206s-8.848-16.9-29.274-18.676c0,0,1.022,9.156,7.952,14.182S427.964,313.206,427.964,313.206Z" transform="translate(266.476 325.813)" fill="#b87893"/>
    <path id="Path_990" data-name="Path 990" d="M432.594,330.4s-8.848-16.9-29.274-18.676c0,0,1.022,9.156,7.952,14.182S432.594,330.4,432.594,330.4Z" transform="translate(268.328 332.688)" fill="#b87893"/>
    <path id="Path_991" data-name="Path 991" d="M409.58,278.58s23.94,58.8,26.082,104.5" transform="translate(270.832 319.432)" fill="none" stroke="#1d1b49" stroke-linecap="round" stroke-linejoin="round" stroke-width="0.5"/>
    <path id="Path_992" data-name="Path 992" d="M463.465,309.952s21.7-8.218,22.4-26.082c0,0-14.644,2.492-18.774,9.926a32.941,32.941,0,0,0-3.626,16.156Z" transform="translate(292.379 321.549)" fill="#b87893"/>
    <path id="Path_993" data-name="Path 993" d="M459.855,322.06a34.384,34.384,0,0,0-4.97-30.8s-5.6,6.16-4.76,13.818S459.855,322.06,459.855,322.06Z" transform="translate(287.015 324.504)" fill="#b87893"/>
    <path id="Path_994" data-name="Path 994" d="M452.539,335.8a34.44,34.44,0,0,0-4.984-30.8s-5.6,6.174-4.76,13.832S452.539,335.8,452.539,335.8Z" transform="translate(284.083 330)" fill="#b87893"/>
    <path id="Path_995" data-name="Path 995" d="M446.429,348.58s6.048-16.072-4.984-30.8c0,0-5.6,6.16-4.76,13.818S446.429,348.58,446.429,348.58Z" transform="translate(281.639 335.111)" fill="#b87893"/>
    <path id="Path_996" data-name="Path 996" d="M454.73,320.563a34.37,34.37,0,0,1,29.33-10.752s-2.66,7.854-9.73,10.92S454.73,320.563,454.73,320.563Z" transform="translate(288.892 331.824)" fill="#b87893"/>
    <path id="Path_997" data-name="Path 997" d="M447.34,334.775a34.412,34.412,0,0,1,29.4-10.752s-2.66,7.854-9.8,10.92S447.34,334.775,447.34,334.775Z" transform="translate(285.936 337.508)" fill="#b87893"/>
    <path id="Path_998" data-name="Path 998" d="M481.52,293.62s-32.424,47.1-43.12,86.8" transform="translate(282.36 325.447)" fill="none" stroke="#1d1b49" stroke-linecap="round" stroke-linejoin="round" stroke-width="0.45"/>
    <g id="Group_3024" data-name="Group 3024" transform="translate(43.327 69.588)">
      <path id="Path_999" data-name="Path 999" d="M62.318,130.469c-2.061-5.673-.756-12.934,3.782-20.8C76.8,91.156,96.033,79,113.429,69.6l.378.7C96.6,79.641,77.388,91.686,66.761,110.066c-3.063,5.313-6.2,13.123-3.782,20.1Z" transform="translate(30.165 -7.993)" fill="#1d1b49"/>
      <path id="Path_1000" data-name="Path 1000" d="M94.557,80.32a12.461,12.461,0,0,0,6.713-4.727,5.805,5.805,0,0,0-.964-7.564,7.564,7.564,0,0,0-6.221-.511A22.048,22.048,0,0,0,80.243,78.864c-.416.851-.794,1.74-1.153,2.628a25.867,25.867,0,0,0-1.74,4.519C83,83.95,88.885,82.362,94.557,80.32Z" transform="translate(44.404 -10.241)" fill="#f29f9b"/>
      <path id="Path_1001" data-name="Path 1001" d="M66.839,88.925l-.189-.775a106.477,106.477,0,0,1,36.759-2.8v.775a105.891,105.891,0,0,0-36.57,2.8Z" transform="translate(34.871 5.585)" fill="#1d1b49"/>
      <path id="Path_1002" data-name="Path 1002" d="M95.308,92.682a12.594,12.594,0,0,0,8.169-.927,5.824,5.824,0,0,0,2.78-7.11,7.45,7.45,0,0,0-5.219-3.423A21.935,21.935,0,0,0,83.49,84.495c-.794.548-1.551,1.135-2.288,1.74a28.363,28.363,0,0,0-3.782,3.139C83.433,90.262,89.333,91.737,95.308,92.682Z" transform="translate(44.466 1.826)" fill="#f29f9b"/>
      <path id="Path_1003" data-name="Path 1003" d="M63.985,104.464H63.21A93.885,93.885,0,0,1,69,78.18l.737.3a93.033,93.033,0,0,0-5.748,25.981Z" transform="translate(31.807 -0.349)" fill="#1d1b49"/>
      <path id="Path_1004" data-name="Path 1004" d="M75.651,81.505a12.575,12.575,0,0,0,2.061-7.961,5.805,5.805,0,0,0-5.673-5.124,7.45,7.45,0,0,0-5.087,3.631,22.048,22.048,0,0,0-3.215,17.567c.227.927.529,1.891.813,2.761a29.138,29.138,0,0,0,1.607,4.576C69.146,91.716,72.644,86.743,75.651,81.505Z" transform="translate(31.732 -9.045)" fill="#f29f9b"/>
      <path id="Path_1005" data-name="Path 1005" d="M56.25,144.084l-.567-.624c5.9-5.332,6.883-14.276,6.656-20.8C61.6,99.968,49.65,78.923,38.04,61.394l.7-.454c11.667,17.623,23.693,38.745,24.45,61.682C63.492,132.265,61.09,139.7,56.25,144.084Z" transform="translate(9.382 -15.706)" fill="#1d1b49"/>
      <path id="Path_1006" data-name="Path 1006" d="M40.336,73.2a13.236,13.236,0,0,1-3.952-7.847A6.221,6.221,0,0,1,41.093,58.7a8,8,0,0,1,6.145,2.666A23.636,23.636,0,0,1,54.594,78.99c0,1.021-.132,2.042-.227,3.063a30.6,30.6,0,0,1-.643,5.143C49.451,82.413,44.667,78.007,40.336,73.2Z" transform="translate(7.88 -17.703)" fill="#f29f9b"/>
      <path id="Path_1007" data-name="Path 1007" d="M66.105,98.732A113.152,113.152,0,0,0,33.09,77.705l.321-.775A114.154,114.154,0,0,1,66.673,98.108Z" transform="translate(4.972 -1.463)" fill="#1d1b49"/>
      <path id="Path_1008" data-name="Path 1008" d="M35.47,85.011a13.425,13.425,0,0,1-7.242-4.992,6.2,6.2,0,0,1,.964-8.093,7.9,7.9,0,0,1,6.656-.605,23.523,23.523,0,0,1,14.9,11.932c.454.908.87,1.891,1.267,2.8a27.494,27.494,0,0,1,1.891,4.822C47.874,88.717,41.578,87.147,35.47,85.011Z" transform="translate(-0.32 -6.875)" fill="#f29f9b"/>
      <path id="Path_1009" data-name="Path 1009" d="M51.676,108.138l-.756-.359c0-.132,6.5-14.3,7.715-27.418h.832C58.257,93.71,51.752,108.043,51.676,108.138Z" transform="translate(20.857 1.595)" fill="#1d1b49"/>
      <path id="Path_1010" data-name="Path 1010" d="M53.609,81.248a13.425,13.425,0,0,1,2.08-8.547,6.2,6.2,0,0,1,7.9-1.891,7.98,7.98,0,0,1,2.95,5.994,23.561,23.561,0,0,1-5.824,18.172c-.681.775-1.418,1.494-2.156,2.193a30.405,30.405,0,0,1-3.782,3.517C54.592,94.125,53.8,87.677,53.609,81.248Z" transform="translate(23.198 -7.539)" fill="#f29f9b"/>
      <path id="Path_1011" data-name="Path 1011" d="M133.167,104.005a49.9,49.9,0,0,1-.359,6.089,8.076,8.076,0,0,1-.227,1.891,52.6,52.6,0,0,1-3.044,11.346c-.189.492-.4,1-.624,1.494a50.373,50.373,0,0,1-6.221,10.721c0,.132-.189.246-.284.378l-.567.737c-.473.605-.945,1.191-1.456,1.759a52.057,52.057,0,0,1-11.932,10.173,2.833,2.833,0,0,1-.435.284,52.473,52.473,0,0,1-45,4.519h0c-1.248-.454-2.477-.964-3.687-1.513a52.775,52.775,0,0,1-10.892-6.788l-.492-.416a52.189,52.189,0,0,1-16.527-23.164c-.189-.511-.378-1.059-.548-1.588a50.487,50.487,0,0,1-2.042-9.322,2.45,2.45,0,0,0-.095-.813,53.135,53.135,0,0,1-.321-5.786c0-1.191,0-2.383.113-3.555a6.369,6.369,0,0,1,.132-1.588c.095-.983.208-1.891.378-2.912H132.543A51.45,51.45,0,0,1,133.167,104.005Z" transform="translate(0.803 15.484)" fill="#76bffb"/>
      <path id="Path_1012" data-name="Path 1012" d="M47.481,134.892c-.246-1.361-.492-2.78-.624-4.141a50.922,50.922,0,0,1,.265-9.133c.189-2.1.378-4.236.378-6.353a21.9,21.9,0,0,0-1.1-7.318,11.156,11.156,0,0,0-8.49-6.864,8.6,8.6,0,0,0-8.377,2.969,9.245,9.245,0,0,0-.927,1.38,2.342,2.342,0,0,0,.095.813,10.438,10.438,0,0,1,1.21-1.891,7.942,7.942,0,0,1,6.3-2.95,9.59,9.59,0,0,1,1.626.132,10.835,10.835,0,0,1,5.011,2.326,9.889,9.889,0,0,1,3.12,4.311c1.513,4.273,1.1,8.944.681,13.463a51.715,51.715,0,0,0-.265,9.209c.132,1.4.378,2.817.624,4.179a36.232,36.232,0,0,1,.681,5.295l.492.416A35.285,35.285,0,0,0,47.481,134.892Z" transform="translate(0.981 19.9)" fill="#3b42bf"/>
      <path id="Path_1013" data-name="Path 1013" d="M77.744,106.779a19.684,19.684,0,0,0-14.276-4.652c-11.648,1.04-15.373,14.239-16.224,18.266a14.447,14.447,0,0,0-.227,7.393,5.673,5.673,0,0,0,5.011,4.16,3.251,3.251,0,0,0,.737,0,7.923,7.923,0,0,0,3.441-1.891c.378-.321.775-.643,1.172-.927a19.439,19.439,0,0,1,9.1-2.742A25.528,25.528,0,0,0,74.34,124.5a11.875,11.875,0,0,0,6.618-9.852,9.8,9.8,0,0,0-3.215-7.866ZM74.132,123.8a25.32,25.32,0,0,1-7.734,1.891,20.044,20.044,0,0,0-9.284,2.817c-.416.3-.832.643-1.21.964a7.563,7.563,0,0,1-3.233,1.891,5.03,5.03,0,0,1-5.219-3.782,8.736,8.736,0,0,1-.359-2.628,21.991,21.991,0,0,1,.605-4.538c.851-3.933,4.5-16.886,15.808-17.888h1.456A18.909,18.909,0,0,1,77.4,107.1a9.209,9.209,0,0,1,3.082,7.3,11.345,11.345,0,0,1-6.353,9.474Z" transform="translate(17.046 20.936)" fill="#3b42bf"/>
      <path id="Path_1014" data-name="Path 1014" d="M72.524,121.243c-2.193-2.723-8.641-3.309-12.026-1.891s-5.937,5.673-5.313,8.831c.284,1.343,1.38,3.631,5.673,3.782H61.1a14.39,14.39,0,0,0,6.2-1.664,12.2,12.2,0,0,0,4.633-3.385C73.961,124.193,73.375,122.34,72.524,121.243Zm-.983,5.408a11.5,11.5,0,0,1-4.463,3.29,13.841,13.841,0,0,1-6.221,1.626c-2.931,0-4.784-1.286-5.2-3.385-.586-2.95,1.759-6.826,5.03-8.3a11.006,11.006,0,0,1,4.292-.775c2.855,0,5.881.813,7.167,2.42s.889,3.12-.605,5.162Z" transform="translate(24.572 35.666)" fill="#3b42bf"/>
      <path id="Path_1015" data-name="Path 1015" d="M89.109,103.238a6.108,6.108,0,0,0-4.652-2.628h-.492c-4.009,0-7.809,4.784-9.3,7.375a10.079,10.079,0,0,0-1.38,3.782,13.877,13.877,0,0,0,0,2.345v1.059a14.3,14.3,0,0,1-1.891,7.356,7.163,7.163,0,0,1-.378.643,9.454,9.454,0,0,0-1.078,2.231,3.063,3.063,0,0,0,.756,3.158,2.477,2.477,0,0,0,1.569.511,6.127,6.127,0,0,0,2.78-.87,31.541,31.541,0,0,0,14.806-18.7A7.564,7.564,0,0,0,89.109,103.238Zm.4,6.164A30.954,30.954,0,0,1,74.87,127.82c-1.153.643-2.761,1.248-3.782.4a2.591,2.591,0,0,1-.605-2.666,8.358,8.358,0,0,1,1.04-2.1l.378-.643a14.919,14.919,0,0,0,1.891-7.564v-1.078a12.781,12.781,0,0,1,0-2.25,9.455,9.455,0,0,1,1.324-3.649c1.456-2.534,5.105-7.167,8.906-7.167h.435a5.673,5.673,0,0,1,4.292,2.439,7.091,7.091,0,0,1,.719,5.824Z" transform="translate(37.656 19.635)" fill="#3b42bf"/>
      <path id="Path_1016" data-name="Path 1016" d="M84.81,117.086a6.524,6.524,0,0,0-6.127-.454,15.487,15.487,0,0,0-5.219,4.671,15.676,15.676,0,0,0-3.025,6.259,8.6,8.6,0,0,0,.17,3.252,2.835,2.835,0,0,0,.435-.284,8.149,8.149,0,0,1-.208-1.777,7.206,7.206,0,0,1,0-1.116,17.793,17.793,0,0,1,7.866-10.57,5.673,5.673,0,0,1,2.383-.548,6.561,6.561,0,0,1,3.328.983,4.2,4.2,0,0,1,.511.359c0-.132.208-.246.284-.378A5.162,5.162,0,0,0,84.81,117.086Z" transform="translate(38.174 33.413)" fill="#3b42bf"/>
      <path id="Path_1017" data-name="Path 1017" d="M132.16,98.512c0,2.95-23.126,5.332-51.66,5.332s-51.66-2.477-51.66-5.332S51.966,93.18,80.5,93.18,132.16,95.468,132.16,98.512Z" transform="translate(1.186 13.015)" fill="#1d1b49"/>
      <path id="Path_1018" data-name="Path 1018" d="M137.36,124.943c-15.127-12.556-33.431-25.792-54.477-28.78-6.089-.851-14.5-.851-20.044,4.084l-.529-.586c4.576-4.065,11.724-5.54,20.668-4.273,21.254,3.007,39.709,16.319,54.837,28.95Z" transform="translate(31.005 14.589)" fill="#1d1b49"/>
      <path id="Path_1019" data-name="Path 1019" d="M102.746,116.533a12.5,12.5,0,0,0,6.9,4.481,5.824,5.824,0,0,0,6.656-3.782,7.564,7.564,0,0,0-1.891-5.975,22.067,22.067,0,0,0-15.638-8.6,24.517,24.517,0,0,1-2.874-.113,27.514,27.514,0,0,0-4.841,0C95.125,107.135,98.718,112.033,102.746,116.533Z" transform="translate(56.618 21.259)" fill="#f29f9b"/>
      <path id="Path_1020" data-name="Path 1020" d="M94.135,129.46A105.607,105.607,0,0,0,77.93,96.634l.624-.454a106.705,106.705,0,0,1,16.338,33.053Z" transform="translate(44.921 15.689)" fill="#1d1b49"/>
      <path id="Path_1021" data-name="Path 1021" d="M87.139,123.476a12.348,12.348,0,0,0,3.914,7.223,5.805,5.805,0,0,0,7.564,0,7.564,7.564,0,0,0,1.229-6.127,22.01,22.01,0,0,0-9.587-15.127c-.813-.529-1.645-1-2.477-1.475a28.177,28.177,0,0,0-4.292-2.25C84.946,111.563,85.759,117.595,87.139,123.476Z" transform="translate(49.874 24.186)" fill="#f29f9b"/>
      <path id="Path_1022" data-name="Path 1022" d="M72.107,97.907l-.227-.813A94.754,94.754,0,0,1,97.559,92.65h.87v.775C86.1,93.312,72.277,97.869,72.107,97.907Z" transform="translate(39.531 12.544)" fill="#1d1b49"/>
      <path id="Path_1023" data-name="Path 1023" d="M98.24,100.56a12.575,12.575,0,0,0,8.169-1.078,5.824,5.824,0,0,0,2.647-7.148,7.431,7.431,0,0,0-5.276-3.347A22.1,22.1,0,0,0,86.29,92.562a22.934,22.934,0,0,0-2.25,1.891,25.83,25.83,0,0,0-3.649,3.2C86.346,98.329,92.265,99.728,98.24,100.56Z" transform="translate(47.112 8.83)" fill="#f29f9b"/>
      <path id="Path_1024" data-name="Path 1024" d="M17.082,123.758l-.492-.605C31.717,110.54,50.21,97.228,71.427,94.222c8.944-1.286,16.111.208,20.668,4.255l-.511.586C86.062,94.2,77.648,94.2,71.578,95,50.513,97.984,32.209,111.221,17.082,123.758Z" transform="translate(-9.728 13.544)" fill="#1d1b49"/>
      <path id="Path_1025" data-name="Path 1025" d="M28.086,115.372a12.594,12.594,0,0,1-6.921,4.463,5.805,5.805,0,0,1-6.656-3.782,7.412,7.412,0,0,1,1.891-5.975,22.01,22.01,0,0,1,15.619-8.623c.964,0,1.891,0,2.893-.095a27.548,27.548,0,0,1,4.841,0C35.707,105.955,32.1,110.853,28.086,115.372Z" transform="translate(-11.637 20.209)" fill="#f29f9b"/>
      <path id="Path_1026" data-name="Path 1026" d="M32.746,128.28l-.756-.208A106.288,106.288,0,0,1,48.328,95l.643.454A105.778,105.778,0,0,0,32.746,128.28Z" transform="translate(3.992 14.637)" fill="#1d1b49"/>
      <path id="Path_1027" data-name="Path 1027" d="M39.57,122.287a12.575,12.575,0,0,1-3.914,7.242,5.824,5.824,0,0,1-7.564,0,7.45,7.45,0,0,1-1.248-6.127,21.991,21.991,0,0,1,9.606-15.127c.794-.529,1.626-1,2.458-1.475a27.4,27.4,0,0,1,4.292-2.25C41.745,110.374,40.931,116.406,39.57,122.287Z" transform="translate(-0.77 23.146)" fill="#f29f9b"/>
      <path id="Path_1028" data-name="Path 1028" d="M59.246,96.7A91.822,91.822,0,0,0,33,92.314V91.52a94.433,94.433,0,0,1,26.473,4.425Z" transform="translate(4.892 11.536)" fill="#1d1b49"/>
      <path id="Path_1029" data-name="Path 1029" d="M34.33,99.376a12.537,12.537,0,0,1-8.15-1.059,5.824,5.824,0,0,1-2.666-7.148,7.431,7.431,0,0,1,5.295-3.347A21.916,21.916,0,0,1,46.28,91.4a19.094,19.094,0,0,1,2.269,1.891,25.529,25.529,0,0,1,3.631,3.2C46.242,97.164,40.324,98.544,34.33,99.376Z" transform="translate(-3.888 7.785)" fill="#f29f9b"/>
      <path id="Path_1030" data-name="Path 1030" d="M29.91,182.908,80.416,0l48.767,182.908" transform="translate(2.139 -70)" fill="none" stroke="#7991d9" stroke-linecap="round" stroke-linejoin="round" stroke-width="0.5"/>
      <line id="Line_133" data-name="Line 133" x2="2.969" y2="191.569" transform="translate(82.555 -70)" fill="none" stroke="#7991d9" stroke-linecap="round" stroke-linejoin="round" stroke-width="0.5"/>
    </g>
    <g id="Group_3025" data-name="Group 3025" transform="translate(692.327 70.588)">
      <path id="Path_999-2" data-name="Path 999" d="M62.318,130.469c-2.061-5.673-.756-12.934,3.782-20.8C76.8,91.156,96.033,79,113.429,69.6l.378.7C96.6,79.641,77.388,91.686,66.761,110.066c-3.063,5.313-6.2,13.123-3.782,20.1Z" transform="translate(30.165 -7.993)" fill="#1d1b49"/>
      <path id="Path_1000-2" data-name="Path 1000" d="M94.557,80.32a12.461,12.461,0,0,0,6.713-4.727,5.805,5.805,0,0,0-.964-7.564,7.564,7.564,0,0,0-6.221-.511A22.048,22.048,0,0,0,80.243,78.864c-.416.851-.794,1.74-1.153,2.628a25.867,25.867,0,0,0-1.74,4.519C83,83.95,88.885,82.362,94.557,80.32Z" transform="translate(44.404 -10.241)" fill="#f29f9b"/>
      <path id="Path_1001-2" data-name="Path 1001" d="M66.839,88.925l-.189-.775a106.477,106.477,0,0,1,36.759-2.8v.775a105.891,105.891,0,0,0-36.57,2.8Z" transform="translate(34.871 5.585)" fill="#1d1b49"/>
      <path id="Path_1002-2" data-name="Path 1002" d="M95.308,92.682a12.594,12.594,0,0,0,8.169-.927,5.824,5.824,0,0,0,2.78-7.11,7.45,7.45,0,0,0-5.219-3.423A21.935,21.935,0,0,0,83.49,84.495c-.794.548-1.551,1.135-2.288,1.74a28.363,28.363,0,0,0-3.782,3.139C83.433,90.262,89.333,91.737,95.308,92.682Z" transform="translate(44.466 1.826)" fill="#f29f9b"/>
      <path id="Path_1003-2" data-name="Path 1003" d="M63.985,104.464H63.21A93.885,93.885,0,0,1,69,78.18l.737.3a93.033,93.033,0,0,0-5.748,25.981Z" transform="translate(31.807 -0.349)" fill="#1d1b49"/>
      <path id="Path_1004-2" data-name="Path 1004" d="M75.651,81.505a12.575,12.575,0,0,0,2.061-7.961,5.805,5.805,0,0,0-5.673-5.124,7.45,7.45,0,0,0-5.087,3.631,22.048,22.048,0,0,0-3.215,17.567c.227.927.529,1.891.813,2.761a29.138,29.138,0,0,0,1.607,4.576C69.146,91.716,72.644,86.743,75.651,81.505Z" transform="translate(31.732 -9.045)" fill="#f29f9b"/>
      <path id="Path_1005-2" data-name="Path 1005" d="M56.25,144.084l-.567-.624c5.9-5.332,6.883-14.276,6.656-20.8C61.6,99.968,49.65,78.923,38.04,61.394l.7-.454c11.667,17.623,23.693,38.745,24.45,61.682C63.492,132.265,61.09,139.7,56.25,144.084Z" transform="translate(9.382 -15.706)" fill="#1d1b49"/>
      <path id="Path_1006-2" data-name="Path 1006" d="M40.336,73.2a13.236,13.236,0,0,1-3.952-7.847A6.221,6.221,0,0,1,41.093,58.7a8,8,0,0,1,6.145,2.666A23.636,23.636,0,0,1,54.594,78.99c0,1.021-.132,2.042-.227,3.063a30.6,30.6,0,0,1-.643,5.143C49.451,82.413,44.667,78.007,40.336,73.2Z" transform="translate(7.88 -17.703)" fill="#f29f9b"/>
      <path id="Path_1007-2" data-name="Path 1007" d="M66.105,98.732A113.152,113.152,0,0,0,33.09,77.705l.321-.775A114.154,114.154,0,0,1,66.673,98.108Z" transform="translate(4.972 -1.463)" fill="#1d1b49"/>
      <path id="Path_1008-2" data-name="Path 1008" d="M35.47,85.011a13.425,13.425,0,0,1-7.242-4.992,6.2,6.2,0,0,1,.964-8.093,7.9,7.9,0,0,1,6.656-.605,23.523,23.523,0,0,1,14.9,11.932c.454.908.87,1.891,1.267,2.8a27.494,27.494,0,0,1,1.891,4.822C47.874,88.717,41.578,87.147,35.47,85.011Z" transform="translate(-0.32 -6.875)" fill="#f29f9b"/>
      <path id="Path_1009-2" data-name="Path 1009" d="M51.676,108.138l-.756-.359c0-.132,6.5-14.3,7.715-27.418h.832C58.257,93.71,51.752,108.043,51.676,108.138Z" transform="translate(20.857 1.595)" fill="#1d1b49"/>
      <path id="Path_1010-2" data-name="Path 1010" d="M53.609,81.248a13.425,13.425,0,0,1,2.08-8.547,6.2,6.2,0,0,1,7.9-1.891,7.98,7.98,0,0,1,2.95,5.994,23.561,23.561,0,0,1-5.824,18.172c-.681.775-1.418,1.494-2.156,2.193a30.405,30.405,0,0,1-3.782,3.517C54.592,94.125,53.8,87.677,53.609,81.248Z" transform="translate(23.198 -7.539)" fill="#f29f9b"/>
      <path id="Path_1011-2" data-name="Path 1011" d="M133.167,104.005a49.9,49.9,0,0,1-.359,6.089,8.076,8.076,0,0,1-.227,1.891,52.6,52.6,0,0,1-3.044,11.346c-.189.492-.4,1-.624,1.494a50.373,50.373,0,0,1-6.221,10.721c0,.132-.189.246-.284.378l-.567.737c-.473.605-.945,1.191-1.456,1.759a52.057,52.057,0,0,1-11.932,10.173,2.833,2.833,0,0,1-.435.284,52.473,52.473,0,0,1-45,4.519h0c-1.248-.454-2.477-.964-3.687-1.513a52.775,52.775,0,0,1-10.892-6.788l-.492-.416a52.189,52.189,0,0,1-16.527-23.164c-.189-.511-.378-1.059-.548-1.588a50.487,50.487,0,0,1-2.042-9.322,2.45,2.45,0,0,0-.095-.813,53.135,53.135,0,0,1-.321-5.786c0-1.191,0-2.383.113-3.555a6.369,6.369,0,0,1,.132-1.588c.095-.983.208-1.891.378-2.912H132.543A51.45,51.45,0,0,1,133.167,104.005Z" transform="translate(0.803 15.484)" fill="#76bffb"/>
      <path id="Path_1012-2" data-name="Path 1012" d="M47.481,134.892c-.246-1.361-.492-2.78-.624-4.141a50.922,50.922,0,0,1,.265-9.133c.189-2.1.378-4.236.378-6.353a21.9,21.9,0,0,0-1.1-7.318,11.156,11.156,0,0,0-8.49-6.864,8.6,8.6,0,0,0-8.377,2.969,9.245,9.245,0,0,0-.927,1.38,2.342,2.342,0,0,0,.095.813,10.438,10.438,0,0,1,1.21-1.891,7.942,7.942,0,0,1,6.3-2.95,9.59,9.59,0,0,1,1.626.132,10.835,10.835,0,0,1,5.011,2.326,9.889,9.889,0,0,1,3.12,4.311c1.513,4.273,1.1,8.944.681,13.463a51.715,51.715,0,0,0-.265,9.209c.132,1.4.378,2.817.624,4.179a36.232,36.232,0,0,1,.681,5.295l.492.416A35.285,35.285,0,0,0,47.481,134.892Z" transform="translate(0.981 19.9)" fill="#3b42bf"/>
      <path id="Path_1013-2" data-name="Path 1013" d="M77.744,106.779a19.684,19.684,0,0,0-14.276-4.652c-11.648,1.04-15.373,14.239-16.224,18.266a14.447,14.447,0,0,0-.227,7.393,5.673,5.673,0,0,0,5.011,4.16,3.251,3.251,0,0,0,.737,0,7.923,7.923,0,0,0,3.441-1.891c.378-.321.775-.643,1.172-.927a19.439,19.439,0,0,1,9.1-2.742A25.528,25.528,0,0,0,74.34,124.5a11.875,11.875,0,0,0,6.618-9.852,9.8,9.8,0,0,0-3.215-7.866ZM74.132,123.8a25.32,25.32,0,0,1-7.734,1.891,20.044,20.044,0,0,0-9.284,2.817c-.416.3-.832.643-1.21.964a7.563,7.563,0,0,1-3.233,1.891,5.03,5.03,0,0,1-5.219-3.782,8.736,8.736,0,0,1-.359-2.628,21.991,21.991,0,0,1,.605-4.538c.851-3.933,4.5-16.886,15.808-17.888h1.456A18.909,18.909,0,0,1,77.4,107.1a9.209,9.209,0,0,1,3.082,7.3,11.345,11.345,0,0,1-6.353,9.474Z" transform="translate(17.046 20.936)" fill="#3b42bf"/>
      <path id="Path_1014-2" data-name="Path 1014" d="M72.524,121.243c-2.193-2.723-8.641-3.309-12.026-1.891s-5.937,5.673-5.313,8.831c.284,1.343,1.38,3.631,5.673,3.782H61.1a14.39,14.39,0,0,0,6.2-1.664,12.2,12.2,0,0,0,4.633-3.385C73.961,124.193,73.375,122.34,72.524,121.243Zm-.983,5.408a11.5,11.5,0,0,1-4.463,3.29,13.841,13.841,0,0,1-6.221,1.626c-2.931,0-4.784-1.286-5.2-3.385-.586-2.95,1.759-6.826,5.03-8.3a11.006,11.006,0,0,1,4.292-.775c2.855,0,5.881.813,7.167,2.42s.889,3.12-.605,5.162Z" transform="translate(24.572 35.666)" fill="#3b42bf"/>
      <path id="Path_1015-2" data-name="Path 1015" d="M89.109,103.238a6.108,6.108,0,0,0-4.652-2.628h-.492c-4.009,0-7.809,4.784-9.3,7.375a10.079,10.079,0,0,0-1.38,3.782,13.877,13.877,0,0,0,0,2.345v1.059a14.3,14.3,0,0,1-1.891,7.356,7.163,7.163,0,0,1-.378.643,9.454,9.454,0,0,0-1.078,2.231,3.063,3.063,0,0,0,.756,3.158,2.477,2.477,0,0,0,1.569.511,6.127,6.127,0,0,0,2.78-.87,31.541,31.541,0,0,0,14.806-18.7A7.564,7.564,0,0,0,89.109,103.238Zm.4,6.164A30.954,30.954,0,0,1,74.87,127.82c-1.153.643-2.761,1.248-3.782.4a2.591,2.591,0,0,1-.605-2.666,8.358,8.358,0,0,1,1.04-2.1l.378-.643a14.919,14.919,0,0,0,1.891-7.564v-1.078a12.781,12.781,0,0,1,0-2.25,9.455,9.455,0,0,1,1.324-3.649c1.456-2.534,5.105-7.167,8.906-7.167h.435a5.673,5.673,0,0,1,4.292,2.439,7.091,7.091,0,0,1,.719,5.824Z" transform="translate(37.656 19.635)" fill="#3b42bf"/>
      <path id="Path_1016-2" data-name="Path 1016" d="M84.81,117.086a6.524,6.524,0,0,0-6.127-.454,15.487,15.487,0,0,0-5.219,4.671,15.676,15.676,0,0,0-3.025,6.259,8.6,8.6,0,0,0,.17,3.252,2.835,2.835,0,0,0,.435-.284,8.149,8.149,0,0,1-.208-1.777,7.206,7.206,0,0,1,0-1.116,17.793,17.793,0,0,1,7.866-10.57,5.673,5.673,0,0,1,2.383-.548,6.561,6.561,0,0,1,3.328.983,4.2,4.2,0,0,1,.511.359c0-.132.208-.246.284-.378A5.162,5.162,0,0,0,84.81,117.086Z" transform="translate(38.174 33.413)" fill="#3b42bf"/>
      <path id="Path_1017-2" data-name="Path 1017" d="M132.16,98.512c0,2.95-23.126,5.332-51.66,5.332s-51.66-2.477-51.66-5.332S51.966,93.18,80.5,93.18,132.16,95.468,132.16,98.512Z" transform="translate(1.186 13.015)" fill="#1d1b49"/>
      <path id="Path_1018-2" data-name="Path 1018" d="M137.36,124.943c-15.127-12.556-33.431-25.792-54.477-28.78-6.089-.851-14.5-.851-20.044,4.084l-.529-.586c4.576-4.065,11.724-5.54,20.668-4.273,21.254,3.007,39.709,16.319,54.837,28.95Z" transform="translate(31.005 14.589)" fill="#1d1b49"/>
      <path id="Path_1019-2" data-name="Path 1019" d="M102.746,116.533a12.5,12.5,0,0,0,6.9,4.481,5.824,5.824,0,0,0,6.656-3.782,7.564,7.564,0,0,0-1.891-5.975,22.067,22.067,0,0,0-15.638-8.6,24.517,24.517,0,0,1-2.874-.113,27.514,27.514,0,0,0-4.841,0C95.125,107.135,98.718,112.033,102.746,116.533Z" transform="translate(56.618 21.259)" fill="#f29f9b"/>
      <path id="Path_1020-2" data-name="Path 1020" d="M94.135,129.46A105.607,105.607,0,0,0,77.93,96.634l.624-.454a106.705,106.705,0,0,1,16.338,33.053Z" transform="translate(44.921 15.689)" fill="#1d1b49"/>
      <path id="Path_1021-2" data-name="Path 1021" d="M87.139,123.476a12.348,12.348,0,0,0,3.914,7.223,5.805,5.805,0,0,0,7.564,0,7.564,7.564,0,0,0,1.229-6.127,22.01,22.01,0,0,0-9.587-15.127c-.813-.529-1.645-1-2.477-1.475a28.177,28.177,0,0,0-4.292-2.25C84.946,111.563,85.759,117.595,87.139,123.476Z" transform="translate(49.874 24.186)" fill="#f29f9b"/>
      <path id="Path_1022-2" data-name="Path 1022" d="M72.107,97.907l-.227-.813A94.754,94.754,0,0,1,97.559,92.65h.87v.775C86.1,93.312,72.277,97.869,72.107,97.907Z" transform="translate(39.531 12.544)" fill="#1d1b49"/>
      <path id="Path_1023-2" data-name="Path 1023" d="M98.24,100.56a12.575,12.575,0,0,0,8.169-1.078,5.824,5.824,0,0,0,2.647-7.148,7.431,7.431,0,0,0-5.276-3.347A22.1,22.1,0,0,0,86.29,92.562a22.934,22.934,0,0,0-2.25,1.891,25.83,25.83,0,0,0-3.649,3.2C86.346,98.329,92.265,99.728,98.24,100.56Z" transform="translate(47.112 8.83)" fill="#f29f9b"/>
      <path id="Path_1024-2" data-name="Path 1024" d="M17.082,123.758l-.492-.605C31.717,110.54,50.21,97.228,71.427,94.222c8.944-1.286,16.111.208,20.668,4.255l-.511.586C86.062,94.2,77.648,94.2,71.578,95,50.513,97.984,32.209,111.221,17.082,123.758Z" transform="translate(-9.728 13.544)" fill="#1d1b49"/>
      <path id="Path_1025-2" data-name="Path 1025" d="M28.086,115.372a12.594,12.594,0,0,1-6.921,4.463,5.805,5.805,0,0,1-6.656-3.782,7.412,7.412,0,0,1,1.891-5.975,22.01,22.01,0,0,1,15.619-8.623c.964,0,1.891,0,2.893-.095a27.548,27.548,0,0,1,4.841,0C35.707,105.955,32.1,110.853,28.086,115.372Z" transform="translate(-11.637 20.209)" fill="#f29f9b"/>
      <path id="Path_1026-2" data-name="Path 1026" d="M32.746,128.28l-.756-.208A106.288,106.288,0,0,1,48.328,95l.643.454A105.778,105.778,0,0,0,32.746,128.28Z" transform="translate(3.992 14.637)" fill="#1d1b49"/>
      <path id="Path_1027-2" data-name="Path 1027" d="M39.57,122.287a12.575,12.575,0,0,1-3.914,7.242,5.824,5.824,0,0,1-7.564,0,7.45,7.45,0,0,1-1.248-6.127,21.991,21.991,0,0,1,9.606-15.127c.794-.529,1.626-1,2.458-1.475a27.4,27.4,0,0,1,4.292-2.25C41.745,110.374,40.931,116.406,39.57,122.287Z" transform="translate(-0.77 23.146)" fill="#f29f9b"/>
      <path id="Path_1028-2" data-name="Path 1028" d="M59.246,96.7A91.822,91.822,0,0,0,33,92.314V91.52a94.433,94.433,0,0,1,26.473,4.425Z" transform="translate(4.892 11.536)" fill="#1d1b49"/>
      <path id="Path_1029-2" data-name="Path 1029" d="M34.33,99.376a12.537,12.537,0,0,1-8.15-1.059,5.824,5.824,0,0,1-2.666-7.148,7.431,7.431,0,0,1,5.295-3.347A21.916,21.916,0,0,1,46.28,91.4a19.094,19.094,0,0,1,2.269,1.891,25.529,25.529,0,0,1,3.631,3.2C46.242,97.164,40.324,98.544,34.33,99.376Z" transform="translate(-3.888 7.785)" fill="#f29f9b"/>
      <path id="Path_1030-2" data-name="Path 1030" d="M29.91,182.908,80.416,0l48.767,182.908" transform="translate(2.139 -70)" fill="none" stroke="#7991d9" stroke-linecap="round" stroke-linejoin="round" stroke-width="0.5"/>
      <line id="Line_133-2" data-name="Line 133" x2="2.969" y2="191.569" transform="translate(82.555 -70)" fill="none" stroke="#7991d9" stroke-linecap="round" stroke-linejoin="round" stroke-width="0.5"/>
    </g>
    <circle id="Ellipse_103" data-name="Ellipse 103" cx="16.912" cy="16.912" r="16.912" transform="translate(321.267 145) rotate(-45)" fill="#fff"/>
    <path id="Path_1063" data-name="Path 1063" d="M236.5,69.556H133.24a51.8,51.8,0,0,1,103.306,0Z" transform="translate(160.296 76.662)" fill="#76bffb"/>
    <rect id="Rectangle_1011" data-name="Rectangle 1011" width="4.2" height="126.246" transform="translate(343.082 -0.412)" fill="#76bffb"/>
    <circle id="Ellipse_104" data-name="Ellipse 104" cx="16.912" cy="16.912" r="16.912" transform="translate(532.359 157.59) rotate(-76.79)" fill="#fff"/>
    <path id="Path_1064" data-name="Path 1064" d="M384.776,69.556H281.47a51.8,51.8,0,0,1,103.306,0Z" transform="translate(219.588 76.662)" fill="#76bffb"/>
    <rect id="Rectangle_1012" data-name="Rectangle 1012" width="4.2" height="126.246" transform="translate(550.618 -0.412)" fill="#76bffb"/>
  </g>
</svg>
