<svg xmlns="http://www.w3.org/2000/svg" width="333.224" height="206.609" viewBox="0 0 333.224 206.609">
  <g id="Business_team_3_Converted_" data-name="Business_team_3 [Converted]" transform="translate(-212 -201.5)">
    <g id="OBJECTS" transform="translate(212 201.5)">
      <g id="Group_2651" data-name="Group 2651" transform="translate(0 0)">
        <g id="Group_2618" data-name="Group 2618" transform="translate(25.306 41.187)">
          <g id="Group_2617" data-name="Group 2617" transform="translate(0 7.46)" opacity="0.4">
            <path id="Path_294" data-name="Path 294" d="M690.129,694.629c13.634-25.742,15.07-59.233-1.785-83-10.97-15.471-28.472-25.444-46.8-30.334-38.16-10.18-80.81,1.022-110.562,27.01-9.262,8.085-17.825,17.774-29.48,21.693-8.9,2.988-18.55,2.225-27.941,2.458-12.367.285-24.837,2.406-35.987,7.761s-20.891,14.152-25.949,25.432c-7.49,16.7-3.764,36.789,5.536,52.558a82.59,82.59,0,0,0,13.35,17.023H654.62C669.082,724.083,681.63,710.695,690.129,694.629Z" transform="translate(-407.629 -577.569)" fill="#cffffb"/>
          </g>
          <circle id="Ellipse_54" data-name="Ellipse 54" cx="18.563" cy="18.563" r="18.563" transform="translate(7.421 0)" fill="#cffffb" opacity="0.4"/>
        </g>
        <g id="Group_2619" data-name="Group 2619" transform="translate(11.474 1.203)">
          <path id="Path_295" data-name="Path 295" d="M2358.516,666.122a17.437,17.437,0,0,1-2.457-.168l.064-.44a18.137,18.137,0,0,0,2.91.155l.013.44C2358.865,666.11,2358.684,666.122,2358.516,666.122Zm3.493-.349-.091-.44a16.041,16.041,0,0,0,2.794-.8l.155.414A17.16,17.16,0,0,1,2362.009,665.773Zm-8.861-.479a18.273,18.273,0,0,1-2.768-1.125l.194-.4a18.646,18.646,0,0,0,2.69,1.1Zm14.41-1.617-.22-.388a18.75,18.75,0,0,0,2.38-1.669l.284.336A17.69,17.69,0,0,1,2367.558,663.678Zm-19.7-1.074a17.316,17.316,0,0,1-2.031-1.759l-.207-.207.323-.311.207.207a17.7,17.7,0,0,0,1.979,1.708Zm24.267-2.729-.336-.285a17.913,17.913,0,0,0,1.708-2.354l.375.233A16.524,16.524,0,0,1,2372.125,659.875Zm-28.407-1.539a18.338,18.338,0,0,1-1.488-2.587l.4-.181a17.476,17.476,0,0,0,1.449,2.522Zm31.5-3.544-.413-.168a16.434,16.434,0,0,0,.841-2.781l.427.091A18.117,18.117,0,0,1,2375.216,654.791Zm-34.008-1.837a18.665,18.665,0,0,1-.556-2.936l.44-.052a17.938,17.938,0,0,0,.543,2.859Zm35.25-3.971-.44-.026c.013-.272.013-.53.013-.8a16.514,16.514,0,0,0-.129-2.109l.439-.052a17.092,17.092,0,0,1,.129,2.16C2376.471,648.426,2376.471,648.711,2376.458,648.983Zm-35.418-1.915-.44-.026a18.81,18.81,0,0,1,.427-2.949l.427.1A16.387,16.387,0,0,0,2341.04,647.068Zm34.28-3.868a16.793,16.793,0,0,0-1.048-2.716l.4-.194a16.45,16.45,0,0,1,1.073,2.781Zm-32.973-1.785-.414-.168a17.151,17.151,0,0,1,1.371-2.652l.375.233A18.085,18.085,0,0,0,2342.347,641.415Zm30.438-3.428a18.019,18.019,0,0,0-1.875-2.225l.31-.31a17.752,17.752,0,0,1,1.927,2.277Zm-27.346-1.475-.336-.3c.232-.259.466-.518.711-.763a19.239,19.239,0,0,1,1.436-1.294l.271.349a16.227,16.227,0,0,0-1.41,1.268C2345.891,636.008,2345.658,636.267,2345.438,636.513Zm23.711-2.277a16.722,16.722,0,0,0-2.445-1.565l.207-.388a18.714,18.714,0,0,1,2.51,1.6Zm-19.2-1.358-.22-.388a17.189,17.189,0,0,1,2.717-1.242l.155.414A17.579,17.579,0,0,0,2349.953,632.878Zm14.074-1.345a19.225,19.225,0,0,0-2.833-.685l.064-.44a18.555,18.555,0,0,1,2.9.7Zm-8.628-.608-.078-.44a17.666,17.666,0,0,1,2.963-.285v.44A16.781,16.781,0,0,0,2355.4,630.924Z" transform="translate(-2076.724 -575.948)" fill="#00a89b"/>
          <path id="Path_296" data-name="Path 296" d="M2103.853,931.612l-.065-.44a8.88,8.88,0,0,0,2.742-.841l.194.4A9.494,9.494,0,0,1,2103.853,931.612Zm-3-.065a9.479,9.479,0,0,1-2.833-1l.207-.388a9.088,9.088,0,0,0,2.7.944Zm8.331-2.548-.311-.31.091-.078a9.058,9.058,0,0,0,1.63-2.212l.388.207a9.993,9.993,0,0,1-1.708,2.328Zm-13.557-.272a9.641,9.641,0,0,1-1.708-2.484l.4-.194a9.477,9.477,0,0,0,1.617,2.367Zm16.312-4.993-.44-.078a9.351,9.351,0,0,0,.013-2.859l.44-.065a8.963,8.963,0,0,1,.1,1.436A7.9,7.9,0,0,1,2111.938,923.734Zm-18.86-.362a9.281,9.281,0,0,1-.078-1.2,9.453,9.453,0,0,1,.168-1.811l.44.078a9.666,9.666,0,0,0-.168,1.72,8.273,8.273,0,0,0,.078,1.138Zm17.567-5.3a8.914,8.914,0,0,0-1.681-2.315l.31-.31a9.637,9.637,0,0,1,1.772,2.432Zm-16.053-.31-.388-.22a9.617,9.617,0,0,1,1.591-2.108c.091-.091.181-.168.272-.259l.3.323c-.091.078-.168.155-.259.246A9.591,9.591,0,0,0,2094.591,917.758Zm12.47-3.467a8.937,8.937,0,0,0-2.678-1.009l.091-.427a9.326,9.326,0,0,1,2.807,1.061Zm-8.318-.388-.181-.4a9.75,9.75,0,0,1,2.9-.8l.052.44A9.376,9.376,0,0,0,2098.744,913.9Z" transform="translate(-1861.153 -821.904)" fill="#00a89b"/>
          <path id="Path_297" data-name="Path 297" d="M2399.376,1066.951a5.575,5.575,0,1,1,5.575-5.575A5.576,5.576,0,0,1,2399.376,1066.951Zm0-10.724a5.135,5.135,0,1,0,5.135,5.135A5.14,5.14,0,0,0,2399.376,1056.227Z" transform="translate(-2123.042 -946.493)" fill="#00a89b"/>
          <path id="Path_298" data-name="Path 298" d="M1247.476,221.951a5.575,5.575,0,1,1,5.575-5.575A5.576,5.576,0,0,1,1247.476,221.951Zm0-10.711a5.135,5.135,0,1,0,5.135,5.135A5.14,5.14,0,0,0,1247.476,211.24Z" transform="translate(-1120.149 -210.8)" fill="#00a89b"/>
          <path id="Path_299" data-name="Path 299" d="M306.275,889.551a5.575,5.575,0,1,1,5.575-5.575A5.576,5.576,0,0,1,306.275,889.551Zm0-10.724a5.136,5.136,0,1,0,5.135,5.135A5.14,5.14,0,0,0,306.275,878.827Z" transform="translate(-300.7 -792.041)" fill="#00a89b"/>
          <path id="Path_300" data-name="Path 300" d="M2264.754,388.508l-8.654-8.654,8.654-8.654,8.654,8.654Zm-8.033-8.654,8.033,8.033,8.033-8.033-8.033-8.033Z" transform="translate(-2003.155 -350.451)" fill="#00a89b"/>
          <path id="Path_301" data-name="Path 301" d="M402.161,433.589l-2.083-2.1.31-.31,2.083,2.083Zm2.406-1.332-.31-.311,2.083-2.083.31.31ZM398,429.411l-2.083-2.083.311-.31,2.083,2.083Zm10.737-1.332-.31-.31,2.083-2.083.31.31Zm-14.915-2.833-2.083-2.083.31-.31,2.083,2.083Zm19.08-1.332-.31-.31,2.083-2.083.31.31Zm-23.246-2.846-2.083-2.083.31-.31,2.083,2.083Zm27.424-1.319-.311-.31,2.083-2.083.31.31Zm1.2-2.665L416.2,415l.31-.31,2.083,2.083ZM387.31,416.9l-.31-.31,2.083-2.083.31.31Zm26.79-3.984-2.083-2.083.31-.31,2.083,2.083Zm-22.625-.181-.31-.31,2.083-2.083.31.31Zm18.459-3.984-2.083-2.1.31-.31,2.083,2.083Zm-14.281-.194-.31-.31,2.083-2.083.31.31Zm10.116-3.984-2.083-2.083.31-.31,2.083,2.083Zm-5.95-.181-.31-.31L401.592,402l.31.31Z" transform="translate(-375.836 -377.267)" fill="#00a89b"/>
        </g>
        <g id="Group_2621" data-name="Group 2621" transform="translate(32.035 111.981)">
          <g id="Group_2620" data-name="Group 2620" transform="translate(2.685 0.107)">
            <path id="Path_302" data-name="Path 302" d="M505,1490.555h25.82L531,1489.3h-25.82Z" transform="translate(-501.818 -1434.802)" fill="#d1d1ff"/>
            <path id="Path_303" data-name="Path 303" d="M517.3,1406.342h25.82l.181-1.242h-25.82Z" transform="translate(-512.527 -1361.494)" fill="#d1d1ff"/>
            <path id="Path_304" data-name="Path 304" d="M529.7,1322.042h25.807l.181-1.242H529.881Z" transform="translate(-523.323 -1288.099)" fill="#d1d1ff"/>
            <path id="Path_305" data-name="Path 305" d="M542,1237.842h25.807l.181-1.242H542.181Z" transform="translate(-534.032 -1214.79)" fill="#d1d1ff"/>
            <path id="Path_306" data-name="Path 306" d="M554.481,1152.3l-.181,1.242h25.807l.181-1.242Z" transform="translate(-544.741 -1141.395)" fill="#d1d1ff"/>
            <path id="Path_307" data-name="Path 307" d="M492.7,1574.842h25.82l.181-1.242h-25.82Z" transform="translate(-491.109 -1508.197)" fill="#d1d1ff"/>
            <path id="Path_308" data-name="Path 308" d="M480.4,1659.142h25.82l.181-1.242h-25.82Z" transform="translate(-480.4 -1581.592)" fill="#d1d1ff"/>
            <path id="Path_309" data-name="Path 309" d="M566.781,1068l-.181,1.242h25.807l.181-1.242Z" transform="translate(-555.449 -1068)" fill="#d1d1ff"/>
          </g>
          <rect id="Rectangle_883" data-name="Rectangle 883" width="95.259" height="0.595" transform="matrix(0.144, -0.99, 0.99, 0.144, 25.799, 94.34)" fill="#1b1b43"/>
          <rect id="Rectangle_884" data-name="Rectangle 884" width="95.259" height="0.595" transform="matrix(0.144, -0.99, 0.99, 0.144, 0, 94.268)" fill="#1b1b43"/>
        </g>
        <g id="Group_2630" data-name="Group 2630" transform="translate(46.908 27.359)">
          <g id="Group_2622" data-name="Group 2622" transform="translate(6.374 58.793)">
            <path id="Path_310" data-name="Path 310" d="M705.628,867.5l-8.059,9.637-3.169,1.526,2.846,3.958,1.591-.854a12.26,12.26,0,0,0,4.23-4.23l3.738-6.688Z" transform="translate(-685.28 -867.5)" fill="#ffbc96"/>
            <path id="Path_311" data-name="Path 311" d="M623.9,958.072l4.812,3.441,7.774-3.04L633.02,953.7Z" transform="translate(-623.9 -942.55)" fill="#ffa121"/>
          </g>
          <g id="Group_2624" data-name="Group 2624" transform="translate(10.578)">
            <path id="Path_312" data-name="Path 312" d="M732,429.183a10.11,10.11,0,0,0-3.7,3.648L717.043,413,656.4,447.448l34.448,60.643L713.382,495.3a10.062,10.062,0,0,0,1.294,5.666c3.13,5.5,10.853,7.011,17.282,3.363s9.081-11.06,5.963-16.571a10.151,10.151,0,0,0-4.217-4.01l17.787-10.1-11.319-19.908a10.03,10.03,0,0,0,5.019-1.307c5.5-3.13,7.011-10.853,3.363-17.282S737.494,426.065,732,429.183Z" transform="translate(-656.4 -413)" fill="#00a89b"/>
            <g id="Group_2623" data-name="Group 2623" transform="translate(4.204 12.819)" opacity="0.6">
              <path id="Path_313" data-name="Path 313" d="M1157.8,523.07c-6.856,1.966-14.824,9.081-22.133,4.773-3.363-1.979-4.747-5.7-2.729-9.21a31.278,31.278,0,0,1,5.2-6.183l-.194-.349c-1.216,1.268-2.432,2.548-3.583,3.868-1.85,2.121-3.48,4.786-2.652,7.71a8.5,8.5,0,0,0,5.588,5.381c3.234,1.087,6.753.272,9.844-.931,3.8-1.488,7.3-3.751,11.28-4.786a13.889,13.889,0,0,1,4.515-.414c-.065-.155-.142-.31-.22-.479A15.234,15.234,0,0,0,1157.8,523.07Z" transform="translate(-1074.237 -512.1)" fill="#fff"/>
              <path id="Path_314" data-name="Path 314" d="M1189.035,723.662c-7,1.048-15.212,3.907-17.424,11.461-1.979,6.74,3.2,12.936,9.159,15.381a18.481,18.481,0,0,0,4.941,1.242l.66-.375a18.708,18.708,0,0,1-4.644-.983c-6.39-2.251-12.069-8.9-9.4-15.937,2.587-6.856,9.585-9.042,16.26-10.193l-.207-.362a10.228,10.228,0,0,0,3.467-.6C1190.885,723.416,1189.953,723.533,1189.035,723.662Z" transform="translate(-1108.795 -695.98)" fill="#fff"/>
              <path id="Path_315" data-name="Path 315" d="M775.71,786.925l.634-.362c3.6-8.771,6.274-17.929,5.2-27.5-.66-5.912-2.807-11.927-6.895-16.364a13.342,13.342,0,0,0-6.416-4.114,11.141,11.141,0,0,0-8.007,1.332c-5.42,2.937-9.146,9.262-15.225,10.957l.194.349a20.972,20.972,0,0,0,7.192-4.463c4.7-4.152,10.439-10.232,17.347-7.179,5.769,2.561,9.159,9.314,10.581,15.135C783.044,765.776,779.965,776.655,775.71,786.925Z" transform="translate(-737.743 -709.052)" fill="#fff"/>
              <path id="Path_316" data-name="Path 316" d="M717.048,546.3c-1.578,2.742-4.32,4.89-6.843,6.714a40.506,40.506,0,0,1-9.029,4.929c-4.1,1.6-8.965,2.626-12.276,5.6l.22.375a21.386,21.386,0,0,1,7.606-3.958,57.916,57.916,0,0,0,9.792-4.075,40.774,40.774,0,0,0,8.072-5.924c1.695-1.617,3.337-3.544,3.79-5.9a8.121,8.121,0,0,0-1.462-6.261l-.453.259A7.287,7.287,0,0,1,717.048,546.3Z" transform="translate(-688.9 -534.476)" fill="#fff"/>
            </g>
          </g>
          <g id="Group_2625" data-name="Group 2625" transform="translate(4.942 63.662)">
            <path id="Path_317" data-name="Path 317" d="M669.894,940.1s1.087,1.151,1.022,1.423-1.216.543-1.216.543Z" transform="translate(-662.344 -935.578)" fill="#d28572"/>
            <rect id="Rectangle_885" data-name="Rectangle 885" width="4.476" height="5.317" transform="translate(1.548 6.773)" fill="#ffbc96"/>
            <path id="Path_318" data-name="Path 318" d="M636.776,957.5v3.674c-1.526-.246-2.639-1.268-3.376-3.182l1.824-.492Z" transform="translate(-630.739 -950.727)" fill="#1b1b43"/>
            <path id="Path_319" data-name="Path 319" d="M626.983,920.752s1.94,6.959-1.9,6.83c-2.82-.091-4.282-2.988-4.282-2.988l2.122-3.894Z" transform="translate(-619.769 -918.687)" fill="#ffbc96"/>
            <path id="Path_320" data-name="Path 320" d="M617.911,910.685a2.458,2.458,0,0,1,.582-2.6c1.889.569,3.234.129,3.868-1.617a3.758,3.758,0,0,1-3.182-.737c-1.384-1.281-4.114-.194-4.347.608-2.729,1.009-2.445,3.506-.479,6.532a3.977,3.977,0,0,1,2.859-1.863Z" transform="translate(-612.832 -905.141)" fill="#1b1b43"/>
            <path id="Path_321" data-name="Path 321" d="M641.195,940.17a.963.963,0,1,1-1.371-.582A1.061,1.061,0,0,1,641.195,940.17Z" transform="translate(-635.934 -935.053)" fill="#ffbc96"/>
          </g>
          <g id="Group_2626" data-name="Group 2626" transform="translate(0.232 90.537)">
            <path id="Path_322" data-name="Path 322" d="M592.548,1454.907H587.4l.453-5.407h4.424Z" transform="translate(-585.979 -1405.958)" fill="#1b1b43"/>
            <path id="Path_323" data-name="Path 323" d="M577.748,1112.9c-1.449,2.2-1.669,7.179-.88,9.637v35.483h6.985l1.966-41.291Z" transform="translate(-576.418 -1112.9)" fill="#3335cf"/>
            <path id="Path_324" data-name="Path 324" d="M634.292,1161.1a6.587,6.587,0,0,0,1.526,5.045l.142-3.829Z" transform="translate(-626.765 -1154.865)" fill="#1b1b43"/>
          </g>
          <g id="Group_2627" data-name="Group 2627" transform="translate(1.937 89.658)">
            <path id="Path_325" data-name="Path 325" d="M652.569,1338.437l-1.669,3,7.205,4.049-1.94-4.709,1.112-2.057-3.855-2.121Z" transform="translate(-642.97 -1306.783)" fill="#1b1b43"/>
            <path id="Path_326" data-name="Path 326" d="M599.444,1106.1l8.188,10.1c1.992,2.574,2.781,5.2,1.837,8.253l-4.941,14.294-6.17-2.186,3.583-15.212c-3.777-3.273-8.007-8.525-12.341-14.178Z" transform="translate(-589.6 -1106.1)" fill="#3335cf"/>
          </g>
          <g id="Group_2628" data-name="Group 2628" transform="translate(0 73.886)">
            <path id="Path_327" data-name="Path 327" d="M589.537,991.772v.065c-.052.8-.116,1.591-.207,2.354a37.784,37.784,0,0,1-1.2,6.17,1.321,1.321,0,0,1-.673.854,2.393,2.393,0,0,1-.88.246c-1.384.1-2.742-.31-4.139-.259a18.14,18.14,0,0,0-3.777.789c-.272.065-.53.129-.8.194-.1.026-.207.039-.323.065a4.156,4.156,0,0,1-1.992-.052,1.352,1.352,0,0,1-.776-.608c-.44-.776.285-1.863.5-2.6a29.456,29.456,0,0,0,.7-2.988,30.36,30.36,0,0,0,.414-6.313,5.275,5.275,0,0,1,4.683-5.433h.065a17.108,17.108,0,0,1,4.476.155,17.551,17.551,0,0,1,1.759.4h.013a13.447,13.447,0,0,1,2.277.893C589.7,987.827,589.679,989.845,589.537,991.772Z" transform="translate(-574.625 -984.176)" fill="#ffa121"/>
            <path id="Path_328" data-name="Path 328" d="M678.407,1042.165v.091c-.052.8-.116,1.591-.207,2.354a3.267,3.267,0,0,1-1.5-2.536C676.687,1042.049,678.407,1042.165,678.407,1042.165Z" transform="translate(-663.495 -1034.582)" fill="#1b1b43"/>
          </g>
          <g id="Group_2629" data-name="Group 2629" transform="translate(10.94 64.109)">
            <path id="Path_329" data-name="Path 329" d="M714.741,959.377l5.549-.841L725.814,953l2.535,2.341-5.3,6.2a4.9,4.9,0,0,1-3.3,1.695l-8.447.75Z" transform="translate(-704.56 -947.257)" fill="#ffbc96"/>
            <path id="Path_330" data-name="Path 330" d="M821.585,914.356l.647-2.147s.207-2.639.556-2.341a7.165,7.165,0,0,1,.556,2.29s1.371-3.557,1.9-3.557-.4,3.48-.4,3.48,1.462.453,1.565,1.5c.052.6-2.277,3.118-2.277,3.118l-2.833.194Z" transform="translate(-800.331 -908.6)" fill="#ffbc96"/>
            <path id="Path_331" data-name="Path 331" d="M664.916,989.1a79.687,79.687,0,0,0,8.37,1.708l-.556,5.459-9.029-.336Z" transform="translate(-663.118 -978.687)" fill="#ffa121"/>
            <path id="Path_332" data-name="Path 332" d="M669.355,987.354a79.03,79.03,0,0,1-10.155-2.121l.065-.233a80.665,80.665,0,0,0,10.116,2.108Z" transform="translate(-659.2 -975.117)" fill="#1b1b43"/>
          </g>
        </g>
        <g id="Group_2638" data-name="Group 2638" transform="translate(259.792 146.717)">
          <g id="Group_2631" data-name="Group 2631" transform="translate(8.088)">
            <path id="Path_333" data-name="Path 333" d="M2286.457,1336.283a4.743,4.743,0,0,0-2.018,1.643,2.946,2.946,0,0,0-.4,2.51c.194.582.621,1.1.6,1.72a2.191,2.191,0,0,1-.711,1.345,4.105,4.105,0,0,0-.957,1.216,1.114,1.114,0,0,0,.31,1.384c.168.1.388.155.466.323.1.246-.13.491-.311.685a2.013,2.013,0,0,0,1.876,3.338l12.328-4.773a2.437,2.437,0,0,0,0-2.548,2.191,2.191,0,0,0-.336-.556,2.833,2.833,0,0,0-.595-.44c-.44-.259-.867-.517-1.307-.763a1.2,1.2,0,0,1-.5-.44c-.246-.466.117-1.138-.233-1.527-.246-.271-.712-.22-.983-.466s-.246-.686-.31-1.061c-.246-1.345-2.122-1.927-3.2-2.083A6.159,6.159,0,0,0,2286.457,1336.283Z" transform="translate(-2282.854 -1335.701)" fill="#ffa121"/>
            <path id="Path_334" data-name="Path 334" d="M2335.608,1381.915l-2.872,2.471-.776-.892-2.16-2.523,1.2-1.022,1.668-1.449Z" transform="translate(-2323.728 -1372.964)" fill="#ffbc96"/>
            <path id="Path_335" data-name="Path 335" d="M2331.961,1391.851l-2.16-2.509,1.2-1.035,1.668-.207A5.626,5.626,0,0,1,2331.961,1391.851Z" transform="translate(-2323.728 -1381.322)" fill="#1b1b43"/>
            <path id="Path_336" data-name="Path 336" d="M2309.771,1348.8c.841,2.044.116,4.605-1.113,5.123-1.281.53-3.027-.142-4.541-2.781a2.985,2.985,0,0,1,1.358-4.424A3.275,3.275,0,0,1,2309.771,1348.8Z" transform="translate(-2300.943 -1345.088)" fill="#ffbc96"/>
            <path id="Path_337" data-name="Path 337" d="M2306.06,1346.548a.8.8,0,0,0-.479-.233,1.326,1.326,0,0,0-.53.22.47.47,0,0,1-.53.026,1.346,1.346,0,0,1-.194-.259.722.722,0,0,0-.453-.336.412.412,0,0,0-.44.3,3.19,3.19,0,0,0-.039.5.512.512,0,0,1-.492.466c-.207-.013-.427-.207-.608-.077s-.168.4-.129.634a.909.909,0,0,1-.052.673.466.466,0,0,1-.44.142.947.947,0,0,0-.466-.013.363.363,0,0,0-.207.44,1.629,1.629,0,0,1-.31-.737,2.824,2.824,0,0,1-.013-.737,4.149,4.149,0,0,1,2.174-3.4,3.811,3.811,0,0,1,.646-.22,3.915,3.915,0,0,1,2.975.518,3.2,3.2,0,0,1,1.048,1,2.862,2.862,0,0,1,.427,1.578,1.285,1.285,0,0,1-.414,1.048c-.142.09-.531.207-.685.1-.181-.129-.091-.22-.1-.44A1.722,1.722,0,0,0,2306.06,1346.548Z" transform="translate(-2298.357 -1342.784)" fill="#ffa121"/>
            <circle id="Ellipse_55" data-name="Ellipse 55" cx="1.1" cy="1.1" r="1.1" transform="translate(7.703 3.518)" fill="#ffbc96"/>
          </g>
          <g id="Group_2634" data-name="Group 2634" transform="translate(12.357 19.468)">
            <g id="Group_2632" data-name="Group 2632" transform="translate(0 2.975)">
              <path id="Path_338" data-name="Path 338" d="M2343.991,1752.218l.259,4.217-8.15.013,3.661-3.518-.194-2.342,4.385-.388Z" transform="translate(-2333.481 -1719.025)" fill="#1b1b43"/>
              <path id="Path_339" data-name="Path 339" d="M2332.934,1515.306l-1.138,1.255-1.345,1.488-1.436,1.578-5.135,5.666,3.479,16.519h-6.623l-4.321-12.768a10.469,10.469,0,0,1,1.837-10.051l4.437-5.394,2.147-2.613,1.591-.75,2.2-1.035,1.6,2.277Z" transform="translate(-2315.853 -1509.2)" fill="#3335cf"/>
            </g>
            <path id="Path_340" data-name="Path 340" d="M2417.7,1556.262l-2.781,3.066a3.813,3.813,0,0,1,.828-4.527Z" transform="translate(-2401.761 -1545.926)" fill="#1b1b43"/>
            <g id="Group_2633" data-name="Group 2633" transform="translate(10.044)">
              <path id="Path_341" data-name="Path 341" d="M2552.705,1726.195l2.483,3.415-6.882,4.385,1.2-4.941-1.41-1.863,3.492-2.691Z" transform="translate(-2528.102 -1693.674)" fill="#1b1b43"/>
              <path id="Path_342" data-name="Path 342" d="M2418.44,1517.026l-1,.7-3.544,2.509-1.5,1.061-7.1-11.953c-2.186-2.406-4.644-6.507-7.231-11.319-.919-1.721-1.863-3.532-2.807-5.381-.4-.8-.8-1.6-1.216-2.419-.181-.349-.362-.711-.543-1.073l2.51-1.074,4.411-1.876.7,1.2.608,1.048Z" transform="translate(-2393.501 -1486.2)" fill="#3335cf"/>
            </g>
            <path id="Path_343" data-name="Path 343" d="M2380.135,1496.461c-1.229,1.242-4.721,4.463-6.61,5.032a9.819,9.819,0,0,1-4.825.1l2.147-2.613,1.591-.75c-.181-.349-.362-.712-.543-1.074l2.51-1.074,5.123-.686Z" transform="translate(-2361.864 -1494.21)" fill="#1b1b43" opacity="0.6"/>
          </g>
          <g id="Group_2637" data-name="Group 2637" transform="translate(0 8.531)">
            <g id="Group_2635" data-name="Group 2635" transform="translate(0.179 1.132)">
              <path id="Path_344" data-name="Path 344" d="M2224.438,1434.382s-2.652-3.635-2.7-2.807c-.039.595-.039,3.079.052,4.553a1.069,1.069,0,0,0,1.048,1l1.669.026Z" transform="translate(-2221.71 -1428.729)" fill="#d28572"/>
              <path id="Path_345" data-name="Path 345" d="M2253.182,1410.4l-5.6,6.61-9.883-1.475-.3,4.347,9.042,2.018a3.62,3.62,0,0,0,3.26-.88l9.068-8.434Z" transform="translate(-2235.37 -1410.4)" fill="#d1d1ff"/>
            </g>
            <path id="Path_346" data-name="Path 346" d="M2351.4,1418.512a1.959,1.959,0,0,1-2.522-1.242c-.246-.7-.543-1.475-.88-2.264-.531-1.293-1.125-2.69-1.578-4.1-.983-3-1.384-6.028.6-8.2a3.066,3.066,0,0,1,2.716-1.022c1.513.233,3.79,1.488,6.183,6.08a9.513,9.513,0,0,0,2.5,3.04,6.621,6.621,0,0,1,1.966,2.1C2361,1414.437,2354.748,1417.283,2351.4,1418.512Z" transform="translate(-2329.398 -1401.65)" fill="#d1d1ff"/>
            <path id="Path_347" data-name="Path 347" d="M2355.859,1450.6a13.342,13.342,0,0,1-2.38,7.024c-.531-1.293-1.125-2.691-1.578-4.1Z" transform="translate(-2334.88 -1444.268)" fill="#1b1b43"/>
            <path id="Path_348" data-name="Path 348" d="M2345.79,1427.193c-.065-.207-.129-.427-.194-.634-.6-1.876-1.333-4.2-.363-6.96l.22.078c-.931,2.678-.246,4.864.362,6.8.065.22.142.427.194.647Z" transform="translate(-2328.666 -1417.278)" fill="#9192ff"/>
            <g id="Group_2636" data-name="Group 2636" transform="translate(0 1.404)">
              <path id="Path_349" data-name="Path 349" d="M2223.207,1455.2s-2.807-4.075-2.846-3.247a20.9,20.9,0,0,0,.233,4.721,1.165,1.165,0,0,0,1.048,1l1.669.026Z" transform="translate(-2220.326 -1446.753)" fill="#ffbc96"/>
              <path id="Path_350" data-name="Path 350" d="M2255.471,1412.5l-7.891,9.146-9.883-1.475-.3,4.346,9.042,2.018a3.62,3.62,0,0,0,3.26-.88l9.068-8.434Z" transform="translate(-2235.191 -1412.5)" fill="#d1d1ff"/>
              <path id="Path_351" data-name="Path 351" d="M2249.548,1426.725l-9.948-1.475.039-.233,9.818,1.462,7.075-8.279.181.155Z" transform="translate(-2237.107 -1417.463)" fill="#9192ff"/>
            </g>
          </g>
        </g>
        <g id="Group_2640" data-name="Group 2640" transform="translate(190.259 121.065)">
          <path id="Path_352" data-name="Path 352" d="M1752.537,1153.182v69.736H1682.8v-22.844a10.138,10.138,0,0,0,5.019,1.332c6.326,0,11.461-5.976,11.461-13.362s-5.135-13.363-11.461-13.363a10.087,10.087,0,0,0-5.019,1.345v-22.857h25.069a9.965,9.965,0,0,1-.983-4.308c0-6.325,5.976-11.461,13.363-11.461s13.363,5.136,13.363,11.461a9.965,9.965,0,0,1-.983,4.308h19.908Z" transform="translate(-1682.8 -1137.4)" fill="#0ecebf"/>
          <g id="Group_2639" data-name="Group 2639" transform="translate(12.574 1.462)" opacity="0.6">
            <path id="Path_353" data-name="Path 353" d="M1808.9,1195.7c.026.155.039.31.065.466,5.5,1.423,12.276,5.058,17-.052a15.377,15.377,0,0,0,3.35-7.283,39.585,39.585,0,0,0,.7-10.9,57.527,57.527,0,0,0-2.031-10.465c-1.022-3.894-1.578-7.891.479-11.552a15.633,15.633,0,0,1,8.615-6.933l-.543-.272a18.268,18.268,0,0,0-5.472,3.324,13.156,13.156,0,0,0-4.217,6.843c-.8,3.57.3,7.179,1.229,10.607a43.412,43.412,0,0,1,1.6,12.367,28.472,28.472,0,0,1-2.031,10.892c-1.578,3.493-4.5,5.821-8.46,5.64C1815.588,1198.192,1812.328,1196.562,1808.9,1195.7Z" transform="translate(-1805.162 -1148.7)" fill="#fff"/>
            <path id="Path_354" data-name="Path 354" d="M1837.163,1645.9c-3.984,4.528-10.724,5.666-16.506,5.5-10.776-.311-23.608-5.148-33.413,1.526-4.295,2.923-6.584,7.71-7.244,12.729h.453c.634-4.721,2.7-9.249,6.662-12.095,9.767-7.037,22.935-1.953,33.788-1.708,5.33.13,11-.776,15.2-4.307a13.115,13.115,0,0,0,1.061-1.009Z" transform="translate(-1780 -1581.584)" fill="#fff"/>
            <path id="Path_355" data-name="Path 355" d="M2155.758,1259.4h-.569c-.091.155-.181.3-.271.453-5.808,9.831-4.7,22.456,2.057,31.486,1.1,1.462,2.3,3,3.35,4.6v-.905c-.944-1.345-1.992-2.626-2.962-3.932a27.949,27.949,0,0,1-4.683-24.888A25.387,25.387,0,0,1,2155.758,1259.4Z" transform="translate(-2103.148 -1245.08)" fill="#fff"/>
          </g>
        </g>
        <g id="Group_2648" data-name="Group 2648" transform="translate(166.082)">
          <g id="Group_2643" data-name="Group 2643" transform="translate(26.906 94.871)">
            <g id="Group_2641" data-name="Group 2641" transform="translate(0 0.039)">
              <path id="Path_356" data-name="Path 356" d="M1710.484,1217.435l-6.584.026,3.144-2.729-.1-3.247,2.949-.285Z" transform="translate(-1703.9 -1175.497)" fill="#1b1b43"/>
              <path id="Path_357" data-name="Path 357" d="M1726.553,936.494a.285.285,0,0,1-.013.1c-.233,2.005-.44,4.152-.634,6.4s-.388,4.618-.569,7.089c-.53,7-1.048,14.747-1.733,22.767h-5.3c.194-10.957.194-21.357,1.268-30.916q.31-2.716.737-5.355c.078-.466.155-.918.246-1.384l2.742.582Z" transform="translate(-1716.437 -935.2)" fill="#fe5b52"/>
            </g>
            <g id="Group_2642" data-name="Group 2642" transform="translate(6.804)">
              <path id="Path_358" data-name="Path 358" d="M1809.4,1216.216l-6.6.026,2.639-2.923-.7-3.351,3.156-.168Z" transform="translate(-1796.811 -1174.24)" fill="#1b1b43"/>
              <path id="Path_359" data-name="Path 359" d="M1768.957,972.595h-5.5c-1.695-6.972-3.441-14.566-4.864-22.767h0c-.414-2.354-.8-4.773-1.151-7.231-.285-2.057-.556-4.139-.789-6.261-.039-.272-.065-.53-.091-.8-.026-.207-.052-.414-.065-.634l7.257.53c.013.3.039.6.065.893.155,2.147.349,4.269.569,6.352C1765.491,952.958,1767.353,962.531,1768.957,972.595Z" transform="translate(-1756.5 -934.9)" fill="#fe5b52"/>
            </g>
            <path id="Path_360" data-name="Path 360" d="M1739.752,952.252a40.822,40.822,0,0,1-5.213.065c-.582-.039-1.152-.078-1.721-.142a21.3,21.3,0,0,1-4.618-.918q.311-2.716.737-5.355h10.232C1739.325,948.06,1739.519,950.169,1739.752,952.252Z" transform="translate(-1725.057 -944.477)" fill="#be443d"/>
            <rect id="Rectangle_886" data-name="Rectangle 886" width="0.233" height="6.972" transform="translate(7.937 10.22) rotate(-10.358)" fill="#1b1b43"/>
          </g>
          <path id="Path_361" data-name="Path 361" d="M1618.584,739.711a9.006,9.006,0,0,1-.44-2.911h3.648l-.375,2.949-1.022.181Z" transform="translate(-1602.324 -667.555)" fill="#d28572"/>
          <g id="Group_2644" data-name="Group 2644" transform="translate(15.756 72.168)">
            <path id="Path_362" data-name="Path 362" d="M1624.52,759.452l-2.82-.052.285,2.872c.763-.207,2.044-1.151,2.911-1.384Z" transform="translate(-1621.183 -759.4)" fill="#d28572"/>
            <path id="Path_363" data-name="Path 363" d="M1632.279,780.757l-9-2.678L1621.4,770.9c-.867.233-2.923.918-3.7,1.125l1.125,6.972a4.4,4.4,0,0,0,.647,1.733,3.884,3.884,0,0,0,1.682,1.41l11.655,4.088Z" transform="translate(-1617.7 -769.412)" fill="#3335cf"/>
            <path id="Path_364" data-name="Path 364" d="M1714.1,877.76l1.914.66-.039-1.32Z" transform="translate(-1701.63 -861.875)" fill="#1b1b43"/>
          </g>
          <path id="Path_365" data-name="Path 365" d="M1909.008,743.411a9,9,0,0,0,.44-2.911H1905.8l.375,2.949,1.022.181Z" transform="translate(-1852.777 -670.776)" fill="#d28572"/>
          <g id="Group_2645" data-name="Group 2645" transform="translate(40.955 72.647)">
            <path id="Path_366" data-name="Path 366" d="M1906.175,763.152l2.82-.052-.207,2.846c-.763-.207-2.121-1.125-2.988-1.358Z" transform="translate(-1893.731 -763.1)" fill="#d28572"/>
            <path id="Path_367" data-name="Path 367" d="M1828.269,775.9l-1.125,6.972a4.411,4.411,0,0,1-.647,1.733,3.978,3.978,0,0,1-1.682,1.41l-9.857,3.4-1.914.66-.543.194.44-6.093,9.754-2.2,1.876-7.179c.673.181,2.07.634,3.014.931C1827.855,775.783,1828.088,775.848,1828.269,775.9Z" transform="translate(-1812.5 -773.287)" fill="#3335cf"/>
            <path id="Path_368" data-name="Path 368" d="M1818.615,883.26l-1.915.66.052-1.319Z" transform="translate(-1816.157 -867.142)" fill="#1b1b43"/>
          </g>
          <path id="Path_369" data-name="Path 369" d="M1735.406,843.453c-3.26-.517-8.2-.88-11.254-.052l-.272,11.642a4.455,4.455,0,0,1-.194,1.242c-.427,1.358-.776,2.3.828,2.807a20.02,20.02,0,0,0,5.808.763c1.242.013,4.721.22,5.291-1.216.285-.724-.285-2.484-.311-3.363-.039-1.4.129-4.786.142-6.183C1735.445,848.7,1735.406,843.453,1735.406,843.453Z" transform="translate(-1693.908 -759.94)" fill="#3335cf"/>
          <g id="Group_2646" data-name="Group 2646" transform="translate(32.197 73.266)">
            <path id="Path_370" data-name="Path 370" d="M1760.363,826.225h0a1.863,1.863,0,0,1-1.863-1.863V821.4h3.726v2.962A1.863,1.863,0,0,1,1760.363,826.225Z" transform="translate(-1756.728 -814.478)" fill="#d28572"/>
            <path id="Path_371" data-name="Path 371" d="M1762.138,826.953c-.918,2.484-2.7,2.1-3.739.013l1.63-.466Z" transform="translate(-1756.641 -818.918)" fill="#1b1b43"/>
            <path id="Path_372" data-name="Path 372" d="M1756.9,784.348c-.013,2.458-1.6,3.648-2.807,3.648-1.125,0-2.742-1.022-2.807-3.648-.052-2.018,1.255-3.648,2.807-3.648S1756.9,782.33,1756.9,784.348Z" transform="translate(-1750.449 -779.043)" fill="#d28572"/>
            <path id="Path_373" data-name="Path 373" d="M1746.854,772.74a3.346,3.346,0,0,1,1-1.837.7.7,0,0,0,.621.246.655.655,0,0,0,.5-.427.665.665,0,0,0,.569.479.656.656,0,0,0,.634-.375.605.605,0,0,0,.479.362.565.565,0,0,0,.53-.284,2.753,2.753,0,0,1,.983,2l.543.285a2.438,2.438,0,0,0,.349-1.151,1.9,1.9,0,0,0-.052-.608c-.039-.129-.181-.323-.1-.453a1.182,1.182,0,0,0,.285-.854c-.026-.091-.453-.556-.569-.414a.558.558,0,0,0-.22-.724.865.865,0,0,0-.569-.091.717.717,0,0,0-.608-.724,1.679,1.679,0,0,0-.906.3.769.769,0,0,0-.491-.556.611.611,0,0,0-.647.22.571.571,0,0,0-.634-.22.727.727,0,0,0-.44.582.68.68,0,0,0-.789,0,1.012,1.012,0,0,0-.4.828.823.823,0,0,0-.608.634,1.032,1.032,0,0,0,.246.931,2.373,2.373,0,0,0-.142,2.147Z" transform="translate(-1746.039 -767.887)" fill="#1b1b43"/>
            <path id="Path_374" data-name="Path 374" d="M1746.249,802.667a.736.736,0,1,1-.724-.867A.8.8,0,0,1,1746.249,802.667Z" transform="translate(-1744.8 -797.413)" fill="#d28572"/>
            <path id="Path_375" data-name="Path 375" d="M1790.7,802.641a.755.755,0,1,1-.75-.841A.8.8,0,0,1,1790.7,802.641Z" transform="translate(-1783.457 -797.413)" fill="#d28572"/>
          </g>
          <g id="Group_2647" data-name="Group 2647">
            <path id="Path_376" data-name="Path 376" d="M1565.636,201.5v69.737h-19.908a9.967,9.967,0,0,0,.983-4.308c0-6.326-5.989-11.461-13.363-11.461s-13.363,5.135-13.363,11.461a9.963,9.963,0,0,0,.983,4.308H1495.9v-22.9a10.017,10.017,0,0,0,5.019,1.345c6.325,0,11.461-5.976,11.461-13.363s-5.135-13.363-11.461-13.363a10.088,10.088,0,0,0-5.019,1.345V201.5Z" transform="translate(-1495.9 -201.5)" fill="#feaa4b"/>
            <path id="Path_377" data-name="Path 377" d="M1565.637,244.822a27.937,27.937,0,0,0-10.736-1.669,23.183,23.183,0,0,0-12.586,4.67,25,25,0,0,0-8.046,11.06c-1.992,5.045-3.027,10.426-5.33,15.355a40.311,40.311,0,0,1-8.136,11.487,42.458,42.458,0,0,1-24.9,12.121v.44a42.5,42.5,0,0,0,20.956-8.525,43.352,43.352,0,0,0,15.005-22.107c1.617-5.187,2.975-10.646,6.3-15.057a23,23,0,0,1,12.832-8.408,25.482,25.482,0,0,1,14.656,1.138v-.5Z" transform="translate(-1495.9 -237.733)" fill="#fff" opacity="0.6"/>
          </g>
          <path id="Path_378" data-name="Path 378" d="M1639.195,728.931s1.708-4.308,1.19-4.644-1.513,2.083-1.785,3.816Z" transform="translate(-1620.141 -656.634)" fill="#d28572"/>
          <path id="Path_379" data-name="Path 379" d="M1900.333,732.631s-1.707-4.308-1.19-4.644,1.514,2.083,1.785,3.816Z" transform="translate(-1846.896 -659.855)" fill="#d28572"/>
        </g>
        <g id="Group_2650" data-name="Group 2650" transform="translate(85.583 136.834)">
          <path id="Path_380" data-name="Path 380" d="M959.8,1294.362c0,7.373-5.135,13.363-11.461,13.363a10.212,10.212,0,0,1-5.019-1.332v22.844H873.6V1259.5h25.91a10.118,10.118,0,0,0-1.682,5.563c0,6.325,5.976,11.461,13.363,11.461s13.363-5.136,13.363-11.461a10.118,10.118,0,0,0-1.682-5.562h20.464v22.858a10.015,10.015,0,0,1,5.019-1.345C954.681,1281,959.8,1286.975,959.8,1294.362Z" transform="translate(-873.6 -1259.474)" fill="#7be9e1"/>
          <g id="Group_2649" data-name="Group 2649">
            <path id="Path_381" data-name="Path 381" d="M905,1612.238c-.194-5.8-1.19-11.746-6.688-14.837-9.495-5.329-19.662,1.475-24.617,9.9v.815a24.908,24.908,0,0,1,7.335-8.512c4.722-3.428,10.892-4.8,16.312-2.2,5.989,2.859,7.024,9.068,7.231,15.083.1,3.092.142,6.2.142,9.288h.44C905.147,1618.6,905.108,1615.42,905,1612.238Z" transform="translate(-873.687 -1552.022)" fill="#00a89b"/>
            <path id="Path_382" data-name="Path 382" d="M1297.01,1286.581c3.014,2.975,7.386,1.307,10.556-.479a43.917,43.917,0,0,0,7.4-5.278h-.142c-.181,0-.362.013-.543.013a43.984,43.984,0,0,1-6.934,4.877c-2.367,1.332-5.381,2.755-8.124,1.746-2.432-.88-3.583-3.363-4.01-5.743-.854-4.7.323-9.922,2.212-14.242a29.645,29.645,0,0,1,5.343-8.175h-.582a30.14,30.14,0,0,0-7.542,17.23C1294.32,1279.881,1294.449,1284.059,1297.01,1286.581Z" transform="translate(-1240.068 -1259.3)" fill="#00a89b"/>
            <path id="Path_383" data-name="Path 383" d="M1312.855,1584.258c.168-.078.336-.168.491-.246a18.767,18.767,0,0,0-9.443-5.42,12.784,12.784,0,0,0-13.311,5.019c-3.506,4.722-3.971,10.776-2.548,16.351a34.7,34.7,0,0,0,2.522,6.817h.556a34.348,34.348,0,0,1-2.768-7.438c-1.281-5.5-.66-11.448,2.975-15.936a12.565,12.565,0,0,1,14.527-3.751A19.131,19.131,0,0,1,1312.855,1584.258Z" transform="translate(-1233.779 -1537.004)" fill="#00a89b"/>
            <path id="Path_384" data-name="Path 384" d="M873.6,1294.883v.5a29.529,29.529,0,0,0,13.311-15.264,29.181,29.181,0,0,0-.22-20.723h-.479a28.345,28.345,0,0,1-12.612,35.483Z" transform="translate(-873.6 -1259.387)" fill="#00a89b"/>
          </g>
        </g>
        <rect id="Rectangle_887" data-name="Rectangle 887" width="333.224" height="0.595" transform="translate(0 206.001)" fill="#00a89b"/>
      </g>
    </g>
  </g>
</svg>
