<svg xmlns="http://www.w3.org/2000/svg" xmlns:xlink="http://www.w3.org/1999/xlink" width="279.991" height="286.097" viewBox="0 0 279.991 286.097">
  <defs>
    <clipPath id="clip-path">
      <path id="Path_462" data-name="Path 462" d="M189.567,100.993A52.464,52.464,0,1,1,137.1,48.53a52.464,52.464,0,0,1,52.464,52.464Z" transform="translate(-84.64 -48.53)" fill="#e74645"/>
    </clipPath>
    <clipPath id="clip-path-2">
      <ellipse id="Ellipse_67" data-name="Ellipse 67" cx="52.464" cy="52.463" rx="52.464" ry="52.463" transform="matrix(0.999, -0.05, 0.05, 0.999, 0, 5.236)" fill="#1db2a8"/>
    </clipPath>
    <clipPath id="clip-path-3">
      <path id="Path_496" data-name="Path 496" d="M243.557,185.51a52.464,52.464,0,1,1-52.443-52.41,52.464,52.464,0,0,1,52.443,52.41Z" transform="translate(-138.63 -133.1)" fill="#f9b233"/>
    </clipPath>
    <clipPath id="clip-path-4">
      <path id="Path_512" data-name="Path 512" d="M150.017,208.553A52.464,52.464,0,1,1,97.554,156.09a52.463,52.463,0,0,1,52.464,52.463Z" transform="translate(-45.09 -156.09)" fill="#6ebebf"/>
    </clipPath>
    <clipPath id="clip-path-5">
      <ellipse id="Ellipse_69" data-name="Ellipse 69" cx="52.464" cy="52.463" rx="52.464" ry="52.463" fill="#f08046"/>
    </clipPath>
    <clipPath id="clip-path-6">
      <path id="Path_540" data-name="Path 540" d="M243.557,288.613A52.464,52.464,0,1,1,191.1,236.15a52.464,52.464,0,0,1,52.461,52.463Z" transform="translate(-138.63 -236.15)" fill="#e74645"/>
    </clipPath>
  </defs>
  <g id="Group_3120" data-name="Group 3120" transform="translate(-890 -308.186)">
    <path id="Path_439" data-name="Path 439" d="M189.567,100.993A52.464,52.464,0,1,1,137.1,48.53a52.464,52.464,0,0,1,52.464,52.464Z" transform="translate(840.493 274.162)" fill="#e74645" opacity="0.69"/>
    <g id="Group_2881" data-name="Group 2881" transform="translate(925.133 322.692)" clip-path="url(#clip-path)">
      <rect id="Rectangle_930" data-name="Rectangle 930" width="10.322" height="6.138" transform="translate(48.395 77.016)" fill="#f8bb94"/>
      <path id="Path_440" data-name="Path 440" d="M145.658,140.54c-2.167-.684-3.98-2.043-4.255-4.442a2.1,2.1,0,0,1,.089-.888H139.12v6.138h10.322v-.773a6.92,6.92,0,0,1-3.784-.036Z" transform="translate(-90.725 -58.211)" fill="#fb9655"/>
      <path id="Path_441" data-name="Path 441" d="M172.8,112.482a4.761,4.761,0,1,1-4.761-4.593,4.672,4.672,0,0,1,4.761,4.593Z" transform="translate(-93.424 -55.16)" fill="#f8bb94"/>
      <g id="Group_2879" data-name="Group 2879" transform="translate(75.24 54.757)">
        <path id="Path_442" data-name="Path 442" d="M169.34,110.179a1.775,1.775,0,0,1,.32,0,2.55,2.55,0,0,1,.888.169,2.034,2.034,0,0,1,1.013.773c.071.107.115.222.178.329a1.652,1.652,0,0,1,.107.373v.755a3.353,3.353,0,0,1-.151.72,3,3,0,0,1-.293.64,2.3,2.3,0,0,1-.888.888,2.1,2.1,0,0,1-.462.187,1.626,1.626,0,0,1-.373.062h-.32l.293-.115c.1,0,.2-.107.311-.16a3.856,3.856,0,0,0,.346-.258,3.459,3.459,0,0,0,.338-.373,3.554,3.554,0,0,0,.284-.48,5.33,5.33,0,0,0,.2-.569,2.274,2.274,0,0,0,.107-.613v-.586a1.147,1.147,0,0,0-.071-.275,1.507,1.507,0,0,0-.107-.249,1.981,1.981,0,0,0-.693-.737,4.556,4.556,0,0,0-.72-.364Z" transform="translate(-169.34 -110.172)" fill="#fb9655"/>
      </g>
      <path id="Path_443" data-name="Path 443" d="M169.807,113.2a.773.773,0,1,1-.764-.888.844.844,0,0,1,.764.888Z" transform="translate(-93.981 -55.654)" fill="#fb9655"/>
      <path id="Path_444" data-name="Path 444" d="M116.58,112.482a4.761,4.761,0,1,0,4.761-4.593,4.672,4.672,0,0,0-4.761,4.593Z" transform="translate(-88.207 -55.16)" fill="#f8bb94"/>
      <g id="Group_2880" data-name="Group 2880" transform="translate(30.06 54.757)">
        <path id="Path_445" data-name="Path 445" d="M120.941,110.179a1.884,1.884,0,0,0-.329,0,2.549,2.549,0,0,0-.835.169,2.034,2.034,0,0,0-1.013.773c-.071.107-.115.222-.178.329a2.946,2.946,0,0,0-.107.373v.755a3.972,3.972,0,0,0,.142.72,2.665,2.665,0,0,0,.3.64,2.3,2.3,0,0,0,.888.888,1.937,1.937,0,0,0,.462.187,1.643,1.643,0,0,0,.364.062h.329l-.293-.115c-.089,0-.2-.107-.311-.16a2.9,2.9,0,0,1-.346-.258,2.728,2.728,0,0,1-.338-.373,2.318,2.318,0,0,1-.275-.48,3.944,3.944,0,0,1-.213-.569,4.192,4.192,0,0,1-.107-.613v-.586a2.5,2.5,0,0,0,.062-.275.6.6,0,0,1,.107-.249,2.158,2.158,0,0,1,.7-.737,4.948,4.948,0,0,1,.711-.364Z" transform="translate(-118.48 -110.172)" fill="#fb9655"/>
      </g>
      <path id="Path_446" data-name="Path 446" d="M120.56,113.2a.773.773,0,1,0,.764-.888A.835.835,0,0,0,120.56,113.2Z" transform="translate(-88.652 -55.654)" fill="#fb9655"/>
      <path id="Path_447" data-name="Path 447" d="M163.35,102.686c0,15.608-7.32,26.569-21.071,26.569s-21.08-10.962-21.08-26.569,7.6-28.266,21.319-28.266S163.35,87.078,163.35,102.686Z" transform="translate(-88.723 -51.422)" fill="#f8bb94"/>
      <path id="Path_448" data-name="Path 448" d="M136.118,141.85s-13.085,1.777-17.766,5.8-6.218,7.737-7.941,15.936h61.373c-1.723-8.2-3.145-11.779-7.933-15.936s-17.766-5.8-17.766-5.8Z" transform="translate(-87.518 -58.953)" fill="#f8bb94"/>
      <path id="Path_449" data-name="Path 449" d="M132.161,142.522s-9.132,1.057-13.84,5.126-6.218,7.737-7.941,15.936h61.373c-1.723-8.2-3.118-11.814-7.933-15.936-3.98-3.393-12.916-4.939-12.916-4.939l-4.886-.888h-9.9Z" transform="translate(-87.515 -58.95)" fill="#fff"/>
      <path id="Path_450" data-name="Path 450" d="M141.958,149.788a.683.683,0,0,1,.169-.178l-.169.178-1.688,13.76h8.279l-1.688-13.76,1.164-4.735a2.105,2.105,0,0,0,.116-2.239,2.5,2.5,0,0,0-1.546-1.155,12.338,12.338,0,0,0-3.145-.107,2.727,2.727,0,0,0-2.434.888,2.07,2.07,0,0,0-.169,2.6Z" transform="translate(-90.853 -58.914)" fill="#e74645"/>
      <path id="Path_451" data-name="Path 451" d="M142,149.932s3.429-1.608,5.072.737a5.454,5.454,0,0,0-4.895,0Z" transform="translate(-91.047 -59.796)" fill="#c6c6c6"/>
      <path id="Path_452" data-name="Path 452" d="M132.161,142.61s-9.132,1.057-13.84,5.126-6.218,7.737-7.941,15.936h61.373c-1.723-8.2-3.118-11.814-7.933-15.936-3.98-3.393-12.916-4.939-12.916-4.939l-9.834,20.316Z" transform="translate(-87.515 -59.038)" fill="#0d3953"/>
      <path id="Path_453" data-name="Path 453" d="M133.883,142.768l8.785,20.36-9.345-6.032,2.105-3.615L125,144.856S130.943,142.564,133.883,142.768Z" transform="translate(-89.148 -59.054)" fill="#031d2d"/>
      <path id="Path_454" data-name="Path 454" d="M154.764,142.818l-9.834,20.316,9.336-6.032-2.1-3.615,10.447-8.625S157.739,142.614,154.764,142.818Z" transform="translate(-91.374 -59.06)" fill="#031d2d"/>
      <path id="Path_455" data-name="Path 455" d="M132.84,142.81l7.9,5.508-.657-2.754Z" transform="translate(-90.023 -59.06)" fill="#b2b2b2"/>
      <path id="Path_456" data-name="Path 456" d="M156.78,142.92l-8.67,5.525.755-3.216Z" transform="translate(-91.729 -59.073)" fill="#b2b2b2"/>
      <path id="Path_457" data-name="Path 457" d="M138.419,139.81l-5.579,2.665,6.6,3.944,4.619-5.1Z" transform="translate(-90.023 -58.725)" fill="#fff"/>
      <path id="Path_458" data-name="Path 458" d="M138.307,141.754a4.06,4.06,0,0,1,2.923-1.2l-2.843-.755-5.587,2.665,4.992,2.976A2.958,2.958,0,0,1,138.307,141.754Z" transform="translate(-90.019 -58.724)" fill="#dadada"/>
      <path id="Path_459" data-name="Path 459" d="M151,139.81l5.579,2.665-6.6,3.944-4.628-5.1Z" transform="translate(-91.421 -58.725)" fill="#fff"/>
      <path id="Path_460" data-name="Path 460" d="M151.433,141.754a4.077,4.077,0,0,0-2.923-1.2l2.843-.755,5.579,2.665-4.983,2.976a2.976,2.976,0,0,0-.515-3.686Z" transform="translate(-91.774 -58.724)" fill="#dadada"/>
      <path id="Path_461" data-name="Path 461" d="M121.124,105.905l2.132,2.141.409-17.2s.142-8.883,9.62-8.883a24.18,24.18,0,0,0,17.686.7s8.883-1.395,9.914,7.8l-.036,17.917,2.265-2.789.124-2.336a69.521,69.521,0,0,0,0-18.7s-1.777-12.321-12.916-14.408c0,0-18.175-4.681-25.841,6.769a23.167,23.167,0,0,0-4.308,17.509Z" transform="translate(-88.576 -50.839)" fill="#956000"/>
    </g>
    <ellipse id="Ellipse_66" data-name="Ellipse 66" cx="52.464" cy="52.463" rx="52.464" ry="52.463" transform="matrix(0.999, -0.05, 0.05, 0.999, 1059.959, 420.891)" fill="#7be9e1" opacity="0.69"/>
    <g id="Group_2885" data-name="Group 2885" transform="translate(1059.959 415.654)" clip-path="url(#clip-path-2)">
      <rect id="Rectangle_931" data-name="Rectangle 931" width="10.322" height="6.138" transform="translate(49.844 79.885)" fill="#f8bb94"/>
      <path id="Path_463" data-name="Path 463" d="M293.125,247.694a6.982,6.982,0,0,1,4.5-2.034c1.475-.116,3.988.2,4.779-1.332a1.838,1.838,0,0,1,.444-.568v-.648H292.53v5.33a4.95,4.95,0,0,1,.6-.746Z" transform="translate(-242.686 -163.225)" fill="#c6c6c6"/>
      <path id="Path_464" data-name="Path 464" d="M326.223,220.361a4.761,4.761,0,1,1-4.761-4.6,4.681,4.681,0,0,1,4.761,4.6Z" transform="translate(-245.386 -160.17)" fill="#f8bb94"/>
      <g id="Group_2883" data-name="Group 2883" transform="translate(76.688 57.626)">
        <path id="Path_465" data-name="Path 465" d="M322.75,218.059a1.78,1.78,0,0,1,.32,0,2.745,2.745,0,0,1,.844.16,2.06,2.06,0,0,1,1.013.782,2.851,2.851,0,0,1,.178.329,2.456,2.456,0,0,1,.107.364l.044.382v.382a3.274,3.274,0,0,1-.151.711,3.077,3.077,0,0,1-.293.648,2.363,2.363,0,0,1-.888.888,2.1,2.1,0,0,1-.462.187,2.4,2.4,0,0,1-.364.062h-.329l.293-.115c.089,0,.186-.107.311-.16a2.266,2.266,0,0,0,.346-.267,2.667,2.667,0,0,0,.338-.364,3.206,3.206,0,0,0,.284-.489,3.457,3.457,0,0,0,.2-.56,2.764,2.764,0,0,0,.107-.613V219.8a1.531,1.531,0,0,0-.062-.275.878.878,0,0,0-.107-.249,2.025,2.025,0,0,0-.711-.737,3.837,3.837,0,0,0-.7-.364Z" transform="translate(-322.75 -218.052)" fill="#dadada"/>
      </g>
      <path id="Path_466" data-name="Path 466" d="M323.247,221.078a.773.773,0,1,1-.764-.888.835.835,0,0,1,.764.888Z" transform="translate(-245.945 -160.665)" fill="#dadada"/>
      <path id="Path_467" data-name="Path 467" d="M270,220.361a4.761,4.761,0,1,0,4.761-4.6A4.681,4.681,0,0,0,270,220.361Z" transform="translate(-240.17 -160.17)" fill="#f8bb94"/>
      <g id="Group_2884" data-name="Group 2884" transform="translate(31.5 57.626)">
        <path id="Path_468" data-name="Path 468" d="M274.349,218.059a1.779,1.779,0,0,0-.32,0,2.744,2.744,0,0,0-.844.16,2.061,2.061,0,0,0-1.013.782,2.856,2.856,0,0,0-.178.329c-.044.115-.08.24-.116.364v.764a3.266,3.266,0,0,0,.151.711,2.663,2.663,0,0,0,.293.648,2.362,2.362,0,0,0,.888.888,2.1,2.1,0,0,0,.462.187,2.318,2.318,0,0,0,.373.062h.32l-.293-.115c-.1,0-.2-.107-.311-.16a2.267,2.267,0,0,1-.346-.266,2.219,2.219,0,0,1-.338-.364,3.211,3.211,0,0,1-.284-.489,3.46,3.46,0,0,1-.2-.56,3.4,3.4,0,0,1-.115-.613V219.8a.449.449,0,0,1,.062-.275,1.907,1.907,0,0,0,.107-.249,2.025,2.025,0,0,1,.711-.737,3.839,3.839,0,0,1,.7-.364Z" transform="translate(-271.88 -218.052)" fill="#dadada"/>
      </g>
      <path id="Path_469" data-name="Path 469" d="M274,221.078a.773.773,0,1,0,.764-.888A.835.835,0,0,0,274,221.078Z" transform="translate(-240.616 -160.665)" fill="#dadada"/>
      <path id="Path_470" data-name="Path 470" d="M316.761,210.566c0,15.608-7.32,26.569-21.071,26.569s-21.071-10.962-21.071-26.569,7.6-28.266,21.319-28.266S316.761,194.958,316.761,210.566Z" transform="translate(-240.686 -156.433)" fill="#f8bb94"/>
      <path id="Path_471" data-name="Path 471" d="M289.528,249.73s-13.085,1.777-17.766,5.8-6.218,7.737-7.941,15.936H325.2c-1.732-8.2-3.145-11.788-7.941-15.936s-17.766-5.8-17.766-5.8Z" transform="translate(-239.48 -163.964)" fill="#f8bb94"/>
      <path id="Path_472" data-name="Path 472" d="M304.5,250.749s7.995.826,12.729,4.895,6.218,7.737,7.941,15.936H263.79c1.732-8.2,3.145-11.788,7.941-15.936s12.765-4.9,12.765-4.9-1.777,11.193,10.42,11.1C294.916,261.835,304.972,262.235,304.5,250.749Z" transform="translate(-239.476 -164.077)" fill="#1a7290"/>
      <path id="Path_473" data-name="Path 473" d="M288.569,250.37a1.572,1.572,0,0,1,0,.577c0,.071-.569,4.06,1.723,6.7,1.448,1.67,3.829,2.505,7.035,2.478h.08a8.475,8.475,0,0,0,5.676-2.212c1.564-1.581,2.292-4.388,2.159-7.542l3.358.586c.107,3.989-.959,7.106-3.171,9.336a11.761,11.761,0,0,1-7.995,3.18h-.258c-4.175,0-7.355-1.235-9.452-3.66-2.745-3.18-2.665-7.391-2.54-8.883Z" transform="translate(-241.861 -164.036)" fill="#054153"/>
      <path id="Path_474" data-name="Path 474" d="M273.927,201.322l.755,12.738,1.865.524c-1.643-20.564,9.194-25.264,9.194-25.264l3.029-12.872a15.1,15.1,0,0,0-13.325,7.346S272.008,187.269,273.927,201.322Z" transform="translate(-240.543 -155.779)" fill="#732400"/>
      <path id="Path_475" data-name="Path 475" d="M273.908,203.317s-.355-1.608-.666-4.024c-.169-1.217-.32-2.665-.453-4.14-.053-.764-.142-1.546-.178-2.345,0-.391-.053-.8-.071-1.2v-1.288a8.6,8.6,0,0,1,.151-1.279,7.82,7.82,0,0,1,.275-1.27c.062-.2.107-.418.178-.613l.231-.586a8.967,8.967,0,0,1,.5-1.11,8.7,8.7,0,0,1,.577-1.022,10.5,10.5,0,0,1,.631-.888,12.354,12.354,0,0,1,1.324-1.546,12,12,0,0,1,1.261-1.146,12.354,12.354,0,0,1,1.048-.773,9.005,9.005,0,0,1,.977-.577,24.718,24.718,0,0,0-2.549,3.109,8.28,8.28,0,0,0-.506.773c-.169.266-.346.542-.506.844s-.329.586-.48.888a9.823,9.823,0,0,0-.435.977,7.787,7.787,0,0,0-.382,1.022c-.115.355-.222.711-.3,1.075a8.041,8.041,0,0,0-.213,1.084,8.406,8.406,0,0,0-.107,1.128v.835h0v.249a10.914,10.914,0,0,0,.044,1.208v2.345c0,1.519,0,2.94-.062,4.166C274.112,201.682,273.908,203.317,273.908,203.317Z" transform="translate(-240.454 -156.121)" fill="#511800"/>
      <path id="Path_476" data-name="Path 476" d="M320.664,204.132l-.755,12.738-1.865.524c1.892-27.422-8.332-27.884-8.332-27.884l-3.891-10.251a15.1,15.1,0,0,1,13.325,7.346S322.556,190.079,320.664,204.132Z" transform="translate(-244.171 -156.093)" fill="#732400"/>
      <path id="Path_477" data-name="Path 477" d="M286.118,188.143a31.6,31.6,0,0,1,24.038,1.572l.933-9.434s-2.39-18.37-26.365-12.516a17.306,17.306,0,0,1,4.282,2.78s-9.23-.64-13.325,7.764c0,0,6.218-2.079,11.264-.737C286.961,177.617,279.429,182.564,286.118,188.143Z" transform="translate(-240.804 -154.681)" fill="#732400"/>
      <path id="Path_478" data-name="Path 478" d="M312.222,180.191a13.909,13.909,0,0,0-.462-1.35,19.481,19.481,0,0,0-3.056-5.33,20.82,20.82,0,0,0-1.848-1.937,17.253,17.253,0,0,0-2.3-1.688,15.1,15.1,0,0,0-2.665-1.288,13.063,13.063,0,0,0-1.4-.48,13.5,13.5,0,0,0-1.43-.364,23.315,23.315,0,0,0-2.86-.453c-.471-.053-.888-.071-1.386-.1s-.888-.062-1.341-.044c-.888,0-1.714,0-2.478.053s-1.475.089-2.105.142-1.181.1-1.626.151c-.888.107-1.43.151-1.43.151s.489-.187,1.359-.471a15,15,0,0,1,1.59-.462c.622-.16,1.315-.346,2.1-.471.391-.062.8-.151,1.226-.2l1.315-.142c.453-.053.888-.053,1.4-.08a13.657,13.657,0,0,1,1.475,0,14.884,14.884,0,0,1,1.528.107,12.08,12.08,0,0,1,1.563.231,18.433,18.433,0,0,1,3.109.888,15.9,15.9,0,0,1,2.9,1.483,14.508,14.508,0,0,1,2.443,1.981,15.244,15.244,0,0,1,3.1,4.548,15.644,15.644,0,0,1,1.119,3.678,8.89,8.89,0,0,1,.169,1.448Z" transform="translate(-241.938 -154.591)" fill="#511800"/>
    </g>
    <path id="Path_479" data-name="Path 479" d="M243.557,185.51a52.464,52.464,0,1,1-52.443-52.41,52.464,52.464,0,0,1,52.443,52.41Z" transform="translate(834.462 264.717)" fill="#fed74b" opacity="0.69"/>
    <g id="Group_2889" data-name="Group 2889" transform="translate(973.093 397.816)" clip-path="url(#clip-path-3)">
      <rect id="Rectangle_932" data-name="Rectangle 932" width="10.322" height="6.138" transform="translate(47.311 77.256)" fill="#f8bb94"/>
      <path id="Path_480" data-name="Path 480" d="M192.476,224.645a7.053,7.053,0,0,1,4.513-2.034c1.475-.107,3.989.213,4.77-1.324a1.777,1.777,0,0,1,.453-.569v-.648H191.89v5.33a6.3,6.3,0,0,1,.586-.755Z" transform="translate(-144.579 -142.814)" fill="#fb9655"/>
      <path id="Path_481" data-name="Path 481" d="M225.583,197.321a4.761,4.761,0,1,1-4.761-4.6A4.681,4.681,0,0,1,225.583,197.321Z" transform="translate(-147.279 -139.759)" fill="#f8bb94"/>
      <g id="Group_2887" data-name="Group 2887" transform="translate(74.156 54.979)">
        <path id="Path_482" data-name="Path 482" d="M222.11,195a1.777,1.777,0,0,1,.32,0,2.5,2.5,0,0,1,.844.16,2.061,2.061,0,0,1,1.013.782,2.865,2.865,0,0,1,.178.329c.044.116.071.24.107.364l.044.382v.382a3.268,3.268,0,0,1-.151.711,3.07,3.07,0,0,1-.293.648,2.381,2.381,0,0,1-.888.888,1.884,1.884,0,0,1-.453.187,2.318,2.318,0,0,1-.373.062h-.32l.293-.115c.089,0,.2-.107.311-.16a2.8,2.8,0,0,0,.346-.266,2.318,2.318,0,0,0,.338-.373,2.263,2.263,0,0,0,.275-.48,3.43,3.43,0,0,0,.311-1.173v-.586a.449.449,0,0,0-.062-.275l-.107-.249a2.1,2.1,0,0,0-.711-.737,3.608,3.608,0,0,0-.711-.364A1.777,1.777,0,0,0,222.11,195Z" transform="translate(-222.11 -194.992)" fill="#fb9655"/>
      </g>
      <path id="Path_483" data-name="Path 483" d="M222.607,198.038a.773.773,0,1,1-.764-.888A.835.835,0,0,1,222.607,198.038Z" transform="translate(-147.838 -140.254)" fill="#fb9655"/>
      <path id="Path_484" data-name="Path 484" d="M169.35,197.321a4.761,4.761,0,1,0,4.752-4.6,4.681,4.681,0,0,0-4.752,4.6Z" transform="translate(-142.061 -139.759)" fill="#f8bb94"/>
      <g id="Group_2888" data-name="Group 2888" transform="translate(28.959 54.979)">
        <path id="Path_485" data-name="Path 485" d="M173.691,195a1.777,1.777,0,0,0-.32,0,2.452,2.452,0,0,0-.835.16,2.061,2.061,0,0,0-1.013.782,2.856,2.856,0,0,0-.178.329c-.044.116-.08.24-.116.364v.764a3.872,3.872,0,0,0,.142.711,3.6,3.6,0,0,0,.293.648,2.443,2.443,0,0,0,.888.888,1.776,1.776,0,0,0,.462.187,2.4,2.4,0,0,0,.364.062h.311l-.284-.115c-.1,0-.2-.107-.311-.16a2.263,2.263,0,0,1-.346-.266,1.97,1.97,0,0,1-.338-.373,2.733,2.733,0,0,1-.284-.48,4.584,4.584,0,0,1-.2-.56,2.329,2.329,0,0,1-.1-.613v-.586a.449.449,0,0,1,.062-.275,1.9,1.9,0,0,0,.107-.249,2.078,2.078,0,0,1,.7-.737,4.163,4.163,0,0,1,.711-.364A2.176,2.176,0,0,1,173.691,195Z" transform="translate(-171.23 -194.992)" fill="#fb9655"/>
      </g>
      <path id="Path_486" data-name="Path 486" d="M173.32,198.038a.782.782,0,1,0,.773-.888.835.835,0,0,0-.773.888Z" transform="translate(-142.504 -140.254)" fill="#fb9655"/>
      <path id="Path_487" data-name="Path 487" d="M216.124,187.526c0,15.608-7.329,26.569-21.071,26.569S174,203.134,174,187.526s7.6-28.266,21.319-28.266S216.124,171.91,216.124,187.526Z" transform="translate(-142.581 -136.022)" fill="#f8bb94"/>
      <path id="Path_488" data-name="Path 488" d="M188.888,226.69s-13.094,1.732-17.766,5.8-6.218,7.737-7.941,15.936h61.373c-1.723-8.2-3.145-11.788-7.933-15.936s-17.766-5.8-17.766-5.8Z" transform="translate(-141.372 -143.553)" fill="#f8bb94"/>
      <path id="Path_489" data-name="Path 489" d="M183.856,227.7s-8.066.835-12.765,4.9-6.218,7.737-7.942,15.936h61.373c-1.723-8.2-3.145-11.788-7.933-15.936s-12.712-4.895-12.712-4.895l-10.038,9.958Z" transform="translate(-141.369 -143.666)" fill="#373c47"/>
      <path id="Path_490" data-name="Path 490" d="M173.248,178.281l.764,12.738,1.865.524c-1.643-20.564,9.194-25.272,9.194-25.272l2.994-12.872a15.1,15.1,0,0,0-13.325,7.355S171.365,164.228,173.248,178.281Z" transform="translate(-142.433 -135.367)" fill="#432918"/>
      <path id="Path_491" data-name="Path 491" d="M173.248,180.279s-.382-1.608-.711-4.024c-.178-1.217-.338-2.665-.471-4.14-.062-.764-.151-1.546-.2-2.336a6.945,6.945,0,0,0-.071-1.208v-1.288a9.042,9.042,0,0,1,.16-1.3,7.259,7.259,0,0,1,.284-1.279c.053-.2.107-.409.169-.613l.231-.586a10.754,10.754,0,0,1,.515-1.119,9.485,9.485,0,0,1,.6-1,10.547,10.547,0,0,1,.64-.888,11.726,11.726,0,0,1,1.341-1.546,12.8,12.8,0,0,1,1.27-1.137c.391-.32.764-.56,1.066-.764a7.992,7.992,0,0,1,.986-.56,24.462,24.462,0,0,0-2.514,3.145c-.169.24-.338.5-.5.773a9.593,9.593,0,0,0-.5.844,8.691,8.691,0,0,0-.471.888c-.151.32-.311.631-.435.968a7.731,7.731,0,0,0-.364,1.022,10.5,10.5,0,0,0-.3,1.066,6.724,6.724,0,0,0-.2,1.075,6.883,6.883,0,0,0-.116,1.119v.835h0v3.846c0,1.528,0,2.949-.089,4.166A39.906,39.906,0,0,1,173.248,180.279Z" transform="translate(-142.335 -135.712)" fill="#2a1807"/>
      <path id="Path_492" data-name="Path 492" d="M185.22,168.507s6.5,11.228,27.4,10.66c0,0-3.909-4.619-1.963-6.813C210.652,172.345,190.425,162.724,185.22,168.507Z" transform="translate(-143.834 -136.848)" fill="#fb9655"/>
      <path id="Path_493" data-name="Path 493" d="M220.02,181.092l-.791,12.738-1.857.524c1.635-20.564-9.2-25.264-9.2-25.264l-3.02-12.872a15.1,15.1,0,0,1,13.325,7.346S221.895,167.039,220.02,181.092Z" transform="translate(-146.06 -135.682)" fill="#432918"/>
      <path id="Path_494" data-name="Path 494" d="M181.36,154.532s3.011-6.12,13.787-7.79c0,0,17.944-2.159,23.665,10.3,0,0,2.9,5.987,1.848,16.54,0,0-1.084-4.752-4.024-6.325,0,0-.5,5.614-8.244,2.159,0,0-1.226,2.3,1.475,6.4C209.866,175.807,184.789,175.807,181.36,154.532Z" transform="translate(-143.403 -134.608)" fill="#432918"/>
      <path id="Path_495" data-name="Path 495" d="M181.36,154.425a7.825,7.825,0,0,1,.951-1.652,11.672,11.672,0,0,1,1.439-1.67,9.8,9.8,0,0,1,1-.888,11.347,11.347,0,0,1,1.217-.888,18.164,18.164,0,0,1,2.976-1.661,21.43,21.43,0,0,1,3.553-1.27c.631-.2,1.3-.3,1.954-.453l.506-.107.56-.071,1.03-.071a36.7,36.7,0,0,1,4.193,0,35.97,35.97,0,0,1,4.157.56,25.269,25.269,0,0,1,3.917,1.137,20.68,20.68,0,0,1,3.447,1.679,16.406,16.406,0,0,1,2.727,2.079,14.125,14.125,0,0,1,1.9,2.167,12.959,12.959,0,0,1,1.137,1.892,11.788,11.788,0,0,1,.56,1.288l.178.462-.267-.418c-.178-.275-.426-.675-.791-1.146a14.783,14.783,0,0,0-1.368-1.626,11.381,11.381,0,0,0-.888-.888,13.04,13.04,0,0,0-1.1-.888,18.927,18.927,0,0,0-2.718-1.688,24.211,24.211,0,0,0-3.3-1.35,30.383,30.383,0,0,0-3.722-.888,34.063,34.063,0,0,0-3.953-.48,37.231,37.231,0,0,0-3.98-.08l-.968.044h-.435l-.48.08c-.631.115-1.27.169-1.865.329a27.3,27.3,0,0,0-3.464.977l-.791.293c-.258.107-.506.213-.746.329a14.815,14.815,0,0,0-1.412.666,19.285,19.285,0,0,0-2.31,1.466,14.614,14.614,0,0,0-1.617,1.377,11.116,11.116,0,0,0-.933,1.022A4.228,4.228,0,0,0,181.36,154.425Z" transform="translate(-143.403 -134.5)" fill="#2a1807"/>
    </g>
    <path id="Path_497" data-name="Path 497" d="M150.017,208.553A52.464,52.464,0,1,1,97.554,156.09a52.463,52.463,0,0,1,52.464,52.463Z" transform="translate(844.91 262.148)" fill="#0ecebf" opacity="0.69"/>
    <g id="Group_2893" data-name="Group 2893" transform="translate(890 418.238)" clip-path="url(#clip-path-4)">
      <path id="Path_498" data-name="Path 498" d="M128.509,222.228s-6.787,22.945-18.779,24.384V241.38S122.024,218.47,128.509,222.228Z" transform="translate(-52.31 -163.431)" fill="#432918"/>
      <rect id="Rectangle_933" data-name="Rectangle 933" width="10.322" height="6.138" transform="translate(47.302 77.301)" fill="#f8bb94"/>
      <path id="Path_499" data-name="Path 499" d="M98.926,247.694a7.009,7.009,0,0,1,4.5-2.034c1.483-.116,4,.2,4.779-1.332a1.839,1.839,0,0,1,.444-.568v-.648H98.34v5.33A4.575,4.575,0,0,1,98.926,247.694Z" transform="translate(-51.038 -165.809)" fill="#fb9655"/>
      <path id="Path_500" data-name="Path 500" d="M132.033,220.362a4.761,4.761,0,1,1-4.752-4.593A4.681,4.681,0,0,1,132.033,220.362Z" transform="translate(-53.737 -162.756)" fill="#f8bb94"/>
      <g id="Group_2891" data-name="Group 2891" transform="translate(74.129 55.041)">
        <path id="Path_501" data-name="Path 501" d="M128.567,218.059a1.779,1.779,0,0,1,.32,0,2.666,2.666,0,0,1,.835.16,2.132,2.132,0,0,1,1.022.782,2.839,2.839,0,0,1,.169.329,1.562,1.562,0,0,0,.115.364v.382a3.668,3.668,0,0,1-.16,1.093,3.072,3.072,0,0,1-.293.648,2.443,2.443,0,0,1-.888.888,1.883,1.883,0,0,1-.453.187,2.494,2.494,0,0,1-.373.062h-.32l.284-.115c.1,0,.2-.107.311-.16a2.841,2.841,0,0,0,.355-.267,2.665,2.665,0,0,0,.329-.364,3.554,3.554,0,0,0,.284-.48,3.915,3.915,0,0,0,.2-.569,2.781,2.781,0,0,0,.107-.6v-.6a1.536,1.536,0,0,0-.062-.275.877.877,0,0,0-.107-.249,2.079,2.079,0,0,0-.7-.737,3.606,3.606,0,0,0-.711-.364Z" transform="translate(-128.54 -218.052)" fill="#fb9655"/>
      </g>
      <path id="Path_502" data-name="Path 502" d="M129.064,221.078a.782.782,0,1,1-.773-.888.835.835,0,0,1,.773.888Z" transform="translate(-54.295 -163.249)" fill="#fb9655"/>
      <path id="Path_503" data-name="Path 503" d="M75.81,220.362a4.761,4.761,0,1,0,4.752-4.593A4.673,4.673,0,0,0,75.81,220.362Z" transform="translate(-48.521 -162.756)" fill="#f8bb94"/>
      <g id="Group_2892" data-name="Group 2892" transform="translate(28.968 55.041)">
        <path id="Path_504" data-name="Path 504" d="M80.161,218.059a1.78,1.78,0,0,0-.32,0,2.666,2.666,0,0,0-.835.16,2.132,2.132,0,0,0-1.022.782c-.062.1-.115.213-.178.329l-.107.364v.764a3.161,3.161,0,0,0,.151.711,3.073,3.073,0,0,0,.293.648,2.443,2.443,0,0,0,.888.888,1.883,1.883,0,0,0,.453.187,2.664,2.664,0,0,0,.373.062h.32l-.293-.115c-.089,0-.187-.107-.311-.16a2.8,2.8,0,0,1-.346-.267,2.177,2.177,0,0,1-.329-.364,2.355,2.355,0,0,1-.284-.48,3.09,3.09,0,0,1-.2-.569,2.781,2.781,0,0,1-.107-.6v-.6a.449.449,0,0,1,.062-.275,1.9,1.9,0,0,0,.107-.249,2.008,2.008,0,0,1,.7-.737,3.607,3.607,0,0,1,.711-.364Z" transform="translate(-77.7 -218.052)" fill="#dadada"/>
      </g>
      <path id="Path_505" data-name="Path 505" d="M79.78,221.078a.782.782,0,1,0,.773-.888.835.835,0,0,0-.773.888Z" transform="translate(-48.964 -163.249)" fill="#dadada"/>
      <path id="Path_506" data-name="Path 506" d="M122.58,210.566c0,15.608-7.329,26.569-21.08,26.569S80.43,226.174,80.43,210.566s7.6-28.266,21.319-28.266S122.58,194.958,122.58,210.566Z" transform="translate(-49.037 -159.017)" fill="#f8bb94"/>
      <path id="Path_507" data-name="Path 507" d="M95.341,249.73s-13.094,1.777-17.766,5.8-6.218,7.737-7.995,15.936h61.382c-1.723-8.2-3.145-11.788-7.941-15.936s-17.766-5.8-17.766-5.8Z" transform="translate(-47.825 -166.549)" fill="#f8bb94"/>
      <path id="Path_508" data-name="Path 508" d="M107.025,249.73a68.766,68.766,0,0,1,12.294,2.9s-3.278,7.933,0,18.841H85.51s2.336-6.653.888-19.374a72.985,72.985,0,0,1,10.713-2.363l4.744,9.229Z" transform="translate(-49.605 -166.549)" fill="#e74645"/>
      <path id="Path_509" data-name="Path 509" d="M124.586,211.209c-7.106-1.777-10.553-10.571-10.553-10.571a10.349,10.349,0,0,0,.231,4.282A64.953,64.953,0,0,1,93.61,189.49c-6.538-8.075,3.962-13.378,3.962-13.378,16.878-5.952,24.1,5.33,24.1,5.33s11.974,10.828,6.085,31.757A5.117,5.117,0,0,0,124.586,211.209Z" transform="translate(-50.27 -158.133)" fill="#432918"/>
      <path id="Path_510" data-name="Path 510" d="M93.751,181.72s-15.1.515-17.988,24.384c0,0-4.175,43.678,15.421,51.113,0,0-1.288-12.365,4.593-15.057V236.5s-14.275-2.514-14.089-21.2c0,0,.089-21.559,11.059-25.645Z" transform="translate(-48.474 -158.953)" fill="#432918"/>
      <path id="Path_511" data-name="Path 511" d="M129.27,225.71a1.59,1.59,0,1,1-1.59-1.59A1.59,1.59,0,0,1,129.27,225.71Z" transform="translate(-54.137 -163.688)" fill="#e74645"/>
    </g>
    <ellipse id="Ellipse_68" data-name="Ellipse 68" cx="52.464" cy="52.463" rx="52.464" ry="52.463" transform="translate(1022.607 322.692)" fill="#feaa4b" opacity="0.69"/>
    <g id="Group_2897" data-name="Group 2897" transform="translate(1022.607 322.692)" clip-path="url(#clip-path-5)">
      <rect id="Rectangle_934" data-name="Rectangle 934" width="10.322" height="6.138" transform="translate(47.302 77.301)" fill="#f8bb94"/>
      <path id="Path_513" data-name="Path 513" d="M248.206,140.134a7.053,7.053,0,0,1,4.513-2.034c1.475-.107,3.989.2,4.779-1.332a1.679,1.679,0,0,1,.444-.56v-.657H247.62v5.33a4.948,4.948,0,0,1,.586-.746Z" transform="translate(-200.318 -58.249)" fill="#fb9655"/>
      <path id="Path_514" data-name="Path 514" d="M281.313,112.8a4.761,4.761,0,1,1-4.761-4.593,4.673,4.673,0,0,1,4.761,4.593Z" transform="translate(-203.017 -55.196)" fill="#f8bb94"/>
      <g id="Group_2895" data-name="Group 2895" transform="translate(74.129 55.041)">
        <path id="Path_515" data-name="Path 515" d="M277.838,110.5a1.777,1.777,0,0,1,.32,0,2.549,2.549,0,0,1,.844.169,2.088,2.088,0,0,1,1.013.773c.071.107.116.222.178.338a1.736,1.736,0,0,1,.115.364v.755a3.351,3.351,0,0,1-.151.72,2.843,2.843,0,0,1-.293.648,2.274,2.274,0,0,1-.888.888,2.169,2.169,0,0,1-.462.2l-.364.062h-.329l.293-.124c.089,0,.2-.1.311-.16a3.855,3.855,0,0,0,.346-.258,2.47,2.47,0,0,0,.613-.853,3,3,0,0,0,.2-.56,2.857,2.857,0,0,0,.107-.613v-.6a.423.423,0,0,0-.062-.266,1.99,1.99,0,0,1-.107-.258,2.1,2.1,0,0,0-.711-.737,4.949,4.949,0,0,0-.711-.364Z" transform="translate(-277.82 -110.492)" fill="#dadada"/>
      </g>
      <path id="Path_516" data-name="Path 516" d="M278.344,113.528a.782.782,0,1,1-.773-.888A.888.888,0,0,1,278.344,113.528Z" transform="translate(-203.575 -55.691)" fill="#dadada"/>
      <path id="Path_517" data-name="Path 517" d="M225.08,112.8a4.761,4.761,0,1,0,4.761-4.593,4.673,4.673,0,0,0-4.761,4.593Z" transform="translate(-197.8 -55.196)" fill="#f8bb94"/>
      <g id="Group_2896" data-name="Group 2896" transform="translate(28.968 55.041)">
        <path id="Path_518" data-name="Path 518" d="M229.441,110.5a1.883,1.883,0,0,0-.329,0,2.549,2.549,0,0,0-.835.169,2.087,2.087,0,0,0-1.013.773c-.071.107-.115.222-.178.338a2.462,2.462,0,0,0-.107.364v.755a3.349,3.349,0,0,0,.151.72,2.841,2.841,0,0,0,.293.648,2.336,2.336,0,0,0,.888.888,1.84,1.84,0,0,0,.462.2l.364.062h.329l-.293-.124a2.616,2.616,0,0,1-.311-.16,2.9,2.9,0,0,1-.346-.258,2.282,2.282,0,0,1-.338-.373,3.553,3.553,0,0,1-.284-.48,5.2,5.2,0,0,1-.2-.56,3.553,3.553,0,0,1-.1-.613v-.6a1.446,1.446,0,0,1,.062-.266,1.777,1.777,0,0,1,.808-.995,6.088,6.088,0,0,1,.711-.364Z" transform="translate(-226.98 -110.492)" fill="#dadada"/>
      </g>
      <path id="Path_519" data-name="Path 519" d="M229.05,113.528a.782.782,0,1,0,.773-.888.835.835,0,0,0-.773.888Z" transform="translate(-198.243 -55.691)" fill="#dadada"/>
      <path id="Path_520" data-name="Path 520" d="M271.85,103.006c0,15.608-7.329,26.569-21.071,26.569s-21.08-10.962-21.08-26.569,7.6-28.266,21.319-28.266S271.85,87.407,271.85,103.006Z" transform="translate(-198.316 -51.457)" fill="#f8bb94"/>
      <path id="Path_521" data-name="Path 521" d="M244.618,142.17s-13.085,1.777-17.766,5.81-6.218,7.737-7.941,15.936h61.373c-1.723-8.2-3.145-11.788-7.933-15.936s-17.766-5.81-17.766-5.81Z" transform="translate(-197.111 -58.989)" fill="#f8bb94"/>
      <path id="Path_522" data-name="Path 522" d="M239.416,143.657s1.412-.6-3.758,1.039c1.421,12.863-.888,19.374-.888,19.374h33.756c-3.278-10.908,0-18.841,0-18.841l-3.127-1.137s-.284,15.67-14.328,14.586C251.133,158.678,238.972,159.868,239.416,143.657Z" transform="translate(-198.882 -59.143)" fill="#00b1c3"/>
      <path id="Path_523" data-name="Path 523" d="M243.028,74.16s-15.1.515-18,24.393c0,0-2.816,19.658,6.716,36.421a62.608,62.608,0,0,1,13.325-.382v-5.659s-14.293-2.505-14.115-21.159c0,0,.1-21.55,11.059-25.645Z" transform="translate(-197.751 -51.393)" fill="#732400"/>
      <path id="Path_524" data-name="Path 524" d="M261.263,74.16s17.118-.258,20.014,23.611c0,0,1.483,15.99-8.732,37.211a62.653,62.653,0,0,0-13.325-.382v-5.658s14.293-2.514,14.106-21.168c0,0-.089-21.55-11.059-25.645Z" transform="translate(-201.613 -51.393)" fill="#732400"/>
      <path id="Path_525" data-name="Path 525" d="M238.428,79.314a33.427,33.427,0,0,0,30.016,14.035l4,10.162,3.953,1.643s6-1.67-.222-25.841c0,0-6.422-17.686-29.634-12.436C246.521,66.878,234.955,68.974,238.428,79.314Z" transform="translate(-199.218 -50.47)" fill="#732400"/>
    </g>
    <path id="Path_526" data-name="Path 526" d="M243.557,288.613A52.464,52.464,0,1,1,191.1,236.15a52.464,52.464,0,0,1,52.461,52.463Z" transform="translate(834.462 253.206)" fill="#e74645" opacity="0.69"/>
    <g id="Group_2901" data-name="Group 2901" transform="translate(973.093 489.356)" clip-path="url(#clip-path-6)">
      <rect id="Rectangle_935" data-name="Rectangle 935" width="10.313" height="6.138" transform="translate(47.311 77.301)" fill="#f8bb94"/>
      <path id="Path_527" data-name="Path 527" d="M192.476,327.754a7,7,0,0,1,4.513-2.025c1.475-.115,3.989.2,4.77-1.332a1.776,1.776,0,0,1,.444-.568v-.657H191.89v5.33a6.3,6.3,0,0,1,.586-.746Z" transform="translate(-144.579 -245.869)" fill="#c6c6c6"/>
      <path id="Path_528" data-name="Path 528" d="M225.583,300.422a4.761,4.761,0,1,1-4.761-4.593A4.681,4.681,0,0,1,225.583,300.422Z" transform="translate(-147.279 -242.816)" fill="#f8bb94"/>
      <g id="Group_2899" data-name="Group 2899" transform="translate(74.156 55.052)">
        <path id="Path_529" data-name="Path 529" d="M222.11,298.129a2.34,2.34,0,0,1,.32,0,2.853,2.853,0,0,1,.844.169,2.061,2.061,0,0,1,1.013.782c.062.1.115.213.178.329l.107.364.044.382v.382a3.383,3.383,0,0,1-.151.711,3.284,3.284,0,0,1-.293.648,2.443,2.443,0,0,1-.888.888,1.886,1.886,0,0,1-.453.186l-.373.062h-.32l.293-.124a2.673,2.673,0,0,0,.311-.16,2.04,2.04,0,0,0,.346-.258,2.317,2.317,0,0,0,.338-.373,2.5,2.5,0,0,0,.275-.48,2.789,2.789,0,0,0,.2-.56,2.856,2.856,0,0,0,.107-.613v-.586a.393.393,0,0,0-.071-.275c-.071-.089-.062-.169-.1-.249a2.123,2.123,0,0,0-.711-.746,4.036,4.036,0,0,0-.711-.355A1.772,1.772,0,0,0,222.11,298.129Z" transform="translate(-222.11 -298.124)" fill="#dadada"/>
      </g>
      <path id="Path_530" data-name="Path 530" d="M222.607,301.148a.773.773,0,1,1-.773-.888A.835.835,0,0,1,222.607,301.148Z" transform="translate(-147.838 -243.311)" fill="#dadada"/>
      <path id="Path_531" data-name="Path 531" d="M169.35,300.423a4.761,4.761,0,1,0,4.752-4.593,4.681,4.681,0,0,0-4.752,4.593Z" transform="translate(-142.061 -242.816)" fill="#f8bb94"/>
      <g id="Group_2900" data-name="Group 2900" transform="translate(28.959 55.052)">
        <path id="Path_532" data-name="Path 532" d="M173.691,298.129a2.34,2.34,0,0,0-.32,0,2.755,2.755,0,0,0-.835.169,2.061,2.061,0,0,0-1.013.782,1.935,1.935,0,0,0-.178.329c-.044.115-.08.24-.116.364v.764a3.357,3.357,0,0,0,.142.711,3.9,3.9,0,0,0,.293.648,2.443,2.443,0,0,0,.888.888,1.775,1.775,0,0,0,.462.186l.364.062h.311l-.284-.124a2.38,2.38,0,0,1-.6-.453,1.971,1.971,0,0,1-.338-.373,3.113,3.113,0,0,1-.284-.48,4.578,4.578,0,0,1-.2-.56,2.859,2.859,0,0,1-.107-.613v-.586a.436.436,0,0,1,.062-.275,1.9,1.9,0,0,0,.107-.249,2.1,2.1,0,0,1,.7-.746,4.03,4.03,0,0,1,.711-.355A2.174,2.174,0,0,1,173.691,298.129Z" transform="translate(-171.23 -298.124)" fill="#dadada"/>
      </g>
      <path id="Path_533" data-name="Path 533" d="M173.32,301.148a.782.782,0,1,0,.773-.888.835.835,0,0,0-.773.888Z" transform="translate(-142.504 -243.311)" fill="#dadada"/>
      <path id="Path_534" data-name="Path 534" d="M216.124,290.627c0,15.616-7.32,26.578-21.071,26.578S174,306.244,174,290.627s7.6-28.257,21.319-28.257S216.124,275.02,216.124,290.627Z" transform="translate(-142.581 -239.079)" fill="#f8bb94"/>
      <path id="Path_535" data-name="Path 535" d="M188.888,329.8s-13.094,1.732-17.766,5.8-6.218,7.737-7.941,15.936h61.373c-1.75-8.235-3.171-11.788-7.968-15.936s-17.766-5.8-17.766-5.8Z" transform="translate(-141.372 -246.61)" fill="#f8bb94"/>
      <path id="Path_536" data-name="Path 536" d="M205.14,331.13c4.024.888,8.928,2.434,11.441,4.61,4.8,4.148,6.218,7.737,7.941,15.936H163.15c1.723-8.2,3.145-11.788,7.941-15.936,2.585-2.238,7.7-3.766,11.779-4.69l10.971,11.815Z" transform="translate(-141.369 -246.75)" fill="#881719"/>
      <path id="Path_537" data-name="Path 537" d="M187.277,261.79s-15.1.515-18,24.384c0,0-.56,20.511-.56,44.762,0,0,3.456-6.067,20.582-8.705v-5.667s-14.284-2.514-14.115-21.186c0,0,.1-21.559,11.059-25.645Z" transform="translate(-141.991 -239.014)" fill="#432918"/>
      <path id="Path_538" data-name="Path 538" d="M205.534,261.789s17.153-.888,20.04,23.007c0,0,.338,21.186-1.395,46.379,0,0-4.761-6.8-20.68-8.945v-5.667s14.284-2.514,14.1-21.186c0,0-.089-21.559-11.059-25.645Z" transform="translate(-145.875 -239.013)" fill="#432918"/>
      <path id="Path_539" data-name="Path 539" d="M192.2,284.043l2.132-10.66v10.66h10.589l1.777-7.524,1.777,7.524H221.74a68.987,68.987,0,0,0-1.395-13.751s-3.553-16.638-28.426-15.163c0,0-20.991,0-22.51,28.914Z" transform="translate(-142.068 -238.259)" fill="#432918"/>
    </g>
    <path id="Path_541" data-name="Path 541" d="M188.095,39.457a7.249,7.249,0,1,1-2.123-5.134,7.257,7.257,0,0,1,2.123,5.134Z" transform="translate(830.559 275.986)" fill="#7be9e1" opacity="0.89"/>
    <path id="Path_542" data-name="Path 542" d="M202.031,58.656a4.966,4.966,0,1,1-4.957-4.966A4.966,4.966,0,0,1,202.031,58.656Z" transform="translate(828.49 273.586)" fill="#7be9e1" opacity="0.89"/>
    <path id="Path_543" data-name="Path 543" d="M222.175,40.908a8.688,8.688,0,1,1-8.688-8.688,8.688,8.688,0,0,1,8.688,8.688Z" transform="translate(827.072 275.982)" fill="#7be9e1" opacity="0.89"/>
    <path id="Path_544" data-name="Path 544" d="M325.537,138.34a6.467,6.467,0,1,1-6.467,6.458,6.467,6.467,0,0,1,6.467-6.458Z" transform="translate(814.309 264.131)" fill="#7be9e1" opacity="0.89"/>
    <path id="Path_545" data-name="Path 545" d="M342.632,126.43a4.442,4.442,0,1,1-4.442,4.442A4.442,4.442,0,0,1,342.632,126.43Z" transform="translate(812.173 265.461)" fill="#7be9e1" opacity="0.89"/>
    <path id="Path_546" data-name="Path 546" d="M326.807,107.66a7.737,7.737,0,1,1-7.737,7.737,7.737,7.737,0,0,1,7.737-7.737Z" transform="translate(814.309 267.559)" fill="#7be9e1" opacity="0.89"/>
    <path id="Path_547" data-name="Path 547" d="M60.812,143.2a6.467,6.467,0,1,1-8.714,2.745,6.467,6.467,0,0,1,8.714-2.745Z" transform="translate(844.209 263.672)" fill="#7be9e1" opacity="0.89"/>
    <path id="Path_548" data-name="Path 548" d="M81.6,140.458a4.442,4.442,0,1,1-5.969,1.874A4.442,4.442,0,0,1,81.6,140.458Z" transform="translate(841.557 263.95)" fill="#7be9e1" opacity="0.89"/>
    <path id="Path_549" data-name="Path 549" d="M76.007,116.639a7.737,7.737,0,1,1-5.9-.523A7.737,7.737,0,0,1,76.007,116.639Z" transform="translate(842.721 266.653)" fill="#7be9e1" opacity="0.89"/>
    <path id="Path_550" data-name="Path 550" d="M118.083,311.467a6.449,6.449,0,1,1-3.071,3.875A6.458,6.458,0,0,1,118.083,311.467Z" transform="translate(837.128 244.886)" fill="#7be9e1" opacity="0.89"/>
    <path id="Path_551" data-name="Path 551" d="M127.125,292.928a4.441,4.441,0,1,1-1.706,6.023A4.441,4.441,0,0,1,127.125,292.928Z" transform="translate(836 246.93)" fill="#7be9e1" opacity="0.89"/>
    <path id="Path_552" data-name="Path 552" d="M104.32,283.947a7.728,7.728,0,1,1-3.681,4.642A7.737,7.737,0,0,1,104.32,283.947Z" transform="translate(838.739 247.978)" fill="#7be9e1" opacity="0.89"/>
    <path id="Path_553" data-name="Path 553" d="M272.868,300.892a6.458,6.458,0,1,1-8.785-2.505,6.458,6.458,0,0,1,8.785,2.505Z" transform="translate(820.821 246.346)" fill="#7be9e1" opacity="0.89"/>
    <path id="Path_554" data-name="Path 554" d="M291.955,309.935a4.442,4.442,0,1,1-6.023-1.706,4.442,4.442,0,0,1,6.023,1.706Z" transform="translate(818.266 245.218)" fill="#7be9e1" opacity="0.89"/>
    <path id="Path_555" data-name="Path 555" d="M300.066,287.129a7.737,7.737,0,1,1-4.658-3.695,7.737,7.737,0,0,1,4.658,3.695Z" transform="translate(818.052 247.958)" fill="#7be9e1" opacity="0.89"/>
  </g>
</svg>
