<svg xmlns="http://www.w3.org/2000/svg" width="255.153" height="169.149" viewBox="0 0 255.153 169.149">
  <g id="Group_2649" data-name="Group 2649" transform="translate(-8879.54 -9007.824)">
    <path id="Path_519" data-name="Path 519" d="M185.981,347.147H165.41a2.865,2.865,0,0,1-2.321-1.3,5.234,5.234,0,0,1-.961-3.117,5.439,5.439,0,0,1,.968-3.177,2.818,2.818,0,0,1,2.311-1.271h7.815c2.828,0,5.04-3.354,5.04-7.318v-.177a8.23,8.23,0,0,0-1.415-4.821A4.267,4.267,0,0,0,173.374,324H31.122a4.445,4.445,0,0,0-3.613,2.018A8.56,8.56,0,0,0,26,331v.212c-.009,3.846,2.2,6.985,4.969,7.068H63.016c1.813,0,3.449,1.865,3.449,4.4v.117c-.04,2.465-1.494,4.428-3.271,4.428H51.522a2.485,2.485,0,0,0-1.981,1.141,4.763,4.763,0,0,0-.816,2.755v.009a4.7,4.7,0,0,0,.764,2.747,2.447,2.447,0,0,0,1.951,1.16H70.788a3.306,3.306,0,0,1,2.651,1.515,6.239,6.239,0,0,1,1.1,3.651,6.326,6.326,0,0,1-1.1,3.669,3.293,3.293,0,0,1-2.65,1.5H38.128a2.93,2.93,0,0,0-2.321,1.367,5.913,5.913,0,0,0-.961,3.326c-.007,2.538,1.454,4.615,3.283,4.661h72.415a2.8,2.8,0,0,1,2.321,1.241,5.3,5.3,0,0,1,.961,3.146,5.477,5.477,0,0,1-.968,3.19,2.842,2.842,0,0,1-2.316,1.282H83.693a2.924,2.924,0,0,0-2.321,1.362,5.916,5.916,0,0,0-.961,3.331c-.007,2.538,1.454,4.615,3.283,4.661h83.73c1.865-.08,3.355-2.179,3.386-4.767v-.117c-.026-2.455-1.469-4.428-3.239-4.418H148.879a2.9,2.9,0,0,1-2.317-1.337,5.557,5.557,0,0,1-.951-3.22v-.138a5.376,5.376,0,0,1,.909-3.127,2.8,2.8,0,0,1,2.241-1.3h18.278c1.686,0,3.056-1.886,3.061-4.226v-.124c-.02-2.331-1.348-4.228-3.024-4.325H131.5c-1.941,0-3.638-1.965-3.638-4.661v-.132c.03-2.634,1.58-4.745,3.479-4.738h54.61a2.919,2.919,0,0,0,2.337-1.334,5.666,5.666,0,0,0,.97-3.25c.006-2.522-1.46-4.575-3.277-4.59Z" transform="translate(8945.435 8741.279)" fill="#befaff" opacity="0.8"/>
    <path id="Path_529" data-name="Path 529" d="M148.6,341.739H132.839a2.2,2.2,0,0,1-1.778-1,4.011,4.011,0,0,1-.738-2.389,4.167,4.167,0,0,1,.742-2.434,2.16,2.16,0,0,1,1.771-.974h5.99c2.168,0,3.862-2.571,3.862-5.609V329.2a6.307,6.307,0,0,0-1.084-3.694A3.271,3.271,0,0,0,138.942,324H29.925a3.406,3.406,0,0,0-2.77,1.546A6.56,6.56,0,0,0,26,329.366v.162c-.007,2.944,1.686,5.354,3.808,5.417H54.365c1.39,0,2.644,1.43,2.644,3.379v.086c-.03,1.889-1.144,3.4-2.507,3.39H45.557a1.9,1.9,0,0,0-1.515.874,3.65,3.65,0,0,0-.628,2.112v.007A3.6,3.6,0,0,0,44,346.9a1.875,1.875,0,0,0,1.5.888H60.327a2.533,2.533,0,0,1,2.032,1.165,4.778,4.778,0,0,1,.844,2.8,4.847,4.847,0,0,1-.844,2.812,2.524,2.524,0,0,1-2.031,1.153H35.294a2.246,2.246,0,0,0-1.778,1.049,4.531,4.531,0,0,0-.738,2.549c0,1.945,1.115,3.536,2.516,3.575h55.5a2.144,2.144,0,0,1,1.778.951,4.064,4.064,0,0,1,.738,2.412,4.2,4.2,0,0,1-.742,2.447,2.178,2.178,0,0,1-1.774.987H70.213a2.241,2.241,0,0,0-1.778,1.049,4.534,4.534,0,0,0-.738,2.552c0,1.945,1.115,3.537,2.516,3.575h64.164c1.429-.062,2.571-1.67,2.6-3.653v-.091c-.02-1.882-1.126-3.391-2.482-3.385H120.165a2.221,2.221,0,0,1-1.776-1.024,4.258,4.258,0,0,1-.73-2.467v-.106a4.12,4.12,0,0,1,.7-2.4,2.146,2.146,0,0,1,1.718-1h14.007c1.292,0,2.342-1.445,2.346-3.238v-.094c-.015-1.784-1.033-3.24-2.318-3.314h-27.26c-1.488,0-2.788-1.506-2.788-3.571V352.4c.023-2.018,1.211-3.636,2.665-3.631H148.58a2.237,2.237,0,0,0,1.791-1.023,4.343,4.343,0,0,0,.743-2.491c0-1.932-1.119-3.507-2.511-3.518Z" transform="translate(8853.541 8744.243)" fill="#cbfbff" opacity="0.8"/>
    <g id="Group_2947" data-name="Group 2947" transform="translate(8947.849 9027.195)">
      <rect id="Rectangle_631" data-name="Rectangle 631" width="113.038" height="105.375" transform="translate(0 37.346)" fill="#fff"/>
      <path id="Path_564" data-name="Path 564" d="M9017.594,9065.74h40.179l-34.214-37.346h-60.583l-9.1,10.044v25.111s5.964,4.71,7.533,5.338,13.812-.628,16.951,0S9017.594,9065.74,9017.594,9065.74Z" transform="translate(-8952.183 -9028.395)" fill="#fff"/>
    </g>
    <path id="Path_507" data-name="Path 507" d="M52.377,10.037l29.028.035v14.55l-9.422-.072H39.1A14.545,14.545,0,0,0,24.549,39.1V155.025A14.545,14.545,0,0,1,10,140.474V24.549A14.545,14.545,0,0,1,24.549,10Zm0,0" transform="translate(8940.528 9016.869)" fill="#8d8d8d" opacity="0.15"/>
    <path id="Path_506" data-name="Path 506" d="M77.076,1.128A3.846,3.846,0,0,0,74.862.072L74.022,0H18.186A18.2,18.2,0,0,0,0,18.188v116.4a18.194,18.194,0,0,0,18.183,18.191H99.192a18.194,18.194,0,0,0,18.188-18.188v-91.7a3.759,3.759,0,0,0-1.049-2.581ZM78.059,12.4l26.989,26.919H88.967A10.945,10.945,0,0,1,78.055,28.411ZM99.229,145.5H18.186A10.945,10.945,0,0,1,7.274,134.586V18.188A10.945,10.945,0,0,1,18.186,7.275h52.6V28.409A18.193,18.193,0,0,0,88.972,46.6H110.1V134.58a10.889,10.889,0,0,1-10.875,10.912Zm0,0" transform="translate(8945.873 9023.233)" fill="#8d8d8d"/>
    <path id="Path_508" data-name="Path 508" d="M124.324,307.352c.613-.455,15.174-11.008,29.934,0l2.553-3.425c-17.353-12.947-34.871-.127-35.045,0Z" transform="translate(8865.135 8818.596)" fill="#00a89b"/>
    <path id="Path_511" data-name="Path 511" d="M193.707,324.3H47.738a3.638,3.638,0,0,0,0,7.275H193.707a3.638,3.638,0,0,0,0-7.275Zm0,0" transform="translate(8886.988 8845.397)" fill="#8d8d8d"/>
    <path id="Path_514" data-name="Path 514" d="M92.928,324.3H47.738a3.638,3.638,0,0,0,0,7.275h45.19a3.638,3.638,0,0,0,0-7.275Zm0,0" transform="translate(9023.401 8831.146)" fill="#00a89b"/>
    <path id="Path_515" data-name="Path 515" d="M92.383,324.3H77.738a3.638,3.638,0,0,0,0,7.275H92.383a3.638,3.638,0,0,0,0-7.275Zm0,0" transform="translate(8843.753 8831.146)" fill="#00a89b"/>
    <path id="Path_516" data-name="Path 516" d="M11.449,0H2.237a2.289,2.289,0,0,0,0,4.576h9.212a2.289,2.289,0,1,0,0-4.576Zm0,0" transform="translate(8929.325 9031.421) rotate(-9)" fill="#00a89b"/>
    <path id="Path_517" data-name="Path 517" d="M11.449,0H2.237a2.289,2.289,0,0,0,0,4.576h9.212a2.289,2.289,0,0,0,0-4.576Zm0,0" transform="matrix(0.829, 0.559, -0.559, 0.829, 8933.969, 9015.622)" fill="#00a89b"/>
    <path id="Path_518" data-name="Path 518" d="M11.449,0H2.237a2.289,2.289,0,0,0,0,4.576h9.212a2.289,2.289,0,0,0,0-4.576Zm0,0" transform="translate(8949.801 9007.824) rotate(81)" fill="#00a89b"/>
    <path id="Path_512" data-name="Path 512" d="M61.365,324.3H47.738a3.638,3.638,0,0,0,0,7.275H61.365a3.638,3.638,0,0,0,0-7.275Zm0,0" transform="translate(9043.762 8845.397)" fill="#8d8d8d"/>
    <path id="Path_513" data-name="Path 513" d="M61.545,324.3H37.738a3.638,3.638,0,0,0,0,7.275H61.545a3.638,3.638,0,0,0,0-7.275Zm0,0" transform="translate(8863.392 8845.397)" fill="#8d8d8d"/>
    <g id="Group_2648" data-name="Group 2648" transform="translate(8980.479 9085.518)">
      <ellipse id="Ellipse_56" data-name="Ellipse 56" cx="6.409" cy="5.827" rx="6.409" ry="5.827" transform="translate(0 0)" fill="#00a89b"/>
      <circle id="Ellipse_57" data-name="Ellipse 57" cx="5.827" cy="5.827" r="5.827" transform="translate(36.126 0)" fill="#00a89b"/>
    </g>
  </g>
</svg>
