<svg id="XMLID_2019_" xmlns="http://www.w3.org/2000/svg" width="36" height="36" viewBox="0 0 36 36">
  <g id="XMLID_1056_" transform="translate(0 0)">
    <path id="XMLID_1322_" d="M35.794,11.737,32.2,8.146V.7a.7.7,0,0,0-.7-.7H21.141a.7.7,0,0,0,0,1.406H30.8V15.74L17.968,28.569,5.2,15.8V1.406h9.61a.7.7,0,0,0,0-1.406H4.5a.7.7,0,0,0-.7.7V8.146L.206,11.737a.7.7,0,0,0-.206.5v20.25A3.52,3.52,0,0,0,3.516,36H32.484A3.52,3.52,0,0,0,36,32.484V12.234A.7.7,0,0,0,35.794,11.737Zm-1.2,20.747a2.1,2.1,0,0,1-.206.909L24.76,23.766l9.834-9.834ZM32.2,10.135l2.1,2.1-2.1,2.1ZM1.612,33.393a2.1,2.1,0,0,1-.206-.909V14l9.8,9.8ZM3.8,14.4,1.666,12.266,3.8,10.135Zm-.281,20.2a2.1,2.1,0,0,1-.909-.206l9.6-9.6,5.268,5.268a.7.7,0,0,0,.994,0l5.3-5.3,9.628,9.628a2.1,2.1,0,0,1-.909.206H3.516Z" transform="translate(0 0)" fill="#565657"/>
    <path id="XMLID_1377_" d="M246.383,1.406a.7.7,0,0,0,.7-.7.7.7,0,1,0-.7.7Z" transform="translate(-228.406 0)" fill="#565657"/>
    <path id="XMLID_1555_" d="M148.753,68.628a7.638,7.638,0,0,0,1.989,9.722,7.718,7.718,0,0,0,4.5,1.619h.02a.7.7,0,0,0,.019-1.406,6.251,6.251,0,0,1-1.724-12.2,6.25,6.25,0,0,1,7.878,4.138,5.475,5.475,0,0,1-.337,3.644,1.92,1.92,0,0,1-1.769,1.306.728.728,0,0,1-.508-.233,1.1,1.1,0,0,1-.313-.784V68.617a.7.7,0,1,0-1.406,0v.224a3.07,3.07,0,0,0-1.994-.719,3.838,3.838,0,0,0-3.613,4.116,4.71,4.71,0,0,0,1.013,2.994A3.3,3.3,0,0,0,155.03,76.5a3.105,3.105,0,0,0,2.285-1.04,2.466,2.466,0,0,0,.506.745,2.121,2.121,0,0,0,1.505.647,3.325,3.325,0,0,0,3.075-2.192,6.858,6.858,0,0,0,.386-4.538l-.006-.022a7.646,7.646,0,0,0-14.029-1.473ZM155.03,75.1c-1.176,0-2.132-1.282-2.132-2.857a2.46,2.46,0,0,1,2.206-2.709c1.169,0,1.985,1.105,1.985,2.688S156.165,75.1,155.03,75.1Z" transform="translate(-137.404 -60.107)" fill="#565657"/>
  </g>
</svg>
