<svg id="to-do-list" xmlns="http://www.w3.org/2000/svg" width="32.198" height="35.995" viewBox="0 0 32.198 35.995">
  <path id="Path_254" data-name="Path 254" d="M28.121,0H4.078A4.082,4.082,0,0,0,0,4.078V30.089A2.111,2.111,0,0,0,2.109,32.2h9.233a.7.7,0,1,0,0-1.406H2.109a.7.7,0,0,1-.7-.7V4.078A2.675,2.675,0,0,1,4.078,1.406H25.044a4.06,4.06,0,0,0-1,2.672V26.734a1.176,1.176,0,0,1-2.292.372l-1.059-3.179a2.194,2.194,0,0,0-4.276.694v.548H12.772a.7.7,0,0,0,0,1.406h3.644v3.5a7.779,7.779,0,0,0,.6,3.008l1.034,2.482a.7.7,0,1,0,1.3-.541l-1.034-2.482a6.383,6.383,0,0,1-.493-2.467V24.621a.788.788,0,0,1,1.536-.249l1.059,3.179a2.582,2.582,0,0,0,5.032-.817V14.68l.939.938a8.8,8.8,0,0,1,2.6,6.267v7.473A13.229,13.229,0,0,1,27.72,34.99a.7.7,0,1,0,1.27.6,14.644,14.644,0,0,0,1.4-6.235V21.885a10.192,10.192,0,0,0-3.012-7.262l-1.933-1.929v-.672h4.64A2.111,2.111,0,0,0,32.2,9.913V4.078A4.082,4.082,0,0,0,28.121,0Zm2.672,9.913a.7.7,0,0,1-.7.7h-4.64V4.078a2.672,2.672,0,1,1,5.343,0Zm0,0" fill="#00a89b"/>
  <path id="Path_255" data-name="Path 255" d="M195.7,438a.7.7,0,1,0,.5.206A.708.708,0,0,0,195.7,438Zm0,0" transform="translate(-181.291 -407.204)" fill="#00a89b"/>
  <path id="Path_256" data-name="Path 256" d="M59.573,55.406A1.408,1.408,0,0,0,58.167,54H55.074a1.408,1.408,0,0,0-1.406,1.406V58.5a1.408,1.408,0,0,0,1.406,1.406h3.093A1.408,1.408,0,0,0,59.573,58.5ZM58.167,58.5H55.074V55.406h3.093V58.5Zm0,0" transform="translate(-49.895 -50.204)" fill="#00a89b"/>
  <path id="Path_257" data-name="Path 257" d="M59.573,175.406A1.408,1.408,0,0,0,58.167,174H55.074a1.408,1.408,0,0,0-1.406,1.406V178.5a1.408,1.408,0,0,0,1.406,1.406h3.093a1.408,1.408,0,0,0,1.406-1.406ZM58.167,178.5H55.074v-3.093h3.093V178.5Zm0,0" transform="translate(-49.895 -161.767)" fill="#00a89b"/>
  <path id="Path_258" data-name="Path 258" d="M58.167,294H55.074a1.407,1.407,0,0,0-1.406,1.406V298.5a1.407,1.407,0,0,0,1.406,1.406h3.093a1.408,1.408,0,0,0,1.406-1.406v-3.093A1.408,1.408,0,0,0,58.167,294Zm0,4.5H55.074v-3.093h3.093V298.5Zm0,0" transform="translate(-49.895 -273.331)" fill="#00a89b"/>
  <path id="Path_259" data-name="Path 259" d="M222.944,119.406a.7.7,0,1,0,0-1.406H218.1a.7.7,0,1,0,0,1.406Zm0,0" transform="translate(-202.111 -109.704)" fill="#00a89b"/>
  <path id="Path_260" data-name="Path 260" d="M172.371,119.406a.7.7,0,1,0-.5-.206A.708.708,0,0,0,172.371,119.406Zm0,0" transform="translate(-159.599 -109.704)" fill="#00a89b"/>
  <path id="Path_261" data-name="Path 261" d="M172.367,239.406h8.061a.7.7,0,1,0,0-1.406h-8.061a.7.7,0,0,0,0,1.406Zm0,0" transform="translate(-159.596 -221.268)" fill="#00a89b"/>
</svg>
