<svg xmlns="http://www.w3.org/2000/svg" width="34.989" height="34.991" viewBox="0 0 34.989 34.991">
  <g id="time_1_" data-name="time (1)" transform="translate(0 0)">
    <path id="Path_214" data-name="Path 214" d="M32.023,7.72a.683.683,0,1,0-1.133.765,16.13,16.13,0,1,1-4.138-4.21.683.683,0,1,0,.785-1.119A17.494,17.494,0,1,0,32.023,7.72Z" transform="translate(-0.014 0)" fill="#00a89b"/>
    <path id="Path_215" data-name="Path 215" d="M61.762,47.5A14.249,14.249,0,1,0,76.012,61.745,14.266,14.266,0,0,0,61.762,47.5Zm0,27.132A12.883,12.883,0,1,1,74.645,61.745,12.9,12.9,0,0,1,61.762,74.628Z" transform="translate(-44.267 -44.25)" fill="#00a89b"/>
    <path id="Path_216" data-name="Path 216" d="M227.753,151.307l-2.246-2.245a2.391,2.391,0,0,0-1.42-3.429v-4.952a.683.683,0,1,0-1.367,0v4.952a2.392,2.392,0,1,0,1.821,4.4l2.246,2.245a.683.683,0,0,0,.967-.967Zm-5.374-3.383a1.025,1.025,0,1,1,1.025,1.025A1.026,1.026,0,0,1,222.379,147.924Z" transform="translate(-205.909 -130.428)" fill="#00a89b"/>
    <path id="Path_217" data-name="Path 217" d="M246.7,90.065a.683.683,0,0,0,.683-.683v-.692a.683.683,0,0,0-1.367,0v.692A.683.683,0,0,0,246.7,90.065Z" transform="translate(-229.201 -81.991)" fill="#00a89b"/>
    <path id="Path_218" data-name="Path 218" d="M168.292,109.512a.683.683,0,0,0-1.184.683l.346.6a.683.683,0,1,0,1.184-.683Z" transform="translate(-155.603 -101.709)" fill="#00a89b"/>
    <path id="Path_219" data-name="Path 219" d="M110.812,167.436l-.6-.346a.683.683,0,0,0-.683,1.184l.6.346a.683.683,0,0,0,.683-1.184Z" transform="translate(-101.726 -155.586)" fill="#00a89b"/>
    <path id="Path_220" data-name="Path 220" d="M90.082,246.679A.683.683,0,0,0,89.4,246h-.692a.683.683,0,0,0,0,1.367H89.4A.683.683,0,0,0,90.082,246.679Z" transform="translate(-82.008 -229.184)" fill="#00a89b"/>
    <path id="Path_221" data-name="Path 221" d="M110.129,320.016l-.6.346a.683.683,0,1,0,.683,1.184l.6-.346a.683.683,0,1,0-.683-1.184Z" transform="translate(-101.726 -298.06)" fill="#00a89b"/>
    <path id="Path_222" data-name="Path 222" d="M168.388,374.138a.683.683,0,0,0-.934.25l-.346.6a.683.683,0,1,0,1.184.683l.346-.6A.683.683,0,0,0,168.388,374.138Z" transform="translate(-155.603 -348.483)" fill="#00a89b"/>
    <path id="Path_223" data-name="Path 223" d="M246.7,393.858a.683.683,0,0,0-.683.683v.692a.683.683,0,1,0,1.367,0v-.692A.683.683,0,0,0,246.7,393.858Z" transform="translate(-229.201 -366.941)" fill="#00a89b"/>
    <path id="Path_224" data-name="Path 224" d="M321.218,374.388a.683.683,0,0,0-1.184.683l.346.6a.683.683,0,1,0,1.184-.683Z" transform="translate(-298.078 -348.483)" fill="#00a89b"/>
    <path id="Path_225" data-name="Path 225" d="M375.688,320.362l-.6-.346a.683.683,0,0,0-.683,1.184l.6.346a.683.683,0,1,0,.683-1.184Z" transform="translate(-348.5 -298.059)" fill="#00a89b"/>
    <path id="Path_226" data-name="Path 226" d="M393.875,246.679a.683.683,0,0,0,.683.683h.692a.683.683,0,1,0,0-1.367h-.692A.683.683,0,0,0,393.875,246.679Z" transform="translate(-366.958 -229.184)" fill="#00a89b"/>
    <path id="Path_227" data-name="Path 227" d="M374.405,167.437a.683.683,0,1,0,.683,1.184l.6-.346a.683.683,0,1,0-.683-1.184Z" transform="translate(-348.5 -155.587)" fill="#00a89b"/>
    <path id="Path_228" data-name="Path 228" d="M321.314,109.262a.683.683,0,0,0-.934.25l-.346.6a.683.683,0,1,0,1.184.683l.346-.6A.683.683,0,0,0,321.314,109.262Z" transform="translate(-298.078 -101.709)" fill="#00a89b"/>
    <ellipse id="Ellipse_39" data-name="Ellipse 39" cx="0.683" cy="0.683" rx="0.683" ry="0.683" transform="translate(28.776 5.054)" fill="#00a89b"/>
  </g>
</svg>
