<svg xmlns="http://www.w3.org/2000/svg" width="34.999" height="32.546" viewBox="0 0 34.999 32.546">
  <g id="XMLID_1_" transform="translate(0 -20)">
    <g id="XMLID_1090_" transform="translate(0 20)">
      <path id="XMLID_1098_" d="M35,30.343A3.437,3.437,0,0,0,31.582,26.9H26.933V23.448A3.437,3.437,0,0,0,23.515,20H11.484a3.437,3.437,0,0,0-3.418,3.448V26.9H3.418A3.437,3.437,0,0,0,0,30.343V49.1a3.437,3.437,0,0,0,3.418,3.448H31.582A3.437,3.437,0,0,0,35,49.1ZM11.484,21.379H23.515a2.059,2.059,0,0,1,2.009,1.655H9.475A2.059,2.059,0,0,1,11.484,21.379Zm-8.066,6.9H14.432a.69.69,0,0,0,0-1.379h-5V24.413H25.566V26.9H20.585a.69.69,0,0,0,0,1.379h11a2.062,2.062,0,0,1,2.051,2.069V35.7L17.5,40.632,1.367,35.7V30.343A2.062,2.062,0,0,1,3.418,28.274ZM31.582,51.167H3.418A2.062,2.062,0,0,1,1.367,49.1V37.145L17.3,42.013a.678.678,0,0,0,.4,0l15.934-4.867V49.1A2.062,2.062,0,0,1,31.582,51.167Z" transform="translate(0 -20)" fill="#00a89b"/>
      <path id="XMLID_1119_" d="M198.664,194.516h6.375a.664.664,0,0,0,.664-.664v-3.187a.664.664,0,0,0-.664-.664h-6.375a.664.664,0,0,0-.664.664v3.187A.664.664,0,0,0,198.664,194.516Zm.664-3.187h5.047v1.859h-5.047Z" transform="translate(-184.352 -178.205)" fill="#00a89b"/>
      <path id="XMLID_1126_" d="M246.794,121.328a.663.663,0,1,0-.47-.195A.669.669,0,0,0,246.794,121.328Z" transform="translate(-229.285 -113.093)" fill="#00a89b"/>
    </g>
  </g>
</svg>
