<svg xmlns="http://www.w3.org/2000/svg" width="39.013" height="44.282" viewBox="0 0 39.013 44.282">
  <g id="save-money" transform="translate(-0.36)">
    <path id="Path_242" data-name="Path 242" d="M189.2,157.821a.692.692,0,0,0-.249-.009,1.651,1.651,0,0,1-1.46-1.637.726.726,0,1,0-1.453,0,3.107,3.107,0,0,0,2.285,2.992v.726a.726.726,0,1,0,1.453,0v-.682a3.1,3.1,0,0,0-.636-6.137,1.649,1.649,0,1,1,1.649-1.649.726.726,0,1,0,1.453,0,3.107,3.107,0,0,0-2.466-3.036v-.661a.726.726,0,1,0-1.453,0v.705a3.1,3.1,0,0,0,.817,6.093,1.648,1.648,0,0,1,.06,3.3Zm0,0" transform="translate(-168.82 -133.653)" fill="#565657"/>
    <path id="Path_243" data-name="Path 243" d="M104.195,117.025a10.533,10.533,0,1,0,10.533-10.533A10.533,10.533,0,0,0,104.195,117.025Zm10.533-9.08a9.08,9.08,0,1,1-9.08,9.08A9.08,9.08,0,0,1,114.728,107.945Zm0,0" transform="translate(-94.408 -96.823)" fill="#565657"/>
    <path id="Path_244" data-name="Path 244" d="M34.434,329.25l-5.69,2.688a4.634,4.634,0,0,0-3.951-2.438l-5.253-.144a5.547,5.547,0,0,1-2.387-.616l-.534-.277a9.427,9.427,0,0,0-8.732.009l.033-1.211a.726.726,0,0,0-.706-.746l-5.76-.159a.726.726,0,0,0-.746.706L.36,339.7a.726.726,0,0,0,.706.746l5.76.159h.02a.726.726,0,0,0,.726-.706l.017-.6,1.5-.8a2.567,2.567,0,0,1,1.916-.21l8.935,2.508.047.012a9.566,9.566,0,0,0,1.964.2A9.691,9.691,0,0,0,26,340.123a.672.672,0,0,0,.09-.05l12.955-8.38a.727.727,0,0,0,.238-.968,3.669,3.669,0,0,0-4.845-1.476Zm-32.6,9.766.308-11.188,4.307.118L6.14,339.135Zm23.509-.19a8.235,8.235,0,0,1-5.036.562l-8.911-2.5a4.016,4.016,0,0,0-2.994.327l-.765.41.2-7.438a7.984,7.984,0,0,1,8.111-.433l.534.277a7.015,7.015,0,0,0,3.015.779l5.253.144a3.186,3.186,0,0,1,3.028,2.539l-7.824-.216a.726.726,0,1,0-.04,1.452l8.635.238h.02a.726.726,0,0,0,.726-.707,4.609,4.609,0,0,0-.07-.942l5.836-2.758.017-.008a2.219,2.219,0,0,1,2.51.351Zm0,0" transform="translate(0 -296.725)" fill="#565657"/>
    <path id="Path_245" data-name="Path 245" d="M213.656,7.627V.726a.726.726,0,0,0-1.453,0v6.9a.726.726,0,0,0,1.453,0Zm0,0" transform="translate(-192.609)" fill="#565657"/>
    <path id="Path_246" data-name="Path 246" d="M273.656,43.995V40.726a.726.726,0,1,0-1.453,0v3.269a.726.726,0,1,0,1.453,0Zm0,0" transform="translate(-247.162 -36.368)" fill="#565657"/>
    <path id="Path_247" data-name="Path 247" d="M153.656,43.995V40.726a.726.726,0,0,0-1.453,0v3.269a.726.726,0,0,0,1.453,0Zm0,0" transform="translate(-138.057 -36.368)" fill="#565657"/>
  </g>
</svg>
