<svg xmlns="http://www.w3.org/2000/svg" width="37.9" height="30.039" viewBox="0 0 37.9 30.039">
  <g id="credit-card_2_" data-name="credit-card (2)" transform="translate(0 -53.099)">
    <path id="Path_240" data-name="Path 240" d="M37.227,56.337a2.828,2.828,0,0,0-1.937-1L8.6,53.11A2.846,2.846,0,0,0,5.528,55.7l-.537,5.038H2.847A2.85,2.85,0,0,0,0,63.585V80.292a2.85,2.85,0,0,0,2.847,2.847H29.629a2.85,2.85,0,0,0,2.847-2.847v-2.71l.95.079q.12.01.239.01a2.85,2.85,0,0,0,2.835-2.61l1.39-16.649a2.828,2.828,0,0,0-.663-2.075ZM2.847,62.219H29.629A1.368,1.368,0,0,1,31,63.585v1.522H1.48V63.585a1.368,1.368,0,0,1,1.366-1.366ZM1.48,66.587H31v3.071H1.48ZM29.629,81.658H2.847A1.368,1.368,0,0,1,1.48,80.292V71.139H31v9.153a1.368,1.368,0,0,1-1.366,1.366Zm6.786-23.369-1.39,16.649a1.368,1.368,0,0,1-1.475,1.248l-1.074-.09V63.585a2.85,2.85,0,0,0-2.847-2.847H6.48L7,55.85l0-.017a1.367,1.367,0,0,1,1.475-1.248l26.69,2.229a1.366,1.366,0,0,1,1.248,1.475Z" transform="translate(0)" fill="#565657"/>
    <path id="Path_241" data-name="Path 241" d="M278.5,326.532h-7.124a.74.74,0,0,0-.74.74v4.648a.74.74,0,0,0,.74.74H278.5a.74.74,0,0,0,.74-.74v-4.648A.74.74,0,0,0,278.5,326.532Zm-.74,4.648h-5.644v-3.167h5.644Z" transform="translate(-250.598 -253.192)" fill="#565657"/>
  </g>
</svg>
