<svg id="route_1_" data-name="route (1)" xmlns="http://www.w3.org/2000/svg" width="35" height="34.805" viewBox="0 0 35 34.805">
  <path id="Path_210" data-name="Path 210" d="M6.274,20.155A2.053,2.053,0,0,0,5.3,21.912a2.017,2.017,0,0,0,1.987,2.042,1.994,1.994,0,0,0,1.873-1.361H14.3a2.042,2.042,0,0,1,0,4.083H6.357a3.4,3.4,0,0,0,0,6.805h6.622a.681.681,0,0,0,0-1.361H6.357a2.042,2.042,0,0,1,0-4.083H14.3a3.4,3.4,0,0,0,0-6.805H9.157a2.04,2.04,0,0,0-.862-1.076l5.058-8.528a7.6,7.6,0,0,0,1.216-4.142A7.4,7.4,0,0,0,7.284,0,7.4,7.4,0,0,0,0,7.486a7.6,7.6,0,0,0,1.216,4.142Zm1.01,2.437a.681.681,0,1,1,.662-.681A.672.672,0,0,1,7.284,22.593Zm0-21.232a6.051,6.051,0,0,1,5.96,6.125,6.217,6.217,0,0,1-1,3.4l-.015.024L7.284,19.244l-4.959-8.36a6.217,6.217,0,0,1-1-3.4,6.051,6.051,0,0,1,5.96-6.125Z" transform="translate(0 0)" fill="#00a89b"/>
  <path id="Path_211" data-name="Path 211" d="M63.311,66.622A3.311,3.311,0,1,0,60,63.311,3.315,3.315,0,0,0,63.311,66.622Zm0-5.3a1.987,1.987,0,1,1-1.987,1.987A1.989,1.989,0,0,1,63.311,61.324Z" transform="translate(-56.027 -56.027)" fill="#00a89b"/>
  <path id="Path_212" data-name="Path 212" d="M284.344,166a7.285,7.285,0,0,0-6.064,11.321l5.039,7.9a2,2,0,0,0-.847,1.039h-5.809a.662.662,0,0,0,0,1.324h5.809a1.986,1.986,0,1,0,2.9-2.363l5.039-7.9A7.285,7.285,0,0,0,284.344,166Zm0,21.588a.662.662,0,1,1,.662-.662A.663.663,0,0,1,284.344,187.588Zm4.959-11-4.959,7.779-4.959-7.779a5.96,5.96,0,1,1,9.918,0Z" transform="translate(-256.628 -154.107)" fill="#00a89b"/>
  <path id="Path_213" data-name="Path 213" d="M355.311,226a3.311,3.311,0,1,0,3.311,3.311A3.315,3.315,0,0,0,355.311,226Zm0,5.3a1.987,1.987,0,1,1,1.987-1.987A1.989,1.989,0,0,1,355.311,231.3Z" transform="translate(-327.595 -210.54)" fill="#00a89b"/>
  <circle id="Ellipse_38" data-name="Ellipse 38" cx="0.939" cy="0.939" r="0.939" transform="translate(15.59 32.457)" fill="#00a89b"/>
</svg>
