<svg xmlns="http://www.w3.org/2000/svg" width="35.144" height="35.145" viewBox="0 0 35.144 35.145">
  <g id="technical-support_2_" data-name="technical-support (2)" transform="translate(0 0)">
    <path id="Path_195" data-name="Path 195" d="M6.181,27.178a2.866,2.866,0,0,0-1.385.353,16.207,16.207,0,0,1,16-25.838A.686.686,0,0,0,21.07.348,17.7,17.7,0,0,0,17.572,0,17.572,17.572,0,0,0,3.781,28.462a2.884,2.884,0,1,0,2.4-1.284Zm1.068,3.951a1.51,1.51,0,1,1,.442-1.068A1.5,1.5,0,0,1,7.249,31.129Zm0,0" transform="translate(0 0.001)" fill="#565657"/>
    <path id="Path_196" data-name="Path 196" d="M215.29,36.532a2.877,2.877,0,1,0-1.015.931A16.207,16.207,0,0,1,198.3,63.307a.686.686,0,1,0-.269,1.346A17.714,17.714,0,0,0,201.5,65a17.572,17.572,0,0,0,13.79-28.463ZM211.824,36a1.511,1.511,0,1,1,1.068.442A1.5,1.5,0,0,1,211.824,36Zm0,0" transform="translate(-183.928 -29.851)" fill="#565657"/>
    <path id="Path_197" data-name="Path 197" d="M83.645,98.3a.687.687,0,0,0,.686.686h4.292a.686.686,0,0,0,.686-.686V96.968A10.749,10.749,0,0,0,91.886,95.9l.94.94a.686.686,0,0,0,.971,0L96.83,93.8a.687.687,0,0,0,0-.971l-.938-.938a10.749,10.749,0,0,0,1.068-2.576h1.326a.686.686,0,0,0,.686-.686V84.34a.686.686,0,0,0-.686-.686H96.959a10.751,10.751,0,0,0-1.067-2.576l.933-.933a.687.687,0,0,0,0-.971L93.789,76.14a.686.686,0,0,0-.971,0l-.932.932A10.749,10.749,0,0,0,89.31,76V74.686A.686.686,0,0,0,88.624,74H84.332a.687.687,0,0,0-.686.686v1.319a10.739,10.739,0,0,0-2.576,1.067l-.932-.932a.687.687,0,0,0-.971,0l-3.036,3.034a.686.686,0,0,0,0,.971l.933.933A10.747,10.747,0,0,0,76,83.654H74.673a.686.686,0,0,0-.686.686l0,4.292a.686.686,0,0,0,.686.687H76A10.749,10.749,0,0,0,77.064,91.9l-.938.938a.686.686,0,0,0,0,.971l3.034,3.036a.687.687,0,0,0,.485.2h0a.686.686,0,0,0,.485-.2l.939-.94a10.758,10.758,0,0,0,2.576,1.068Zm-2.307-3.842a.687.687,0,0,0-.858.091l-.836.836-2.063-2.065.835-.835a.686.686,0,0,0,.091-.858,9.4,9.4,0,0,1-1.3-3.138.687.687,0,0,0-.671-.542H75.357l0-2.919h1.177a.686.686,0,0,0,.671-.542,9.4,9.4,0,0,1,1.3-3.138.686.686,0,0,0-.091-.858l-.83-.83L79.652,77.6l.829.829a.687.687,0,0,0,.858.091,9.391,9.391,0,0,1,3.138-1.3.687.687,0,0,0,.542-.671V75.373h2.919v1.172a.686.686,0,0,0,.542.671,9.4,9.4,0,0,1,3.138,1.3.686.686,0,0,0,.858-.091L93.3,77.6l2.065,2.063-.83.83a.686.686,0,0,0-.091.858,9.4,9.4,0,0,1,1.3,3.138.686.686,0,0,0,.671.542H97.6v2.919H96.419a.687.687,0,0,0-.671.542,9.394,9.394,0,0,1-1.3,3.138.687.687,0,0,0,.091.858l.835.835-2.063,2.065-.836-.836a.686.686,0,0,0-.858-.091,9.4,9.4,0,0,1-3.138,1.3.686.686,0,0,0-.542.671v1.184H85.018V96.428a.687.687,0,0,0-.542-.671A9.4,9.4,0,0,1,81.338,94.457Zm0,0" transform="translate(-68.906 -68.92)" fill="#565657"/>
    <path id="Path_198" data-name="Path 198" d="M184.715,179.043a5.672,5.672,0,1,0-5.672,5.672A5.678,5.678,0,0,0,184.715,179.043Zm-9.971,0a4.3,4.3,0,1,1,4.3,4.3A4.3,4.3,0,0,1,174.744,179.043Zm0,0" transform="translate(-161.471 -161.47)" fill="#565657"/>
    <path id="Path_199" data-name="Path 199" d="M338.764,19.182a.687.687,0,1,0-.485-.2A.691.691,0,0,0,338.764,19.182Zm0,0" transform="translate(-314.872 -16.586)" fill="#565657"/>
    <path id="Path_200" data-name="Path 200" d="M155.045,474.359a.687.687,0,1,0,.485.2A.692.692,0,0,0,155.045,474.359Zm0,0" transform="translate(-143.763 -441.798)" fill="#565657"/>
  </g>
</svg>
