<svg xmlns="http://www.w3.org/2000/svg" width="35.998" height="31.489" viewBox="0 0 35.998 31.489">
  <g id="employees" transform="translate(0 -32.063)">
    <g id="Group_122" data-name="Group 122" transform="translate(19.65 55.238)">
      <g id="Group_121" data-name="Group 121" transform="translate(0 0)">
        <path id="Path_201" data-name="Path 201" d="M281.98,361.686h-1.973a.527.527,0,1,0,0,1.055h1.973a.527.527,0,1,0,0-1.055Z" transform="translate(-279.479 -361.686)" fill="#00a89b"/>
      </g>
    </g>
    <g id="Group_124" data-name="Group 124" transform="translate(15.519 32.063)">
      <g id="Group_123" data-name="Group 123" transform="translate(0 0)">
        <path id="Path_202" data-name="Path 202" d="M238.976,49.6,236.1,48.488l-1.464-1.464a.525.525,0,0,0-.339-.153V45.706a5.438,5.438,0,0,0,1.379-2.717,1.508,1.508,0,0,0,.37-.029,1.561,1.561,0,0,0,1.211-1.548v-.385a1.58,1.58,0,0,0-.464-1.122c.466-2.533.082-4.6-1.114-5.978-1.157-1.336-3.021-1.975-5.391-1.847a7.063,7.063,0,0,0-4.05,1.494,2.778,2.778,0,0,0-1.085.369,2.807,2.807,0,0,0-1.284,2.611,13.167,13.167,0,0,0,.366,3.063,1.563,1.563,0,0,0-.859,1.415v.379a1.561,1.561,0,0,0,1.211,1.548,1.505,1.505,0,0,0,.37.029,5.439,5.439,0,0,0,1.379,2.717v1.165a.525.525,0,0,0-.339.153l-1.464,1.464L221.666,49.6a3.491,3.491,0,0,0-.705.369.527.527,0,1,0,.593.872,2.44,2.44,0,0,1,.492-.258l2.665-1.028,2.038,3.056a1.509,1.509,0,0,0,1.111.667c.05,0,.1.007.151.007a1.505,1.505,0,0,0,.742-.2L228.314,63a.527.527,0,0,0,.5.55h.024a.527.527,0,0,0,.526-.5l.406-9.206h1.095l.406,9.206a.527.527,0,0,0,.526.5h.024a.527.527,0,0,0,.5-.55l-.437-9.918a1.5,1.5,0,0,0,.742.2c.05,0,.1,0,.151-.007a1.509,1.509,0,0,0,1.111-.667l2.038-3.056L238.6,50.58a2.427,2.427,0,0,1,.948.661l-1.823,1.823A3.464,3.464,0,0,0,236.7,55.53v7.5a.527.527,0,1,0,1.055,0v-7.5a2.417,2.417,0,0,1,.713-1.72l1.6-1.6a2.43,2.43,0,0,1,.084.737l-.408,10.06a.527.527,0,0,0,.505.548h.022a.527.527,0,0,0,.526-.506l.409-10.06A3.486,3.486,0,0,0,238.976,49.6Zm-12.983-6.824a1.027,1.027,0,0,0-1.068-.837.452.452,0,0,1-.123-.008.511.511,0,0,1-.368-.515v-.379a.5.5,0,0,1,.372-.5.458.458,0,0,1,.451.173.735.735,0,0,0,1.011.159,3.829,3.829,0,0,0,.865-.845.527.527,0,1,0-.846-.629,2.8,2.8,0,0,1-.411.444,1.509,1.509,0,0,0-.572-.305,12.128,12.128,0,0,1-.377-2.972,1.847,1.847,0,0,1,.74-1.687,1.712,1.712,0,0,1,.788-.253.532.532,0,0,0,.364-.146,5.94,5.94,0,0,1,3.529-1.335,5.383,5.383,0,0,1,4.536,1.484c.943,1.089,1.257,2.761.916,4.854a2.285,2.285,0,0,0-.45.031l-.5-1.19a.528.528,0,0,0-.62-.307c-.049.013-4.919,1.247-6.96-1.295a.527.527,0,1,0-.822.66c2.085,2.6,6.222,2.031,7.6,1.756l.383.92a.867.867,0,0,0,1,.514,1.138,1.138,0,0,1,.395-.029.5.5,0,0,1,.374.495v.385a.511.511,0,0,1-.368.515.447.447,0,0,1-.123.008,1.027,1.027,0,0,0-1.068.837,4.4,4.4,0,0,1-8.656,0Zm2.339,9.321a.459.459,0,0,1-.707-.07l-2.053-3.079.825-.826,3.151,2.757Zm1.488.7.032-.725.469-.469.469.469.032.725Zm.5-2.64-2.926-2.56V46.58a5.457,5.457,0,0,0,5.852,0v1.009Zm2.7,1.874a.459.459,0,0,1-.707.07l-1.217-1.217,3.151-2.757.825.825Z" transform="translate(-220.729 -32.066)" fill="#00a89b"/>
      </g>
    </g>
    <g id="Group_126" data-name="Group 126" transform="translate(0 32.063)">
      <g id="Group_125" data-name="Group 125" transform="translate(0 0)">
        <path id="Path_203" data-name="Path 203" d="M16.723,52.357l-2.575-1.124L12.74,49.825a.524.524,0,0,0-.339-.153v-.83A5.446,5.446,0,0,0,14.768,45.3a1.515,1.515,0,0,0,.416-.04,1.569,1.569,0,0,0,1.164-1.538v-.384a1.572,1.572,0,0,0-.676-1.3,5.963,5.963,0,0,0,.182-1.461,6.148,6.148,0,0,0-2.961-5.214,3.419,3.419,0,0,0-3.486-3.3,3.419,3.419,0,0,0-3.486,3.3A6.148,6.148,0,0,0,2.96,40.578a5.963,5.963,0,0,0,.181,1.457,1.576,1.576,0,0,0-.675,1.307v.379a1.569,1.569,0,0,0,1.164,1.538,1.512,1.512,0,0,0,.416.04,5.446,5.446,0,0,0,2.366,3.546v.83a.524.524,0,0,0-.339.153L4.667,51.233,2.092,52.357A3.509,3.509,0,0,0,0,55.7l.311,7.347a.527.527,0,0,0,.526.505H.864a.527.527,0,0,0,.5-.549l-.311-7.347a2.428,2.428,0,0,1,.334-1.328l1.384,1.661a2.931,2.931,0,0,1,.678,1.873v5.163a.527.527,0,0,0,1.055,0V57.862a3.988,3.988,0,0,0-.923-2.548L2.114,53.548a2.391,2.391,0,0,1,.4-.225l2.244-.98,1.586,2.574a1.021,1.021,0,0,0,1.532.241l1-.857v8.724a.527.527,0,0,0,1.055,0V54.3l1,.857a1.021,1.021,0,0,0,1.532-.241l1.586-2.574,2.244.98a2.393,2.393,0,0,1,.4.225L15.23,55.313a3.988,3.988,0,0,0-.923,2.548v5.163a.527.527,0,0,0,1.055,0V57.862a2.932,2.932,0,0,1,.678-1.873l1.384-1.661a2.428,2.428,0,0,1,.334,1.328L17.447,63a.527.527,0,0,0,.5.549h.023a.527.527,0,0,0,.526-.505l.311-7.347A3.51,3.51,0,0,0,16.723,52.357ZM9.408,33.118A2.416,2.416,0,0,1,11.756,34.8a6.687,6.687,0,0,0-4.7,0A2.416,2.416,0,0,1,9.408,33.118ZM5.08,45.08a1.027,1.027,0,0,0-1.068-.837.455.455,0,0,1-.138-.012.515.515,0,0,1-.353-.511v-.379a.5.5,0,0,1,.372-.5.458.458,0,0,1,.451.173.735.735,0,0,0,1.011.159,3.825,3.825,0,0,0,.853-.83.527.527,0,0,0-.843-.633,2.8,2.8,0,0,1-.4.433,1.511,1.511,0,0,0-.8-.35,4.911,4.911,0,0,1-.153-1.212,5.28,5.28,0,0,1,5.393-5.146A5.28,5.28,0,0,1,14.8,40.578a4.909,4.909,0,0,1-.152,1.21,2.418,2.418,0,0,0-.41.068l-.4-.326a1.012,1.012,0,0,0-.7-.231c-.775.046-4.745.151-6.781-2.287a.527.527,0,1,0-.809.676A7.536,7.536,0,0,0,9.926,42.1a12.907,12.907,0,0,0,3.256.248l.618.509a.526.526,0,0,0,.6.049,1.164,1.164,0,0,1,.52-.069.5.5,0,0,1,.374.495v.384a.515.515,0,0,1-.353.511.451.451,0,0,1-.138.012,1.028,1.028,0,0,0-1.068.837,4.4,4.4,0,0,1-8.656,0Zm2.141,9.251L5.635,51.756l.812-.812,2.184,2.184Zm2.187-1.918L7.468,50.473V49.382a5.451,5.451,0,0,0,3.879,0v1.091Zm2.187,1.918-1.41-1.2,2.184-2.184.812.812Z" transform="translate(0 -32.063)" fill="#00a89b"/>
      </g>
    </g>
    <g id="Group_128" data-name="Group 128" transform="translate(5.427 57.564)">
      <g id="Group_127" data-name="Group 127">
        <path id="Path_204" data-name="Path 204" d="M79.191,394.766h-1.48a.527.527,0,0,0,0,1.055h1.48a.527.527,0,0,0,0-1.055Z" transform="translate(-77.184 -394.766)" fill="#00a89b"/>
      </g>
    </g>
  </g>
</svg>
