<?xml version="1.0" encoding="utf-8"?>
<!-- Generator: Adobe Illustrator 21.0.0, SVG Export Plug-In . SVG Version: 6.00 Build 0)  -->
<svg version="1.1" id="Layer_1" xmlns="http://www.w3.org/2000/svg" xmlns:xlink="http://www.w3.org/1999/xlink" x="0px" y="0px"
	 viewBox="0 0 511 511" style="enable-background:new 0 0 511 511;" xml:space="preserve">
<style type="text/css">
	.st0{fill:#FFFFFF;}
</style>
<path class="st0" d="M216.2,421.2h80.5c12.3,0,22.3-10,22.3-22.3v-17.2c0-12.3-10-22.3-22.3-22.3h-80.5c-12.3,0-22.3,10-22.3,22.3
	v17.2C193.9,411.2,203.9,421.2,216.2,421.2z M208.9,381.7c0-4,3.3-7.3,7.3-7.3h80.5c4,0,7.3,3.3,7.3,7.3v17.2c0,4-3.3,7.3-7.3,7.3
	h-80.5c-4,0-7.3-3.3-7.3-7.3L208.9,381.7L208.9,381.7z"/>
<path class="st0" d="M464.1,110c-7.2-10.3-17.6-18.6-30-24.1c-14.5-6.4-28.8-7.1-42.1-7.3c-0.4,0-2.3,0-4.8,0V68.1
	c12.5-1.2,22.4-11.7,22.4-24.6V23.7c0-13.6-11.1-24.7-24.7-24.7H128c-13.6,0-24.7,11.1-24.7,24.7v19.8c0,12.8,9.9,23.4,22.4,24.6
	v10.5c-2.5,0-4.4,0-4.8,0c-13.3,0.2-27.6,0.9-42.1,7.3C66.4,91.4,56,99.7,48.8,110c-20.3,29.1-16.2,71,9.5,95.4
	c3,2.9,7.8,2.7,10.6-0.3c2.9-3,2.7-7.8-0.3-10.6c-20.1-19.1-23.4-53.2-7.5-76c5.6-8,13.8-14.6,23.7-19c12-5.3,24-5.9,36.3-6
	c0.3,0,2.1,0,4.5,0v19.1c-6.6,0.4-12.9,0.8-14.4,1.1c-21.6,4.2-35.5,24.1-31.5,45.3c0.7,3.8,2.3,9.4,5.7,14.1
	c9.1,12.4,20.7,14.6,30.9,15.1c0.7,0,7.4-0.4,15.2-1.1c2.7,8.5,6.1,16.6,10.4,24.2c-0.9,0.2-1.7,0.4-2.1,0.5
	c-15.8,3-30.5,2.4-43.9-1.7c-4-1.2-8.2,1-9.4,5c-1.2,4,1,8.2,5,9.4c9.2,2.8,18.8,4.2,28.9,4.2c7.2,0,14.5-0.7,22.1-2.1
	c1-0.2,4.3-1,7.9-1.9c13,17.8,30.4,32.3,50.5,41.7c6.5,16.1,13.5,37.5,16.2,60h-41.9c-8.6,0-15.5,7-15.5,15.5v95.9h-9.2
	c-14.3,0-25.9,11.6-25.9,25.9v31.6c0,8.1,6.6,14.7,14.7,14.7h116.9c4.1,0,7.5-3.4,7.5-7.5s-3.4-7.5-7.5-7.5H139.9v-31.3
	c0-6,4.9-10.9,10.9-10.9h211.4c6,0,10.9,4.9,10.9,10.9V495h-82.2c-4.1,0-7.5,3.4-7.5,7.5s3.4,7.5,7.5,7.5h82.5
	c8.1,0,14.7-6.6,14.7-14.7v-31.6c0-14.3-11.6-25.9-25.9-25.9H353v-95.9c0-8.6-7-15.5-15.5-15.5h-41.9c2.7-22.5,9.7-44,16.2-60
	c20.2-9.4,37.6-23.9,50.5-41.7c3.5,0.9,6.9,1.7,7.9,1.9c7.6,1.4,15,2.1,22.2,2.1c21.5,0,41-6.4,57-18.8
	C479.1,186.8,485.8,141.1,464.1,110z M117.1,173.3c-9.9-0.5-15-2.9-19.4-9c-1.4-1.9-2.5-4.7-3.1-8c-2.4-13,6.2-25.1,19.5-27.8
	c1.2-0.2,6.1-0.5,11.6-0.8v20.5c0,8.3,0.8,16.4,2.3,24.2C122.8,172.9,118.5,173.2,117.1,173.3z M128,53.2c-5.3,0-9.7-4.3-9.7-9.7
	V23.7c0-5.3,4.3-9.7,9.7-9.7h256.9c5.3,0,9.7,4.3,9.7,9.7v19.8c0,5.3-4.3,9.7-9.7,9.7H128z M387.2,127.7c5.5,0.3,10.4,0.7,11.6,0.8
	c13.4,2.6,21.9,14.8,19.5,27.8c-0.6,3.3-1.7,6.1-3.1,8c-4.5,6.1-9.6,8.5-19.5,9c-1.4,0-5.7-0.4-10.9-0.9c1.5-7.8,2.3-15.9,2.3-24.2
	v-20.5L387.2,127.7L387.2,127.7z M337.5,341.4c0.3,0,0.5,0.2,0.5,0.5v95.9H174.9v-95.9c0-0.3,0.2-0.5,0.5-0.5H337.5z M219.9,273.4
	c11.5,3.3,23.6,5.1,36.1,5.1h0.9c12.5,0,24.6-1.8,36.1-5.1c-5.4,15.3-10.4,33.6-12.5,52.8h-48.1C230.3,307,225.3,288.7,219.9,273.4z
	 M256.9,263.5H256c-63.6,0-115.3-51.7-115.3-115.3v-80h231.5v80C372.2,211.8,320.5,263.5,256.9,263.5z M440.3,198
	c-22.6,17.6-49.1,17.2-67.3,13.8c-0.4-0.1-1.2-0.3-2.1-0.5c4.2-7.6,7.7-15.7,10.4-24.2c7.8,0.7,14.5,1.2,15.2,1.1
	c10.2-0.5,21.8-2.8,30.9-15.2c3.4-4.7,5-10.3,5.7-14.1c4-21.2-9.9-41.1-31.5-45.3c-1.5-0.3-7.7-0.7-14.3-1.1V93.6c2.5,0,4.2,0,4.5,0
	c12.3,0.2,24.3,0.8,36.3,6c9.9,4.4,18.1,10.9,23.7,19C469.1,143.3,463.8,179.7,440.3,198z"/>
<path class="st0" d="M304.5,127.1l-21.1-3.1c-0.8-0.1-1.5-0.6-1.9-1.4l-9.4-19.1c-3-6-9-9.8-15.7-9.8c-6.7,0-12.7,3.7-15.7,9.8
	l-9.4,19.1c-0.4,0.7-1.1,1.2-1.9,1.4l-21.1,3.1c-6.6,1-12.1,5.5-14.1,11.9c-2.1,6.4-0.4,13.3,4.4,17.9l15.3,14.9
	c0.6,0.6,0.9,1.4,0.7,2.2l-3.6,21c-1.1,6.6,1.5,13.2,7,17.1c3.1,2.2,6.7,3.4,10.3,3.4c2.8,0,5.6-0.7,8.2-2l18.8-9.9
	c0.7-0.4,1.6-0.4,2.3,0l18.8,9.9c5.9,3.1,13,2.6,18.4-1.3c5.4-3.9,8.1-10.5,7-17.1l-3.6-21c-0.1-0.8,0.1-1.6,0.7-2.2l15.2-14.9
	c4.8-4.7,6.5-11.6,4.4-17.9C316.6,132.7,311.1,128.1,304.5,127.1z M303.7,146.2l-15.2,14.9c-4.1,4-6,9.8-5,15.5l3.6,21
	c0.2,1.3-0.5,2.1-1,2.4c-0.5,0.3-1.4,0.8-2.6,0.2l-18.8-9.9c-2.5-1.3-5.3-2-8.1-2c-2.8,0-5.6,0.7-8.1,2l-18.8,9.9
	c-1.2,0.6-2.2,0.1-2.6-0.2c-0.5-0.3-1.2-1.1-1-2.4l3.6-21c1-5.7-0.9-11.5-5-15.5l-15.2-14.9c-1-0.9-0.8-2-0.6-2.5s0.7-1.5,2-1.7
	l21.1-3.1c5.7-0.8,10.6-4.4,13.2-9.6l9.4-19.1c0.6-1.2,1.7-1.4,2.2-1.4s1.6,0.2,2.2,1.4l9.4,19.1c2.5,5.2,7.5,8.7,13.2,9.6l21.1,3.1
	c1.3,0.2,1.8,1.1,2,1.7C304.5,144.2,304.7,145.3,303.7,146.2z"/>
</svg>
