<svg xmlns="http://www.w3.org/2000/svg" width="34.986" height="34.412" viewBox="0 0 34.986 34.412">
  <g id="Group_3087" data-name="Group 3087" transform="translate(0 0)">
    <path id="Path_96" data-name="Path 96" d="M27.215,85.681c.093,0,.186,0,.279.009V74.45H.1V93.884a2.793,2.793,0,0,0,2.791,2.791H18.377a9.211,9.211,0,0,1-.211-1.945,9.059,9.059,0,0,1,9.049-9.049ZM6.4,82.222H19.511a.592.592,0,1,1,0,1.184H6.4a.592.592,0,1,1,0-1.184ZM14.25,88.9H6.4a.592.592,0,1,1,0-1.184H14.25a.592.592,0,1,1,0,1.184Zm0,0" transform="translate(-0.093 -68.184)" fill="#fff"/>
    <path id="Path_97" data-name="Path 97" d="M235.564,221.25a7.865,7.865,0,1,0,7.865,7.865A7.865,7.865,0,0,0,235.564,221.25Zm4.914,5.869-5.616,5.37a.589.589,0,0,1-.406.161.625.625,0,0,1-.423-.169l-3.189-3.2a.592.592,0,0,1,.837-.837l2.782,2.782,5.2-4.964a.589.589,0,0,1,.837.017A.6.6,0,0,1,240.478,227.119Zm0,0" transform="translate(-208.442 -202.568)" fill="#fff"/>
    <path id="Path_98" data-name="Path 98" d="M27.4,3.142A2.793,2.793,0,0,0,24.61.352H20.889V2.22a.592.592,0,1,1-1.184,0V.352H7.7V2.22a.592.592,0,1,1-1.184,0V.352H2.791A2.793,2.793,0,0,0,0,3.142v2.3H27.392v-2.3Zm0,0" transform="translate(0 -0.352)" fill="#fff"/>
  </g>
</svg>
