<svg xmlns="http://www.w3.org/2000/svg" width="31.504" height="25.625" viewBox="0 0 31.504 25.625">
  <g id="audience" transform="translate(0)">
    <g id="Group_3088" data-name="Group 3088">
      <g id="Group_71" data-name="Group 71" transform="translate(0 15.121)">
        <g id="Group_70" data-name="Group 70" transform="translate(0)">
          <path id="Path_101" data-name="Path 101" d="M162.712,283.022a7.985,7.985,0,0,0-3.839-.977h-3.3a8.025,8.025,0,0,0-8.027,8.027v2.476H166.9v-2.476A8.024,8.024,0,0,0,162.712,283.022Z" transform="translate(-147.54 -282.045)" fill="#fff"/>
        </g>
      </g>
      <g id="Group_73" data-name="Group 73" transform="translate(16.4 13.141)">
        <g id="Group_72" data-name="Group 72" transform="translate(0 0)">
          <path id="Path_102" data-name="Path 102" d="M348.681,257.225h-2.748a8.06,8.06,0,0,0-4.354,1.267,10.63,10.63,0,0,1,1.691,1.353,10.312,10.312,0,0,1,3.129,7.411V268.4h10.284v-3.323A7.937,7.937,0,0,0,348.681,257.225Z" transform="translate(-341.58 -257.225)" fill="#fff"/>
        </g>
      </g>
      <g id="Group_77" data-name="Group 77" transform="translate(17.43 1.885)">
        <g id="Group_76" data-name="Group 76" transform="translate(0 0)">
          <path id="Path_104" data-name="Path 104" d="M350.031,121.416h-.037a4.96,4.96,0,0,0,.045,9.9h.037a4.548,4.548,0,0,0,3.338-1.507,5.066,5.066,0,0,0,1.319-3.484A4.838,4.838,0,0,0,350.031,121.416Z" transform="translate(-345.337 -121.416)" fill="#fff"/>
        </g>
      </g>
      <g id="Group_81" data-name="Group 81" transform="translate(3.462)">
        <g id="Group_80" data-name="Group 80" transform="translate(0)">
          <path id="Path_106" data-name="Path 106" d="M192.818,111.445a6.408,6.408,0,0,0-6.218,6.57,6.612,6.612,0,0,0,3.56,5.938,5.913,5.913,0,0,0,5.316,0,6.612,6.612,0,0,0,3.56-5.938A6.408,6.408,0,0,0,192.818,111.445Z" transform="translate(-186.6 -111.445)" fill="#fff"/>
        </g>
      </g>
    </g>
  </g>
</svg>
