<svg xmlns="http://www.w3.org/2000/svg" width="31.15" height="32.464" viewBox="0 0 31.15 32.464">
  <g id="discount_1_" data-name="discount (1)" transform="translate(0 0)">
    <g id="Group_3090" data-name="Group 3090">
      <g id="Group_83" data-name="Group 83" transform="translate(0)">
        <g id="Group_82" data-name="Group 82" transform="translate(0 0)">
          <path id="Path_109" data-name="Path 109" d="M40.007,16.65a.951.951,0,0,1,0-.841l1.211-2.477A2.818,2.818,0,0,0,40,9.59L37.566,8.3a.951.951,0,0,1-.494-.68L36.6,4.9a2.818,2.818,0,0,0-3.183-2.313l-2.73.386a.951.951,0,0,1-.8-.26L27.9.8a2.818,2.818,0,0,0-3.935,0L21.985,2.716a.952.952,0,0,1-.8.26l-2.73-.386A2.818,2.818,0,0,0,15.272,4.9L14.8,7.618a.952.952,0,0,1-.494.68L11.866,9.59a2.818,2.818,0,0,0-1.216,3.742l1.211,2.477a.951.951,0,0,1,0,.841L10.65,19.127a2.818,2.818,0,0,0,1.216,3.742L14.3,24.162a.951.951,0,0,1,.494.68l.476,2.716A2.816,2.816,0,0,0,18.05,29.9a2.9,2.9,0,0,0,.405-.029l2.73-.386a.951.951,0,0,1,.8.26l1.981,1.917a2.818,2.818,0,0,0,3.935,0l1.982-1.917a.952.952,0,0,1,.8-.26l2.73.386A2.818,2.818,0,0,0,36.6,27.558l.476-2.715a.952.952,0,0,1,.494-.68L40,22.87a2.818,2.818,0,0,0,1.216-3.742ZM22.189,7.8a3.433,3.433,0,1,1-3.433,3.433A3.437,3.437,0,0,1,22.189,7.8ZM20.417,23.07a.936.936,0,1,1-1.324-1.324L31.45,9.389a.936.936,0,1,1,1.324,1.324Zm9.261,1.585a3.433,3.433,0,1,1,3.433-3.433A3.437,3.437,0,0,1,29.678,24.656Z" transform="translate(-10.359 0.002)" fill="#fff"/>
        </g>
      </g>
      <g id="Group_85" data-name="Group 85" transform="translate(17.759 19.666)">
        <g id="Group_84" data-name="Group 84">
          <path id="Path_110" data-name="Path 110" d="M292.012,310.141a1.56,1.56,0,1,0,1.56,1.56A1.562,1.562,0,0,0,292.012,310.141Z" transform="translate(-290.452 -310.141)" fill="#fff"/>
        </g>
      </g>
      <g id="Group_87" data-name="Group 87" transform="translate(10.27 9.68)">
        <g id="Group_86" data-name="Group 86">
          <path id="Path_111" data-name="Path 111" d="M173.893,152.646a1.56,1.56,0,1,0,1.56,1.56A1.562,1.562,0,0,0,173.893,152.646Z" transform="translate(-172.333 -152.646)" fill="#fff"/>
        </g>
      </g>
    </g>
  </g>
</svg>
