<svg xmlns="http://www.w3.org/2000/svg" width="31.942" height="31.941" viewBox="0 0 31.942 31.941">
  <g id="diagram_1_" data-name="diagram (1)" transform="translate(0 0.001)">
    <g id="Group_3089" data-name="Group 3089">
      <path id="Path_107" data-name="Path 107" d="M31.006,190.408h-1V171.942a.936.936,0,0,0-.936-.936H25.328a.936.936,0,0,0-.936.936v18.466H22.521V178.18a.936.936,0,0,0-.936-.936H17.842a.936.936,0,0,0-.936.936v12.228H15.035v-8.8a.936.936,0,0,0-.936-.936H10.356a.936.936,0,0,0-.936.936v8.8H7.549v-6.55a.936.936,0,0,0-.936-.936H2.87a.936.936,0,0,0-.936.936v6.55h-1a.936.936,0,1,0,0,1.872h30.07a.936.936,0,1,0,0-1.872Z" transform="translate(0 -160.34)" fill="#fff"/>
      <path id="Path_108" data-name="Path 108" d="M.936,20.11A32.672,32.672,0,0,0,18.77,14.2a34.574,34.574,0,0,0,10.423-10.7L30.1,6.9a1.014,1.014,0,0,0,1.146.662.927.927,0,0,0,.662-1.146L30.377.7A.936.936,0,0,0,29.231.035L23.512,1.567A.936.936,0,0,0,24,3.375l3.684-.987a32.486,32.486,0,0,1-9.956,10.263A30.791,30.791,0,0,1,.936,18.239a.936.936,0,0,0,0,1.872Z" transform="translate(0 -0.004)" fill="#fff"/>
    </g>
  </g>
</svg>
