<svg xmlns="http://www.w3.org/2000/svg" width="31.137" height="29.601" viewBox="0 0 31.137 29.601">
  <g id="settings_2_" data-name="settings (2)" transform="translate(0 -0.002)">
    <g id="Group_3091" data-name="Group 3091">
      <g id="Group_89" data-name="Group 89" transform="translate(0 20.754)">
        <g id="Group_88" data-name="Group 88">
          <path id="Path_112" data-name="Path 112" d="M29.84,355.16H26.385a4.546,4.546,0,0,0-8.659,0H1.3a1.265,1.265,0,1,0,0,2.528H17.726a4.546,4.546,0,0,0,8.659,0H29.84a1.265,1.265,0,1,0,0-2.528Zm-7.784,3.16a1.9,1.9,0,1,1,1.946-1.9A1.924,1.924,0,0,1,22.055,358.321Z" transform="translate(0 -352)" fill="#fff"/>
        </g>
      </g>
      <g id="Group_91" data-name="Group 91" transform="translate(0 0.002)">
        <g id="Group_90" data-name="Group 90" transform="translate(0 0)">
          <path id="Path_113" data-name="Path 113" d="M29.84,13.827H26.385a4.546,4.546,0,0,0-8.659,0H1.3a1.265,1.265,0,1,0,0,2.528H17.726a4.546,4.546,0,0,0,8.659,0H29.84a1.265,1.265,0,1,0,0-2.528Zm-7.784,3.16A1.9,1.9,0,1,1,24,15.091,1.924,1.924,0,0,1,22.055,16.988Z" transform="translate(0 -10.667)" fill="#fff"/>
        </g>
      </g>
      <g id="Group_93" data-name="Group 93" transform="translate(0 10.377)">
        <g id="Group_92" data-name="Group 92">
          <path id="Path_114" data-name="Path 114" d="M29.84,184.494H13.411a4.546,4.546,0,0,0-8.659,0H1.3a1.265,1.265,0,1,0,0,2.528H4.752a4.546,4.546,0,0,0,8.659,0H29.84a1.265,1.265,0,1,0,0-2.528Zm-20.758,3.16a1.9,1.9,0,1,1,1.946-1.9A1.924,1.924,0,0,1,9.082,187.655Z" transform="translate(0 -181.334)" fill="#fff"/>
        </g>
      </g>
    </g>
  </g>
</svg>
