<svg xmlns="http://www.w3.org/2000/svg" width="30.339" height="30.34" viewBox="0 0 30.339 30.34">
  <g id="user_2_" data-name="user (2)" transform="translate(0 0)">
    <g id="Group_3092" data-name="Group 3092">
      <path id="Path_115" data-name="Path 115" d="M134.027,335.266a7.692,7.692,0,0,0-7.683,7.683c0,.245.012.487.035.727a15.208,15.208,0,0,0,15.3,0c.023-.239.035-.481.035-.727A7.692,7.692,0,0,0,134.027,335.266Zm0,0" transform="translate(-118.857 -315.398)" fill="#fff"/>
      <path id="Path_116" data-name="Path 116" d="M25.9,4.443A15.17,15.17,0,0,0,4.443,25.9a15.378,15.378,0,0,0,1.28,1.144A9.479,9.479,0,0,1,11.574,18.8a6.6,6.6,0,1,1,7.19,0,9.479,9.479,0,0,1,5.852,8.241A15.418,15.418,0,0,0,25.9,25.9a15.17,15.17,0,0,0,0-21.453Zm0,0" transform="translate(0)" fill="#fff"/>
      <path id="Path_117" data-name="Path 117" d="M184.248,147.292a4.823,4.823,0,1,0-4.823,4.823A4.829,4.829,0,0,0,184.248,147.292Zm0,0" transform="translate(-164.255 -134.027)" fill="#fff"/>
    </g>
  </g>
</svg>
