<svg xmlns="http://www.w3.org/2000/svg" width="31.163" height="30.272" viewBox="0 0 31.163 30.272">
  <g id="briefcase_1_" data-name="briefcase (1)" transform="translate(0 0)">
    <path id="Path_99" data-name="Path 99" d="M28.054,38.562H21.343V35.5a2.507,2.507,0,0,0-2.335-2.644H12.155A2.507,2.507,0,0,0,9.819,35.5v3.062H3.108a3.328,3.328,0,0,0-3.1,3.51c0,1.758-.159,3.337,1.018,5.112a5.091,5.091,0,0,0,2.646,2.072l10.345,3.409a4.967,4.967,0,0,0,3.131,0l10.345-3.409a5.091,5.091,0,0,0,2.646-2.072c1.182-1.784,1.018-3.379,1.018-5.112a3.328,3.328,0,0,0-3.1-3.51ZM11.8,35.5a.383.383,0,0,1,.357-.4h6.853a.383.383,0,0,1,.357.4v3.062H11.8Z" transform="translate(0 -32.857)" fill="#fff"/>
    <path id="Path_100" data-name="Path 100" d="M28.153,269.684C17,273.361,17.14,273.436,15.69,273.436s-1.1-.006-12.462-3.752a6.911,6.911,0,0,1-3.111-2.127V278.3a3.328,3.328,0,0,0,3.1,3.51H28.163a3.328,3.328,0,0,0,3.1-3.51V267.557a6.911,6.911,0,0,1-3.111,2.127Z" transform="translate(-0.109 -251.54)" fill="#fff"/>
  </g>
</svg>
