<svg xmlns="http://www.w3.org/2000/svg" width="51.303" height="30.419" viewBox="0 0 51.303 30.419">
  <g id="coupon" transform="translate(0 -104.209)">
    <path id="Path_414" data-name="Path 414" d="M55.694,111.71H9.106A1.606,1.606,0,0,0,7.5,113.316v7.071a1.174,1.174,0,0,0,.543,1,5.611,5.611,0,0,1,0,9.556,1.174,1.174,0,0,0-.543,1v7.071a1.606,1.606,0,0,0,1.606,1.606H55.694A1.606,1.606,0,0,0,57.3,139.02v-25.7A1.606,1.606,0,0,0,55.694,111.71Z" transform="translate(-6.748 -6.749)" fill="#ffc350"/>
    <path id="Path_415" data-name="Path 415" d="M176.706,159.856H144.577a.8.8,0,0,1-.8-.8v-22.49a.8.8,0,0,1,.8-.8h32.129a.8.8,0,0,1,.8.8v22.491A.8.8,0,0,1,176.706,159.856Z" transform="translate(-129.368 -28.389)" fill="#ffd164"/>
    <path id="Path_416" data-name="Path 416" d="M224.893,182.209l-4.163,2.614a1.2,1.2,0,0,1-1.8-1.311l1.2-4.767-3.772-3.152a1.2,1.2,0,0,1,.689-2.122l4.9-.333,1.832-4.562a1.2,1.2,0,0,1,2.231,0l1.832,4.562,4.9.333a1.2,1.2,0,0,1,.689,2.122l-3.772,3.152,1.2,4.767a1.2,1.2,0,0,1-1.8,1.311Z" transform="translate(-194.284 -57.239)" fill="#fff"/>
    <path id="Path_417" data-name="Path 417" d="M230.339,231.144a13.644,13.644,0,0,1-11.634-8.077l-1.663.113a1.2,1.2,0,0,0-.689,2.122l3.772,3.152-1.2,4.767a1.2,1.2,0,0,0,1.8,1.311l4.163-2.614,4.163,2.614a1.2,1.2,0,0,0,1.8-1.311Z" transform="translate(-194.283 -106.948)" fill="#fff6d8"/>
    <path id="Path_418" data-name="Path 418" d="M48.945,104.209H2.358A2.361,2.361,0,0,0,0,106.567v7.071a1.936,1.936,0,0,0,.9,1.642,4.839,4.839,0,0,1,2.313,4.139A4.839,4.839,0,0,1,.9,123.558,1.937,1.937,0,0,0,0,125.2v7.071a2.361,2.361,0,0,0,2.358,2.358H48.945A2.361,2.361,0,0,0,51.3,132.27v-25.7A2.361,2.361,0,0,0,48.945,104.209ZM49.8,132.27a.856.856,0,0,1-.855.855h-37v-.052a.752.752,0,1,0-1.5,0v.052H2.358a.856.856,0,0,1-.855-.855V125.2a.424.424,0,0,1,.187-.364,6.333,6.333,0,0,0,3.026-5.417A6.333,6.333,0,0,0,1.69,114a.425.425,0,0,1-.187-.364v-7.071a.856.856,0,0,1,.855-.855h8.084v.052a.752.752,0,0,0,1.5,0v-.052h37a.856.856,0,0,1,.855.855Z" transform="translate(0 0)"/>
    <path id="Path_419" data-name="Path 419" d="M104.962,240.484a.751.751,0,0,0-.752.752v1.606a.752.752,0,1,0,1.5,0v-1.606A.751.751,0,0,0,104.962,240.484Z" transform="translate(-93.768 -122.62)"/>
    <path id="Path_420" data-name="Path 420" d="M104.962,144.292a.751.751,0,0,0-.752.752v1.606a.752.752,0,1,0,1.5,0v-1.606A.751.751,0,0,0,104.962,144.292Z" transform="translate(-93.768 -36.067)"/>
    <path id="Path_421" data-name="Path 421" d="M104.962,192.387a.751.751,0,0,0-.752.752v1.606a.752.752,0,0,0,1.5,0v-1.606A.751.751,0,0,0,104.962,192.387Z" transform="translate(-93.768 -79.342)"/>
    <path id="Path_422" data-name="Path 422" d="M104.962,288.581a.751.751,0,0,0-.752.752v1.606a.752.752,0,0,0,1.5,0v-1.606A.751.751,0,0,0,104.962,288.581Z" transform="translate(-93.768 -165.898)"/>
    <path id="Path_423" data-name="Path 423" d="M104.962,336.677a.752.752,0,0,0-.752.752v1.606a.752.752,0,1,0,1.5,0v-1.606A.752.752,0,0,0,104.962,336.677Z" transform="translate(-93.768 -209.174)"/>
    <path id="Path_424" data-name="Path 424" d="M226.053,165.974l-4.434-.3-1.656-4.124a1.953,1.953,0,0,0-3.626,0l-1.656,4.124-4.434.3a1.953,1.953,0,0,0-1.12,3.448l3.41,2.849-1.084,4.31a1.953,1.953,0,0,0,2.933,2.131l3.764-2.363,3.764,2.363a1.953,1.953,0,0,0,2.933-2.131l-1.084-4.31,3.41-2.849a1.953,1.953,0,0,0-1.12-3.448Zm.156,2.295-3.772,3.152a.752.752,0,0,0-.247.76l1.2,4.767a.45.45,0,0,1-.676.491l-4.163-2.614a.752.752,0,0,0-.8,0l-4.163,2.614a.45.45,0,0,1-.676-.491l1.2-4.767a.751.751,0,0,0-.247-.76l-3.772-3.152a.45.45,0,0,1,.258-.8l4.9-.333a.752.752,0,0,0,.646-.47l1.832-4.562a.45.45,0,0,1,.836,0l1.832,4.562a.752.752,0,0,0,.646.47l4.9.333a.45.45,0,0,1,.258.795Z" transform="translate(-187.541 -50.492)"/>
  </g>
</svg>
