<svg xmlns="http://www.w3.org/2000/svg" width="55.5" height="44.071" viewBox="0 0 55.5 44.071">
  <g id="group_1_" data-name="group (1)" transform="translate(0 -105.437)">
    <path id="Path_611" data-name="Path 611" d="M32.461,307.389a6.445,6.445,0,0,0-3.146-1.8l-4.46-1.069,0,0,0,0V301.8H19.409v2.731h0l-4.448,1.063A6.462,6.462,0,0,0,10,311.876v7.287h9.86Z" transform="translate(-8.916 -175.075)" fill="#78d2fa"/>
    <path id="Path_612" data-name="Path 612" d="M101.65,301.8v2.8l-2.826,6.77L96,304.6V301.8Z" transform="translate(-85.594 -175.075)" fill="#ffb487"/>
    <path id="Path_613" data-name="Path 613" d="M78.092,215.261v3.771a6.07,6.07,0,0,1-6.071,6.07h0a6.07,6.07,0,0,1-6.071-6.07v-3.771Z" transform="translate(-58.802 -97.919)" fill="#ffcdac"/>
    <path id="Path_614" data-name="Path 614" d="M78.092,164.317v-1.461a6.07,6.07,0,0,0-6.071-6.07h0a6.07,6.07,0,0,0-6.071,6.07v1.461h4.185a14.474,14.474,0,0,0,7.44-2.058h0" transform="translate(-58.802 -45.782)" fill="#878791"/>
    <path id="Path_615" data-name="Path 615" d="M294.79,307.389a6.445,6.445,0,0,1,3.146-1.8l4.46-1.069,0,0,0,0V301.8h5.446v2.731h0l4.448,1.063a6.462,6.462,0,0,1,4.961,6.285v7.287h-9.86Z" transform="translate(-262.835 -175.075)" fill="#a5dc69"/>
    <path id="Path_616" data-name="Path 616" d="M113.077,352.4l-6.212,1.488a9,9,0,0,0-6.9,8.753v5.975h33.806V362.65a9,9,0,0,0-6.91-8.754l-6.2-1.48Z" transform="translate(-89.126 -220.195)" fill="#ff5a5a"/>
    <g id="Group_2950" data-name="Group 2950" transform="translate(23.704 126.722)">
      <path id="Path_617" data-name="Path 617" d="M369.53,301.8V304.6l-2.823,6.76-2.826-6.77v-2.8Z" transform="translate(-348.14 -301.797)" fill="#ffb487"/>
      <path id="Path_618" data-name="Path 618" d="M222.721,335.873l4.044-9.182a3.338,3.338,0,0,1-.471-1.712V324.1h-7.151v.883a3.338,3.338,0,0,1-.47,1.709Z" transform="translate(-218.674 -321.679)" fill="#ffb487"/>
    </g>
    <path id="Path_619" data-name="Path 619" d="M194.911,191.525v5.834a8.455,8.455,0,0,1-8.455,8.455h0A8.455,8.455,0,0,1,178,197.359v-5.834Z" transform="translate(-158.706 -76.756)" fill="#ffcdac"/>
    <path id="Path_620" data-name="Path 620" d="M186.454,115.437h0A8.455,8.455,0,0,0,178,123.892v2.035h4.134a9.289,9.289,0,0,0,7.12-3.323h0l5.656,3.323v-2.035A8.455,8.455,0,0,0,186.454,115.437Z" transform="translate(-158.704 -8.916)" fill="#f5b955"/>
    <path id="Path_621" data-name="Path 621" d="M334.045,215.261v3.771a6.07,6.07,0,0,0,6.071,6.07h0a6.07,6.07,0,0,0,6.071-6.07v-3.771Z" transform="translate(-297.835 -97.919)" fill="#ffcdac"/>
    <path id="Path_622" data-name="Path 622" d="M334.045,164.317v-1.461a6.07,6.07,0,0,1,6.071-6.07h0a6.07,6.07,0,0,1,6.071,6.07v1.461H342a14.474,14.474,0,0,1-7.439-2.058h0" transform="translate(-297.835 -45.782)" fill="#878791"/>
    <path id="Path_623" data-name="Path 623" d="M246.824,492a1.085,1.085,0,1,0,.766.318A1.092,1.092,0,0,0,246.824,492Z" transform="translate(-219.102 -344.66)"/>
    <path id="Path_624" data-name="Path 624" d="M49.707,129.462l-3.616-.864v-1.434a7.154,7.154,0,0,0,3.344-6.051v-4.04a7.15,7.15,0,0,0-12.507-4.74,9.556,9.556,0,0,0-9.167-6.9h0a9.556,9.556,0,0,0-9.172,6.916,7.15,7.15,0,0,0-12.524,4.721v4.04a7.154,7.154,0,0,0,3.344,6.051V128.6l-3.616.864A7.522,7.522,0,0,0,0,136.8v7.287a1.084,1.084,0,0,0,1.084,1.084H9.752v3.252a1.084,1.084,0,0,0,1.084,1.084H22.728a1.084,1.084,0,0,0,0-2.168H17.888v-4.771a1.084,1.084,0,1,0-2.168,0v4.771h-3.8v-4.891a7.892,7.892,0,0,1,6.072-7.7l5.331-1.278,3.43,7.8a1.084,1.084,0,0,0,.992.648h0a1.084,1.084,0,0,0,.992-.648l3.427-7.793,5.316,1.27a7.891,7.891,0,0,1,6.077,7.7v1.21a1.086,1.086,0,0,0,0,.848v2.828H39.78v-4.771a1.084,1.084,0,1,0-2.168,0v4.771H32.3a1.084,1.084,0,0,0,0,2.168H44.642a1.084,1.084,0,0,0,1.084-1.084v-3.252h8.69a1.084,1.084,0,0,0,1.084-1.084V136.8A7.522,7.522,0,0,0,49.707,129.462Zm-5.782.05-1.655,3.963-1.633-3.911a1.083,1.083,0,0,0,.007-.119c0-.01,0-.02,0-.03v-1.339a7.105,7.105,0,0,0,3.278,0v1.379C43.923,129.473,43.925,129.493,43.926,129.512Zm-21.059.871a7.527,7.527,0,0,0-2.215-.923l-3.629-.869v-1.422a7.206,7.206,0,0,0,2.24-2.234,9.608,9.608,0,0,0,3.6,3.853ZM20.39,120.6V118.1h3.05a10.345,10.345,0,0,0,7.326-3.029l4.36,2.561v3.229A7.37,7.37,0,0,1,20.39,120.6Zm12.231,8.205a9.607,9.607,0,0,0,3.628-3.855,7.21,7.21,0,0,0,2.228,2.215v1.422l-3.629.869a7.528,7.528,0,0,0-2.228.931v-1.583Zm9.66-2.709a4.992,4.992,0,0,1-4.987-4.986v-.177c0-.111.007-2.915.007-2.915a15.562,15.562,0,0,0,6.866,1.6h3.1v1.494A4.992,4.992,0,0,1,42.281,126.1Zm0-14.012a4.992,4.992,0,0,1,4.987,4.986v.377h-3.1a13.393,13.393,0,0,1-6.672-1.781A5,5,0,0,1,42.281,112.087ZM20.39,114.976a7.371,7.371,0,0,1,14.743,0v.141l-4.023-2.364a1.084,1.084,0,0,0-1.38.238,8.186,8.186,0,0,1-6.289,2.935H20.39Zm-12.157,2.1a4.987,4.987,0,0,1,9.772-1.4,13.394,13.394,0,0,1-6.672,1.781h-3.1v-.377Zm0,2.545h3.1a15.561,15.561,0,0,0,6.873-1.6v3.095a4.987,4.987,0,0,1-9.973,0S8.233,119.619,8.233,119.619Zm4.987,8.649a7.15,7.15,0,0,0,1.636-.191v1.308c0,.02,0,.041,0,.061s0,.068.007.1l-1.64,3.927-1.646-3.943c0-.026,0-.052,0-.078v-1.379A7.149,7.149,0,0,0,13.22,128.267ZM9.752,142.449V143H6.5v-4.816a1.084,1.084,0,0,0-2.168,0V143H2.168v-6.2A5.361,5.361,0,0,1,6.3,131.57l3.436-.821,2.243,5.372A10.063,10.063,0,0,0,9.752,142.449Zm7.735-9.807a10.19,10.19,0,0,0-1.833.63l1.056-2.528,3.437.824a5.372,5.372,0,0,1,.778.251Zm10.259,5.505-2.711-6.168v-2.236a9.547,9.547,0,0,0,5.418.01v2.237Zm6.81-6.321a5.38,5.38,0,0,1,.8-.259l3.428-.821,1.06,2.539a10.191,10.191,0,0,0-1.858-.64ZM53.332,143H51.164v-4.816a1.084,1.084,0,0,0-2.168,0V143h-3.27v-.55a10.063,10.063,0,0,0-2.217-6.32l2.25-5.387,3.444.823a5.361,5.361,0,0,1,4.129,5.231Z" transform="translate(0 0)"/>
  </g>
</svg>
