<svg xmlns="http://www.w3.org/2000/svg" width="26.001" height="38.526" viewBox="0 0 26.001 38.526">
  <g id="man_1_" data-name="man (1)" transform="translate(-78.033 0)">
    <path id="Path_625" data-name="Path 625" d="M110.749,41.455v3.151a.642.642,0,0,1-.642.642H86.674a.642.642,0,0,1-.642-.642V41.455a5.985,5.985,0,0,1,5.986-5.984,3.323,3.323,0,0,0,2.79-1.514,3.772,3.772,0,0,0,.534-2.352l.012-.03a7.946,7.946,0,0,1-4.907-7.343v-.251a1.979,1.979,0,0,1-2.006-1.969V18.677c-.026-1.161.027-5.256,2.985-8.108,3.44-3.315,8.89-3.044,12.839-1.27a.161.161,0,0,1-.006.3l-1.03.424a.161.161,0,0,0,.044.308l.5.054a8.1,8.1,0,0,1,6,3.72.172.172,0,0,1-.021.2,4.855,4.855,0,0,0-1.326,3.335v4.379a1.97,1.97,0,0,1-1.969,1.969h-.117v.251a7.946,7.946,0,0,1-4.907,7.343l.012.03a3.771,3.771,0,0,0,.534,2.352,3.323,3.323,0,0,0,2.79,1.514A5.985,5.985,0,0,1,110.749,41.455Z" transform="translate(-7.357 -7.364)" fill="#ffdfba"/>
    <path id="Path_626" data-name="Path 626" d="M110.749,338.871v3.151a.642.642,0,0,1-.642.642H86.674a.642.642,0,0,1-.642-.642v-3.151a5.986,5.986,0,0,1,5.986-5.984,3.323,3.323,0,0,0,2.79-1.514,5.509,5.509,0,0,0,7.166,0,3.323,3.323,0,0,0,2.79,1.514A5.985,5.985,0,0,1,110.749,338.871Z" transform="translate(-7.357 -304.78)" fill="#fe4f60"/>
    <path id="Path_627" data-name="Path 627" d="M137.322,14.1a.17.17,0,0,1-.021.2,4.858,4.858,0,0,0-1.326,3.336v4.379a1.973,1.973,0,0,1-2.087,1.969V19.025a3.852,3.852,0,0,0-3.852-3.852h-8.186A3.852,3.852,0,0,0,118,19.025v4.957a1.979,1.979,0,0,1-2.006-1.969V18.677c-.026-1.161.027-5.256,2.985-8.108,3.439-3.315,8.891-3.044,12.838-1.27a.161.161,0,0,1-.005.3l-1.03.424a.161.161,0,0,0,.044.308l.5.054A8.1,8.1,0,0,1,137.322,14.1Z" transform="translate(-34.911 -7.365)" fill="#42434d"/>
    <path id="Path_628" data-name="Path 628" d="M156.922,106.353a7.947,7.947,0,1,1-15.89-.251v-4.957a3.852,3.852,0,0,1,3.852-3.852h8.186a3.852,3.852,0,0,1,3.852,3.852Z" transform="translate(-57.943 -89.485)" fill="#ffebd2"/>
    <path id="Path_629" data-name="Path 629" d="M147.178,125.88a1.269,1.269,0,0,1-1.154,2.247,7.946,7.946,0,0,1-4.992-7.378v-5.208a3.835,3.835,0,0,1,.676-2.18.949.949,0,0,1,1.732.575v5.208a7.887,7.887,0,0,0,3.738,6.735Z" transform="translate(-57.943 -103.882)" fill="#fff3e4"/>
    <path id="Path_630" data-name="Path 630" d="M207.182,303.04a7.967,7.967,0,0,1-6.28,0,4.973,4.973,0,0,0,.091-1.318l.012-.03a7.961,7.961,0,0,0,6.075,0l.012.03A4.972,4.972,0,0,0,207.182,303.04Z" transform="translate(-113.009 -277.482)" fill="#ffd6a6"/>
    <path id="Path_631" data-name="Path 631" d="M95.25,334.825a3.265,3.265,0,0,1-.956.148,6,6,0,0,0-6.016,5.964v.6a1.124,1.124,0,0,1-1.124,1.124h-.482a.642.642,0,0,1-.642-.642v-3.151a5.985,5.985,0,0,1,5.986-5.984,3.323,3.323,0,0,0,2.79-1.514,5.556,5.556,0,0,0,.763.547A1.6,1.6,0,0,1,95.25,334.825Z" transform="translate(-7.356 -304.78)" fill="#ff6d7a"/>
    <path id="Path_632" data-name="Path 632" d="M266.47,334.825a3.265,3.265,0,0,0,.956.148,6,6,0,0,1,6.016,5.964v.6a1.124,1.124,0,0,0,1.124,1.124h.481a.642.642,0,0,0,.642-.642v-3.151a5.985,5.985,0,0,0-5.986-5.984,3.323,3.323,0,0,1-2.79-1.514,5.553,5.553,0,0,1-.763.547A1.6,1.6,0,0,0,266.47,334.825Z" transform="translate(-172.298 -304.78)" fill="#e84857"/>
    <path id="Path_633" data-name="Path 633" d="M131.813,9.594c-.944.388-1.078.474-1.405.423-5.27-.817-9.894,1.364-11.465,6.483h0A3.833,3.833,0,0,0,118,19.024v3.011a1,1,0,1,1-2.006-.024V18.677c-.026-1.161.027-5.256,2.985-8.108,3.44-3.315,8.89-3.044,12.839-1.27A.161.161,0,0,1,131.813,9.594Z" transform="translate(-34.912 -7.364)" fill="#4d4e59"/>
    <path id="Path_634" data-name="Path 634" d="M104.034,34.091v3.792a.642.642,0,1,1-1.284,0V34.091a5.339,5.339,0,0,0-5.343-5.342,3.942,3.942,0,0,1-3.391-1.9.642.642,0,0,1,1.1-.668,2.667,2.667,0,0,0,2.295,1.288,6.623,6.623,0,0,1,6.627,6.626Zm-11.2-6.436a.642.642,0,0,1-.491.764,6.145,6.145,0,0,1-4.776-.934,3.893,3.893,0,0,1-2.9,1.263,5.339,5.339,0,0,0-5.343,5.342v3.792a.642.642,0,0,1-1.284,0V34.091a6.623,6.623,0,0,1,6.626-6.626,2.677,2.677,0,0,0,2.683-2.676V24.62a8.6,8.6,0,0,1-4.889-7.435,2.62,2.62,0,0,1-2.012-2.538V11.319c-.035-1.629.207-5.709,3.182-8.577C87.3-.8,93.187-.574,97.519,1.512a.644.644,0,0,1,.136,1.069,8.665,8.665,0,0,1,5.3,3.815.709.709,0,0,1,.148.5.649.649,0,0,1-.184.407,4.192,4.192,0,0,0-1.213,2.961v4.379a.642.642,0,1,1-1.284,0V10.269a5.465,5.465,0,0,1,1.247-3.49,7.416,7.416,0,0,0-5.323-3.125l-1.128-.121A.643.643,0,0,1,95.043,2.3l.513-.211c-6.684-2.33-13.831.259-13.831,9.223v3.335a1.326,1.326,0,0,0,.722,1.175V11.66a4.5,4.5,0,0,1,4.494-4.494h8.186A4.5,4.5,0,0,1,99.62,11.66v5.257a8.6,8.6,0,0,1-11.008,8.19,3.925,3.925,0,0,1-.336,1.311,4.862,4.862,0,0,0,3.79.747A.642.642,0,0,1,92.831,27.656Zm-1.8-3.485a7.311,7.311,0,0,0,7.3-7.3V11.66a3.214,3.214,0,0,0-3.21-3.21H86.941a3.214,3.214,0,0,0-3.21,3.21v5.208a7.311,7.311,0,0,0,7.3,7.3Zm6.5,11.065H95.608a.642.642,0,1,0,0,1.284h1.926a.642.642,0,0,0,0-1.284Z" transform="translate(0 0)"/>
  </g>
</svg>
