<svg id="analytics" xmlns="http://www.w3.org/2000/svg" width="48.666" height="48.666" viewBox="0 0 48.666 48.666">
  <path id="Path_564" data-name="Path 564" d="M16.844,50.084H13.8a3.8,3.8,0,0,1-3.8-3.8V13.8A3.8,3.8,0,0,1,13.8,10H52.963a3.8,3.8,0,0,1,3.8,3.8v32.48a3.8,3.8,0,0,1-3.8,3.8H16.844Z" transform="translate(-9.049 -9.049)" fill="#fff"/>
  <path id="Path_565" data-name="Path 565" d="M52.963,10H13.8A3.8,3.8,0,0,0,10,13.8v3.042H56.765V13.8A3.8,3.8,0,0,0,52.963,10Z" transform="translate(-9.049 -9.049)" fill="#fed74b"/>
  <path id="Path_566" data-name="Path 566" d="M21,82H66.153" transform="translate(-19.008 -74.206)" fill="#231f20"/>
  <rect id="Rectangle_958" data-name="Rectangle 958" width="6" height="10" transform="translate(5.333 37.333)" fill="#a5dc69"/>
  <rect id="Rectangle_959" data-name="Rectangle 959" width="6" height="13" transform="translate(27.333 34.333)" fill="#78d2fa"/>
  <rect id="Rectangle_960" data-name="Rectangle 960" width="6.083" height="20.965" transform="translate(15.969 26.75)" fill="#fed74b"/>
  <rect id="Rectangle_961" data-name="Rectangle 961" width="6.083" height="22.384" transform="translate(37.26 25.331)" fill="#fed74b"/>
  <circle id="Ellipse_72" data-name="Ellipse 72" cx="2.471" cy="2.471" r="2.471" transform="translate(16.004 13.872)" fill="#f5c86e"/>
  <circle id="Ellipse_73" data-name="Ellipse 73" cx="2.471" cy="2.471" r="2.471" transform="translate(27.096 25.188)" fill="#78d2fa"/>
  <circle id="Ellipse_74" data-name="Ellipse 74" cx="2.471" cy="2.471" r="2.471" transform="translate(37.83 13.872)" fill="#ff5a5a"/>
  <circle id="Ellipse_75" data-name="Ellipse 75" cx="2.471" cy="2.471" r="2.471" transform="translate(5.83 24.279)" fill="#a5dc69"/>
  <path id="Path_567" data-name="Path 567" d="M45.347,41.87a3.323,3.323,0,0,0,3.319-3.319V4.753A4.758,4.758,0,0,0,43.913,0H4.753A4.758,4.758,0,0,0,0,4.753v33.8A3.323,3.323,0,0,0,3.319,41.87H4.372v4.895H.951a.951.951,0,0,0,0,1.9H47.716a.951.951,0,0,0,0-1.9H44.294V41.87ZM4.753,1.9H43.913a2.855,2.855,0,0,1,2.852,2.852V6.844H2c-.032,0-.064,0-.1,0v-2.1A2.855,2.855,0,0,1,4.753,1.9ZM6.273,46.765V38.21h4.182v8.555Zm10.646,0V27.7H21.1V46.765Zm10.646,0V35.739h4.182V46.765Zm10.646,0V36.523a.951.951,0,0,0-1.9,0V46.765H33.648V34.789a.951.951,0,0,0-.951-.951H26.614a.951.951,0,0,0-.951.951V46.765H23V26.75a.951.951,0,0,0-.951-.951H15.969a.951.951,0,0,0-.951.951V46.765H12.357V37.26a.951.951,0,0,0-.951-.951H5.323a.951.951,0,0,0-.951.951v2.709H3.319A1.419,1.419,0,0,1,1.9,38.551V8.74c.031,0,.063,0,.1,0H46.765V38.551a1.42,1.42,0,0,1-1.418,1.418H44.294V25.331a.951.951,0,0,0-.951-.951H37.26a.951.951,0,0,0-.951.951v4.8a.951.951,0,0,0,1.9,0V26.282h4.182V46.765Z"/>
  <path id="Path_568" data-name="Path 568" d="M213.016,37.9h21.475a.951.951,0,0,0,0-1.9H213.016a.951.951,0,0,0,0,1.9Z" transform="translate(-191.908 -32.578)"/>
  <path id="Path_569" data-name="Path 569" d="M94.951,37.9a.951.951,0,1,0-.672-.279A.957.957,0,0,0,94.951,37.9Z" transform="translate(-85.065 -32.578)"/>
  <path id="Path_570" data-name="Path 570" d="M54.951,37.9a.951.951,0,1,0-.672-.279A.957.957,0,0,0,54.951,37.9Z" transform="translate(-48.867 -32.578)"/>
  <path id="Path_571" data-name="Path 571" d="M134.95,37.9a.951.951,0,1,0-.672-.279A.957.957,0,0,0,134.95,37.9Z" transform="translate(-121.263 -32.578)"/>
  <path id="Path_572" data-name="Path 572" d="M382.951,342.64a.951.951,0,1,0,.672.278A.954.954,0,0,0,382.951,342.64Z" transform="translate(-345.691 -310.072)"/>
  <path id="Path_573" data-name="Path 573" d="M86.758,142.783a3.427,3.427,0,1,0-2.769-1.415l-6.314,6.314a3.414,3.414,0,0,0-3.156-.077l-6.593-6.593a3.422,3.422,0,1,0-5.905.147l-5.613,5.613a3.425,3.425,0,1,0,1.344,1.344l5.68-5.68a3.414,3.414,0,0,0,3.149-.08l6.528,6.528a3.422,3.422,0,1,0,5.909.141l6.483-6.483A3.4,3.4,0,0,0,86.758,142.783Zm0-4.943a1.521,1.521,0,1,1-1.521,1.521A1.523,1.523,0,0,1,86.758,137.84Zm-32,13.449a1.521,1.521,0,1,1,1.521-1.521A1.523,1.523,0,0,1,54.758,151.289Zm10.174-10.407a1.521,1.521,0,1,1,1.521-1.521A1.523,1.523,0,0,1,64.932,140.882ZM76.024,152.2a1.521,1.521,0,1,1,1.521-1.521A1.523,1.523,0,0,1,76.024,152.2Z" transform="translate(-46.456 -123.018)"/>
  <path id="Path_574" data-name="Path 574" d="M132.211,127.921a.949.949,0,1,0-.673-.279A.959.959,0,0,0,132.211,127.921Z" transform="translate(-118.784 -114.042)"/>
  <path id="Path_575" data-name="Path 575" d="M46.951,127.922h4.562a.951.951,0,1,0,0-1.9H46.951a.951.951,0,0,0,0,1.9Z" transform="translate(-41.628 -114.043)"/>
  <path id="Path_576" data-name="Path 576" d="M51.513,175.922a.951.951,0,1,0,0-1.9H46.951a.951.951,0,0,0,0,1.9Z" transform="translate(-41.628 -157.48)"/>
</svg>
