<svg xmlns="http://www.w3.org/2000/svg" width="47.504" height="47.501" viewBox="0 0 47.504 47.501">
  <g id="gear" transform="translate(0 -0.012)">
    <path id="Path_263" data-name="Path 263" d="M50.152,36.967h3.638a1.855,1.855,0,0,0,1.855-1.856l0-4.588a1.855,1.855,0,0,0-1.855-1.854H50.146A17.706,17.706,0,0,0,48,23.5l2.572-2.572a1.855,1.855,0,0,0,0-2.623l-3.245-3.243a1.854,1.854,0,0,0-2.622,0L42.131,17.64A17.71,17.71,0,0,0,36.968,15.5v-3.64a1.855,1.855,0,0,0-1.855-1.855H30.526a1.855,1.855,0,0,0-1.855,1.855V15.5a17.709,17.709,0,0,0-5.163,2.139l-2.573-2.573a1.854,1.854,0,0,0-2.622,0l-3.245,3.243a1.855,1.855,0,0,0,0,2.623L17.638,23.5a17.709,17.709,0,0,0-2.145,5.166H11.852A1.855,1.855,0,0,0,10,30.523l0,4.588a1.855,1.855,0,0,0,1.855,1.856h3.638a17.71,17.71,0,0,0,2.141,5.175l-2.573,2.573a1.854,1.854,0,0,0,0,2.622L18.3,50.583a1.854,1.854,0,0,0,2.623,0l2.572-2.572a17.709,17.709,0,0,0,5.178,2.148V53.8a1.855,1.855,0,0,0,1.855,1.855h4.588A1.855,1.855,0,0,0,36.968,53.8v-3.64a17.708,17.708,0,0,0,5.178-2.148l2.572,2.572a1.855,1.855,0,0,0,2.623,0l3.243-3.245a1.854,1.854,0,0,0,0-2.622L48.01,42.142A17.706,17.706,0,0,0,50.152,36.967Z" transform="translate(-9.068 -9.068)" fill="#fed74b"/>
    <circle id="Ellipse_46" data-name="Ellipse 46" cx="11.499" cy="11.499" r="11.499" transform="translate(12.253 12.264)" fill="#fff"/>
    <circle id="Ellipse_47" data-name="Ellipse 47" cx="7.418" cy="7.418" r="7.418" transform="translate(16.334 16.344)" fill="#fff"/>
    <path id="Path_264" data-name="Path 264" d="M134.5,146.939a12.427,12.427,0,1,1,5.351-23.644.927.927,0,1,1-.8,1.674,10.571,10.571,0,1,0,4.826,4.659.927.927,0,0,1,1.645-.857A12.429,12.429,0,0,1,134.5,146.939Z" transform="translate(-110.748 -110.75)"/>
    <path id="Path_265" data-name="Path 265" d="M334.6,160.264a.924.924,0,0,1-.659-.275l-.035-.035a.927.927,0,1,1,1.311-1.311l.042.042a.927.927,0,0,1-.659,1.579Z" transform="translate(-302.683 -143.666)"/>
    <path id="Path_266" data-name="Path 266" d="M174.365,182.746a8.415,8.415,0,0,1-2.681-.441.927.927,0,1,1,.59-1.758,6.491,6.491,0,1,0-4.1-4.132.927.927,0,1,1-1.763.576,8.34,8.34,0,1,1,7.951,5.756Z" transform="translate(-150.595 -150.631)"/>
    <path id="Path_267" data-name="Path 267" d="M190.424,304.424a.924.924,0,0,1-.653-.269l-.032-.032a.927.927,0,1,1,1.311-1.311l.026.026a.927.927,0,0,1-.653,1.586Z" transform="translate(-171.889 -274.46)"/>
    <path id="Path_268" data-name="Path 268" d="M26.046,47.513H21.458a2.785,2.785,0,0,1-2.782-2.782V41.809a18.6,18.6,0,0,1-4.1-1.7l-2.064,2.064a2.764,2.764,0,0,1-1.967.815h0a2.763,2.763,0,0,1-1.967-.815L5.332,38.925a2.785,2.785,0,0,1,0-3.933L7.4,32.926a18.6,18.6,0,0,1-1.7-4.1H2.782A2.782,2.782,0,0,1,0,26.043l0-4.588a2.785,2.785,0,0,1,2.782-2.78H5.709a18.608,18.608,0,0,1,1.7-4.091L5.343,12.52a2.782,2.782,0,0,1,0-3.935L8.589,5.342a2.785,2.785,0,0,1,3.933,0l2.066,2.066a18.608,18.608,0,0,1,4.087-1.693V2.794A2.785,2.785,0,0,1,21.458.012h4.588a2.785,2.785,0,0,1,2.782,2.782V5.716a18.61,18.61,0,0,1,4.087,1.693l2.066-2.066a2.785,2.785,0,0,1,3.933,0L42.16,8.585a2.782,2.782,0,0,1,0,3.935L40.1,14.584a18.607,18.607,0,0,1,1.7,4.091H44.72a2.785,2.785,0,0,1,2.782,2.78l0,4.588a2.782,2.782,0,0,1-2.782,2.783H41.8a18.605,18.605,0,0,1-1.7,4.1l2.066,2.066a2.785,2.785,0,0,1,0,3.933l-3.243,3.245a2.764,2.764,0,0,1-1.967.815h0a2.763,2.763,0,0,1-1.967-.815l-2.064-2.064a18.6,18.6,0,0,1-4.1,1.7v2.922A2.785,2.785,0,0,1,26.046,47.513Zm-11.62-9.5a.925.925,0,0,1,.486.138,16.767,16.767,0,0,0,4.907,2.035.927.927,0,0,1,.712.9v3.64a.928.928,0,0,0,.927.927h4.588a.928.928,0,0,0,.927-.927v-3.64a.927.927,0,0,1,.712-.9,16.767,16.767,0,0,0,4.907-2.035.927.927,0,0,1,1.142.134l2.572,2.572a.927.927,0,0,0,1.312,0l3.243-3.245a.928.928,0,0,0,0-1.311L38.287,33.73a.927.927,0,0,1-.134-1.141,16.764,16.764,0,0,0,2.029-4.9.927.927,0,0,1,.9-.713h3.638a.927.927,0,0,0,.927-.928l0-4.588a.928.928,0,0,0-.927-.927H41.078a.928.928,0,0,1-.9-.712,16.761,16.761,0,0,0-2.033-4.9.927.927,0,0,1,.134-1.142l2.572-2.572a.927.927,0,0,0,0-1.312L37.6,6.654a.928.928,0,0,0-1.311,0L33.719,9.228a.927.927,0,0,1-1.141.134,16.767,16.767,0,0,0-4.893-2.027.927.927,0,0,1-.712-.9V2.794a.928.928,0,0,0-.927-.927H21.458a.928.928,0,0,0-.927.927v3.64a.927.927,0,0,1-.712.9,16.769,16.769,0,0,0-4.893,2.027.927.927,0,0,1-1.141-.134L11.211,6.655a.928.928,0,0,0-1.311,0L6.655,9.9a.927.927,0,0,0,0,1.312L9.226,13.78a.927.927,0,0,1,.134,1.142,16.765,16.765,0,0,0-2.033,4.9.927.927,0,0,1-.9.712H2.784a.929.929,0,0,0-.927.927l0,4.588a.927.927,0,0,0,.927.928H6.42a.927.927,0,0,1,.9.713,16.768,16.768,0,0,0,2.029,4.9.927.927,0,0,1-.134,1.141L6.644,36.3a.928.928,0,0,0,0,1.311L9.886,40.86a.921.921,0,0,0,.656.272h0a.921.921,0,0,0,.656-.272l2.572-2.572A.926.926,0,0,1,14.426,38.017Z" transform="translate(0 0)"/>
  </g>
</svg>
