<svg height="1065pt" viewBox="-33 -185 1065.0032 1065" width="1065pt" xmlns="http://www.w3.org/2000/svg"><path d="m179.011719 67.933594c-28.027344-28.023438-73.476563-28.023438-101.507813 0-28.027344 28.027344-28.027344 73.484375 0 101.519531 21.363282 21.355469 149.257813 64.898437 151.238282 47.113281-3.082032-42.394531-18.351563-117.257812-49.730469-148.632812zm4.175781 303.515625c-11.542969 11.238281-30.015625 10.972656-41.238281-.578125-11.238281-11.546875-10.984375-30.011719.566406-41.238282l56.484375-54.933593c-31.441406-2.4375-65.878906-11.84375-95.714844-23.886719v374.683594h128.6875v-301.488282zm159.433594-81.363281 45.480468 47.710937c11.105469 11.675781 10.644532 30.140625-1.023437 41.242187-11.683594 11.109376-30.148437 10.65625-41.25-1.023437l-55.355469-58.054687v305.535156h647.449219v-335.410156zm134.476562-263.507813c18.894532 18.894531 30.777344 42.167969 35.636719 66.550781h426.804687c31.34375 0 56.882813 25.539063 56.882813 56.886719v477.105469c0 31.34375-25.539063 56.882812-56.882813 56.882812h-837.871093c-31.34375 0-56.882813-25.539062-56.882813-56.882812v-408.617188c-30.617187-24.574218-46.804687-63.21875-46.804687-99.8125 0-71.945312 58.335937-130.28125 130.273437-130.28125 33.347656 0 66.6875 12.722656 92.121094 38.167969 13.335938 13.328125 25.847656 34.367187 36.242188 58.183594 10.394531-23.816407 22.90625-44.855469 36.25-58.183594 50.871093-50.890625 133.347656-50.890625 184.230468 0zm33.945313 125.050781c-5.648438 21.679688-16.96875 42.199219-33.949219 59.179688-7.242188 7.242187-16.75 14.230468-27.730469 20.773437h488.558594v-79.953125zm-54.292969-32.9375c0-39.644531-32.125-71.78125-71.769531-71.78125-18.375 0-36.746094 7.007813-50.757813 21.023438-30.753906 30.753906-46.53125 104.746094-49.730468 148.632812 1.917968 17.265625 129.050781-24.933594 151.234374-47.113281 14.015626-14.019531 21.023438-32.394531 21.023438-50.761719zm184.757812 448.304688c-16.15625 0-29.25-13.097656-29.25-29.25 0-16.164063 13.09375-29.25 29.25-29.25h140.390626c16.148437 0 29.25 13.085937 29.25 29.25 0 16.152344-13.101563 29.25-29.25 29.25zm0-117.007813c-16.15625 0-29.25-13.089843-29.25-29.25 0-16.152343 13.09375-29.25 29.25-29.25h208.65625c16.15625 0 29.25 13.097657 29.25 29.25 0 16.160157-13.09375 29.25-29.25 29.25zm0 0" fill-rule="evenodd"/></svg>