<svg xmlns="http://www.w3.org/2000/svg" width="35.697" height="37.469" viewBox="0 0 35.697 37.469">
  <g id="Group_56" data-name="Group 56" transform="translate(2109.023 -4376.75)">
    <rect id="Rectangle_799" data-name="Rectangle 799" width="27" height="28" rx="3" transform="translate(-2108.976 4380)" fill="#fff"/>
    <circle id="Ellipse_26" data-name="Ellipse 26" cx="7.5" cy="7.5" r="7.5" transform="translate(-2089.976 4397.479)" fill="#fed74b"/>
    <g id="calendar_5_" data-name="calendar (5)" transform="translate(-2108.773 4377)">
      <path id="Path_84" data-name="Path 84" d="M16.291,42.247h20.28A3.144,3.144,0,0,0,33.425,39.1H13.145A3.145,3.145,0,0,0,10,42.247v21.3a3.145,3.145,0,0,0,3.145,3.145v-21.3A3.145,3.145,0,0,1,16.291,42.247Zm0,0" transform="translate(-9.214 -36.027)" fill="#d5dbe1"/>
      <path id="Path_85" data-name="Path 85" d="M239.961,269.449a7.868,7.868,0,0,1,10.97-7.227,7.864,7.864,0,1,0-8.571,12.88,7.847,7.847,0,0,1-2.4-5.654Zm0,0" transform="translate(-218.918 -239.568)" fill="#feaa4b"/>
      <g id="Group_55" data-name="Group 55" transform="translate(6.409)">
        <path id="Path_86" data-name="Path 86" d="M94.475,209.1H82.286a.786.786,0,0,0,0,1.573H94.475a.786.786,0,1,0,0-1.573Zm0,0" transform="translate(-81.5 -192.659)" fill="#0e0e0e" stroke="#0e0e0e" stroke-width="0.5"/>
        <path id="Path_87" data-name="Path 87" d="M89.584,274.1h-7.3a.786.786,0,0,0,0,1.573h7.3a.786.786,0,0,0,0-1.573Zm0,0" transform="translate(-81.5 -252.548)" fill="#0e0e0e" stroke="#0e0e0e" stroke-width="0.5"/>
        <path id="Path_88" data-name="Path 88" d="M91.786,6.142a.789.789,0,0,0,.786-.786V.786A.786.786,0,0,0,91,.786V5.355A.789.789,0,0,0,91.786,6.142Zm0,0" transform="translate(-90.253)" fill="#0e0e0e" stroke="#0e0e0e" stroke-width="0.5"/>
        <path id="Path_89" data-name="Path 89" d="M247.786,0A.789.789,0,0,0,247,.786V5.355a.786.786,0,0,0,1.573,0V.786A.789.789,0,0,0,247.786,0Zm0,0" transform="translate(-233.986)" fill="#0e0e0e" stroke="#0e0e0e" stroke-width="0.5"/>
        <path id="Path_90" data-name="Path 90" d="M283.705,321.492l-3.84,3.665-1.984-1.991a.645.645,0,0,0-.912.912l2.437,2.437a.636.636,0,0,0,.459.187.625.625,0,0,0,.446-.181l4.292-4.1a.644.644,0,0,0,.019-.911A.658.658,0,0,0,283.705,321.492Zm0,0" transform="translate(-260.557 -295.462)" fill="#0e0e0e" stroke="#0e0e0e" stroke-width="0.5"/>
      </g>
      <path id="Path_91" data-name="Path 91" d="M28.144,46.621V33.033A3.933,3.933,0,0,0,24.212,29.1H3.932A3.933,3.933,0,0,0,0,33.033v21.3a3.933,3.933,0,0,0,3.932,3.932H18.487a8.651,8.651,0,1,0,9.656-11.646ZM3.932,30.674h20.28a2.366,2.366,0,0,1,2.359,2.359v1.9h-25v-1.9A2.361,2.361,0,0,1,3.932,30.674Zm0,26.02a2.366,2.366,0,0,1-2.359-2.359V36.5h25v9.971h-.023a8.663,8.663,0,0,0-8.509,10.223Zm22.616,5.5a7.077,7.077,0,1,1,7.077-7.077A7.077,7.077,0,0,1,26.548,62.2Zm0,0" transform="translate(0 -26.813)" fill="#0e0e0e" stroke="#0e0e0e" stroke-width="0.5"/>
    </g>
  </g>
</svg>
