<svg xmlns="http://www.w3.org/2000/svg" width="41.072" height="44.806" viewBox="0 0 41.072 44.806">
  <g id="copy" transform="translate(0 0)">
    <g id="Group_3" data-name="Group 3" transform="translate(1.4 1.4)">
      <path id="Path_34" data-name="Path 34" d="M36.165,8.617A3.674,3.674,0,0,0,32.954,6.75H11.484A3.745,3.745,0,0,0,7.75,10.484V39.421a3.692,3.692,0,0,0,.3,1.452l-.3.414a3.674,3.674,0,0,0,3.211,1.867h21.47a3.745,3.745,0,0,0,3.734-3.734V10.484a3.692,3.692,0,0,0-.3-1.452Z" transform="translate(-7.75 -6.75)" fill="#fed74b"/>
    </g>
    <g id="Group_4" data-name="Group 4" transform="translate(10.735 8.868)">
      <path id="Path_35" data-name="Path 35" d="M41.687,41.554V14.484a3.733,3.733,0,0,0-3.734-3.734H16.484a3.733,3.733,0,0,0-3.734,3.734v27.07a3.733,3.733,0,0,0,3.734,3.734h21.47A3.733,3.733,0,0,0,41.687,41.554Z" transform="translate(-12.75 -10.75)" fill="#f3f3f1"/>
    </g>
    <g id="Group_5" data-name="Group 5" transform="translate(1.4 1.4)">
      <path id="Path_36" data-name="Path 36" d="M11.951,41.288l.3-.414a3.692,3.692,0,0,1-.3-1.452V10.484A3.745,3.745,0,0,1,15.684,6.75h-4.2A3.745,3.745,0,0,0,7.75,10.484V39.421a3.692,3.692,0,0,0,.3,1.452l-.3.414a3.674,3.674,0,0,0,3.211,1.867h4.2A3.674,3.674,0,0,1,11.951,41.288Z" transform="translate(-7.75 -6.75)" fill="#feaa4b"/>
    </g>
    <g id="Group_6" data-name="Group 6" transform="translate(10.735 8.868)">
      <path id="Path_37" data-name="Path 37" d="M16.951,41.554V14.484a3.733,3.733,0,0,1,3.734-3.734h-4.2a3.733,3.733,0,0,0-3.734,3.734v27.07a3.733,3.733,0,0,0,3.734,3.734h4.2A3.733,3.733,0,0,1,16.951,41.554Z" transform="translate(-12.75 -10.75)" fill="#d5dbe1"/>
    </g>
    <g id="Group_7" data-name="Group 7" transform="translate(18.203 28.937)">
      <path id="Path_38" data-name="Path 38" d="M16.75,21.5h14v2.8h-14Z" transform="translate(-16.75 -21.5)"/>
    </g>
    <g id="Group_8" data-name="Group 8" transform="translate(18.203 36.405)">
      <path id="Path_39" data-name="Path 39" d="M16.75,25.5h14v2.8h-14Z" transform="translate(-16.75 -25.5)"/>
    </g>
    <g id="Group_9" data-name="Group 9" transform="translate(18.203 22.403)">
      <path id="Path_40" data-name="Path 40" d="M16.75,18h14v2.8h-14Z" transform="translate(-16.75 -18)"/>
    </g>
    <g id="Group_10" data-name="Group 10" transform="translate(18.203 14.935)">
      <path id="Path_41" data-name="Path 41" d="M16.75,14h14v2.8h-14Z" transform="translate(-16.75 -14)"/>
    </g>
    <g id="Group_11" data-name="Group 11" transform="translate(0)">
      <path id="Path_42" data-name="Path 42" d="M13.534,45.205h-1.4A5.138,5.138,0,0,1,7,40.071V11.134A5.138,5.138,0,0,1,12.134,6H33.6a5.1,5.1,0,0,1,4.43,2.576l.691,1.217-2.436,1.382L35.6,9.958A2.263,2.263,0,0,0,33.6,8.8H12.134A2.337,2.337,0,0,0,9.8,11.134V40.071a2.337,2.337,0,0,0,2.334,2.334h1.4Z" transform="translate(-7 -6)"/>
    </g>
    <g id="Group_12" data-name="Group 12" transform="translate(9.335 7.468)">
      <path id="Path_43" data-name="Path 43" d="M38.6,47.339H17.134A5.138,5.138,0,0,1,12,42.2V15.134A5.138,5.138,0,0,1,17.134,10H38.6a5.138,5.138,0,0,1,5.134,5.134V42.2A5.138,5.138,0,0,1,38.6,47.339ZM17.134,12.8A2.337,2.337,0,0,0,14.8,15.134V42.2a2.337,2.337,0,0,0,2.334,2.334H38.6A2.337,2.337,0,0,0,40.937,42.2V15.134A2.337,2.337,0,0,0,38.6,12.8Z" transform="translate(-12 -10)"/>
    </g>
  </g>
</svg>
