<svg xmlns="http://www.w3.org/2000/svg" width="51.781" height="49.276" viewBox="0 0 51.781 49.276">
  <g id="bill" transform="translate(0 -0.388)">
    <path id="Path_672" data-name="Path 672" d="M285.7,8.39A11.064,11.064,0,1,1,275.084,16.3,11.064,11.064,0,0,1,285.7,8.39Zm0,0" transform="translate(-245.823 -7.162)" fill="#76bffb"/>
    <path id="Path_673" data-name="Path 673" d="M103.516,117.666v.011a5.744,5.744,0,0,1-5.744,5.739h-.018c-.132,0-.264-.005-.394-.014a5.745,5.745,0,0,1-5.345-5.737v-3.715H72.761v-.05l.2-30.169H94.375l.016.005a11.079,11.079,0,0,0,9.125,14.138ZM80.8,94.306a1.763,1.763,0,1,0-1.847-1.761A1.8,1.8,0,0,0,80.8,94.306Zm0,7.293a1.763,1.763,0,1,0-1.847-1.762A1.8,1.8,0,0,0,80.8,101.6Zm0,7.291a1.763,1.763,0,1,0-1.847-1.761A1.8,1.8,0,0,0,80.8,108.89Zm0,0" transform="translate(-65.131 -74.603)" fill="#fed74b"/>
    <path id="Path_674" data-name="Path 674" d="M39.578,381.355v.013H13.955a5.744,5.744,0,0,1-5.744-5.739V371.9H34.233v3.715a5.745,5.745,0,0,0,5.345,5.737Zm0,0" transform="translate(-7.349 -332.554)" fill="#76bffb"/>
    <path id="Path_675" data-name="Path 675" d="M135.454,152.742a1.848,1.848,0,1,1-1.845-1.762A1.8,1.8,0,0,1,135.454,152.742Zm0,0" transform="translate(-117.944 -134.8)" fill="#76bffb"/>
    <path id="Path_676" data-name="Path 676" d="M135.454,222.285a1.848,1.848,0,1,1-1.845-1.761A1.8,1.8,0,0,1,135.454,222.285Zm0,0" transform="translate(-117.944 -197.051)" fill="#76bffb"/>
    <path id="Path_677" data-name="Path 677" d="M135.454,291.824a1.848,1.848,0,1,1-1.845-1.761A1.8,1.8,0,0,1,135.454,291.824Zm0,0" transform="translate(-117.944 -259.297)" fill="#76bffb"/>
    <g id="Group_2961" data-name="Group 2961" transform="translate(0 0.388)">
      <path id="Path_678" data-name="Path 678" d="M348.966,42.184h.019a.709.709,0,0,0,.083-.005,1.678,1.678,0,0,1,1.663,1.675.75.75,0,0,0,1.5,0,3.181,3.181,0,0,0-2.5-3.1v-.721a.75.75,0,0,0-1.5,0v.754a3.177,3.177,0,0,0,.821,6.246,1.676,1.676,0,1,1-1.676,1.676.75.75,0,0,0-1.5,0,3.182,3.182,0,0,0,2.356,3.068V52.6a.75.75,0,0,0,1.5,0v-.789a3.176,3.176,0,0,0-.68-6.278,1.675,1.675,0,0,1-.089-3.347Zm0,0" transform="translate(-309.232 -34.371)" fill="#0e0e0e"/>
      <path id="Path_679" data-name="Path 679" d="M39.872.389A11.784,11.784,0,0,0,32.69,2.774a12.3,12.3,0,0,0-4.033,5.469H7.834A.877.877,0,0,0,7,9.119l-.2,29.43H.862a.825.825,0,0,0-.861.8v3.728a6.617,6.617,0,0,0,6.292,6.57v.019h25.9v-.024c.21.008.3.024.429.024h.018a6.6,6.6,0,0,0,6.579-6.59V24.191c.21.011.433.019.649.019a11.911,11.911,0,1,0,0-23.822ZM1.678,43.075V40.227H26.007v2.836a6.723,6.723,0,0,0,2.239,4.924H6.606a4.939,4.939,0,0,1-4.928-4.912Zm30.957,4.912h-.011c-.1,0-.235-.009-.356-.017a4.941,4.941,0,0,1-4.583-4.906V39.348a.774.774,0,0,0-.8-.8H8.475L8.667,9.92H28.192a13.024,13.024,0,0,0-.231,2.382,12.412,12.412,0,0,0,1.018,4.854H21.049a.839.839,0,1,0,0,1.678h8.842a11.786,11.786,0,0,0,7.652,5.148V43.074a4.918,4.918,0,0,1-4.908,4.913Zm7.237-25.454a10.2,10.2,0,0,1-1.373-.092h0a10.236,10.236,0,1,1,1.374.092Zm0,0" transform="translate(0 -0.388)" fill="#0e0e0e"/>
      <path id="Path_680" data-name="Path 680" d="M126.447,212.523a2.6,2.6,0,1,0,2.684,2.6A2.646,2.646,0,0,0,126.447,212.523Zm0,3.522a.926.926,0,1,1,1.007-.923A.969.969,0,0,1,126.447,216.045Zm0,0" transform="translate(-110.783 -190.277)" fill="#0e0e0e"/>
      <path id="Path_681" data-name="Path 681" d="M204.742,229.281H193.558a.839.839,0,0,0,0,1.678h11.184a.839.839,0,0,0,0-1.678Zm0,0" transform="translate(-172.509 -205.278)" fill="#0e0e0e"/>
      <path id="Path_682" data-name="Path 682" d="M126.447,142.98a2.6,2.6,0,1,0,2.684,2.6A2.647,2.647,0,0,0,126.447,142.98Zm0,3.522a.926.926,0,1,1,1.007-.922A.968.968,0,0,1,126.447,146.5Zm0,0" transform="translate(-110.783 -128.027)" fill="#0e0e0e"/>
      <path id="Path_683" data-name="Path 683" d="M126.447,282.063a2.6,2.6,0,1,0,2.684,2.6A2.646,2.646,0,0,0,126.447,282.063Zm0,3.521a.925.925,0,1,1,1.007-.922A.968.968,0,0,1,126.447,285.584Zm0,0" transform="translate(-110.783 -252.525)" fill="#0e0e0e"/>
      <path id="Path_684" data-name="Path 684" d="M204.742,299.281H193.558a.839.839,0,0,0,0,1.678h11.184a.839.839,0,0,0,0-1.678Zm0,0" transform="translate(-172.509 -267.937)" fill="#0e0e0e"/>
    </g>
  </g>
</svg>
