<svg xmlns="http://www.w3.org/2000/svg" width="108.61" height="97.303" viewBox="0 0 108.61 97.303">
  <g id="store_2_" data-name="store (2)" transform="translate(0 -26.651)">
    <rect id="Rectangle_994" data-name="Rectangle 994" width="90.227" height="77.225" transform="translate(9.192 42.753)" fill="#e9eaeb"/>
    <rect id="Rectangle_995" data-name="Rectangle 995" width="11.455" height="77.225" transform="translate(87.963 42.753)" fill="#b9bbc1"/>
    <path id="Path_727" data-name="Path 727" d="M132.7,48.662H41.847V35.985a1.834,1.834,0,0,1,1.834-1.834h87.188a1.834,1.834,0,0,1,1.834,1.834V48.662Z" transform="translate(-32.97 -5.909)" fill="#fdc74f"/>
    <path id="Path_728" data-name="Path 728" d="M425.774,34.151h-9.621v9.543h11.455v-7.71A1.834,1.834,0,0,0,425.774,34.151Z" transform="translate(-327.875 -5.909)" fill="#fca629"/>
    <path id="Path_729" data-name="Path 729" d="M15.406,160.252h0a7.519,7.519,0,0,1-7.519-7.519v-6.126H22.925v6.126A7.519,7.519,0,0,1,15.406,160.252Z" transform="translate(-6.214 -94.51)" fill="#e60d28"/>
    <path id="Path_730" data-name="Path 730" d="M86.295,160.252h0a7.519,7.519,0,0,1-7.519-7.519v-6.126H93.814v6.126A7.518,7.518,0,0,1,86.295,160.252Z" transform="translate(-62.065 -94.51)" fill="#f2f2f2"/>
    <path id="Path_731" data-name="Path 731" d="M157.185,160.252h0a7.519,7.519,0,0,1-7.519-7.519v-6.126H164.7v6.126A7.519,7.519,0,0,1,157.185,160.252Z" transform="translate(-117.918 -94.51)" fill="#e60d28"/>
    <path id="Path_732" data-name="Path 732" d="M228.074,160.252h0a7.519,7.519,0,0,1-7.519-7.519v-6.126h15.038v6.126A7.518,7.518,0,0,1,228.074,160.252Z" transform="translate(-173.769 -94.51)" fill="#f2f2f2"/>
    <path id="Path_733" data-name="Path 733" d="M298.964,160.252h0a7.519,7.519,0,0,1-7.519-7.519v-6.126h15.038v6.126A7.519,7.519,0,0,1,298.964,160.252Z" transform="translate(-229.621 -94.51)" fill="#e60d28"/>
    <path id="Path_734" data-name="Path 734" d="M369.853,160.252h0a7.519,7.519,0,0,1-7.519-7.519v-6.126h15.038v6.126A7.518,7.518,0,0,1,369.853,160.252Z" transform="translate(-285.473 -94.51)" fill="#f2f2f2"/>
    <path id="Path_735" data-name="Path 735" d="M440.742,160.252h0a7.519,7.519,0,0,1-7.519-7.519v-6.126h15.038v6.126A7.519,7.519,0,0,1,440.742,160.252Z" transform="translate(-341.324 -94.51)" fill="#e60d28"/>
    <path id="Path_736" data-name="Path 736" d="M22.925,93.452H7.887l7.2-14.312H28.065Z" transform="translate(-6.214 -41.355)" fill="#fc502a"/>
    <path id="Path_737" data-name="Path 737" d="M93.814,93.452H78.776l5.14-14.312H96.9Z" transform="translate(-62.065 -41.355)" fill="#fff"/>
    <path id="Path_738" data-name="Path 738" d="M164.7,93.452H149.666L152.75,79.14h12.982Z" transform="translate(-117.918 -41.355)" fill="#fc502a"/>
    <path id="Path_739" data-name="Path 739" d="M235.593,93.452H220.555l1.028-14.312h12.981Z" transform="translate(-173.769 -41.355)" fill="#fff"/>
    <path id="Path_740" data-name="Path 740" d="M302.664,93.452H287.626L286.6,79.14H299.58Z" transform="translate(-225.803 -41.355)" fill="#fc502a"/>
    <path id="Path_741" data-name="Path 741" d="M365.917,93.452H350.879L347.8,79.14h12.982Z" transform="translate(-274.018 -41.355)" fill="#fff"/>
    <path id="Path_742" data-name="Path 742" d="M429.17,93.452H414.132l-5.14-14.312h12.982Z" transform="translate(-322.233 -41.355)" fill="#fc502a"/>
    <path id="Path_743" data-name="Path 743" d="M109.494,433.349H10.934A3.434,3.434,0,0,0,7.5,436.783v5.032a.974.974,0,0,0,.973.973H111.954a.974.974,0,0,0,.973-.973v-5.032A3.434,3.434,0,0,0,109.494,433.349Z" transform="translate(-5.909 -320.426)" fill="#8b8996"/>
    <path id="Path_744" data-name="Path 744" d="M458.39,433.349h-8.056v9.44h10.517a.973.973,0,0,0,.973-.973v-5.032A3.434,3.434,0,0,0,458.39,433.349Z" transform="translate(-354.806 -320.426)" fill="#706f7f"/>
    <path id="Path_745" data-name="Path 745" d="M249.681,280.955H203.368A1.368,1.368,0,0,1,202,279.587V254.1a1.368,1.368,0,0,1,1.368-1.368h46.313a1.368,1.368,0,0,1,1.368,1.368v25.484A1.368,1.368,0,0,1,249.681,280.955Z" transform="translate(-159.15 -178.125)" fill="#00c6c8"/>
    <path id="Path_746" data-name="Path 746" d="M389.179,252.735H379.057v28.22h10.122a1.368,1.368,0,0,0,1.368-1.368V254.1A1.368,1.368,0,0,0,389.179,252.735Z" transform="translate(-298.648 -178.125)" fill="#0fb0c0"/>
    <path id="Path_747" data-name="Path 747" d="M92.857,291.048H71.727V254.1a1.368,1.368,0,0,1,1.368-1.368H91.489a1.368,1.368,0,0,1,1.368,1.368v36.945Z" transform="translate(-56.512 -178.125)" fill="#00c6c8"/>
    <path id="Path_748" data-name="Path 748" d="M127.291,252.735H117.169v38.314h11.49V254.1A1.368,1.368,0,0,0,127.291,252.735Z" transform="translate(-92.314 -178.125)" fill="#0fb0c0"/>
    <path id="Path_749" data-name="Path 749" d="M137.591,332.3a1.591,1.591,0,0,0,1.591-1.591v-2.864a1.591,1.591,0,0,0-3.182,0v2.864A1.591,1.591,0,0,0,137.591,332.3Z" transform="translate(-107.151 -236.05)"/>
    <path id="Path_750" data-name="Path 750" d="M103.585,111.332h-2.576V67.191a9.123,9.123,0,0,0,7.519-8.968V52.1c0-.031,0-.062,0-.092s0-.034,0-.052a1.6,1.6,0,0,0-.027-.185s0-.007,0-.01a1.568,1.568,0,0,0-.048-.17c0-.014-.01-.028-.015-.042-.018-.048-.037-.094-.059-.139,0-.008-.007-.017-.011-.025l-7.035-13.99V30.076A3.429,3.429,0,0,0,97.9,26.651H25.552a1.591,1.591,0,1,0,0,3.182H97.9a.243.243,0,0,1,.243.243v6.119H10.468V30.076a.243.243,0,0,1,.243-.243H18.15a1.591,1.591,0,1,0,0-3.182H10.711a3.429,3.429,0,0,0-3.425,3.425v7.317L.252,51.383c0,.008-.007.017-.011.025-.022.045-.041.091-.059.139-.005.014-.011.028-.015.042a1.567,1.567,0,0,0-.048.17l0,.01a1.557,1.557,0,0,0-.027.185c0,.017,0,.034,0,.052s0,.061,0,.092v6.125A9.123,9.123,0,0,0,7.6,67.191v44.142H5.025A5.031,5.031,0,0,0,0,116.357v5.032a2.567,2.567,0,0,0,2.564,2.564H106.045a2.567,2.567,0,0,0,2.564-2.564v-5.032A5.031,5.031,0,0,0,103.585,111.332Zm1.761-53.109a5.928,5.928,0,0,1-11.856,0V53.688h11.856v4.534ZM98.759,39.376l5.6,11.13H93.018l-4-11.13Zm-13.12,0,4,11.13H78.146l-2.4-11.13Zm4.669,14.312v4.534a5.928,5.928,0,1,1-11.856,0V53.688ZM72.492,39.376l2.4,11.13H63.3l-.8-11.13ZM75.27,53.688v4.534a5.928,5.928,0,1,1-11.856,0V53.688ZM49.295,39.376h10.02l.8,11.13H48.5Zm-.918,14.312H60.233v4.534a5.928,5.928,0,1,1-11.856,0ZM54.3,67.333a9.106,9.106,0,0,0,7.519-3.974,9.1,9.1,0,0,0,15.038,0,9.1,9.1,0,0,0,15.038,0,9.125,9.125,0,0,0,5.928,3.832v44.142H37.936V75.978a2.963,2.963,0,0,0-2.959-2.959H16.584a2.963,2.963,0,0,0-2.959,2.959v35.354H10.783V67.191a9.125,9.125,0,0,0,5.928-3.832,9.1,9.1,0,0,0,15.038,0,9.1,9.1,0,0,0,15.038,0A9.105,9.105,0,0,0,54.3,67.333ZM34.754,76.2v35.131H16.806V76.2ZM18.3,58.223V53.688H30.157v4.534a5.928,5.928,0,1,1-11.856,0ZM36.117,39.376H46.1l-.8,11.13H33.719ZM33.339,53.688H45.195v4.534a5.928,5.928,0,1,1-11.856,0V53.688Zm-.477-14.312-2.4,11.13H18.973l4-11.13Zm-23.012,0h9.739l-4,11.13H4.254ZM3.264,58.223V53.688H15.12v4.534a5.928,5.928,0,1,1-11.856,0Zm102.164,62.549H3.182v-4.415a1.845,1.845,0,0,1,1.843-1.843h98.56a1.845,1.845,0,0,1,1.843,1.843v4.415Z"/>
    <path id="Path_751" data-name="Path 751" d="M194.5,248.194v25.484a2.963,2.963,0,0,0,2.959,2.959h46.312a2.963,2.963,0,0,0,2.959-2.959V248.194a2.963,2.963,0,0,0-2.959-2.959H224.317a1.591,1.591,0,0,0,0,3.182h19.232v25.039H197.682V248.417h19.145a1.591,1.591,0,0,0,0-3.182H197.459A2.962,2.962,0,0,0,194.5,248.194Z" transform="translate(-153.241 -172.216)"/>
  </g>
</svg>
