<svg xmlns="http://www.w3.org/2000/svg" width="44" height="43.817" viewBox="0 0 44 43.817">
  <g id="Group_2960" data-name="Group 2960" transform="translate(-665.872 -601.87)">
    <circle id="Ellipse_31" data-name="Ellipse 31" cx="11.038" cy="11.038" r="11.038" transform="translate(687.148 622.963)" fill="#ffd039"/>
    <path id="Path_165" data-name="Path 165" d="M364.542,246.506q-.546,0-1.079.053a11.039,11.039,0,0,1,0,21.972q.533.052,1.079.053a11.038,11.038,0,1,0,0-22.077Z" transform="translate(333.644 376.456)" fill="#ff9610"/>
    <path id="Path_166" data-name="Path 166" d="M42.849,65.718v2.075a1.922,1.922,0,0,1-1.922,1.922h0a1.922,1.922,0,0,1-1.922-1.922V65.718H16.092v2.075a1.922,1.922,0,0,1-1.922,1.922h0a1.922,1.922,0,0,1-1.922-1.922V65.718H7.534V97.011H29.219a11.039,11.039,0,0,1,18.3-11.973V65.718Z" transform="translate(658.985 541.708)" fill="#fff"/>
    <rect id="Rectangle_805" data-name="Rectangle 805" width="39.963" height="2.158" transform="translate(666.542 614.433)" fill="#d8d1d0"/>
    <path id="Path_167" data-name="Path 167" d="M64.32,17.5h0A1.922,1.922,0,0,1,62.4,15.583V10.521A1.922,1.922,0,0,1,64.32,8.6h0a1.922,1.922,0,0,1,1.922,1.922v5.063A1.922,1.922,0,0,1,64.32,17.5Z" transform="translate(608.836 593.918)" fill="#ffd039"/>
    <path id="Path_168" data-name="Path 168" d="M75.576,8.6a1.913,1.913,0,0,0-.863.2,1.921,1.921,0,0,1,1.058,1.717v5.063A1.921,1.921,0,0,1,74.713,17.3,1.921,1.921,0,0,0,77.5,15.583V10.521A1.922,1.922,0,0,0,75.576,8.6Z" transform="translate(597.58 593.918)" fill="#f4b008"/>
    <path id="Path_169" data-name="Path 169" d="M375.673,17.5h0a1.922,1.922,0,0,1-1.922-1.922V10.521A1.922,1.922,0,0,1,375.673,8.6h0a1.922,1.922,0,0,1,1.922,1.922v5.063A1.922,1.922,0,0,1,375.673,17.5Z" transform="translate(324.24 593.918)" fill="#ffd039"/>
    <path id="Path_170" data-name="Path 170" d="M386.929,8.6h0a1.912,1.912,0,0,0-.863.2,1.921,1.921,0,0,1,1.058,1.717v5.063a1.921,1.921,0,0,1-1.058,1.717,1.913,1.913,0,0,0,.863.2h0a1.922,1.922,0,0,0,1.922-1.922V10.521A1.922,1.922,0,0,0,386.929,8.6Z" transform="translate(312.984 593.918)" fill="#f4b008"/>
    <g id="Group_116" data-name="Group 116" transform="translate(672.983 618.791)">
      <rect id="Rectangle_806" data-name="Rectangle 806" width="4.171" height="4.171" fill="#465a65"/>
      <rect id="Rectangle_807" data-name="Rectangle 807" width="4.171" height="4.171" transform="translate(7.643)" fill="#465a65"/>
      <rect id="Rectangle_808" data-name="Rectangle 808" width="4.171" height="4.171" transform="translate(15.287)" fill="#465a65"/>
      <rect id="Rectangle_809" data-name="Rectangle 809" width="4.171" height="4.171" transform="translate(22.931)" fill="#465a65"/>
      <rect id="Rectangle_810" data-name="Rectangle 810" width="4.171" height="4.171" transform="translate(0 8.955)" fill="#465a65"/>
      <rect id="Rectangle_811" data-name="Rectangle 811" width="4.171" height="4.171" transform="translate(7.643 8.955)" fill="#465a65"/>
    </g>
    <path id="Path_171" data-name="Path 171" d="M43.086,65.718v2.075a1.922,1.922,0,0,1-1.922,1.922h0a1.922,1.922,0,0,1-1.922-1.922V65.718H16.329v2.075a1.922,1.922,0,0,1-1.922,1.922h0a1.922,1.922,0,0,1-1.922-1.922V65.718H7.793v7.008H47.778V65.718Z" transform="translate(658.749 541.708)" fill="#76bffb"/>
    <rect id="Rectangle_812" data-name="Rectangle 812" width="39.985" height="2.158" transform="translate(666.542 612.275)" fill="#0d92ff"/>
    <path id="Path_172" data-name="Path 172" d="M312.254,331.333a1.327,1.327,0,0,1-.938-.388l-3.018-3.018a1.327,1.327,0,0,1,1.876-1.876l2.079,2.079,5.1-5.1a1.327,1.327,0,1,1,1.876,1.876l-6.035,6.035A1.327,1.327,0,0,1,312.254,331.333Z" transform="translate(384.424 306.86)" fill="#00b76c"/>
    <path id="Path_173" data-name="Path 173" d="M305.379,325.105a1.962,1.962,0,0,0,1.4-.578l6.035-6.035a1.974,1.974,0,0,0-2.792-2.792l-4.639,4.639-1.622-1.622a1.974,1.974,0,1,0-2.792,2.792l3.018,3.018A1.961,1.961,0,0,0,305.379,325.105Zm-3.7-4.992a.679.679,0,0,1,1.16-.48l2.079,2.08a.648.648,0,0,0,.916,0l5.1-5.1a.679.679,0,1,1,.961.961l-6.035,6.035a.679.679,0,0,1-.961,0l-3.018-3.018A.675.675,0,0,1,301.682,320.113Z" transform="translate(391.298 313.737)"/>
    <path id="Path_174" data-name="Path 174" d="M41.28,198.8v-5.134a.647.647,0,1,0-1.295,0v3.805a11.692,11.692,0,0,0-2.858-1.833l-.116-.051-.118-.052-.209-.086-.027-.011a11.586,11.586,0,0,0-1.8-.557v-3.8a.647.647,0,0,0-.647-.647H30.042a.647.647,0,0,0-.647.647v3.89a11.614,11.614,0,0,0-5.37,3.083.647.647,0,0,0,.919.913,10.32,10.32,0,0,1,7.371-3.067q.139,0,.277,0l.048,0,.231.009.036,0c.081,0,.163.01.244.016l.018,0a10.383,10.383,0,0,1,3.435.892l.111.052.114.054.2.1.019.01a10.391,10.391,0,1,1-15.068,10.314v-.007q-.012-.123-.022-.248c0-.018,0-.036,0-.053,0-.069-.01-.139-.013-.209,0-.039,0-.079,0-.118s0-.1-.006-.151q0-.138,0-.276a10.371,10.371,0,0,1,1.506-5.391.647.647,0,1,0-1.106-.673,11.665,11.665,0,0,0-1.694,6.064c0,.1,0,.192,0,.287,0,.022,0,.044,0,.066,0,.076,0,.153.009.229,0,.018,0,.036,0,.055q.007.125.016.25l0,.024a11.529,11.529,0,0,0,.693,3.16H1.295V199.891a.647.647,0,1,0-1.295,0v11.115a.647.647,0,0,0,.647.647H21.935A11.683,11.683,0,1,0,41.28,198.8Zm-7.714-4.2H30.69v-2.877h2.877Z" transform="translate(665.872 427.712)"/>
    <path id="Path_175" data-name="Path 175" d="M80.68,191.079a.647.647,0,0,0-.647-.647H75.861a.647.647,0,0,0-.647.647v4.171a.647.647,0,0,0,.647.647h4.171a.647.647,0,0,0,.647-.647ZM79.385,194.6H76.509v-2.877h2.877S79.385,194.6,79.385,194.6Z" transform="translate(597.122 427.712)"/>
    <path id="Path_176" data-name="Path 176" d="M169.623,191.079a.647.647,0,0,0-.647-.647H164.8a.647.647,0,0,0-.647.647v4.171a.647.647,0,0,0,.647.647h4.171a.647.647,0,0,0,.647-.647Zm-1.295,3.524h-2.877v-2.877h2.877Z" transform="translate(515.822 427.712)"/>
    <path id="Path_177" data-name="Path 177" d="M253.749,190.432a.647.647,0,0,0-.647.647v4.171a.647.647,0,0,0,.647.647h4.171a.647.647,0,0,0,.648-.647v-4.171a.647.647,0,0,0-.648-.647Zm3.524,4.171H254.4v-2.877h2.877Z" transform="translate(434.521 427.712)"/>
    <path id="Path_178" data-name="Path 178" d="M80.033,294.639H75.861a.647.647,0,0,0-.647.647v4.171a.647.647,0,0,0,.647.647h4.171a.647.647,0,0,0,.647-.647v-4.171A.647.647,0,0,0,80.033,294.639Zm-.647,4.171H76.509v-2.877h2.877S79.385,298.81,79.385,298.81Z" transform="translate(597.122 332.46)"/>
    <path id="Path_179" data-name="Path 179" d="M168.977,294.639h-4.171a.647.647,0,0,0-.647.647v4.171a.647.647,0,0,0,.647.647h4.171a.647.647,0,0,0,.647-.647v-4.171A.647.647,0,0,0,168.977,294.639Zm-.647,4.171h-2.877v-2.877h2.877Z" transform="translate(515.821 332.46)"/>
    <path id="Path_180" data-name="Path 180" d="M.647,24.856a.647.647,0,0,0,.647-.647V14.276H39.986v3.71a.647.647,0,1,0,1.295,0V13.8a.645.645,0,0,0,.022-.166V6.621a.647.647,0,0,0-.647-.647H36.61V3.634a2.569,2.569,0,1,0-5.138,0v2.34H9.853V3.634a2.569,2.569,0,1,0-5.138,0v2.34H.647A.647.647,0,0,0,0,6.621V24.209A.647.647,0,0,0,.647,24.856ZM32.767,3.634h0a1.274,1.274,0,1,1,2.548,0h0V8.7a1.274,1.274,0,1,1-2.548,0V3.634Zm-26.757,0h0a1.274,1.274,0,1,1,2.548,0h0V8.7a1.274,1.274,0,1,1-2.548,0ZM1.317,7.269h3.4V8.7a2.569,2.569,0,1,0,5.138,0V7.269H31.472V8.7a2.569,2.569,0,1,0,5.138,0V7.269h3.375v5.713H1.317Z" transform="translate(665.872 600.805)"/>
  </g>
</svg>
