<svg xmlns="http://www.w3.org/2000/svg" width="42.008" height="46.681" viewBox="0 0 42.008 46.681">
  <g id="Group_3144" data-name="Group 3144" transform="translate(-1204.104 -229)">
    <g id="calendar_9_" data-name="calendar (9)" transform="translate(1204.104 229)">
      <g id="Group_2979" data-name="Group 2979" transform="translate(0.684 3.736)">
        <path id="Path_727" data-name="Path 727" d="M71.031,364.9H35.861a2.735,2.735,0,0,1-2.735-2.735v-3.8l40.641-7.385v11.19A2.735,2.735,0,0,1,71.031,364.9Z" transform="translate(-33.126 -322.707)" fill="#cdbfba"/>
        <path id="Path_728" data-name="Path 728" d="M63.59,80.431H35.866a2.74,2.74,0,0,1-2.74-2.74V43.718a2.74,2.74,0,0,1,2.74-2.74H71.027a2.74,2.74,0,0,1,2.74,2.74V70.255c0,.727-1.656,1.424-2.17,1.937l-6.069,6.069C65.014,78.775,64.317,80.431,63.59,80.431Z" transform="translate(-33.126 -40.978)" fill="#f9f3f1"/>
        <path id="Path_729" data-name="Path 729" d="M331.145,332.732h2.17a2.245,2.245,0,0,0,2.245-2.245v-4.565a2.245,2.245,0,0,1,2.245-2.245h4.565a2.245,2.245,0,0,0,2.245-2.245v1.11a2.74,2.74,0,0,1-.8,1.937l-7.449,7.449a2.74,2.74,0,0,1-1.937.8h-3.28Z" transform="translate(-303.973 -293.279)" fill="#efe2dd"/>
        <path id="Path_730" data-name="Path 730" d="M73.77,43.709v7.037H33.13V43.709a2.736,2.736,0,0,1,2.735-2.735H71.035A2.736,2.736,0,0,1,73.77,43.709Z" transform="translate(-33.13 -40.974)" fill="#fed74b"/>
        <g id="Group_2974" data-name="Group 2974" transform="translate(4.321)">
          <g id="Group_2972" data-name="Group 2972">
            <path id="Path_731" data-name="Path 731" d="M83.942,45.747H82.6a2.082,2.082,0,0,1-2.08-2.079v-2.7h1.368v2.7a.712.712,0,0,0,.712.711C82.977,44.379,84.319,45.747,83.942,45.747Z" transform="translate(-80.52 -40.973)" fill="#fdb441"/>
          </g>
          <g id="Group_2973" data-name="Group 2973" transform="translate(24.841)">
            <path id="Path_732" data-name="Path 732" d="M356.4,45.747h-1.343a2.081,2.081,0,0,1-2.079-2.079v-2.7h1.368v2.7a.712.712,0,0,0,.711.711A2.392,2.392,0,0,1,356.4,45.747Z" transform="translate(-352.98 -40.973)" fill="#fdb441"/>
          </g>
        </g>
        <g id="Group_2978" data-name="Group 2978" transform="translate(4.103 13.874)">
          <g id="Group_2975" data-name="Group 2975">
            <path id="Path_733" data-name="Path 733" d="M82.033,197.7H78.777a.651.651,0,0,1-.651-.651v-3.256a.651.651,0,0,1,.651-.651h3.256a.651.651,0,0,1,.651.651v3.256a.651.651,0,0,1-.651.651Z" transform="translate(-78.126 -193.142)" fill="#feaa4b"/>
            <path id="Path_734" data-name="Path 734" d="M183.949,197.7h-3.256a.651.651,0,0,1-.651-.651v-3.256a.651.651,0,0,1,.651-.651h3.256a.651.651,0,0,1,.651.651v3.256A.651.651,0,0,1,183.949,197.7Z" transform="translate(-170.75 -193.142)" fill="#feaa4b"/>
            <path id="Path_735" data-name="Path 735" d="M285.865,197.7h-3.256a.651.651,0,0,1-.651-.651v-3.256a.651.651,0,0,1,.651-.651h3.256a.651.651,0,0,1,.651.651v3.256A.651.651,0,0,1,285.865,197.7Z" transform="translate(-263.374 -193.142)" fill="#feaa4b"/>
            <path id="Path_736" data-name="Path 736" d="M387.781,197.7h-3.256a.651.651,0,0,1-.651-.651v-3.256a.651.651,0,0,1,.651-.651h3.256a.651.651,0,0,1,.651.651v3.256A.651.651,0,0,1,387.781,197.7Z" transform="translate(-355.998 -193.142)" fill="#feaa4b"/>
          </g>
          <g id="Group_2976" data-name="Group 2976" transform="translate(0 8.458)">
            <path id="Path_737" data-name="Path 737" d="M82.033,290.474H78.777a.651.651,0,0,1-.651-.651v-3.256a.651.651,0,0,1,.651-.651h3.256a.651.651,0,0,1,.651.651v3.256a.651.651,0,0,1-.651.651Z" transform="translate(-78.126 -285.915)" fill="#feaa4b"/>
            <path id="Path_738" data-name="Path 738" d="M183.949,290.474h-3.256a.651.651,0,0,1-.651-.651v-3.256a.651.651,0,0,1,.651-.651h3.256a.651.651,0,0,1,.651.651v3.256A.651.651,0,0,1,183.949,290.474Z" transform="translate(-170.75 -285.915)" fill="#feaa4b"/>
            <path id="Path_739" data-name="Path 739" d="M285.865,290.474h-3.256a.651.651,0,0,1-.651-.651v-3.256a.651.651,0,0,1,.651-.651h3.256a.651.651,0,0,1,.651.651v3.256A.651.651,0,0,1,285.865,290.474Z" transform="translate(-263.374 -285.915)" fill="#feaa4b"/>
          </g>
          <path id="Path_740" data-name="Path 740" d="M387.781,292.7h-3.256a.651.651,0,0,1-.651-.651v-3.256a.651.651,0,0,1,.651-.651h3.256a.651.651,0,0,1,.651.651v3.256A.651.651,0,0,1,387.781,292.7Z" transform="translate(-355.998 -279.48)" fill="#feaa4b"/>
          <g id="Group_2977" data-name="Group 2977" transform="translate(0 16.917)">
            <path id="Path_741" data-name="Path 741" d="M82.033,383.247H78.777a.651.651,0,0,1-.651-.651v-3.256a.651.651,0,0,1,.651-.651h3.256a.651.651,0,0,1,.651.651V382.6a.651.651,0,0,1-.651.651Z" transform="translate(-78.126 -378.688)" fill="#feaa4b"/>
            <path id="Path_742" data-name="Path 742" d="M183.949,383.247h-3.256a.651.651,0,0,1-.651-.651v-3.256a.651.651,0,0,1,.651-.651h3.256a.651.651,0,0,1,.651.651V382.6A.651.651,0,0,1,183.949,383.247Z" transform="translate(-170.75 -378.688)" fill="#feaa4b"/>
            <path id="Path_743" data-name="Path 743" d="M285.865,383.247h-3.256a.651.651,0,0,1-.651-.651v-3.256a.651.651,0,0,1,.651-.651h3.256a.651.651,0,0,1,.651.651V382.6A.651.651,0,0,1,285.865,383.247Z" transform="translate(-263.374 -378.688)" fill="#feaa4b"/>
          </g>
        </g>
      </g>
      <path id="Path_744" data-name="Path 744" d="M58.941,22.926H62.2a1.337,1.337,0,0,0,1.335-1.335V18.335A1.337,1.337,0,0,0,62.2,17H58.941a1.337,1.337,0,0,0-1.335,1.335v3.256A1.337,1.337,0,0,0,58.941,22.926Zm.033-4.559h3.191v3.191H58.974Zm-.033,13.22H62.2a1.337,1.337,0,0,0,1.335-1.335V27A1.337,1.337,0,0,0,62.2,25.661H58.941A1.337,1.337,0,0,0,57.606,27v3.256A1.337,1.337,0,0,0,58.941,31.588Zm.033-4.559h3.191V30.22H58.974Zm-9.325-4.1h3.256a1.337,1.337,0,0,0,1.335-1.335V18.335A1.337,1.337,0,0,0,52.905,17H49.649a1.337,1.337,0,0,0-1.335,1.335v3.256A1.337,1.337,0,0,0,49.649,22.926Zm.033-4.559h3.191v3.191H49.682ZM34.321,33.917H31.065a1.337,1.337,0,0,0-1.335,1.335v3.256a1.337,1.337,0,0,0,1.335,1.335h3.256a1.337,1.337,0,0,0,1.335-1.335V35.252A1.337,1.337,0,0,0,34.321,33.917Zm-.033,4.559H31.1V35.284h3.191ZM34.321,17H31.065a1.337,1.337,0,0,0-1.335,1.335v3.256a1.337,1.337,0,0,0,1.335,1.335h3.256a1.337,1.337,0,0,0,1.335-1.335V18.335A1.337,1.337,0,0,0,34.321,17Zm-.033,4.559H31.1V18.367h3.191Zm15.361,9.826h3.256a1.337,1.337,0,0,0,1.335-1.335V26.793a1.337,1.337,0,0,0-1.335-1.335H49.649a1.337,1.337,0,0,0-1.335,1.335v3.256A1.337,1.337,0,0,0,49.649,31.385Zm.033-4.559h3.191v3.191H49.682Zm14.53-23.7H61.288V2.079A2.082,2.082,0,0,0,59.208,0h-.314a2.082,2.082,0,0,0-2.079,2.079V3.125H36.447V2.079A2.082,2.082,0,0,0,34.367,0h-.314a2.082,2.082,0,0,0-2.079,2.079V3.125H29.051a3.427,3.427,0,0,0-3.424,3.424V43.262a3.423,3.423,0,0,0,3.419,3.419h35.17a3.423,3.423,0,0,0,3.419-3.419V6.548a3.428,3.428,0,0,0-3.424-3.424ZM58.183,2.079a.713.713,0,0,1,.712-.712h.314a.713.713,0,0,1,.712.712V3.125H58.183Zm-24.841,0a.713.713,0,0,1,.712-.712h.314a.713.713,0,0,1,.712.712V3.125H33.342V2.079ZM66.268,43.262a2.054,2.054,0,0,1-2.051,2.051H29.046a2.054,2.054,0,0,1-2.051-2.051v0a3.406,3.406,0,0,0,2.056.688H56.775a3.4,3.4,0,0,0,2.421-1l7.072-7.072ZM58.5,41.707a2.925,2.925,0,0,0,.083-.69V36.453a1.563,1.563,0,0,1,1.561-1.561h4.564a2.925,2.925,0,0,0,.69-.083ZM66.268,12.9H37.131a.684.684,0,0,0,0,1.368H66.268v17.7a1.563,1.563,0,0,1-1.561,1.561H60.142a2.932,2.932,0,0,0-2.929,2.929v4.565a1.563,1.563,0,0,1-1.561,1.561h-26.6a2.058,2.058,0,0,1-2.056-2.056V14.265h7.4a.684.684,0,1,0,0-1.368h-7.4V6.548A2.058,2.058,0,0,1,29.05,4.492h2.924V6.5a2.082,2.082,0,0,0,2.079,2.079.684.684,0,1,0,0-1.368.713.713,0,0,1-.712-.712V4.492H56.815V6.5a2.082,2.082,0,0,0,2.079,2.079.684.684,0,1,0,0-1.368.713.713,0,0,1-.712-.712V4.492h6.029a2.058,2.058,0,0,1,2.056,2.056ZM34.321,25.458H31.065a1.337,1.337,0,0,0-1.335,1.335v3.256a1.337,1.337,0,0,0,1.335,1.335h3.256a1.337,1.337,0,0,0,1.335-1.335V26.793A1.337,1.337,0,0,0,34.321,25.458Zm-.033,4.559H31.1V26.826h3.191Zm6.068-7.091h3.256a1.337,1.337,0,0,0,1.335-1.335V18.335A1.337,1.337,0,0,0,43.613,17H40.357a1.337,1.337,0,0,0-1.335,1.335v3.256A1.337,1.337,0,0,0,40.357,22.926Zm.033-4.559h3.191v3.191H40.389Zm9.291,20.108a.684.684,0,0,0-1.367.033,1.337,1.337,0,0,0,1.335,1.335h3.256a1.337,1.337,0,0,0,1.335-1.335V35.252a1.337,1.337,0,0,0-1.335-1.335H49.649a1.337,1.337,0,0,0-1.335,1.335v.939a.684.684,0,0,0,1.368,0v-.907h3.191v3.191Zm-9.324-7.091h3.256a1.337,1.337,0,0,0,1.335-1.335V26.793a1.337,1.337,0,0,0-1.335-1.335H40.357a1.337,1.337,0,0,0-1.335,1.335v3.256A1.337,1.337,0,0,0,40.357,31.385Zm.033-4.559h3.191v3.191H40.389Zm-.033,13.017h3.256a1.337,1.337,0,0,0,1.335-1.335V35.252a1.337,1.337,0,0,0-1.335-1.335H40.357a1.337,1.337,0,0,0-1.335,1.335v3.256A1.337,1.337,0,0,0,40.357,39.843Zm.033-4.559h3.191v3.191H40.389Z" transform="translate(-25.627 0)"/>
    </g>
  </g>
</svg>
