<svg xmlns="http://www.w3.org/2000/svg" width="29.4" height="25.522" viewBox="0 0 29.4 25.522">
  <g id="calling" transform="translate(0.1 -33.9)">
    <g id="Group_113" data-name="Group 113" transform="translate(0.428 34.428)">
      <g id="Group_105" data-name="Group 105">
        <path id="Path_141" data-name="Path 141" d="M19.733,41.5A12.233,12.233,0,1,1,7.5,53.733,12.233,12.233,0,0,1,19.733,41.5Z" transform="translate(-7.5 -41.5)" fill="#76bffb" fill-rule="evenodd"/>
      </g>
      <g id="Group_106" data-name="Group 106" transform="translate(9.9)">
        <path id="Path_142" data-name="Path 142" d="M181.38,41.669a12.235,12.235,0,0,1-.3,24.075,12.233,12.233,0,1,0,.3-24.075Z" transform="translate(-181.083 -41.5)" fill="#3ba9ff" fill-rule="evenodd"/>
      </g>
      <g id="Group_107" data-name="Group 107" transform="translate(6.661 4.277)">
        <path id="Path_143" data-name="Path 143" d="M124.833,125.529a11.655,11.655,0,0,0,2.727,4.917,5.724,5.724,0,0,0,3.2,1.6,4.211,4.211,0,0,0,2.054-.291c1.591-.718.8-1.765.073-2.821-.838-1.293-1.312-1.595-2.343-1.377-.474.252-1.5-.653-2.049-1.983a8.483,8.483,0,0,1-.305-.866,8.068,8.068,0,0,1-.209-.89c-.247-1.406.143-2.655.69-2.654,1.012-.283,1.259-.76,1.278-2.262.052-1.2.123-2.512-1.608-2.41a4.106,4.106,0,0,0-1.939.685,5.021,5.021,0,0,0-1.9,2.847A10.981,10.981,0,0,0,124.833,125.529Z" transform="translate(-124.29 -116.488)" fill="#f8f6f6" fill-rule="evenodd"/>
      </g>
      <g id="Group_108" data-name="Group 108" transform="translate(9.212 4.277)">
        <path id="Path_144" data-name="Path 144" d="M171.145,118.985c-.011.859-.594.814-1,1.091-.744.508-1.457,1.616-.952,4.493.172.976,1.608,4.36,3.373,4.115,1.1-.274,1.267.442,1.536.849.7,1.02.935,1.622.086,2.464a3.462,3.462,0,0,0,.81-.242c1.591-.718.8-1.765.073-2.821-.838-1.293-1.312-1.595-2.343-1.377-.474.252-1.5-.653-2.049-1.983a8.491,8.491,0,0,1-.305-.866,8.07,8.07,0,0,1-.209-.89c-.247-1.406.143-2.655.69-2.654,1.012-.283,1.259-.76,1.278-2.262.052-1.2.123-2.512-1.608-2.41a3.915,3.915,0,0,0-1.387.373,3.108,3.108,0,0,1,.416-.054c1.731-.1,1.643.966,1.591,2.171Z" transform="translate(-169.024 -116.488)" fill="#e2e2e2" fill-rule="evenodd"/>
      </g>
      <g id="Group_109" data-name="Group 109" transform="translate(15.06 0.016)">
        <path id="Path_145" data-name="Path 145" d="M271.576,47.325a5.272,5.272,0,0,0,2.579,4.383h0l-.268,2.243v.1c0,.119.083.244.265.086.068-.06.08-.073.209-.188l1.762-1.366a7.6,7.6,0,0,0,1.294.242,7.693,7.693,0,0,0,.8.041c3.669,0,6.642-2.48,6.642-5.541s-2.973-5.541-6.642-5.541c-.271,0-.539.015-.8.041C274.126,42.154,271.576,44.491,271.576,47.325Z" transform="translate(-271.576 -41.784)" fill="#ffd54f" fill-rule="evenodd"/>
      </g>
      <g id="Group_110" data-name="Group 110" transform="translate(20.314 0.016)">
        <path id="Path_146" data-name="Path 146" d="M363.692,41.907c3.509.148,6.3,2.569,6.3,5.533a5.22,5.22,0,0,1-2.368,4.242,7.216,7.216,0,0,1-2.886,1.179c.112,0,.226.007.341.007a7.755,7.755,0,0,0,2.66-.463,5.612,5.612,0,0,0,3.982-5.078c0-3.059-2.973-5.541-6.642-5.541-.271,0-.539.015-.8.041C364.08,41.845,363.885,41.873,363.692,41.907Z" transform="translate(-363.692 -41.785)" fill="#ffa000" fill-rule="evenodd"/>
      </g>
      <g id="Group_111" data-name="Group 111" transform="translate(18.628 3.846)">
        <path id="Path_147" data-name="Path 147" d="M340.327,109.8h-5.775a.428.428,0,1,1,0-.855h5.775a.428.428,0,1,1,0,.855Z" transform="translate(-334.124 -108.945)" fill="#f8f6f6"/>
      </g>
      <g id="Group_112" data-name="Group 112" transform="translate(18.628 6.105)">
        <path id="Path_148" data-name="Path 148" d="M340.327,149.409h-5.775a.428.428,0,1,1,0-.855h5.775a.428.428,0,1,1,0,.855Z" transform="translate(-334.124 -148.554)" fill="#f8f6f6"/>
      </g>
    </g>
    <g id="Group_114" data-name="Group 114" transform="translate(0 34)">
      <path id="Path_149" data-name="Path 149" d="M121.648,114.524a.427.427,0,0,0,.1-.016c1.326-.37,1.57-1.154,1.591-2.662v-.025a3.054,3.054,0,0,0-.512-2.365,1.955,1.955,0,0,0-1.55-.459,4.554,4.554,0,0,0-2.154.758,5.454,5.454,0,0,0-2.074,3.1,11.477,11.477,0,0,0,.333,5.726,12.158,12.158,0,0,0,2.836,5.1,6.159,6.159,0,0,0,3.458,1.721,4.725,4.725,0,0,0,2.276-.326,1.817,1.817,0,0,0,1.131-1.113c.212-.763-.311-1.518-.817-2.248l-.061-.088c-.83-1.279-1.46-1.838-2.787-1.558a.425.425,0,0,0-.1.033h0c-.221,0-.981-.595-1.467-1.762a8.06,8.06,0,0,1-.29-.821,7.638,7.638,0,0,1-.2-.843A2.719,2.719,0,0,1,121.648,114.524Zm-.7-.508a3.724,3.724,0,0,0-.429,2.807,8.5,8.5,0,0,0,.221.938,8.929,8.929,0,0,0,.321.909,4.019,4.019,0,0,0,1.9,2.22.922.922,0,0,0,.68.007c.7-.142,1.035-.057,1.85,1.2l.007.01.065.094c.394.568.8,1.156.7,1.532-.056.2-.277.39-.658.561a3.757,3.757,0,0,1-1.833.255,5.348,5.348,0,0,1-2.947-1.478,11.272,11.272,0,0,1-2.616-4.731l0-.006a10.6,10.6,0,0,1-.322-5.278,4.634,4.634,0,0,1,1.723-2.6,3.7,3.7,0,0,1,1.724-.612q.083,0,.159,0a1.034,1.034,0,0,1,.74.22c.318.313.287,1.028.257,1.719v.031s0,.009,0,.013c-.019,1.437-.242,1.648-.92,1.843A.894.894,0,0,0,120.951,114.016Z" transform="translate(-110.164 -104.715)" stroke="#0e0e0e" stroke-width="0.2"/>
      <path id="Path_150" data-name="Path 150" d="M340.327,108.945h-5.775a.428.428,0,1,0,0,.855h5.775a.428.428,0,1,0,0-.855Z" transform="translate(-315.069 -104.671)" stroke="#0e0e0e" stroke-width="0.2"/>
      <path id="Path_151" data-name="Path 151" d="M340.327,148.554h-5.775a.428.428,0,1,0,0,.855h5.775a.428.428,0,1,0,0-.855Z" transform="translate(-315.069 -142.021)" stroke="#0e0e0e" stroke-width="0.2"/>
      <path id="Path_152" data-name="Path 152" d="M29.2,39.985a5.314,5.314,0,0,0-1.262-3.4.428.428,0,0,0-.66.544,4.469,4.469,0,0,1,1.067,2.86c0,2.819-2.788,5.113-6.214,5.113a7.392,7.392,0,0,1-1.982-.267.428.428,0,0,0-.377.074L18.3,46.049l.19-1.594a.428.428,0,0,0-.187-.447,4.825,4.825,0,0,1-2.383-4.024c0-2.819,2.788-5.113,6.214-5.113a7.03,7.03,0,0,1,3.839,1.094.428.428,0,0,0,.465-.718,8.13,8.13,0,0,0-8.466-.084A12.669,12.669,0,0,0,3.639,37.778a.428.428,0,0,0,.61.6,11.82,11.82,0,0,1,12.913-2.635,5.536,5.536,0,0,0-2.1,4.241,5.61,5.61,0,0,0,2.549,4.591l-.237,1.984a.431.431,0,0,0,0,.051v.1a.578.578,0,0,0,.324.541.53.53,0,0,0,.218.047.655.655,0,0,0,.433-.18l.079-.071.121-.109,1.584-1.228a8.339,8.339,0,0,0,4.292-.079c.03.343.046.687.046,1.029A11.805,11.805,0,1,1,3.038,39.819a.428.428,0,1,0-.7-.5,12.662,12.662,0,1,0,22.98,7.338,12.814,12.814,0,0,0-.069-1.322A5.976,5.976,0,0,0,29.2,39.985Z" transform="translate(0 -34)" stroke="#0e0e0e" stroke-width="0.2"/>
    </g>
  </g>
</svg>
