<svg xmlns="http://www.w3.org/2000/svg" width="129" height="105" viewBox="0 0 129 105">
  <g id="Group_2972" data-name="Group 2972" transform="translate(-1187.151 -228.667)">
    <ellipse id="Ellipse_83" data-name="Ellipse 83" cx="17" cy="16.5" rx="17" ry="16.5" transform="translate(1187.151 264.667)" fill="#76bffb" opacity="0.27"/>
    <ellipse id="Ellipse_84" data-name="Ellipse 84" cx="22" cy="22.5" rx="22" ry="22.5" transform="translate(1272.151 228.667)" fill="#76bffb" opacity="0.27"/>
    <ellipse id="Ellipse_85" data-name="Ellipse 85" cx="15.5" cy="16" rx="15.5" ry="16" transform="translate(1279.151 301.667)" fill="#76bffb" opacity="0.27"/>
    <g id="calendar_9_" data-name="calendar (9)" transform="translate(1204.104 229)">
      <g id="Group_2979" data-name="Group 2979" transform="translate(1.515 8.278)">
        <path id="Path_727" data-name="Path 727" d="M117.122,381.829H39.187a6.061,6.061,0,0,1-6.061-6.061v-8.432l90.057-16.365v24.8A6.061,6.061,0,0,1,117.122,381.829Z" transform="translate(-33.126 -288.34)" fill="#cdbfba"/>
        <path id="Path_728" data-name="Path 728" d="M100.633,128.4H39.2a6.071,6.071,0,0,1-6.071-6.071V47.049A6.071,6.071,0,0,1,39.2,40.978h77.914a6.071,6.071,0,0,1,6.071,6.071v58.8c0,1.61-3.67,3.154-4.809,4.293L104.926,123.6C103.788,124.734,102.243,128.4,100.633,128.4Z" transform="translate(-33.126 -40.977)" fill="#f9f3f1"/>
        <path id="Path_729" data-name="Path 729" d="M331.145,349.929h4.809a4.974,4.974,0,0,0,4.974-4.974V334.84a4.974,4.974,0,0,1,4.974-4.974h10.115a4.974,4.974,0,0,0,4.974-4.974v2.46a6.071,6.071,0,0,1-1.778,4.293L342.706,348.15a6.071,6.071,0,0,1-4.293,1.778h-7.268Z" transform="translate(-270.935 -262.502)" fill="#efe2dd"/>
        <path id="Path_730" data-name="Path 730" d="M123.185,47.035V62.628H33.13V47.035a6.062,6.062,0,0,1,6.061-6.061h77.933A6.062,6.062,0,0,1,123.185,47.035Z" transform="translate(-33.129 -40.974)" fill="#fed74b"/>
        <g id="Group_2974" data-name="Group 2974" transform="translate(9.575)">
          <g id="Group_2972-2" data-name="Group 2972">
            <path id="Path_731" data-name="Path 731" d="M88.1,51.552H85.128a4.613,4.613,0,0,1-4.608-4.606V40.973h3.031v5.972a1.578,1.578,0,0,0,1.578,1.576C85.965,48.521,88.939,51.552,88.1,51.552Z" transform="translate(-80.52 -40.973)" fill="#fdb441"/>
          </g>
          <g id="Group_2973" data-name="Group 2973" transform="translate(55.047)">
            <path id="Path_732" data-name="Path 732" d="M360.562,51.552h-2.975a4.612,4.612,0,0,1-4.606-4.606V40.973h3.031v5.972a1.578,1.578,0,0,0,1.576,1.576C358.425,48.521,360.562,50.716,360.562,51.552Z" transform="translate(-352.98 -40.973)" fill="#fdb441"/>
          </g>
        </g>
        <g id="Group_2978" data-name="Group 2978" transform="translate(9.092 30.744)">
          <g id="Group_2975" data-name="Group 2975">
            <path id="Path_733" data-name="Path 733" d="M86.785,203.244H79.569a1.443,1.443,0,0,1-1.443-1.443v-7.216a1.443,1.443,0,0,1,1.443-1.443h7.215a1.443,1.443,0,0,1,1.443,1.443V201.8a1.443,1.443,0,0,1-1.443,1.443Z" transform="translate(-78.126 -193.142)" fill="#feaa4b"/>
            <path id="Path_734" data-name="Path 734" d="M188.7,203.244h-7.215a1.443,1.443,0,0,1-1.443-1.443v-7.216a1.443,1.443,0,0,1,1.443-1.443H188.7a1.443,1.443,0,0,1,1.443,1.443V201.8A1.443,1.443,0,0,1,188.7,203.244Z" transform="translate(-159.451 -193.142)" fill="#feaa4b"/>
            <path id="Path_735" data-name="Path 735" d="M290.617,203.244H283.4a1.443,1.443,0,0,1-1.443-1.443v-7.216a1.443,1.443,0,0,1,1.443-1.443h7.216a1.443,1.443,0,0,1,1.443,1.443V201.8A1.443,1.443,0,0,1,290.617,203.244Z" transform="translate(-240.777 -193.142)" fill="#feaa4b"/>
            <path id="Path_736" data-name="Path 736" d="M392.533,203.244h-7.216a1.443,1.443,0,0,1-1.443-1.443v-7.216a1.443,1.443,0,0,1,1.443-1.443h7.216a1.443,1.443,0,0,1,1.443,1.443V201.8A1.443,1.443,0,0,1,392.533,203.244Z" transform="translate(-322.102 -193.142)" fill="#feaa4b"/>
          </g>
          <g id="Group_2976" data-name="Group 2976" transform="translate(0 18.743)">
            <path id="Path_737" data-name="Path 737" d="M86.785,296.017H79.569a1.443,1.443,0,0,1-1.443-1.443v-7.215a1.443,1.443,0,0,1,1.443-1.443h7.215a1.443,1.443,0,0,1,1.443,1.443v7.215a1.443,1.443,0,0,1-1.443,1.443Z" transform="translate(-78.126 -285.915)" fill="#feaa4b"/>
            <path id="Path_738" data-name="Path 738" d="M188.7,296.017h-7.215a1.443,1.443,0,0,1-1.443-1.443v-7.215a1.443,1.443,0,0,1,1.443-1.443H188.7a1.443,1.443,0,0,1,1.443,1.443v7.215A1.443,1.443,0,0,1,188.7,296.017Z" transform="translate(-159.451 -285.915)" fill="#feaa4b"/>
            <path id="Path_739" data-name="Path 739" d="M290.617,296.017H283.4a1.443,1.443,0,0,1-1.443-1.443v-7.215a1.443,1.443,0,0,1,1.443-1.443h7.216a1.443,1.443,0,0,1,1.443,1.443v7.215A1.443,1.443,0,0,1,290.617,296.017Z" transform="translate(-240.777 -285.915)" fill="#feaa4b"/>
          </g>
          <path id="Path_740" data-name="Path 740" d="M392.533,298.244h-7.216a1.443,1.443,0,0,1-1.443-1.443v-7.216a1.443,1.443,0,0,1,1.443-1.443h7.216a1.443,1.443,0,0,1,1.443,1.443V296.8A1.443,1.443,0,0,1,392.533,298.244Z" transform="translate(-322.102 -268.949)" fill="#feaa4b"/>
          <g id="Group_2977" data-name="Group 2977" transform="translate(0 37.487)">
            <path id="Path_741" data-name="Path 741" d="M86.785,388.79H79.569a1.443,1.443,0,0,1-1.443-1.443v-7.215a1.443,1.443,0,0,1,1.443-1.443h7.215a1.443,1.443,0,0,1,1.443,1.443v7.215a1.443,1.443,0,0,1-1.443,1.443Z" transform="translate(-78.126 -378.688)" fill="#feaa4b"/>
            <path id="Path_742" data-name="Path 742" d="M188.7,388.79h-7.215a1.443,1.443,0,0,1-1.443-1.443v-7.215a1.443,1.443,0,0,1,1.443-1.443H188.7a1.443,1.443,0,0,1,1.443,1.443v7.215A1.443,1.443,0,0,1,188.7,388.79Z" transform="translate(-159.451 -378.688)" fill="#feaa4b"/>
            <path id="Path_743" data-name="Path 743" d="M290.617,388.79H283.4a1.443,1.443,0,0,1-1.443-1.443v-7.215a1.443,1.443,0,0,1,1.443-1.443h7.216a1.443,1.443,0,0,1,1.443,1.443v7.215A1.443,1.443,0,0,1,290.617,388.79Z" transform="translate(-240.777 -378.688)" fill="#feaa4b"/>
          </g>
        </g>
      </g>
      <path id="Path_744" data-name="Path 744" d="M99.449,50.8h7.215a2.962,2.962,0,0,0,2.958-2.958V40.629a2.962,2.962,0,0,0-2.958-2.958H99.449a2.962,2.962,0,0,0-2.958,2.958v7.215A2.962,2.962,0,0,0,99.449,50.8Zm.072-10.1h7.071v7.071H99.521ZM99.449,70h7.215a2.962,2.962,0,0,0,2.958-2.958V59.822a2.962,2.962,0,0,0-2.958-2.958H99.449a2.962,2.962,0,0,0-2.958,2.958v7.215A2.962,2.962,0,0,0,99.449,70Zm.072-10.1h7.071v7.071H99.521ZM78.858,50.8h7.215a2.962,2.962,0,0,0,2.958-2.958V40.629a2.962,2.962,0,0,0-2.958-2.958H78.858A2.962,2.962,0,0,0,75.9,40.629v7.216A2.962,2.962,0,0,0,78.858,50.8Zm.072-10.1H86v7.071H78.93ZM44.892,75.157H37.677a2.962,2.962,0,0,0-2.958,2.958v7.215a2.962,2.962,0,0,0,2.958,2.958h7.215a2.962,2.962,0,0,0,2.958-2.958V78.116a2.962,2.962,0,0,0-2.958-2.958Zm-.072,10.1H37.749V78.188H44.82Zm.072-47.589H37.677a2.962,2.962,0,0,0-2.958,2.958v7.215A2.962,2.962,0,0,0,37.677,50.8h7.215a2.962,2.962,0,0,0,2.958-2.958V40.629a2.962,2.962,0,0,0-2.958-2.958Zm-.072,10.1H37.749V40.7H44.82ZM78.858,69.546h7.215a2.962,2.962,0,0,0,2.958-2.958V59.372a2.962,2.962,0,0,0-2.958-2.958H78.858A2.962,2.962,0,0,0,75.9,59.372v7.216A2.962,2.962,0,0,0,78.858,69.546Zm.072-10.1H86v7.071H78.93Zm32.2-52.52h-6.478V4.608A4.613,4.613,0,0,0,100.041,0h-.7a4.613,4.613,0,0,0-4.608,4.608V6.925H49.6V4.608A4.613,4.613,0,0,0,45,0h-.7a4.613,4.613,0,0,0-4.608,4.608V6.925H33.213a7.6,7.6,0,0,0-7.586,7.586V95.866a7.585,7.585,0,0,0,7.576,7.576h77.935a7.585,7.585,0,0,0,7.576-7.576V14.511a7.6,7.6,0,0,0-7.587-7.586ZM97.768,4.608a1.579,1.579,0,0,1,1.577-1.577h.7a1.579,1.579,0,0,1,1.577,1.577V6.925h-3.85Zm-55.046,0A1.579,1.579,0,0,1,44.3,3.031H45a1.579,1.579,0,0,1,1.577,1.577V6.925h-3.85V4.608Zm72.961,91.258a4.551,4.551,0,0,1-4.546,4.546H33.2a4.551,4.551,0,0,1-4.546-4.546v-.009a7.547,7.547,0,0,0,4.556,1.525H94.649a7.536,7.536,0,0,0,5.364-2.222l15.67-15.67ZM98.467,92.419a6.481,6.481,0,0,0,.183-1.528V80.777a3.463,3.463,0,0,1,3.459-3.459h10.114a6.481,6.481,0,0,0,1.528-.183Zm17.216-63.841H51.118a1.515,1.515,0,0,0,0,3.031h64.565V70.828a3.463,3.463,0,0,1-3.459,3.459H102.11a6.5,6.5,0,0,0-6.49,6.49V90.892a3.463,3.463,0,0,1-3.459,3.459H33.213a4.561,4.561,0,0,1-4.556-4.556V31.609h16.4a1.515,1.515,0,0,0,0-3.031h-16.4V14.511a4.561,4.561,0,0,1,4.556-4.556h6.478V14.41A4.613,4.613,0,0,0,44.3,19.018a1.515,1.515,0,1,0,0-3.031,1.579,1.579,0,0,1-1.577-1.577V9.955H94.738V14.41a4.613,4.613,0,0,0,4.608,4.608,1.515,1.515,0,1,0,0-3.031,1.579,1.579,0,0,1-1.577-1.577V9.955h13.359a4.561,4.561,0,0,1,4.556,4.556ZM44.892,56.414H37.677a2.962,2.962,0,0,0-2.958,2.958v7.216a2.962,2.962,0,0,0,2.958,2.958h7.215a2.962,2.962,0,0,0,2.958-2.958V59.372A2.962,2.962,0,0,0,44.892,56.414Zm-.072,10.1H37.749V59.444H44.82ZM58.267,50.8h7.215a2.962,2.962,0,0,0,2.958-2.958V40.629a2.962,2.962,0,0,0-2.958-2.958H58.267a2.962,2.962,0,0,0-2.958,2.958v7.216A2.962,2.962,0,0,0,58.267,50.8Zm.072-10.1h7.071v7.071H58.34ZM78.928,85.259a1.515,1.515,0,0,0-3.029.072,2.962,2.962,0,0,0,2.958,2.958h7.215a2.962,2.962,0,0,0,2.958-2.958V78.116a2.962,2.962,0,0,0-2.958-2.958H78.858A2.962,2.962,0,0,0,75.9,78.116V80.2a1.515,1.515,0,0,0,3.031,0V78.188H86v7.071ZM58.267,69.546h7.215a2.962,2.962,0,0,0,2.958-2.958V59.372a2.962,2.962,0,0,0-2.958-2.958H58.267a2.962,2.962,0,0,0-2.958,2.958v7.216A2.962,2.962,0,0,0,58.267,69.546Zm.072-10.1h7.071v7.071H58.34ZM58.267,88.29h7.215a2.962,2.962,0,0,0,2.958-2.958V78.116a2.962,2.962,0,0,0-2.958-2.958H58.267a2.962,2.962,0,0,0-2.958,2.958v7.215A2.962,2.962,0,0,0,58.267,88.29Zm.072-10.1h7.071v7.071H58.34Z" transform="translate(-25.627 0)"/>
    </g>
  </g>
</svg>
