<svg xmlns="http://www.w3.org/2000/svg" width="145" height="117" viewBox="0 0 145 117">
  <g id="Group_2972" data-name="Group 2972" transform="translate(-1187 -229)">
    <ellipse id="Ellipse_83" data-name="Ellipse 83" cx="19" cy="18.5" rx="19" ry="18.5" transform="translate(1187 269)" fill="#76bffb" opacity="0.27"/>
    <ellipse id="Ellipse_84" data-name="Ellipse 84" cx="24.5" cy="25" rx="24.5" ry="25" transform="translate(1283 229)" fill="#76bffb" opacity="0.27"/>
    <ellipse id="Ellipse_85" data-name="Ellipse 85" cx="17.5" cy="18" rx="17.5" ry="18" transform="translate(1290 310)" fill="#76bffb" opacity="0.27"/>
    <g id="people" transform="translate(1207 229)">
      <path id="Path_752" data-name="Path 752" d="M351.486,41.872v8.612a1.766,1.766,0,0,1-1.767,1.766H319.1a1.766,1.766,0,0,1-1.767-1.766V41.872a10.6,10.6,0,0,1,10.6-10.6h4.558a9.056,9.056,0,0,1-7.06-8.833V18.022a9.054,9.054,0,0,1,18.108,0v4.417a9.056,9.056,0,0,1-7.06,8.833h4.41A10.6,10.6,0,0,1,351.486,41.872Z" transform="translate(-247.253 -6.979)" fill="#befa91"/>
      <path id="Path_753" data-name="Path 753" d="M196.823,41.894v8.612a1.766,1.766,0,0,1-1.767,1.767H164.435a1.766,1.766,0,0,1-1.766-1.767V41.894a10.6,10.6,0,0,1,10.6-10.6h4.484a9.057,9.057,0,0,1-7.06-8.833V18.044a9.054,9.054,0,1,1,18.108,0V22.46a9.056,9.056,0,0,1-7.06,8.833h4.483a10.6,10.6,0,0,1,10.6,10.6Z" transform="translate(-126.746 -7)" fill="#b49ef2"/>
      <path id="Path_754" data-name="Path 754" d="M42.156,41.91v8.612a1.766,1.766,0,0,1-1.766,1.766H9.767A1.766,1.766,0,0,1,8,50.522V41.91a10.6,10.6,0,0,1,10.6-10.6h4.41a9.056,9.056,0,0,1-7.06-8.833V18.06a9.054,9.054,0,0,1,18.108,0v4.417A9.056,9.056,0,0,1,27,31.31h4.558A10.6,10.6,0,0,1,42.156,41.91Z" transform="translate(-6.233 -7.016)" fill="#fe4f60"/>
      <path id="Path_755" data-name="Path 755" d="M31.943,110.014c4.3.154,4.142,6.62-.161,6.644-1.757.01-3.9-.008-6.557-.025a10.576,10.576,0,0,0-10.6,10.6v1.988a1.767,1.767,0,0,1-1.767,1.766H9.767A1.767,1.767,0,0,1,8,129.219v-8.613a10.6,10.6,0,0,1,10.6-10.6S31.815,110.009,31.943,110.014Z" transform="translate(-6.233 -85.714)" fill="#ff6d7a"/>
      <path id="Path_756" data-name="Path 756" d="M186.611,110.014c4.3.154,4.142,6.62-.161,6.644-1.757.01-3.9-.008-6.557-.025a10.576,10.576,0,0,0-10.6,10.6v1.988a1.767,1.767,0,0,1-1.767,1.767h-3.091a1.767,1.767,0,0,1-1.766-1.767v-8.613a10.6,10.6,0,0,1,10.6-10.6S186.483,110.009,186.611,110.014Z" transform="translate(-126.746 -85.714)" fill="#c0b3ff"/>
      <path id="Path_757" data-name="Path 757" d="M341.313,110.014c4.3.154,4.142,6.62-.161,6.644-1.757.01-3.9-.008-6.557-.025a10.576,10.576,0,0,0-10.6,10.6v1.988a1.767,1.767,0,0,1-1.767,1.767h-3.092a1.767,1.767,0,0,1-1.767-1.767v-8.613a10.6,10.6,0,0,1,10.6-10.6S341.185,110.009,341.313,110.014Z" transform="translate(-247.284 -85.714)" fill="#daffbf"/>
      <path id="Path_758" data-name="Path 758" d="M372.108,18.061v4.417a9.054,9.054,0,0,1-18.108,0V18.061a9.054,9.054,0,0,1,18.108,0Z" transform="translate(-275.825 -7.018)" fill="#ffebd2"/>
      <path id="Path_759" data-name="Path 759" d="M217.108,18.06v4.417a9.054,9.054,0,0,1-18.108,0V18.06a9.054,9.054,0,0,1,18.108,0Z" transform="translate(-155.054 -7.016)" fill="#ffebd2"/>
      <path id="Path_760" data-name="Path 760" d="M62.108,18.044V22.46A9.054,9.054,0,1,1,44,22.46V18.044a9.054,9.054,0,1,1,18.108,0Z" transform="translate(-34.283 -7.001)" fill="#e0b7a3"/>
      <path id="Path_761" data-name="Path 761" d="M55.583,9.346a2.207,2.207,0,0,1-.113,4.273,8.945,8.945,0,0,0-7.07,8.834c0,.169.013.334.017.5.07,2.819-4.163,3.085-4.4.276-.055-.655-.032-5.046-.032-5.024A9.111,9.111,0,0,1,55.583,9.346Z" transform="translate(-34.267 -6.994)" fill="#f2d1c2"/>
      <path id="Path_762" data-name="Path 762" d="M210.583,9.346a2.207,2.207,0,0,1-.113,4.273,8.945,8.945,0,0,0-7.07,8.834c0,.169.013.334.017.5.07,2.819-4.163,3.085-4.4.276-.055-.655-.032-5.046-.032-5.024A9.111,9.111,0,0,1,210.583,9.346Z" transform="translate(-155.038 -6.994)" fill="#fff3e4"/>
      <path id="Path_763" data-name="Path 763" d="M365.583,9.346a2.207,2.207,0,0,1-.113,4.273,8.945,8.945,0,0,0-7.07,8.834c0,.169.013.334.017.5.07,2.819-4.163,3.085-4.4.276-.055-.655-.033-5.046-.033-5.024A9.111,9.111,0,0,1,365.583,9.346Z" transform="translate(-275.808 -6.994)" fill="#fff3e4"/>
      <path id="Path_764" data-name="Path 764" d="M273.825,189.855v8.612a1.766,1.766,0,0,1-1.767,1.767H241.437a1.766,1.766,0,0,1-1.767-1.767v-8.612a10.6,10.6,0,0,1,10.6-10.6h4.484a9.057,9.057,0,0,1-7.06-8.833V166a9.054,9.054,0,1,1,18.108,0v4.417a9.057,9.057,0,0,1-7.06,8.833h4.483A10.6,10.6,0,0,1,273.825,189.855Z" transform="translate(-186.743 -122.287)" fill="#ffe773"/>
      <path id="Path_765" data-name="Path 765" d="M263.612,257.975c4.3.154,4.142,6.62-.161,6.644-1.757.01-3.9-.008-6.557-.025a10.576,10.576,0,0,0-10.6,10.6v1.987a1.767,1.767,0,0,1-1.767,1.767h-3.091a1.767,1.767,0,0,1-1.767-1.767v-8.612a10.6,10.6,0,0,1,10.6-10.6S263.484,257.97,263.612,257.975Z" transform="translate(-186.743 -201)" fill="#fff0a6"/>
      <path id="Path_766" data-name="Path 766" d="M294.111,166.021v4.417a9.054,9.054,0,0,1-18.108,0v-4.417a9.054,9.054,0,0,1,18.108,0Z" transform="translate(-215.052 -122.303)" fill="#ffebd2"/>
      <path id="Path_767" data-name="Path 767" d="M287.585,157.306a2.207,2.207,0,0,1-.113,4.273,8.945,8.945,0,0,0-7.07,8.834c0,.169.013.334.017.5.07,2.819-4.163,3.085-4.4.276-.055-.655-.032-5.046-.032-5.024A9.111,9.111,0,0,1,287.585,157.306Z" transform="translate(-215.035 -122.279)" fill="#fff3e4"/>
      <path id="Path_768" data-name="Path 768" d="M118.486,189.833v8.612a1.766,1.766,0,0,1-1.767,1.767H86.1a1.766,1.766,0,0,1-1.767-1.767v-8.612a10.6,10.6,0,0,1,10.6-10.6h4.558a9.057,9.057,0,0,1-7.06-8.833v-4.417a9.054,9.054,0,0,1,18.108,0V170.4a9.057,9.057,0,0,1-7.06,8.833h4.41A10.6,10.6,0,0,1,118.486,189.833Z" transform="translate(-65.707 -122.265)" fill="#befa91"/>
      <path id="Path_769" data-name="Path 769" d="M108.313,257.975c4.3.154,4.142,6.62-.161,6.644-1.757.01-3.9-.008-6.557-.025a10.576,10.576,0,0,0-10.6,10.6v1.987a1.767,1.767,0,0,1-1.767,1.767H86.137a1.767,1.767,0,0,1-1.767-1.767v-8.612a10.6,10.6,0,0,1,10.6-10.6S108.185,257.97,108.313,257.975Z" transform="translate(-65.738 -201)" fill="#daffbf"/>
      <path id="Path_770" data-name="Path 770" d="M139.108,166.022v4.417a9.054,9.054,0,1,1-18.108,0v-4.417a9.054,9.054,0,1,1,18.108,0Z" transform="translate(-94.279 -122.304)" fill="#e0b7a3"/>
      <path id="Path_771" data-name="Path 771" d="M132.583,157.306a2.207,2.207,0,0,1-.113,4.273,8.945,8.945,0,0,0-7.07,8.834c0,.169.013.334.017.5.07,2.819-4.163,3.085-4.4.276-.055-.655-.032-5.046-.032-5.024A9.111,9.111,0,0,1,132.583,157.306Z" transform="translate(-94.263 -122.279)" fill="#f2d1c2"/>
      <path id="Path_772" data-name="Path 772" d="M351.486,308.865v8.612a1.766,1.766,0,0,1-1.767,1.767H319.1a1.767,1.767,0,0,1-1.767-1.767v-8.612a10.6,10.6,0,0,1,10.6-10.6h4.558a9.056,9.056,0,0,1-7.06-8.833v-4.417a9.054,9.054,0,0,1,18.108,0v4.417a9.056,9.056,0,0,1-7.06,8.833h4.41A10.6,10.6,0,0,1,351.486,308.865Z" transform="translate(-247.253 -215.011)" fill="#cbe3fa"/>
      <path id="Path_773" data-name="Path 773" d="M196.823,308.887V317.5a1.766,1.766,0,0,1-1.766,1.767H164.435a1.766,1.766,0,0,1-1.766-1.767v-8.612a10.6,10.6,0,0,1,10.6-10.6h4.484a9.056,9.056,0,0,1-7.06-8.833v-4.417a9.054,9.054,0,1,1,18.108,0v4.417a9.056,9.056,0,0,1-7.06,8.833h4.483a10.6,10.6,0,0,1,10.6,10.6Z" transform="translate(-126.746 -215.033)" fill="#fe4f60"/>
      <path id="Path_774" data-name="Path 774" d="M42.156,308.9v8.613a1.766,1.766,0,0,1-1.767,1.767H9.767A1.766,1.766,0,0,1,8,317.515V308.9a10.6,10.6,0,0,1,10.6-10.6h4.41a9.056,9.056,0,0,1-7.06-8.833v-4.417a9.054,9.054,0,0,1,18.108,0v4.417A9.056,9.056,0,0,1,27,298.3h4.558a10.6,10.6,0,0,1,10.6,10.6Z" transform="translate(-6.233 -215.049)" fill="#80aaff"/>
      <path id="Path_775" data-name="Path 775" d="M31.943,377.007c4.3.154,4.142,6.62-.161,6.644-1.757.01-3.9-.008-6.557-.025a10.576,10.576,0,0,0-10.6,10.6v1.987a1.767,1.767,0,0,1-1.767,1.767H9.767A1.767,1.767,0,0,1,8,396.212V387.6A10.6,10.6,0,0,1,18.6,377S31.815,377,31.943,377.007Z" transform="translate(-6.233 -293.746)" fill="#9cbcff"/>
      <path id="Path_776" data-name="Path 776" d="M186.611,377.007c4.3.154,4.142,6.62-.161,6.644-1.757.01-3.9-.008-6.557-.025a10.576,10.576,0,0,0-10.6,10.6v1.987a1.767,1.767,0,0,1-1.767,1.767h-3.091a1.766,1.766,0,0,1-1.766-1.767V387.6a10.6,10.6,0,0,1,10.6-10.6S186.483,377,186.611,377.007Z" transform="translate(-126.746 -293.746)" fill="#ff6d7a"/>
      <path id="Path_777" data-name="Path 777" d="M341.313,377.007c4.3.154,4.142,6.62-.161,6.644-1.757.01-3.9-.008-6.557-.025a10.576,10.576,0,0,0-10.6,10.6v1.987a1.767,1.767,0,0,1-1.767,1.767h-3.092a1.767,1.767,0,0,1-1.767-1.767V387.6a10.6,10.6,0,0,1,10.6-10.6S341.185,377,341.313,377.007Z" transform="translate(-247.284 -293.746)" fill="#eef7ff"/>
      <path id="Path_778" data-name="Path 778" d="M372.108,285.054v4.417a9.054,9.054,0,0,1-18.108,0v-4.417a9.054,9.054,0,1,1,18.108,0Z" transform="translate(-275.825 -215.05)" fill="#e0b7a3"/>
      <path id="Path_779" data-name="Path 779" d="M217.108,285.053v4.417a9.054,9.054,0,0,1-18.108,0v-4.417a9.054,9.054,0,0,1,18.108,0Z" transform="translate(-155.054 -215.049)" fill="#ffebd2"/>
      <path id="Path_780" data-name="Path 780" d="M62.108,285.037v4.417a9.054,9.054,0,0,1-18.108,0v-4.417a9.054,9.054,0,1,1,18.108,0Z" transform="translate(-34.283 -215.033)" fill="#ffebd2"/>
      <path id="Path_781" data-name="Path 781" d="M55.583,276.339a2.207,2.207,0,0,1-.113,4.273,8.945,8.945,0,0,0-7.07,8.834c0,.169.013.334.017.5.07,2.819-4.163,3.085-4.4.276-.055-.655-.032-5.046-.032-5.024A9.111,9.111,0,0,1,55.583,276.339Z" transform="translate(-34.267 -215.026)" fill="#fff3e4"/>
      <path id="Path_782" data-name="Path 782" d="M210.583,276.339a2.207,2.207,0,0,1-.113,4.273,8.945,8.945,0,0,0-7.07,8.834c0,.169.013.334.017.5.07,2.819-4.163,3.085-4.4.276-.055-.655-.032-5.046-.032-5.024A9.111,9.111,0,0,1,210.583,276.339Z" transform="translate(-155.038 -215.026)" fill="#fff3e4"/>
      <path id="Path_783" data-name="Path 783" d="M365.583,276.339a2.207,2.207,0,0,1-.113,4.273,8.945,8.945,0,0,0-7.07,8.834c0,.169.013.334.017.5.07,2.819-4.163,3.085-4.4.276-.055-.655-.033-5.046-.033-5.024A9.111,9.111,0,0,1,365.583,276.339Z" transform="translate(-275.808 -215.026)" fill="#f2d1c2"/>
      <path id="Path_784" data-name="Path 784" d="M93.633,81.487h-6.4A7.3,7.3,0,0,1,79.942,74.2V69.783a7.287,7.287,0,1,1,14.575,0V74.2a1.767,1.767,0,0,0,3.533,0V69.783a10.821,10.821,0,1,0-21.642,0c.3,2.664-1.133,7.445,2.9,11.781a12.385,12.385,0,0,0-9.233,5.927,12.371,12.371,0,0,0-10.6-6H53A7.3,7.3,0,0,1,45.712,74.2V69.784a7.287,7.287,0,0,1,14.575,0V74.2a1.767,1.767,0,0,0,3.533,0V69.784A10.826,10.826,0,0,0,58.375,60.4a8.79,8.79,0,0,1,5.152-1.656H70A10.833,10.833,0,0,0,80.825,47.921V43.5a10.838,10.838,0,0,0-9.157-10.693,12.32,12.32,0,0,0-10.757-10.2c4.043-4.336,2.615-9.159,2.91-11.789a10.821,10.821,0,1,0-21.642,0c.3,2.679-1.14,7.446,2.91,11.789a12.325,12.325,0,0,0-5.041,1.744A1.767,1.767,0,0,0,41.9,27.363a8.81,8.81,0,0,1,4.622-1.3H59.478a8.806,8.806,0,0,1,8.6,6.8A10.836,10.836,0,0,0,59.183,43.5c.3,2.68-1.14,7.445,2.908,11.787a12.284,12.284,0,0,0-7.542,3.784,10.829,10.829,0,0,0-12.37,10.708c.3,2.679-1.14,7.447,2.911,11.79a12.385,12.385,0,0,0-9.168,5.919,12.371,12.371,0,0,0-10.6-6H18.771A7.3,7.3,0,0,1,11.483,74.2V69.783a7.287,7.287,0,0,1,14.575,0V74.2a1.767,1.767,0,0,0,3.533,0V69.783a10.825,10.825,0,0,0-5.406-9.362,8.784,8.784,0,0,1,5.185-1.679h6.4A10.833,10.833,0,0,0,46.6,47.921V43.5a10.837,10.837,0,0,0-9.081-10.679A12.321,12.321,0,0,0,26.689,22.6c4.033-4.334,2.607-9.144,2.9-11.781a10.821,10.821,0,1,0-21.642,0c.3,2.675-1.143,7.453,2.919,11.8A12.383,12.383,0,0,0,0,34.892V45.271a1.767,1.767,0,0,0,3.533,0V34.892a8.843,8.843,0,0,1,8.833-8.833H25.322a8.807,8.807,0,0,1,8.6,6.788A10.836,10.836,0,0,0,24.954,43.5c.3,2.679-1.142,7.451,2.917,11.8a12.27,12.27,0,0,0-7.485,3.783A10.832,10.832,0,0,0,7.95,69.783c.3,2.675-1.143,7.453,2.919,11.8A12.383,12.383,0,0,0,0,93.854v10.379a1.767,1.767,0,0,0,3.533,0V93.854a8.843,8.843,0,0,1,8.833-8.833H25.322a8.844,8.844,0,0,1,8.834,8.833v10.379a1.767,1.767,0,1,0,3.533,0V93.854a8.843,8.843,0,0,1,8.833-8.833H59.478a8.843,8.843,0,0,1,8.833,8.833v10.379a1.767,1.767,0,0,0,3.533,0V93.854a8.844,8.844,0,0,1,8.834-8.833H93.633a8.843,8.843,0,0,1,8.833,8.833v10.379a1.767,1.767,0,0,0,3.533,0V93.854A12.381,12.381,0,0,0,93.633,81.487ZM45.712,10.821a7.287,7.287,0,1,1,14.575,0v4.417a7.287,7.287,0,1,1-14.575,0Zm17,32.683a7.287,7.287,0,1,1,14.575,0v4.417a7.287,7.287,0,1,1-14.575,0ZM11.483,10.821a7.287,7.287,0,1,1,14.575,0v4.417a7.287,7.287,0,1,1-14.575,0Zm17,32.683a7.287,7.287,0,0,1,14.575,0v4.417a7.287,7.287,0,0,1-14.575,0ZM95.131,22.619c4.055-4.338,2.623-9.171,2.919-11.8a10.821,10.821,0,1,0-21.642,0c.3,2.685-1.138,7.438,2.9,11.779a12.212,12.212,0,0,0-4.049,1.172,1.767,1.767,0,0,0,1.55,3.175c2.428-1.185,2.976-.889,16.823-.889a8.843,8.843,0,0,1,8.833,8.833v10.38a1.767,1.767,0,0,0,3.533,0V34.892A12.383,12.383,0,0,0,95.131,22.619Zm-15.189-11.8a7.287,7.287,0,0,1,14.575,0v4.417a7.287,7.287,0,1,1-14.575,0Z" transform="translate(0 0)"/>
    </g>
  </g>
</svg>
