<svg xmlns="http://www.w3.org/2000/svg" width="32.801" height="32.801" viewBox="0 0 32.801 32.801">
  <g id="clock_1_" data-name="clock (1)" transform="translate(-0.425 -0.425)">
    <circle id="Ellipse_32" data-name="Ellipse 32" cx="16" cy="16" r="16" transform="translate(0.825 0.825)" fill="#ffd54f"/>
    <path id="Path_181" data-name="Path 181" d="M243.65,7.5q-.439,0-.873.023a16.4,16.4,0,0,1,0,32.754q.434.023.873.023a16.4,16.4,0,1,0,0-32.8Z" transform="translate(-226.825 -7.075)" fill="#ef9600"/>
    <circle id="Ellipse_33" data-name="Ellipse 33" cx="12.78" cy="12.78" r="12.78" transform="translate(4.045 4.045)" fill="#fff"/>
    <path id="Path_182" data-name="Path 182" d="M241.127,62.357c-.354,0-.7.015-1.051.043a12.78,12.78,0,0,1,0,25.473c.347.028.7.043,1.051.043a12.78,12.78,0,1,0,0-25.56Z" transform="translate(-224.302 -58.312)" fill="#daf1f4"/>
    <circle id="Ellipse_34" data-name="Ellipse 34" cx="1.321" cy="1.321" r="1.321" transform="translate(15.504 15.504)" fill="#365e7d"/>
    <g id="Group_117" data-name="Group 117" transform="translate(0.425 0.425)">
      <path id="Path_183" data-name="Path 183" d="M248.98,97.615a.481.481,0,0,0,.48-.48v-.705a.48.48,0,1,0-.961,0v.705A.48.48,0,0,0,248.98,97.615Z" transform="translate(-232.58 -89.802)"/>
      <path id="Path_184" data-name="Path 184" d="M349.5,140.94a.48.48,0,0,0-.679,0l-.5.5a.48.48,0,1,0,.679.68l.5-.5A.481.481,0,0,0,349.5,140.94Z" transform="translate(-325.873 -131.779)"/>
      <path id="Path_185" data-name="Path 185" d="M389.708,248.5a.48.48,0,1,0,0,.961h.705a.48.48,0,1,0,0-.961Z" transform="translate(-364.292 -232.581)"/>
      <path id="Path_186" data-name="Path 186" d="M348.421,348.321a.48.48,0,0,0-.679.68l.5.5a.481.481,0,0,0,.68-.68Z" transform="translate(-325.332 -325.874)"/>
      <path id="Path_187" data-name="Path 187" d="M247.683,389.709v.705a.48.48,0,0,0,.961,0v-.705a.48.48,0,1,0-.961,0Z" transform="translate(-231.815 -364.293)"/>
      <path id="Path_188" data-name="Path 188" d="M140.86,347.743l-.5.5a.48.48,0,0,0,.679.68l.5-.5a.48.48,0,0,0-.679-.68Z" transform="translate(-131.237 -325.333)"/>
      <path id="Path_189" data-name="Path 189" d="M96.428,247.684a.48.48,0,1,0,0,.961h.705a.48.48,0,1,0,0-.961Z" transform="translate(-89.801 -231.816)"/>
      <path id="Path_190" data-name="Path 190" d="M142.118,140.861l-.5-.5a.481.481,0,0,0-.68.68l.5.5a.48.48,0,0,0,.68-.679Z" transform="translate(-131.778 -131.238)"/>
      <path id="Path_191" data-name="Path 191" d="M190.653,153.858l3.422,1.76a.481.481,0,1,0,.439-.855L191.093,153a1.763,1.763,0,0,0-1.248-2.044v-4.9a.48.48,0,0,0-.961,0v4.9a1.769,1.769,0,0,0-1.215,1.215h-2.385a.48.48,0,0,0,0,.961h2.385a1.761,1.761,0,0,0,2.983.722Zm-1.288-.4a.8.8,0,1,1,.8-.8A.8.8,0,0,1,189.365,153.458Z" transform="translate(-172.965 -136.255)"/>
      <path id="Path_192" data-name="Path 192" d="M80.149,67.262a.481.481,0,0,0,.442-.516,12.887,12.887,0,1,0,0,1.994.481.481,0,1,0-.958-.073,11.924,11.924,0,1,1,0-1.848A.48.48,0,0,0,80.149,67.262Z" transform="translate(-51.343 -51.343)"/>
      <path id="Path_193" data-name="Path 193" d="M135.151,4.8a16.406,16.406,0,0,0-20.442-2.216.481.481,0,1,0,.519.809,15.437,15.437,0,1,1,3.843,27.782.48.48,0,0,0-.279.92A16.4,16.4,0,0,0,135.151,4.8Z" transform="translate(-107.154)"/>
      <path id="Path_194" data-name="Path 194" d="M10.171,83.768a15.443,15.443,0,0,1-3.6-26.036.48.48,0,0,0-.612-.741A16.4,16.4,0,0,0,9.782,84.647a.481.481,0,0,0,.388-.879Z" transform="translate(0 -53.237)"/>
    </g>
  </g>
</svg>
