<svg xmlns="http://www.w3.org/2000/svg" width="44.167" height="34.674" viewBox="0 0 44.167 34.674">
  <g id="cloud-computing" transform="translate(0 -55.032)">
    <g id="Group_2719" data-name="Group 2719" transform="translate(0 55.032)">
      <g id="Group_2718" data-name="Group 2718" transform="translate(0 0)">
        <path id="Path_393" data-name="Path 393" d="M36.8,66.521A15.181,15.181,0,0,0,6.934,69.115a8.281,8.281,0,0,0,1.38,16.451h6.9v-2.76h-6.9a5.52,5.52,0,1,1,0-11.041,1.38,1.38,0,0,0,1.38-1.38A12.421,12.421,0,0,1,34.3,67.97a1.38,1.38,0,0,0,1.173,1.1,6.9,6.9,0,0,1-.938,13.732h-5.52v2.76h5.52A9.661,9.661,0,0,0,36.8,66.521Z" transform="translate(0 -55.032)" fill="#00a89b"/>
        <path id="Path_394" data-name="Path 394" d="M186.555,249.412l-5.52,5.52,1.946,1.946,3.174-3.16v13.235h2.76V253.718l3.16,3.16,1.946-1.946-5.52-5.52A1.38,1.38,0,0,0,186.555,249.412Z" transform="translate(-165.42 -232.279)" fill="#00a89b"/>
      </g>
    </g>
  </g>
</svg>
