<svg xmlns="http://www.w3.org/2000/svg" width="35.644" height="35.642" viewBox="0 0 35.644 35.642">
  <g id="coupons" transform="translate(0 -0.011)">
    <path id="XMLID_853_" d="M37.276,16.978a2.785,2.785,0,0,1,0-3.939l-2.314-2.314a2.516,2.516,0,0,0-3.557,0L19.625,22.5v2.414H17.211l-6.474,6.474a2.516,2.516,0,0,0,0,3.557l2.314,2.314A2.785,2.785,0,1,1,16.99,41.2l2.3,2.3a2.516,2.516,0,0,0,3.557,0l6.474-6.474V34.617h2.414L43.517,22.838a2.516,2.516,0,0,0,0-3.557l-2.3-2.3a2.785,2.785,0,0,1-3.939,0Z" transform="translate(-9.304 -9.283)" fill="#fff"/>
    <path id="XMLID_1790_" d="M19.624,224.437H17.21l-6.474,6.474a2.516,2.516,0,0,0,0,3.557l2.314,2.314a2.785,2.785,0,0,1,3.939,3.939l2.3,2.3a2.515,2.515,0,0,0,3.557,0l6.474-6.474v-2.414Z" transform="translate(-9.303 -208.801)" fill="#76bffb"/>
    <circle id="XMLID_1760_" cx="1.393" cy="1.393" r="1.393" transform="translate(24.934 11.847)" fill="#fff"/>
    <circle id="XMLID_1759_" cx="1.393" cy="1.393" r="1.393" transform="translate(16.868 12.091)" fill="#fff"/>
    <path id="XMLID_250_" d="M169.156,246.042a.7.7,0,0,0,.492-1.188l-.328-.328a.7.7,0,0,0-.985.985l.328.328A.694.694,0,0,0,169.156,246.042Z" transform="translate(-156.427 -227.302)"/>
    <path id="XMLID_473_" d="M206.705,281.911l-.409-.41a.7.7,0,0,0-.985.985l.41.41a.7.7,0,0,0,.985-.985Z" transform="translate(-190.828 -261.703)"/>
    <path id="XMLID_474_" d="M242.517,318.707a.7.7,0,0,0,0,.985l.459.459a.7.7,0,1,0,.985-.985l-.459-.459A.7.7,0,0,0,242.517,318.707Z" transform="translate(-225.443 -296.319)"/>
    <path id="XMLID_475_" d="M34.7,9.505,32.4,7.2a.7.7,0,0,0-.985,0,2.089,2.089,0,1,1-2.954-2.954.7.7,0,0,0,0-.985L26.15.95a3.216,3.216,0,0,0-4.542,0L9.829,12.73a.7.7,0,0,0-.2.492V14.94H7.907a.7.7,0,0,0-.492.2L.941,21.618a3.212,3.212,0,0,0,0,4.542l2.314,2.314a.7.7,0,0,0,.985,0,2.089,2.089,0,1,1,2.954,2.954.7.7,0,0,0,0,.985l2.3,2.3a3.215,3.215,0,0,0,4.542,0l6.474-6.474a.7.7,0,0,0,.2-.492V26.03h1.718a.7.7,0,0,0,.492-.2l4.21-4.21a.7.7,0,0,0-.985-.985l-4.006,4.006H20.02a.7.7,0,0,0-.7.7V27.46l-6.27,6.27a1.821,1.821,0,0,1-2.573,0L8.622,31.872A3.483,3.483,0,0,0,3.8,27.046L1.925,25.175a1.821,1.821,0,0,1,0-2.573l6.27-6.27h2.125a.7.7,0,0,0,.7-.7V13.51L22.593,1.935a1.821,1.821,0,0,1,2.573,0l1.871,1.871a3.483,3.483,0,0,0,4.825,4.825L33.72,10.49a1.821,1.821,0,0,1,0,2.573L30.58,16.2a.7.7,0,0,0,.985.985l3.14-3.14a3.215,3.215,0,0,0,0-4.542Z" transform="translate(0)"/>
    <path id="XMLID_476_" d="M294.09,131.187a.7.7,0,0,0-.484.857l2.258,8.114a.7.7,0,0,0,1.341-.373l-2.258-8.114A.7.7,0,0,0,294.09,131.187Z" transform="translate(-273.141 -122.019)"/>
    <path id="XMLID_479_" d="M348.768,160.621a2.089,2.089,0,1,0,1.477-.612A2.091,2.091,0,0,0,348.768,160.621Zm1.969,1.969a.7.7,0,1,1,0-.985A.7.7,0,0,1,350.737,162.59Z" transform="translate(-323.918 -148.859)"/>
    <path id="XMLID_866_" d="M235.868,164.138a2.088,2.088,0,1,0,0,2.954A2.075,2.075,0,0,0,235.868,164.138Zm-.985,1.969a.7.7,0,1,1,0-.985A.7.7,0,0,1,234.883,166.107Z" transform="translate(-216.13 -152.131)"/>
    <path id="XMLID_870_" d="M109.448,290.114a.7.7,0,0,0-.985,0l-2.363,2.363a.7.7,0,0,0,.985.985l2.363-2.363A.7.7,0,0,0,109.448,290.114Z" transform="translate(-98.524 -269.716)"/>
    <path id="XMLID_883_" d="M137.71,324.784a.694.694,0,0,0,.492-.2l2.363-2.363a.7.7,0,0,0-.985-.985l-2.363,2.363a.7.7,0,0,0,.492,1.188Z" transform="translate(-127.475 -298.668)"/>
    <path id="XMLID_884_" d="M168.828,355.9a.694.694,0,0,0,.492-.2l2.363-2.363a.7.7,0,0,0-.985-.985l-2.363,2.363a.7.7,0,0,0,.492,1.188Z" transform="translate(-156.427 -327.618)"/>
    <path id="XMLID_984_" d="M405.188,261.479a.7.7,0,1,0,.492.2A.7.7,0,0,0,405.188,261.479Z" transform="translate(-376.331 -243.264)"/>
  </g>
</svg>
