<svg xmlns="http://www.w3.org/2000/svg" width="37.811" height="22.419" viewBox="0 0 37.811 22.419">
  <g id="coupon" transform="translate(0 -104.209)">
    <path id="Path_414" data-name="Path 414" d="M43.019,111.71H8.684A1.184,1.184,0,0,0,7.5,112.894v5.211a.865.865,0,0,0,.4.739,4.135,4.135,0,0,1,0,7.043.865.865,0,0,0-.4.739v5.211a1.184,1.184,0,0,0,1.184,1.184H43.019a1.184,1.184,0,0,0,1.184-1.184V112.894A1.184,1.184,0,0,0,43.019,111.71Z" transform="translate(-6.946 -6.947)" fill="#ffc350"/>
    <path id="Path_415" data-name="Path 415" d="M168.046,153.519h-23.68a.592.592,0,0,1-.592-.592V136.351a.592.592,0,0,1,.592-.592h23.68a.592.592,0,0,1,.592.592v16.576A.592.592,0,0,1,168.046,153.519Z" transform="translate(-133.156 -29.22)" fill="#ffd164"/>
    <path id="Path_416" data-name="Path 416" d="M222.533,178.425l-3.068,1.926a.886.886,0,0,1-1.33-.966l.884-3.514-2.78-2.323a.886.886,0,0,1,.508-1.564l3.615-.245,1.35-3.362a.886.886,0,0,1,1.644,0l1.35,3.362,3.615.245a.886.886,0,0,1,.508,1.564l-2.78,2.323.884,3.514a.886.886,0,0,1-1.33.966Z" transform="translate(-199.974 -58.915)" fill="#fff"/>
    <path id="Path_417" data-name="Path 417" d="M226.546,229.02a10.056,10.056,0,0,1-8.574-5.953l-1.226.083a.886.886,0,0,0-.508,1.564l2.78,2.323-.884,3.514a.886.886,0,0,0,1.33.966l3.068-1.926,3.068,1.926a.886.886,0,0,0,1.33-.966Z" transform="translate(-199.973 -110.08)" fill="#fff6d8"/>
    <path id="Path_418" data-name="Path 418" d="M36.073,104.209H1.738A1.74,1.74,0,0,0,0,105.947v5.211a1.427,1.427,0,0,0,.663,1.21,3.567,3.567,0,0,1,1.7,3.05,3.566,3.566,0,0,1-1.7,3.05A1.427,1.427,0,0,0,0,119.679v5.211a1.74,1.74,0,0,0,1.738,1.738H36.073a1.74,1.74,0,0,0,1.738-1.738V105.947A1.74,1.74,0,0,0,36.073,104.209Zm.63,20.682a.631.631,0,0,1-.63.63H8.8v-.038a.554.554,0,1,0-1.108,0v.038H1.738a.631.631,0,0,1-.63-.63v-5.211a.313.313,0,0,1,.138-.268,4.667,4.667,0,0,0,2.23-3.992,4.667,4.667,0,0,0-2.23-3.992.313.313,0,0,1-.138-.268v-5.211a.631.631,0,0,1,.63-.63H7.7v.038a.554.554,0,0,0,1.108,0v-.038h27.27a.631.631,0,0,1,.63.63Z" transform="translate(0 0)"/>
    <path id="Path_419" data-name="Path 419" d="M104.764,240.484a.554.554,0,0,0-.554.554v1.184a.554.554,0,1,0,1.108,0v-1.184A.554.554,0,0,0,104.764,240.484Z" transform="translate(-96.514 -126.211)"/>
    <path id="Path_420" data-name="Path 420" d="M104.764,144.292a.554.554,0,0,0-.554.554v1.184a.554.554,0,0,0,1.108,0v-1.184A.554.554,0,0,0,104.764,144.292Z" transform="translate(-96.514 -37.123)"/>
    <path id="Path_421" data-name="Path 421" d="M104.764,192.387a.554.554,0,0,0-.554.554v1.184a.554.554,0,0,0,1.108,0v-1.184A.554.554,0,0,0,104.764,192.387Z" transform="translate(-96.514 -81.666)"/>
    <path id="Path_422" data-name="Path 422" d="M104.764,288.581a.554.554,0,0,0-.554.554v1.184a.554.554,0,0,0,1.108,0v-1.184A.554.554,0,0,0,104.764,288.581Z" transform="translate(-96.514 -170.756)"/>
    <path id="Path_423" data-name="Path 423" d="M104.764,336.677a.554.554,0,0,0-.554.554v1.184a.554.554,0,1,0,1.108,0v-1.184A.554.554,0,0,0,104.764,336.677Z" transform="translate(-96.514 -215.3)"/>
    <path id="Path_424" data-name="Path 424" d="M221.417,164.488l-3.268-.222-1.22-3.039a1.44,1.44,0,0,0-2.672,0l-1.221,3.039-3.268.222a1.44,1.44,0,0,0-.826,2.541l2.513,2.1-.8,3.176a1.44,1.44,0,0,0,2.162,1.57l2.774-1.742,2.774,1.741a1.44,1.44,0,0,0,2.162-1.57l-.8-3.176,2.513-2.1a1.44,1.44,0,0,0-.826-2.541Zm.115,1.691-2.78,2.323a.554.554,0,0,0-.182.56l.884,3.514a.332.332,0,0,1-.5.362l-3.068-1.926a.554.554,0,0,0-.589,0l-3.069,1.926a.332.332,0,0,1-.5-.362l.884-3.514a.554.554,0,0,0-.182-.56l-2.78-2.323a.332.332,0,0,1,.19-.586l3.615-.245a.554.554,0,0,0,.476-.346l1.35-3.362a.332.332,0,0,1,.616,0l1.35,3.362a.554.554,0,0,0,.476.346l3.615.245a.332.332,0,0,1,.19.586Z" transform="translate(-193.033 -51.971)"/>
  </g>
</svg>
