<svg id="cubes" xmlns="http://www.w3.org/2000/svg" width="31" height="31" viewBox="0 0 31 31">
  <path id="Path_281" data-name="Path 281" d="M99.412,268.473V258.422A2.422,2.422,0,0,0,96.99,256H91.742a2.422,2.422,0,0,0-2.422,2.422v10.051a2.422,2.422,0,0,0,2.422,2.422H96.99A2.422,2.422,0,0,0,99.412,268.473Zm0,0" transform="translate(-83.912 -240.5)" fill="#ef9600"/>
  <path id="Path_282" data-name="Path 282" d="M345.412,268.473V258.422A2.422,2.422,0,0,0,342.99,256h-5.248a2.422,2.422,0,0,0-2.422,2.422v10.051a2.422,2.422,0,0,0,2.422,2.422h5.248A2.422,2.422,0,0,0,345.412,268.473Zm0,0" transform="translate(-315.018 -240.5)" fill="#72d8ff"/>
  <path id="Path_283" data-name="Path 283" d="M222.412,22.473V12.422A2.422,2.422,0,0,0,219.99,10h-5.248a2.422,2.422,0,0,0-2.422,2.422V22.473a2.422,2.422,0,0,0,2.422,2.422h5.248A2.422,2.422,0,0,0,222.412,22.473Zm0,0" transform="translate(-199.465 -9.395)" fill="#ffd54f"/>
  <path id="Path_284" data-name="Path 284" d="M232.832,87.843a.605.605,0,0,0,0,1.211h1.913a.605.605,0,0,0,0-1.211h-.351V83.605a.606.606,0,0,0-1.127-.308l-.848,1.437a.605.605,0,0,0,.764.862v2.247Zm0,0" transform="translate(-218.166 -77.974)"/>
  <path id="Path_285" data-name="Path 285" d="M102.463,333.844h-1.312a4.725,4.725,0,0,0,1.561-2.96A1.783,1.783,0,0,0,100.828,329a1.886,1.886,0,0,0-1.884,1.884.605.605,0,0,0,1.211,0,.673.673,0,0,1,.673-.673c.6,0,.673.384.673.673,0,1.122-1.711,2.636-2.31,3.078a.606.606,0,0,0,.359,1.093h2.913a.605.605,0,0,0,0-1.211Zm0,0" transform="translate(-92.954 -309.08)"/>
  <path id="Path_286" data-name="Path 286" d="M352.029,329.188h-1.048a.605.605,0,0,0,0,1.211h1.048a.6.6,0,0,1,.089,1.2l-.089,0h-1.048a.605.605,0,0,0,0,1.211h.422a.606.606,0,0,0,.1.009h.522l.089,0a.6.6,0,0,1-.089,1.2h-1.048a.605.605,0,0,0,0,1.211h1.048a3.247,3.247,0,0,0,0-6.032Zm0,0" transform="translate(-329.161 -309.257)"/>
  <path id="Path_287" data-name="Path 287" d="M27.973,14.895H22.946a3.011,3.011,0,0,0,.607-1.816v-2.7a.605.605,0,0,0-1.211,0v2.7a1.818,1.818,0,0,1-1.816,1.816H10.475a1.818,1.818,0,0,1-1.816-1.816V3.027a1.818,1.818,0,0,1,1.816-1.816H20.525a1.818,1.818,0,0,1,1.816,1.816v2.3a.605.605,0,1,0,1.211,0v-2.3A3.031,3.031,0,0,0,20.525,0H10.475A3.031,3.031,0,0,0,7.447,3.027V13.078a3.011,3.011,0,0,0,.607,1.816H3.027A3.031,3.031,0,0,0,0,17.922V27.973A3.031,3.031,0,0,0,3.027,31H13.078A3.024,3.024,0,0,0,15.5,29.787,3.024,3.024,0,0,0,17.922,31H27.973A3.031,3.031,0,0,0,31,27.973V17.922A3.031,3.031,0,0,0,27.973,14.895ZM15.5,16.105l0,0,0,0ZM13.078,29.789H3.027a1.818,1.818,0,0,1-1.816-1.816V17.922a1.818,1.818,0,0,1,1.816-1.816H13.078a1.818,1.818,0,0,1,1.816,1.816V27.973A1.818,1.818,0,0,1,13.078,29.789Zm16.711-1.816a1.818,1.818,0,0,1-1.816,1.816H17.922a1.818,1.818,0,0,1-1.816-1.816V17.922a1.818,1.818,0,0,1,1.816-1.816H27.973a1.818,1.818,0,0,1,1.816,1.816Zm0,0" transform="translate(0)"/>
  <path id="Path_288" data-name="Path 288" d="M369.605,123a.606.606,0,1,0,.428.177A.61.61,0,0,0,369.605,123Zm0,0" transform="translate(-346.658 -115.553)"/>
</svg>
