<svg id="dashboard_1_" data-name="dashboard (1)" xmlns="http://www.w3.org/2000/svg" width="49.333" height="49.333" viewBox="0 0 49.333 49.333">
  <path id="Path_1" data-name="Path 1" d="M19.014,0H3.6A3.6,3.6,0,0,0,0,3.6v9.25a3.6,3.6,0,0,0,3.6,3.6H19.014a3.6,3.6,0,0,0,3.6-3.6V3.6A3.6,3.6,0,0,0,19.014,0Zm0,0" fill="#00a89b"/>
  <path id="Path_2" data-name="Path 2" d="M19.014,213.332H3.6a3.6,3.6,0,0,0-3.6,3.6v21.583a3.6,3.6,0,0,0,3.6,3.6H19.014a3.6,3.6,0,0,0,3.6-3.6V216.929A3.6,3.6,0,0,0,19.014,213.332Zm0,0" transform="translate(0 -192.777)" fill="#00a89b"/>
  <path id="Path_3" data-name="Path 3" d="M296.346,341.332H280.93a3.6,3.6,0,0,0-3.6,3.6v9.25a3.6,3.6,0,0,0,3.6,3.6h15.417a3.6,3.6,0,0,0,3.6-3.6v-9.25A3.6,3.6,0,0,0,296.346,341.332Zm0,0" transform="translate(-250.61 -308.443)" fill="#00a89b"/>
  <path id="Path_4" data-name="Path 4" d="M296.346,0H280.93a3.6,3.6,0,0,0-3.6,3.6V25.18a3.6,3.6,0,0,0,3.6,3.6h15.417a3.6,3.6,0,0,0,3.6-3.6V3.6A3.6,3.6,0,0,0,296.346,0Zm0,0" transform="translate(-250.61)" fill="#00a89b"/>
</svg>
