<svg xmlns="http://www.w3.org/2000/svg" width="30.256" height="30.13" viewBox="0 0 30.256 30.13">
  <g id="calendar_8_" data-name="calendar (8)" transform="translate(0 -1.065)">
    <circle id="Ellipse_31" data-name="Ellipse 31" cx="7.59" cy="7.59" r="7.59" transform="translate(14.63 15.569)" fill="#ffd039"/>
    <path id="Path_165" data-name="Path 165" d="M364.2,246.506q-.376,0-.742.036a7.59,7.59,0,0,1,0,15.108q.366.036.742.036a7.59,7.59,0,1,0,0-15.181Z" transform="translate(-341.985 -230.937)" fill="#ff9610"/>
    <path id="Path_166" data-name="Path 166" d="M31.817,65.718v1.427A1.321,1.321,0,0,1,30.5,68.466h0a1.321,1.321,0,0,1-1.321-1.321V65.718H13.419v1.427A1.321,1.321,0,0,1,12.1,68.466h0a1.321,1.321,0,0,1-1.321-1.321V65.718H7.534V87.235H22.445A7.591,7.591,0,0,1,35.029,79V65.718Z" transform="translate(-7.089 -60.832)" fill="#fff"/>
    <rect id="Rectangle_805" data-name="Rectangle 805" width="27.479" height="1.484" transform="translate(0.461 9.704)" fill="#d8d1d0"/>
    <path id="Path_167" data-name="Path 167" d="M63.719,14.723h0A1.321,1.321,0,0,1,62.4,13.4V9.92A1.321,1.321,0,0,1,63.719,8.6h0A1.321,1.321,0,0,1,65.041,9.92V13.4A1.321,1.321,0,0,1,63.719,14.723Z" transform="translate(-58.711 -7.089)" fill="#ffd039"/>
    <path id="Path_168" data-name="Path 168" d="M75.307,8.6a1.315,1.315,0,0,0-.594.141,1.321,1.321,0,0,1,.728,1.18V13.4a1.321,1.321,0,0,1-.728,1.18,1.321,1.321,0,0,0,1.915-1.18V9.92A1.321,1.321,0,0,0,75.307,8.6Z" transform="translate(-70.298 -7.089)" fill="#f4b008"/>
    <path id="Path_169" data-name="Path 169" d="M375.072,14.723h0a1.321,1.321,0,0,1-1.321-1.321V9.92A1.321,1.321,0,0,1,375.072,8.6h0a1.321,1.321,0,0,1,1.321,1.321V13.4A1.321,1.321,0,0,1,375.072,14.723Z" transform="translate(-351.665 -7.089)" fill="#ffd039"/>
    <path id="Path_170" data-name="Path 170" d="M386.66,8.6h0a1.315,1.315,0,0,0-.594.141,1.321,1.321,0,0,1,.728,1.18V13.4a1.321,1.321,0,0,1-.728,1.18,1.315,1.315,0,0,0,.594.141h0a1.321,1.321,0,0,0,1.321-1.321V9.92A1.321,1.321,0,0,0,386.66,8.6Z" transform="translate(-363.252 -7.089)" fill="#f4b008"/>
    <g id="Group_116" data-name="Group 116" transform="translate(4.89 12.7)">
      <rect id="Rectangle_806" data-name="Rectangle 806" width="2.868" height="2.868" fill="#465a65"/>
      <rect id="Rectangle_807" data-name="Rectangle 807" width="2.868" height="2.868" transform="translate(5.256)" fill="#465a65"/>
      <rect id="Rectangle_808" data-name="Rectangle 808" width="2.868" height="2.868" transform="translate(10.512)" fill="#465a65"/>
      <rect id="Rectangle_809" data-name="Rectangle 809" width="2.868" height="2.868" transform="translate(15.768)" fill="#465a65"/>
      <rect id="Rectangle_810" data-name="Rectangle 810" width="2.868" height="2.868" transform="translate(0 6.158)" fill="#465a65"/>
      <rect id="Rectangle_811" data-name="Rectangle 811" width="2.868" height="2.868" transform="translate(5.256 6.158)" fill="#465a65"/>
    </g>
    <path id="Path_171" data-name="Path 171" d="M32.061,65.718v1.427a1.321,1.321,0,0,1-1.321,1.321h0a1.321,1.321,0,0,1-1.321-1.321V65.718H13.662v1.427a1.321,1.321,0,0,1-1.321,1.321h0a1.321,1.321,0,0,1-1.321-1.321V65.718H7.793v4.819H35.288V65.718Z" transform="translate(-7.332 -60.832)" fill="#76bffb"/>
    <rect id="Rectangle_812" data-name="Rectangle 812" width="27.495" height="1.484" transform="translate(0.461 8.22)" fill="#0d92ff"/>
    <path id="Path_172" data-name="Path 172" d="M310.9,328.619a.913.913,0,0,1-.645-.267l-2.075-2.075a.912.912,0,0,1,1.29-1.29l1.43,1.43,3.5-3.5a.912.912,0,1,1,1.29,1.29l-4.15,4.15A.912.912,0,0,1,310.9,328.619Z" transform="translate(-289.714 -302.577)" fill="#00b76c"/>
    <path id="Path_173" data-name="Path 173" d="M303.82,321.987a1.349,1.349,0,0,0,.96-.4l4.15-4.15a1.358,1.358,0,0,0-1.92-1.92l-3.19,3.19-1.115-1.115a1.358,1.358,0,1,0-1.92,1.92l2.075,2.075A1.348,1.348,0,0,0,303.82,321.987Zm-2.542-3.432a.467.467,0,0,1,.8-.33l1.43,1.43a.445.445,0,0,0,.63,0l3.5-3.5a.467.467,0,1,1,.661.661l-4.15,4.15a.467.467,0,0,1-.661,0l-2.075-2.075A.465.465,0,0,1,301.278,318.554Z" transform="translate(-282.637 -295.499)"/>
    <path id="Path_174" data-name="Path 174" d="M28.385,196.188v-3.53a.445.445,0,1,0-.89,0v2.617a8.04,8.04,0,0,0-1.965-1.26l-.08-.035-.081-.036-.143-.059-.018-.008a7.965,7.965,0,0,0-1.236-.383v-2.616a.445.445,0,0,0-.445-.445H20.658a.445.445,0,0,0-.445.445v2.675a7.986,7.986,0,0,0-3.692,2.12.445.445,0,0,0,.632.628,7.1,7.1,0,0,1,5.068-2.109l.19,0h.033l.159.006.025,0,.168.011h.012a7.14,7.14,0,0,1,2.362.613l.076.036.078.037.136.068.013.007a7.145,7.145,0,1,1-10.361,7.092v-.005q-.009-.085-.015-.17c0-.012,0-.025,0-.037,0-.048-.007-.1-.009-.143,0-.027,0-.054,0-.081s0-.069,0-.1q0-.095,0-.19a7.132,7.132,0,0,1,1.035-3.707.445.445,0,1,0-.761-.463,8.021,8.021,0,0,0-1.165,4.169c0,.066,0,.132,0,.2,0,.015,0,.03,0,.045,0,.052,0,.1.006.157,0,.013,0,.025,0,.038q0,.086.011.172v.017a7.927,7.927,0,0,0,.477,2.173H.89v-7.2a.445.445,0,1,0-.89,0v7.643a.445.445,0,0,0,.445.445H15.083a8.034,8.034,0,1,0,13.3-8.837Zm-5.3-2.888H21.1v-1.978h1.978Z" transform="translate(0 -178.177)"/>
    <path id="Path_175" data-name="Path 175" d="M78.973,190.877a.445.445,0,0,0-.445-.445H75.659a.445.445,0,0,0-.445.445v2.868a.445.445,0,0,0,.445.445h2.868a.445.445,0,0,0,.445-.445Zm-.89,2.423H76.1v-1.978h1.978S78.082,193.3,78.082,193.3Z" transform="translate(-70.769 -178.177)"/>
    <path id="Path_176" data-name="Path 176" d="M167.916,190.877a.445.445,0,0,0-.445-.445H164.6a.445.445,0,0,0-.445.445v2.868a.445.445,0,0,0,.445.445h2.868a.445.445,0,0,0,.445-.445Zm-.89,2.423h-1.978v-1.978h1.978Z" transform="translate(-154.456 -178.177)"/>
    <path id="Path_177" data-name="Path 177" d="M253.547,190.432a.445.445,0,0,0-.445.445v2.868a.445.445,0,0,0,.445.445h2.868a.445.445,0,0,0,.445-.445v-2.868a.445.445,0,0,0-.445-.445Zm2.423,2.868h-1.978v-1.978h1.978Z" transform="translate(-238.145 -178.177)"/>
    <path id="Path_178" data-name="Path 178" d="M78.528,294.639H75.659a.445.445,0,0,0-.445.445v2.868a.445.445,0,0,0,.445.445h2.868a.445.445,0,0,0,.445-.445v-2.868A.445.445,0,0,0,78.528,294.639Zm-.445,2.868H76.1v-1.978h1.978S78.082,297.507,78.082,297.507Z" transform="translate(-70.769 -276.226)"/>
    <path id="Path_179" data-name="Path 179" d="M167.472,294.639H164.6a.445.445,0,0,0-.445.445v2.868a.445.445,0,0,0,.445.445h2.868a.445.445,0,0,0,.445-.445v-2.868A.445.445,0,0,0,167.472,294.639Zm-.445,2.868h-1.978v-1.978h1.978Z" transform="translate(-154.457 -276.226)"/>
    <path id="Path_180" data-name="Path 180" d="M.445,17.424a.445.445,0,0,0,.445-.445v-6.83h26.6V12.7a.445.445,0,0,0,.89,0V9.818A.444.444,0,0,0,28.4,9.7V4.886a.445.445,0,0,0-.445-.445H25.174V2.832a1.767,1.767,0,1,0-3.533,0V4.44H6.775V2.832a1.767,1.767,0,1,0-3.533,0V4.44H.445A.445.445,0,0,0,0,4.886V16.979A.445.445,0,0,0,.445,17.424ZM22.531,2.832h0a.876.876,0,1,1,1.752,0h0V6.313a.876.876,0,1,1-1.752,0V2.832Zm-18.4,0h0a.876.876,0,1,1,1.752,0h0V6.313a.876.876,0,1,1-1.752,0ZM.906,5.331H3.242v.982a1.767,1.767,0,1,0,3.533,0V5.331H21.641v.982a1.767,1.767,0,1,0,3.533,0V5.331H27.5V9.259H.906Z"/>
  </g>
</svg>
