<svg xmlns="http://www.w3.org/2000/svg" width="25.886" height="24.761" viewBox="0 0 25.886 24.761">
  <g id="email_3_" data-name="email (3)" transform="translate(0 -11.12)">
    <path id="Path_129" data-name="Path 129" d="M35.279,12.279l-9.465,6.843-1.553,1.125a2.33,2.33,0,0,1-2.769,0l-1.553-1.125L10.463,12.29a2.8,2.8,0,0,1,2.285-1.17H33.006A2.81,2.81,0,0,1,35.279,12.279Z" transform="translate(-9.934)" fill="#ffd54f"/>
    <g id="Group_104" data-name="Group 104" transform="translate(0 12.279)">
      <path id="Path_130" data-name="Path 130" d="M.529,34.271,10.005,41.1.821,50.286A2.814,2.814,0,0,1,0,48.294V35.914A2.776,2.776,0,0,1,.529,34.271Z" transform="translate(0 -34.26)" fill="#ffc107"/>
      <path id="Path_131" data-name="Path 131" d="M324.106,35.7v12.38a2.814,2.814,0,0,1-.822,1.992L314.1,40.891l9.465-6.843A2.8,2.8,0,0,1,324.106,35.7Z" transform="translate(-298.221 -34.048)" fill="#ffc107"/>
    </g>
    <path id="Path_132" data-name="Path 132" d="M143.694,263.867c-.747,0-1.125-.563-1.125-1.688a2.847,2.847,0,1,0-.685,1.82,2.006,2.006,0,0,0,1.811.994c2.251,0,2.251-2.118,2.251-2.814a6.19,6.19,0,1,0-1.886,4.448.565.565,0,1,0-.788-.809h0a5.065,5.065,0,1,1,1.549-3.64C144.82,263.441,144.536,263.867,143.694,263.867Zm-3.939,0a1.688,1.688,0,1,1,1.688-1.688A1.689,1.689,0,0,1,139.755,263.867Z" transform="translate(-126.813 -232.489)" fill="#455a64"/>
    <path id="Path_133" data-name="Path 133" d="M31.31,169.4l-1.553,1.125a2.33,2.33,0,0,1-2.769,0L25.435,169.4l-9.184,9.184a2.814,2.814,0,0,0,1.992.822h2.842a7.308,7.308,0,0,1,14.574,0H38.5a2.814,2.814,0,0,0,1.992-.822Z" transform="translate(-15.43 -150.273)" fill="#ffa000"/>
    <path id="Path_134" data-name="Path 134" d="M23.072,29.127H20.821a.563.563,0,1,1,0-1.125h2.251a1.69,1.69,0,0,0,1.688-1.688V13.934a1.69,1.69,0,0,0-1.688-1.688H2.814a1.69,1.69,0,0,0-1.688,1.688v12.38A1.69,1.69,0,0,0,2.814,28H5.065a.563.563,0,0,1,0,1.125H2.814A2.818,2.818,0,0,1,0,26.314V13.934A2.818,2.818,0,0,1,2.814,11.12H23.072a2.816,2.816,0,0,1,2.814,2.814v12.38A2.817,2.817,0,0,1,23.072,29.127Z" transform="translate(0 0)"/>
    <path id="Path_135" data-name="Path 135" d="M55.214,63.515a2.907,2.907,0,0,1-1.719-.564l-8.74-6.313a.563.563,0,0,1,.658-.913l8.745,6.315a1.778,1.778,0,0,0,2.108,0l8.746-6.317a.563.563,0,0,1,.66.912l-8.745,6.315A2.892,2.892,0,0,1,55.214,63.515Z" transform="translate(-42.271 -42.25)"/>
    <path id="Path_136" data-name="Path 136" d="M45.08,195.976a.562.562,0,0,1-.4-.96l5.627-5.627a.563.563,0,0,1,.8.8l-5.627,5.627A.561.561,0,0,1,45.08,195.976Z" transform="translate(-42.267 -169.1)"/>
    <path id="Path_137" data-name="Path 137" d="M340.1,195.975a.565.565,0,0,1-.4-.164l-5.627-5.627a.563.563,0,0,1,.8-.8l5.627,5.627a.562.562,0,0,1-.4.96Z" transform="translate(-317.027 -169.099)"/>
    <path id="Path_138" data-name="Path 138" d="M139.828,268.395h-.1a6.191,6.191,0,1,1,6.291-6.19.563.563,0,1,1-1.125,0,5.066,5.066,0,0,0-4.982-5.063,5.173,5.173,0,0,0-3.6,1.426,5.064,5.064,0,0,0,3.439,8.7,4.923,4.923,0,0,0,3.6-1.425.563.563,0,1,1,.782.809A6.144,6.144,0,0,1,139.828,268.395Z" transform="translate(-126.882 -232.514)"/>
    <path id="Path_139" data-name="Path 139" d="M203.162,328.4a2.814,2.814,0,1,1,2.814-2.814A2.818,2.818,0,0,1,203.162,328.4Zm0-4.5a1.688,1.688,0,1,0,1.688,1.688A1.69,1.69,0,0,0,203.162,323.9Z" transform="translate(-190.219 -295.896)"/>
    <path id="Path_140" data-name="Path 140" d="M291.642,370.67c-1.409,0-2.251-1.052-2.251-2.814a.563.563,0,0,1,1.125,0c0,1.12.379,1.688,1.125,1.688.842,0,1.125-.427,1.125-1.688a.563.563,0,0,1,1.125,0C293.893,368.552,293.893,370.67,291.642,370.67Z" transform="translate(-274.76 -338.167)"/>
  </g>
</svg>
