<svg id="email_3_" data-name="email (3)" xmlns="http://www.w3.org/2000/svg" width="41.885" height="40.065" viewBox="0 0 41.885 40.065">
  <path id="Path_129" data-name="Path 129" d="M50.618,13,35.3,24.067l-2.513,1.821a3.77,3.77,0,0,1-4.48,0L25.8,24.067,10.463,13.014a4.524,4.524,0,0,1,3.7-1.894H46.939A4.547,4.547,0,0,1,50.618,13Z" transform="translate(-9.607 -11.12)" fill="#ffd54f"/>
  <g id="Group_104" data-name="Group 104" transform="translate(0 1.876)">
    <path id="Path_130" data-name="Path 130" d="M.856,34.271,16.189,45.325,1.329,60.185A4.553,4.553,0,0,1,0,56.962V36.93A4.492,4.492,0,0,1,.856,34.271Z" transform="translate(0 -34.253)" fill="#ffc107"/>
    <path id="Path_131" data-name="Path 131" d="M330.29,36.725V56.757a4.554,4.554,0,0,1-1.329,3.223L314.1,45.12l15.315-11.072A4.53,4.53,0,0,1,330.29,36.725Z" transform="translate(-288.406 -34.048)" fill="#ffc107"/>
  </g>
  <path id="Path_132" data-name="Path 132" d="M149.955,268.737c-1.209,0-1.821-.911-1.821-2.732a4.607,4.607,0,1,0-1.109,2.945,3.246,3.246,0,0,0,2.93,1.608c3.642,0,3.642-3.427,3.642-4.553a10.016,10.016,0,1,0-3.052,7.2.914.914,0,0,0-1.275-1.309h0A8.2,8.2,0,1,1,151.776,266C151.776,268.046,151.317,268.737,149.955,268.737Zm-6.374,0A2.732,2.732,0,1,1,146.313,266,2.733,2.733,0,0,1,143.581,268.737Z" transform="translate(-122.639 -235.957)" fill="#455a64"/>
  <path id="Path_133" data-name="Path 133" d="M40.617,169.4,38.1,171.216a3.77,3.77,0,0,1-4.48,0L31.111,169.4l-14.86,14.86a4.553,4.553,0,0,0,3.223,1.329h4.6a11.824,11.824,0,0,1,23.581,0h4.6a4.553,4.553,0,0,0,3.223-1.329Z" transform="translate(-14.922 -156.447)" fill="#ffa000"/>
  <path id="Path_134" data-name="Path 134" d="M37.332,40.257H33.69a.911.911,0,1,1,0-1.821h3.642A2.735,2.735,0,0,0,40.064,35.7V15.673a2.735,2.735,0,0,0-2.732-2.732H4.553a2.734,2.734,0,0,0-2.732,2.732V35.7a2.735,2.735,0,0,0,2.732,2.732H8.195a.911.911,0,1,1,0,1.821H4.553A4.559,4.559,0,0,1,0,35.7V15.673A4.559,4.559,0,0,1,4.553,11.12H37.332a4.557,4.557,0,0,1,4.553,4.553V35.7A4.558,4.558,0,0,1,37.332,40.257Z" transform="translate(0 -11.12)"/>
  <path id="Path_135" data-name="Path 135" d="M61.823,68.4a4.7,4.7,0,0,1-2.781-.912L44.9,57.269a.911.911,0,0,1,1.065-1.477L60.115,66.01a2.877,2.877,0,0,0,3.411,0L77.678,55.792a.91.91,0,0,1,1.067,1.475L64.6,67.485A4.68,4.68,0,0,1,61.823,68.4Z" transform="translate(-40.879 -51.979)"/>
  <path id="Path_136" data-name="Path 136" d="M45.428,200.149a.91.91,0,0,1-.645-1.553l9.105-9.105a.91.91,0,0,1,1.287,1.287l-9.105,9.105A.907.907,0,0,1,45.428,200.149Z" transform="translate(-40.875 -174.654)"/>
  <path id="Path_137" data-name="Path 137" d="M343.925,200.148a.915.915,0,0,1-.645-.266l-9.105-9.105a.91.91,0,0,1,1.287-1.287l9.105,9.105a.91.91,0,0,1-.643,1.553Z" transform="translate(-306.593 -174.653)"/>
  <path id="Path_138" data-name="Path 138" d="M143.654,276.046c-.056,0-.113,0-.169,0a10.017,10.017,0,1,1,10.18-10.016.91.91,0,1,1-1.821,0,8.2,8.2,0,0,0-8.062-8.193,8.37,8.37,0,0,0-5.833,2.307,8.194,8.194,0,0,0,5.565,14.081,7.967,7.967,0,0,0,5.833-2.306.91.91,0,0,1,1.266,1.309A9.941,9.941,0,0,1,143.654,276.046Z" transform="translate(-122.706 -235.981)"/>
  <path id="Path_139" data-name="Path 139" d="M204.9,331.877a4.553,4.553,0,1,1,4.553-4.553A4.559,4.559,0,0,1,204.9,331.877Zm0-7.284a2.732,2.732,0,1,0,2.732,2.732A2.735,2.735,0,0,0,204.9,324.593Z" transform="translate(-183.958 -297.277)"/>
  <path id="Path_140" data-name="Path 140" d="M293.033,372.757c-2.28,0-3.642-1.7-3.642-4.553a.911.911,0,0,1,1.821,0c0,1.812.614,2.732,1.821,2.732,1.362,0,1.821-.69,1.821-2.732a.911.911,0,0,1,1.821,0C296.675,369.33,296.675,372.757,293.033,372.757Z" transform="translate(-265.717 -338.157)"/>
</svg>
