<svg id="upgrade" xmlns="http://www.w3.org/2000/svg" width="38" height="38" viewBox="0 0 38 38">
  <g id="Group_3127" data-name="Group 3127">
    <path id="Path_34682" data-name="Path 34682" d="M19,38A19.18,19.18,0,0,1,0,19,19.18,19.18,0,0,1,19,0,19.18,19.18,0,0,1,38,19,19.18,19.18,0,0,1,19,38ZM19,2.6A16.4,16.4,0,1,0,35.4,19,16.421,16.421,0,0,0,19,2.6Z" fill="#00a89b"/>
  </g>
  <g id="Group_3131" data-name="Group 3131" transform="translate(11.269 5.218)">
    <g id="Group_3128" data-name="Group 3128">
      <path id="Path_34683" data-name="Path 34683" d="M149.4,83.417h-5.79a1.3,1.3,0,0,1-1.3-1.39V75.311h-2.243a1.316,1.316,0,0,1-1.023-2.1l6.561-8.38a1.339,1.339,0,0,1,2.143-.065L154,73.24a1.319,1.319,0,0,1-1.046,2.07H150.7v6.717A1.3,1.3,0,0,1,149.4,83.417Zm-4.491-2.6H148.1c0-2.274,0-6.748,0-6.808a1.3,1.3,0,0,1,1.3-1.3h.981l-3.709-5.029-3.937,5.029h.875a1.3,1.3,0,0,1,1.3,1.3S144.909,78.529,144.909,80.819Z" transform="translate(-138.78 -64.258)" fill="#00a89b"/>
    </g>
    <g id="Group_3129" data-name="Group 3129" transform="translate(3.813 20.774)">
      <path id="Path_34684" data-name="Path 34684" d="M185.743,320.106h7.837v2.6h-7.837Z" transform="translate(-185.743 -320.106)" fill="#00a89b"/>
    </g>
    <g id="Group_3130" data-name="Group 3130" transform="translate(4.837 24.988)">
      <path id="Path_34685" data-name="Path 34685" d="M198.345,372h5.79v2.6h-5.79Z" transform="translate(-198.345 -372)" fill="#00a89b"/>
    </g>
  </g>
</svg>
