<svg xmlns="http://www.w3.org/2000/svg" width="50.712" height="45.307" viewBox="0 0 50.712 45.307">
  <g id="holding-hands" transform="translate(0 -26.892)">
    <path id="Path_647" data-name="Path 647" d="M126.8,120.484l-2.1,2.1a4.593,4.593,0,0,0-1.311,2.927,5.8,5.8,0,0,1-1.548,3.127L105.56,144.918a2.26,2.26,0,1,1-3.2-3.2l-1.6,1.6a2.26,2.26,0,0,1-3.2-3.2,2.26,2.26,0,0,1-3.2-3.2,2.157,2.157,0,0,1-3.2,0,2.18,2.18,0,0,1,0-3.2l12.04-12.04,1.421-1.421-1.6-1.6,4.115-4.116a9.056,9.056,0,0,1,1.564-1.278,3.4,3.4,0,0,1,1.889-.606,3.591,3.591,0,0,0,2.893-1.265h0l2.108-2.107Z" transform="translate(-81.389 -74.125)" fill="#ffeee6"/>
    <path id="Path_648" data-name="Path 648" d="M116.518,111.405h0a3.591,3.591,0,0,1-2.893,1.265c-1.253-.054-2.57,1-3.453,1.884l-4.115,4.116,1.6,1.6L94.194,133.731a2.18,2.18,0,0,0,0,3.2c.027.027.054.054.082.079a2.127,2.127,0,0,1-3.1-.079,2.18,2.18,0,0,1,0-3.2L104.64,120.27l-1.6-1.6,4.115-4.116c.883-.883,2.2-1.939,3.453-1.884a3.591,3.591,0,0,0,2.893-1.265h0l2.108-2.107,1.507,1.507Z" transform="translate(-81.389 -74.125)" fill="#ffdfcf"/>
    <path id="Path_649" data-name="Path 649" d="M128.24,384.307l.1-.079c-.027.032-.053.065-.079.1Z" transform="translate(-115.352 -321.425)" fill="#ffeee6"/>
    <path id="Path_650" data-name="Path 650" d="M160.12,416.1l.09-.073c-.024.029-.048.058-.07.088Z" transform="translate(-144.028 -350.03)" fill="#ffeee6"/>
    <path id="Path_651" data-name="Path 651" d="M350.929,79.487l1.718-1.718a1.758,1.758,0,0,0,0-2.485L341.806,64.422a1.758,1.758,0,0,0-2.487,0l-1.728,1.728a1.758,1.758,0,0,0,0,2.486l10.852,10.853A1.758,1.758,0,0,0,350.929,79.487Z" transform="translate(-303.202 -33.294)" fill="#ffba75"/>
    <path id="Path_652" data-name="Path 652" d="M351.194,79.223l-.264.264a1.758,1.758,0,0,1-2.486,0L337.592,68.635a1.758,1.758,0,0,1,0-2.486l1.728-1.728a1.759,1.759,0,0,1,2.487,0l.263.263-1.463,1.463a1.758,1.758,0,0,0,0,2.486Z" transform="translate(-303.202 -33.295)" fill="#fca651"/>
    <path id="Path_653" data-name="Path 653" d="M336.317,305.137l.026-.026a2.242,2.242,0,0,0,0-3.17l-3.222-3.222a2.242,2.242,0,0,0-3.17,0l-.026.026a2.242,2.242,0,0,0,0,3.17l3.222,3.222A2.241,2.241,0,0,0,336.317,305.137Z" transform="translate(-296.178 -243.919)" fill="#ffcebf"/>
    <path id="Path_654" data-name="Path 654" d="M335.737,305.563a2.244,2.244,0,0,1-2.591-.419l-3.222-3.222a2.241,2.241,0,0,1,0-3.17l.026-.026a2.241,2.241,0,0,1,2.59-.418,2.2,2.2,0,0,0-.58.418l-.026.026a2.241,2.241,0,0,0,0,3.17l3.222,3.222A2.217,2.217,0,0,0,335.737,305.563Z" transform="translate(-296.177 -243.926)" fill="#ffb09e"/>
    <path id="Path_655" data-name="Path 655" d="M304.515,336.941l.026-.026a2.242,2.242,0,0,0,0-3.17l-3.222-3.222a2.242,2.242,0,0,0-3.17,0l-.026.026a2.242,2.242,0,0,0,0,3.17l3.222,3.222A2.242,2.242,0,0,0,304.515,336.941Z" transform="translate(-267.572 -272.527)" fill="#ffcebf"/>
    <path id="Path_656" data-name="Path 656" d="M303.937,337.363a2.244,2.244,0,0,1-2.591-.419l-3.222-3.222a2.241,2.241,0,0,1,0-3.17l.026-.026a2.241,2.241,0,0,1,2.59-.418,2.2,2.2,0,0,0-.58.418l-.026.026a2.241,2.241,0,0,0,0,3.17l3.222,3.222A2.217,2.217,0,0,0,303.937,337.363Z" transform="translate(-267.573 -272.531)" fill="#ffb09e"/>
    <path id="Path_657" data-name="Path 657" d="M272.713,368.741l.026-.026a2.242,2.242,0,0,0,0-3.17l-3.222-3.222a2.242,2.242,0,0,0-3.17,0l-.026.026a2.242,2.242,0,0,0,0,3.17l3.222,3.222A2.242,2.242,0,0,0,272.713,368.741Z" transform="translate(-238.966 -301.131)" fill="#ffcebf"/>
    <path id="Path_658" data-name="Path 658" d="M272.136,369.163a2.24,2.24,0,0,1-2.59-.419l-3.222-3.221a2.242,2.242,0,0,1,0-3.171l.026-.026a2.241,2.241,0,0,1,2.59-.418,2.2,2.2,0,0,0-.58.418l-.026.026a2.242,2.242,0,0,0,0,3.171l3.222,3.221A2.23,2.23,0,0,0,272.136,369.163Z" transform="translate(-238.969 -301.135)" fill="#ffb09e"/>
    <path id="Path_659" data-name="Path 659" d="M240.911,400.543l.026-.026a2.242,2.242,0,0,0,0-3.17l-3.222-3.222a2.242,2.242,0,0,0-3.17,0l-.026.026a2.242,2.242,0,0,0,0,3.17l3.222,3.222A2.242,2.242,0,0,0,240.911,400.543Z" transform="translate(-210.36 -329.738)" fill="#ffcebf"/>
    <path id="Path_660" data-name="Path 660" d="M240.336,400.964a2.241,2.241,0,0,1-2.59-.418l-3.222-3.222a2.242,2.242,0,0,1,0-3.171l.025-.025a2.241,2.241,0,0,1,2.591-.419,2.216,2.216,0,0,0-.581.419l-.025.025a2.242,2.242,0,0,0,0,3.171l3.222,3.222A2.25,2.25,0,0,0,240.336,400.964Z" transform="translate(-210.365 -329.74)" fill="#ffb09e"/>
    <path id="Path_661" data-name="Path 661" d="M228.369,158.155a4.928,4.928,0,0,1-8.4,3.481l-2.9-2.9-1.421-1.422,1.421-1.421-1.6-1.6,4.115-4.116a9.055,9.055,0,0,1,1.564-1.278l5.777,5.777A4.888,4.888,0,0,1,228.369,158.155Z" transform="translate(-193.816 -109.745)" fill="#ffdfcf"/>
    <path id="Path_662" data-name="Path 662" d="M86.019,148.591l-2.074-2.074a5.721,5.721,0,0,1-1.261-2.028,3.135,3.135,0,0,1-.19-.992,3.752,3.752,0,0,0-1.3-2.928l11.173-11.2a4.094,4.094,0,0,0,2.9,1.3,5,5,0,0,1,3.049,1.451l6.409,6.409a2.91,2.91,0,0,1-4.115,4.116l-4.322-4.322Z" transform="translate(-73.032 -92.179)" fill="#ffcebf"/>
    <path id="Path_663" data-name="Path 663" d="M94.231,130.518,85.9,138.872a2.971,2.971,0,0,0-.64,3.184,4.694,4.694,0,0,1,.251,1.439,3.135,3.135,0,0,0,.19.992,5.721,5.721,0,0,0,1.261,2.028l.567.567-1.507,1.507-2.074-2.074a5.721,5.721,0,0,1-1.261-2.028,3.135,3.135,0,0,1-.19-.992,3.752,3.752,0,0,0-1.3-2.928l11.173-11.2A4.513,4.513,0,0,0,94.231,130.518Z" transform="translate(-73.031 -92.178)" fill="#ffb09e"/>
    <path id="Path_664" data-name="Path 664" d="M224.954,198.041a2.944,2.944,0,0,1-3.566-.429l-5.92-5.92,1.01-1.01a.7.7,0,0,1,.995,0l6.93,6.93A2.9,2.9,0,0,0,224.954,198.041Z" transform="translate(-193.814 -147.144)" fill="#ffb09e"/>
    <path id="Path_665" data-name="Path 665" d="M20.841,55.8l4.215,4.216L11.718,73.354,7.5,69.139Z" transform="translate(-6.748 -26.003)" fill="#80b6fc"/>
    <path id="Path_666" data-name="Path 666" d="M12.647,71.269l.576.576-1.507,1.507L7.5,69.137,20.839,55.8l1.507,1.507-9.7,9.7A3.015,3.015,0,0,0,12.647,71.269Z" transform="translate(-6.746 -26.001)" fill="#65a7ef"/>
    <path id="Path_667" data-name="Path 667" d="M0,0H2.981V15.819H0Z" transform="translate(17.231 35.087) rotate(45)" fill="#bed9fd"/>
    <path id="Path_668" data-name="Path 668" d="M225.075,36.169a1.777,1.777,0,0,0-3.425-.665A1.777,1.777,0,0,0,220,34.392a1.833,1.833,0,0,0-1.777,1.777,1.8,1.8,0,0,0,.511,1.247l2.914,2.908,2.914-2.908a1.829,1.829,0,0,0,.511-1.247Z" transform="translate(-196.292 -6.746)" fill="#ff9fb6"/>
    <path id="Path_669" data-name="Path 669" d="M220.748,37.412l1.909,1.905-1,1-2.914-2.908a1.8,1.8,0,0,1-.511-1.246A1.833,1.833,0,0,1,220,34.388a1.774,1.774,0,0,1,1.017.32,1.986,1.986,0,0,0-.784,1.458A1.8,1.8,0,0,0,220.748,37.412Z" transform="translate(-196.293 -6.743)" fill="#f77ca9"/>
    <g id="Group_2959" data-name="Group 2959" transform="translate(0 26.892)">
      <path id="Path_670" data-name="Path 670" d="M49.98,60.711,47.172,57.9a.754.754,0,0,0-1.067,1.065l2.808,2.812a1.007,1.007,0,0,1,0,1.42l-1.719,1.718a1,1,0,0,1-1.42,0L34.922,54.061a1,1,0,0,1,0-1.42l1.727-1.727a1.006,1.006,0,0,1,1.421,0l5.714,5.725a.754.754,0,0,0,1.067-1.065l-5.714-5.725a2.516,2.516,0,0,0-3.554,0l-1.727,1.728a2.535,2.535,0,0,0-.557,2.709c-.578.577-1.178,1.137-1.735,1.734a2.848,2.848,0,0,1-2.328,1.029,5.154,5.154,0,0,0-3.453,1.589,5.738,5.738,0,0,0-3.543-1.644,3.425,3.425,0,0,1-2.369-1.074L18.3,54.342l.543-.543a.754.754,0,0,0,0-1.066l-4.215-4.216a.754.754,0,0,0-1.066,0L10.977,51.1a.754.754,0,0,0,1.066,1.066l2.05-2.05,3.149,3.15L4.97,65.538,1.82,62.389l7.9-7.9a.754.754,0,0,0-1.066-1.066L.221,61.857a.754.754,0,0,0,0,1.066l4.216,4.215a.754.754,0,0,0,1.066,0l.543-.543L7.62,68.168h0A3.013,3.013,0,0,1,8.707,70.6a5.466,5.466,0,0,0,1.672,3.525l1.541,1.541s-2.7,2.7-2.71,2.715a2.918,2.918,0,0,0,.046,4.209,2.81,2.81,0,0,0,2.321.923,3.063,3.063,0,0,0,3.2,3.148,3.039,3.039,0,0,0,4.872,2.557A3.04,3.04,0,0,0,24.7,90.58l1.065-1.065,1.078,1.078a3.048,3.048,0,0,0,5.133-2.325,3.046,3.046,0,0,0,3.2-3.2,3.055,3.055,0,0,0,3.194-3.2A3.037,3.037,0,0,0,40.7,76.743L39.62,75.665,40.987,74.3a6.553,6.553,0,0,0,1.759-3.539,3.865,3.865,0,0,1,1.1-2.516l1.706-1.707a2.537,2.537,0,0,0,2.708-.556l1.719-1.718a2.518,2.518,0,0,0,0-3.551Zm-32.749-5.3,1.036,1.036L8.154,66.57,7.112,65.529Zm6.407,34.105a1.506,1.506,0,1,1-2.1-2.159l1.317-1.317a2.976,2.976,0,0,0,.771,1.333L24.7,88.449Zm6.4-.012a1.578,1.578,0,0,1-2.129.025L24.692,86.3c-1.325-1.326.743-3.517,2.13-2.13L30.044,87.4A1.49,1.49,0,0,1,30.043,89.5Zm1.067-3.171-3.222-3.222c-1.326-1.326.743-3.517,2.13-2.13L33.24,84.2C34.5,85.486,32.526,87.7,31.11,86.331Zm5.327-3.222a1.493,1.493,0,0,1-2.131.026l-3.222-3.222c-1.343-1.343.788-3.472,2.13-2.13L36.436,81a1.6,1.6,0,0,1,0,2.1Zm3.2-3.2a1.492,1.492,0,0,1-2.13.026L34.28,76.717h0a1.489,1.489,0,0,1,0-2.1,1.578,1.578,0,0,1,2.131-.026l3.222,3.222a1.49,1.49,0,0,1,0,2.1ZM42.78,67.177a5.357,5.357,0,0,0-1.523,3.341,5.089,5.089,0,0,1-1.336,2.713L38.554,74.6l-1.078-1.078a3.065,3.065,0,0,0-5.132,2.326,3.089,3.089,0,0,0-3.2,3.194,3.047,3.047,0,0,0-3.2,3.2,3.048,3.048,0,0,0-3.117,2.307.753.753,0,0,0-.793.174l-3.2,3.2a1.507,1.507,0,1,1-2.1-2.161l3.166-3.166a.754.754,0,0,0-1.066-1.066l-3.164,3.164a1.507,1.507,0,1,1-2.13-2.13l3.171-3.171a.754.754,0,1,0-1.066-1.066L12.481,81.5c-1.068.871-1.713.474-2.157.029-.236-.237-.952-.956.025-2.157L16,73.722a.754.754,0,1,0-1.066-1.066L12.987,74.6l-1.541-1.541C9.3,70.78,11.162,69.75,9.2,67.67L19.374,57.482A4.611,4.611,0,0,0,22.245,58.5a4.318,4.318,0,0,1,2.5,1.23l6.409,6.409a2.157,2.157,0,0,1,0,3.051,2.186,2.186,0,0,1-3.049,0l-5.92-5.92a.754.754,0,0,0-1.066,1.066L22.186,65.4l-4.38,4.38a.754.754,0,1,0,1.066,1.066l4.38-4.38,3.79,3.79a3.664,3.664,0,0,0,5.181-5.183L26.854,59.7a3.765,3.765,0,0,1,2.336-1.15h.045a4.327,4.327,0,0,0,3.4-1.471c.545-.514,1.06-1.062,1.59-1.59l10.119,10.12Z" transform="translate(0 -46.146)"/>
      <path id="Path_671" data-name="Path 671" d="M211.458,31.2l2.914,2.908a.754.754,0,0,0,1.065,0l2.91-2.9a2.581,2.581,0,0,0,.736-1.8h0A2.533,2.533,0,0,0,214.9,27.5a2.522,2.522,0,0,0-1.648-.607,2.593,2.593,0,0,0-2.528,2.469,2.531,2.531,0,0,0,.711,1.822Zm1.8-2.8a1.019,1.019,0,0,1,.949.64q.7.942,1.4,0a1.019,1.019,0,0,1,.949-.64,1.033,1.033,0,0,1,.733,1.737L214.9,32.513l-2.37-2.366A1.06,1.06,0,0,1,213.256,28.4Z" transform="translate(-189.545 -26.892)"/>
    </g>
  </g>
</svg>
