<svg xmlns="http://www.w3.org/2000/svg" width="18" height="18" viewBox="0 0 18 18">
  <g id="Icon_ionic-ios-close-circle-outline" data-name="Icon ionic-ios-close-circle-outline" transform="translate(-3.375 -3.375)">
    <path id="Path_562" data-name="Path 562" d="M18.341,17.47l-2.027-2.027,2.027-2.027a.615.615,0,0,0-.869-.869l-2.027,2.027-2.027-2.027a.615.615,0,0,0-.869.869l2.027,2.027L12.549,17.47a.594.594,0,0,0,0,.869.611.611,0,0,0,.869,0l2.027-2.027,2.027,2.027a.617.617,0,0,0,.869,0A.611.611,0,0,0,18.341,17.47Z" transform="translate(-3.071 -3.069)" fill="#ff5858"/>
    <path id="Path_563" data-name="Path 563" d="M12.375,4.587a7.785,7.785,0,1,1-5.508,2.28,7.737,7.737,0,0,1,5.508-2.28m0-1.212a9,9,0,1,0,9,9,9,9,0,0,0-9-9Z" fill="#ff5858"/>
  </g>
</svg>
