<svg id="image_1_" data-name="image (1)" xmlns="http://www.w3.org/2000/svg" width="55.414" height="44.001" viewBox="0 0 55.414 44.001">
  <path id="Path_289" data-name="Path 289" d="M136.123,66.484a6.862,6.862,0,1,1-6.862,6.862A6.863,6.863,0,0,1,136.123,66.484Zm0,0" transform="translate(-113.89 -58.636)" fill="#eaf7f6"/>
  <path id="Path_290" data-name="Path 290" d="M63.035,166.858v4.916a4.756,4.756,0,0,1-4.757,4.757H14.757A4.757,4.757,0,0,1,10,171.774v-3.248l10.137-6.751a4.758,4.758,0,0,1,5.261.02l6.055,4.052a4.756,4.756,0,0,0,6.483-1.141l8.1-11.057a4.757,4.757,0,0,1,7.724.068Zm0,0" transform="translate(-8.811 -133.719)" fill="#feaa4b"/>
  <path id="Path_291" data-name="Path 291" d="M63.035,15.241V42.434L53.759,29.292a4.757,4.757,0,0,0-7.724-.068l-8.1,11.057a4.756,4.756,0,0,1-6.483,1.141L25.4,37.371a4.758,4.758,0,0,0-5.261-.02L10,44.1V15.241a4.757,4.757,0,0,1,4.757-4.757H58.278a4.757,4.757,0,0,1,4.757,4.757ZM37.908,24.006a6.862,6.862,0,1,0-6.863,6.863A6.863,6.863,0,0,0,37.908,24.006Zm0,0" transform="translate(-8.811 -9.295)" fill="#fed74b"/>
  <g id="Group_2609" data-name="Group 2609">
    <path id="Path_292" data-name="Path 292" d="M127.313,72.588a8.052,8.052,0,1,0-8.051-8.052A8.052,8.052,0,0,0,127.313,72.588Zm0-13.725a5.673,5.673,0,1,1-5.672,5.672A5.673,5.673,0,0,1,127.313,58.863Zm0,0" transform="translate(-105.079 -49.825)" fill="#0e0e0e"/>
    <path id="Path_293" data-name="Path 293" d="M49.467.484H5.946A5.953,5.953,0,0,0,0,6.43V38.539a5.953,5.953,0,0,0,5.946,5.946H49.467a5.953,5.953,0,0,0,5.946-5.946V6.43A5.953,5.953,0,0,0,49.467.484ZM5.946,2.863H49.467A3.572,3.572,0,0,1,53.035,6.43V29.876L45.92,19.8a5.946,5.946,0,0,0-9.655-.085l-8.1,11.057a3.558,3.558,0,0,1-4.861.857l-6.055-4.052a5.938,5.938,0,0,0-6.582-.022l-8.289,5.52V6.43A3.572,3.572,0,0,1,5.946,2.863ZM49.467,42.107H5.946a3.572,3.572,0,0,1-3.568-3.568V35.928l9.6-6.394a3.562,3.562,0,0,1,3.947.015L21.981,33.6a5.931,5.931,0,0,0,8.1-1.427l8.1-11.057a3.568,3.568,0,0,1,5.793.051L53.036,34v4.539a3.572,3.572,0,0,1-3.568,3.568Zm0,0" transform="translate(0 -0.484)" fill="#0e0e0e"/>
  </g>
</svg>
