<svg xmlns="http://www.w3.org/2000/svg" width="117" height="95.002" viewBox="0 0 117 95.002">
  <g id="Group_3124" data-name="Group 3124" transform="translate(-1018 -463.998)">
    <g id="Group_3123" data-name="Group 3123">
      <g id="Group_3122" data-name="Group 3122">
        <g id="Group_2982" data-name="Group 2982" transform="translate(1017.753 463.652)">
          <ellipse id="Ellipse_83" data-name="Ellipse 83" cx="15" cy="14.5" rx="15" ry="14.5" transform="translate(0.247 33.348)" fill="#76bffb" opacity="0.27"/>
          <circle id="Ellipse_84" data-name="Ellipse 84" cx="20" cy="20" r="20" transform="translate(77.247 0.348)" fill="#76bffb" opacity="0.27"/>
          <circle id="Ellipse_85" data-name="Ellipse 85" cx="14.5" cy="14.5" r="14.5" transform="translate(83.247 66.348)" fill="#76bffb" opacity="0.27"/>
        </g>
      </g>
      <g id="invitation_1_" data-name="invitation (1)" transform="translate(1030.44 463.998)">
        <path id="Path_826" data-name="Path 826" d="M57.8,8.732a6.776,6.776,0,0,0-7.627,0L16.851,31.421a5.743,5.743,0,0,0-2.511,4.747V85.092a4,4,0,0,0,4,4h71.3a4,4,0,0,0,4-4V36.168a5.743,5.743,0,0,0-2.511-4.747Z" transform="translate(-6.269 -6.317)" fill="#96c8ef"/>
        <path id="Path_827" data-name="Path 827" d="M89.64,186.91a4,4,0,0,0,4-4V133.989a5.743,5.743,0,0,0-2.511-4.747l-6.7-4.561L56.086,141.834a4.058,4.058,0,0,1-4.179.011L23.7,124.577l-6.851,4.665a5.743,5.743,0,0,0-2.511,4.747v48.924a4,4,0,0,0,4,4Z" transform="translate(-6.269 -104.138)" fill="#78b9eb"/>
        <path id="Path_828" data-name="Path 828" d="M134.978,124.6H75.873V72.231A6.734,6.734,0,0,1,82.607,65.5h45.637a6.734,6.734,0,0,1,6.734,6.734V124.6Z" transform="translate(-57.707 -54.751)" fill="#fff5cc"/>
        <path id="Path_829" data-name="Path 829" d="M107.524,144.122a4.058,4.058,0,0,1-4.179.011L75.873,127.314v48.963h59.105V127.505Z" transform="translate(-57.707 -106.426)" fill="#ffeb99"/>
        <path id="Path_830" data-name="Path 830" d="M46.8,182.621,15.225,163.29a5.739,5.739,0,0,0-.885,3.06v48.924a4,4,0,0,0,4,4h71.3a4,4,0,0,0,4-4V166.35a5.739,5.739,0,0,0-.788-2.9l-31.674,19.17A13.9,13.9,0,0,1,46.8,182.621Z" transform="translate(-6.269 -136.499)" fill="#b9d8f4"/>
        <path id="Path_831" data-name="Path 831" d="M56.024,282.251,24.909,317.978a3.978,3.978,0,0,0,2.233.682h71.3a3.978,3.978,0,0,0,2.292-.724l-31.06-35.751A13.9,13.9,0,0,1,56.024,282.251Z" transform="translate(-15.104 -235.888)" fill="#d1e7f8"/>
        <path id="Path_832" data-name="Path 832" d="M139.456,111.69h36.184a1.23,1.23,0,0,0,0-2.461H139.456a1.23,1.23,0,0,0,0,2.461Z" transform="translate(-109.83 -91.308)"/>
        <path id="Path_833" data-name="Path 833" d="M139.456,150.61h36.184a1.23,1.23,0,0,0,0-2.461H139.456a1.23,1.23,0,0,0,0,2.461Z" transform="translate(-109.83 -123.843)"/>
        <path id="Path_834" data-name="Path 834" d="M139.456,189.529h16.978a1.23,1.23,0,1,0,0-2.461H139.456a1.23,1.23,0,0,0,0,2.461Z" transform="translate(-109.83 -156.376)"/>
        <path id="Path_835" data-name="Path 835" d="M85.549,24.087l-7.047-4.8V17.48a7.974,7.974,0,0,0-7.964-7.964h-6.39L52.225,1.4a7.962,7.962,0,0,0-9.012,0L31.3,9.508l0,.007H24.9a7.973,7.973,0,0,0-7.964,7.964v1.809l-7.047,4.8A6.967,6.967,0,0,0,6.84,29.851V78.775c0,1.7.687,5.227,5.227,5.227h71.3A5.233,5.233,0,0,0,88.6,78.775V29.851A6.967,6.967,0,0,0,85.549,24.087Zm.588,5.764V78.775a2.748,2.748,0,0,1-.433,1.479L56.475,46.61,86,28.741A4.52,4.52,0,0,1,86.137,29.851ZM44.6,3.432a5.516,5.516,0,0,1,6.242,0l8.936,6.084H35.662ZM24.9,11.976H70.537a5.51,5.51,0,0,1,5.5,5.5v9.311a1.23,1.23,0,1,0,2.461,0V22.266s6.078,4.167,6.263,4.346l-30.5,18.457a12.636,12.636,0,0,1-13.094,0L19.4,31.74V17.48A5.51,5.51,0,0,1,24.9,11.976ZM16.936,22.265v7.968l-6.125-3.75C10.956,26.354,16.936,22.265,16.936,22.265ZM11.921,81.534l4.363-5.01a1.23,1.23,0,0,0-1.856-1.616L9.749,80.28A2.749,2.749,0,0,1,9.3,78.774V29.851a4.511,4.511,0,0,1,.19-1.29L39.039,46.65,18.113,70.677a1.23,1.23,0,0,0,.12,1.736,1.331,1.331,0,0,0,1.736-.12L41.223,47.888a15.066,15.066,0,0,0,13.069-.039L83.555,81.532C83.493,81.536,11.97,81.537,11.921,81.534Z"/>
      </g>
    </g>
  </g>
</svg>
