<svg xmlns="http://www.w3.org/2000/svg" width="18.5" height="26.397" viewBox="0 0 18.5 26.397">
  <g id="Layer_52" data-name="Layer 52" transform="translate(-10.75 -1.75)">
    <path id="Path_161" data-name="Path 161" d="M28.988,11.518c0,3.872-5.75,12.905-7.789,15.985a.844.844,0,0,1-1.41,0C17.75,24.424,12,15.39,12,11.518a8.494,8.494,0,1,1,16.988,0Z" transform="translate(-0.494 -0.494)" fill="#ffa000"/>
    <circle id="Ellipse_30" data-name="Ellipse 30" cx="4" cy="4" r="4" transform="translate(16 7.608)" fill="#f1f2f2"/>
    <path id="Path_162" data-name="Path 162" d="M31.259,3c-.256,0-.506.017-.759.032,5.278.33,9.36,4.031,9.361,8.486,0,3.871-6.851,12.9-9.28,15.984a.876.876,0,0,1-.081.079,1.1,1.1,0,0,0,.823.3A1.052,1.052,0,0,0,32.1,27.5c2.429-3.079,9.28-12.113,9.28-15.984C41.38,6.813,36.849,3,31.259,3Z" transform="translate(-12.885 -0.494)" fill="#f70"/>
    <g id="Group_115" data-name="Group 115" transform="translate(11 2)">
      <path id="Path_163" data-name="Path 163" d="M27.554,23.108a4.554,4.554,0,1,1,4.554-4.554A4.554,4.554,0,0,1,27.554,23.108Zm0-8.1A3.542,3.542,0,1,0,31.1,18.554,3.542,3.542,0,0,0,27.554,15.012Z" transform="translate(-18.554 -9.251)" fill="#0e0e0e" stroke="#0e0e0e" stroke-width="0.5"/>
      <path id="Path_164" data-name="Path 164" d="M20,27.9a1.282,1.282,0,0,1-1.071-.575C16.546,23.729,11,14.943,11,11a9,9,0,0,1,18,0c0,3.943-5.546,12.729-7.931,16.322A1.281,1.281,0,0,1,20,27.9Zm0-25.04A8.152,8.152,0,0,0,11.857,11c0,3.814,5.961,13.1,7.788,15.848a.437.437,0,0,0,.711,0C22.182,24.095,28.143,14.814,28.143,11A8.152,8.152,0,0,0,20,2.857Z" transform="translate(-11 -2)" fill="#0e0e0e" stroke="#0e0e0e" stroke-width="0.5"/>
    </g>
  </g>
</svg>
