<svg xmlns="http://www.w3.org/2000/svg" width="511.972" height="512.001" viewBox="0 0 511.972 512.001">
  <g id="logout" transform="translate(-0.014)">
    <g id="Group_3122" data-name="Group 3122">
      <g id="Group_3121" data-name="Group 3121">
        <g id="Group_3120" data-name="Group 3120">
          <path id="Path_34682" data-name="Path 34682" d="M510.371,226.513a21.572,21.572,0,0,0-4.629-6.955l-63.979-63.979A21.33,21.33,0,0,0,411.6,185.744l27.584,27.584H320.013a21.333,21.333,0,1,0,0,42.666H439.181L411.6,283.578a21.33,21.33,0,1,0,30.166,30.165l63.979-63.979a21.129,21.129,0,0,0,4.629-6.955A21.355,21.355,0,0,0,510.371,226.513Z" fill="#f04589"/>
          <path id="Path_34683" data-name="Path 34683" d="M362.68,298.667A21.327,21.327,0,0,0,341.347,320V426.667H256.014V85.333A21.358,21.358,0,0,0,240.8,64.9L166.712,42.667H341.347V149.334a21.333,21.333,0,0,0,42.666,0v-128A21.327,21.327,0,0,0,362.68,0H21.347a19.012,19.012,0,0,0-2.2.405,21.07,21.07,0,0,0-9.045,3.157c-.469.3-1.045.32-1.493.661-.172.129-.236.364-.407.492a21.136,21.136,0,0,0-5.674,6.741,17.423,17.423,0,0,0-.6,1.792A20.234,20.234,0,0,0,.249,18.24,13.279,13.279,0,0,0,.313,20.1c-.021.427-.3.811-.3,1.237V448a21.317,21.317,0,0,0,17.152,20.907L230.5,511.574a19.855,19.855,0,0,0,4.181.427,21.347,21.347,0,0,0,21.333-21.334V469.334H362.68A21.327,21.327,0,0,0,384.013,448V320A21.327,21.327,0,0,0,362.68,298.667Z" fill="#f04589"/>
        </g>
      </g>
    </g>
  </g>
</svg>
