<svg xmlns="http://www.w3.org/2000/svg" width="19.999" height="29.632" viewBox="0 0 19.999 29.632">
  <g id="man" transform="translate(-78.033 0)">
    <path id="Path_119" data-name="Path 119" d="M105.044,33.734v2.423a.494.494,0,0,1-.494.494H86.526a.494.494,0,0,1-.494-.494V33.734a4.6,4.6,0,0,1,4.6-4.6,2.556,2.556,0,0,0,2.146-1.164,2.9,2.9,0,0,0,.41-1.809l.009-.023a6.112,6.112,0,0,1-3.775-5.648v-.193a1.522,1.522,0,0,1-1.543-1.515V16.214a8.544,8.544,0,0,1,2.3-6.236c2.646-2.55,6.838-2.341,9.875-.977a.124.124,0,0,1,0,.227l-.792.326a.124.124,0,0,0,.034.237l.385.041a6.23,6.23,0,0,1,4.612,2.861.133.133,0,0,1-.016.152,3.735,3.735,0,0,0-1.02,2.565v3.368a1.515,1.515,0,0,1-1.515,1.515h-.09v.193a6.112,6.112,0,0,1-3.775,5.648l.009.023a2.9,2.9,0,0,0,.41,1.809,2.556,2.556,0,0,0,2.146,1.164,4.6,4.6,0,0,1,4.6,4.6Z" transform="translate(-7.505 -7.513)" fill="#ffdfba"/>
    <path id="Path_120" data-name="Path 120" d="M105.044,337.14v2.423a.494.494,0,0,1-.494.494H86.526a.494.494,0,0,1-.494-.494V337.14a4.6,4.6,0,0,1,4.6-4.6,2.556,2.556,0,0,0,2.146-1.164,4.237,4.237,0,0,0,5.512,0,2.556,2.556,0,0,0,2.146,1.164A4.6,4.6,0,0,1,105.044,337.14Z" transform="translate(-7.505 -310.919)" fill="#76bffb"/>
    <path id="Path_121" data-name="Path 121" d="M132.4,12.694a.131.131,0,0,1-.016.152,3.737,3.737,0,0,0-1.02,2.566V18.78a1.518,1.518,0,0,1-1.6,1.515V16.482a2.963,2.963,0,0,0-2.963-2.963h-6.3a2.963,2.963,0,0,0-2.963,2.963v3.813a1.522,1.522,0,0,1-1.543-1.515V16.214a8.544,8.544,0,0,1,2.3-6.236c2.645-2.55,6.838-2.341,9.875-.977a.124.124,0,0,1,0,.227l-.792.326a.123.123,0,0,0,.034.237l.385.041a6.228,6.228,0,0,1,4.612,2.861Z" transform="translate(-35.614 -7.513)" fill="#42434d"/>
    <path id="Path_122" data-name="Path 122" d="M153.254,104.262a6.112,6.112,0,1,1-12.222-.193v-3.813a2.963,2.963,0,0,1,2.963-2.963h6.3a2.963,2.963,0,0,1,2.963,2.963Z" transform="translate(-59.11 -91.287)" fill="#ffebd2"/>
    <path id="Path_123" data-name="Path 123" d="M145.759,122.894a.976.976,0,0,1-.887,1.729,6.112,6.112,0,0,1-3.84-5.675v-4.006a2.95,2.95,0,0,1,.52-1.677.73.73,0,0,1,1.332.442v4.006A6.066,6.066,0,0,0,145.759,122.894Z" transform="translate(-59.11 -105.974)" fill="#fff3e4"/>
    <path id="Path_124" data-name="Path 124" d="M205.733,302.729a6.128,6.128,0,0,1-4.831,0,3.825,3.825,0,0,0,.07-1.014l.009-.023a6.123,6.123,0,0,0,4.673,0l.009.023A3.825,3.825,0,0,0,205.733,302.729Z" transform="translate(-115.285 -283.071)" fill="#ffd6a6"/>
    <path id="Path_125" data-name="Path 125" d="M93.122,334.028a2.511,2.511,0,0,1-.736.114,4.616,4.616,0,0,0-4.627,4.587v.464a.864.864,0,0,1-.864.864h-.37a.494.494,0,0,1-.494-.494V337.14a4.6,4.6,0,0,1,4.6-4.6,2.556,2.556,0,0,0,2.146-1.164,4.273,4.273,0,0,0,.587.421A1.233,1.233,0,0,1,93.122,334.028Z" transform="translate(-7.504 -310.919)" fill="#ffa000"/>
    <path id="Path_126" data-name="Path 126" d="M266.215,334.028a2.511,2.511,0,0,0,.736.114,4.616,4.616,0,0,1,4.627,4.587v.464a.864.864,0,0,0,.864.864h.37a.494.494,0,0,0,.494-.494V337.14a4.6,4.6,0,0,0-4.6-4.6,2.556,2.556,0,0,1-2.146-1.164,4.274,4.274,0,0,1-.587.421A1.233,1.233,0,0,0,266.215,334.028Z" transform="translate(-175.768 -310.919)" fill="#ffa000"/>
    <path id="Path_127" data-name="Path 127" d="M128.161,9.228c-.726.3-.829.365-1.081.326-4.054-.628-7.61,1.049-8.818,4.987h0a2.948,2.948,0,0,0-.725,1.941V18.8a.772.772,0,1,1-1.543-.018V16.214a8.544,8.544,0,0,1,2.3-6.236c2.646-2.55,6.838-2.341,9.875-.977A.124.124,0,0,1,128.161,9.228Z" transform="translate(-35.615 -7.513)" fill="#4d4e59"/>
    <path id="Path_128" data-name="Path 128" d="M98.032,26.222v2.917a.494.494,0,0,1-.988,0V26.222a4.107,4.107,0,0,0-4.109-4.109,3.032,3.032,0,0,1-2.608-1.465.494.494,0,0,1,.843-.514,2.051,2.051,0,0,0,1.765.991,5.094,5.094,0,0,1,5.1,5.1Zm-8.617-4.95a.494.494,0,0,1-.377.588,4.726,4.726,0,0,1-3.674-.719,3,3,0,0,1-2.234.972,4.107,4.107,0,0,0-4.109,4.109v2.917a.494.494,0,1,1-.988,0V26.222a5.094,5.094,0,0,1,5.1-5.1,2.059,2.059,0,0,0,2.063-2.058v-.13a6.615,6.615,0,0,1-3.761-5.718,2.015,2.015,0,0,1-1.548-1.952V8.707a9.046,9.046,0,0,1,2.447-6.6c2.826-2.724,7.357-2.551,10.689-.947a.5.5,0,0,1,.1.822A6.665,6.665,0,0,1,97.2,4.919a.545.545,0,0,1,.114.388.5.5,0,0,1-.142.313A3.224,3.224,0,0,0,96.242,7.9v3.368a.494.494,0,0,1-.988,0V7.9a4.2,4.2,0,0,1,.959-2.684,5.7,5.7,0,0,0-4.094-2.4l-.868-.093a.494.494,0,0,1-.135-.948l.395-.163C86.37-.185,80.872,1.806,80.872,8.7v2.565a1.02,1.02,0,0,0,.556.9v-3.2a3.461,3.461,0,0,1,3.457-3.457h6.3a3.46,3.46,0,0,1,3.457,3.456v4.043a6.614,6.614,0,0,1-8.467,6.3,3.019,3.019,0,0,1-.258,1.008,3.739,3.739,0,0,0,2.915.575A.494.494,0,0,1,89.415,21.272Zm-1.382-2.68a5.623,5.623,0,0,0,5.617-5.617V8.968A2.472,2.472,0,0,0,91.181,6.5h-6.3a2.472,2.472,0,0,0-2.469,2.469v4.006A5.623,5.623,0,0,0,88.033,18.591Zm5,8.51H91.551a.494.494,0,0,0,0,.988h1.481a.494.494,0,1,0,0-.988Z" transform="translate(0 0)"/>
  </g>
</svg>
