<svg xmlns="http://www.w3.org/2000/svg" width="111.308" height="99" viewBox="0 0 111.308 99">
  <g id="Group_2972" data-name="Group 2972" transform="translate(-1187.094 -228.667)">
    <ellipse id="Ellipse_83" data-name="Ellipse 83" cx="14" cy="13.5" rx="14" ry="13.5" transform="translate(1187.094 258.667)" fill="#76bffb" opacity="0.27"/>
    <circle id="Ellipse_84" data-name="Ellipse 84" cx="18.5" cy="18.5" r="18.5" transform="translate(1257.094 228.667)" fill="#76bffb" opacity="0.27"/>
    <ellipse id="Ellipse_85" data-name="Ellipse 85" cx="13" cy="13.5" rx="13" ry="13.5" transform="translate(1263.094 288.667)" fill="#76bffb" opacity="0.27"/>
    <g id="scrolling" transform="translate(1206.094 231.667)">
      <path id="Path_815" data-name="Path 815" d="M58.113,23.331V16.813a6.579,6.579,0,0,0-6.579-6.579H16.813a6.578,6.578,0,0,0-6.579,6.579v6.518Zm0,0" transform="translate(-8.315 -8.315)" fill="#c8f5ff"/>
      <path id="Path_816" data-name="Path 816" d="M159.369,225.737,144.08,210.448a5.557,5.557,0,1,0-7.831,7.831L132.966,215a5.558,5.558,0,1,0-7.832,7.832l-3.283-3.283a5.557,5.557,0,1,0-7.831,7.831L102.575,215.93a5.558,5.558,0,1,0-7.832,7.831l27.092,27.092h-8.221a5.7,5.7,0,0,0-5.7,5.7v1.286a5.7,5.7,0,0,0,5.7,5.7h29.32a22.149,22.149,0,0,0,16.436-37.8Zm0,0" transform="translate(-75.457 -169.467)" fill="#fcc89d"/>
      <path id="Path_817" data-name="Path 817" d="M10.234,102.476v29.185H39.9l-12.3-12.3a5.8,5.8,0,0,1-.348-8.179,5.8,5.8,0,0,1,8.18.348l11.445,11.445a5.557,5.557,0,1,1,7.831-7.831l3.283,3.283a5.8,5.8,0,0,1-.347-8.179,5.045,5.045,0,0,1,.467-.412V80.082H10.234Zm0,0" transform="translate(-8.315 -65.066)" fill="#f0f0fa"/>
      <path id="Path_818" data-name="Path 818" d="M39.9,355.172H10.234v14.275a6.578,6.578,0,0,0,6.579,6.579H40.774v-.364a5.7,5.7,0,0,1,5.7-5.7h8.221Zm-5.728,13.945a3.534,3.534,0,1,1,3.534-3.534A3.534,3.534,0,0,1,34.173,369.117Zm0,0" transform="translate(-8.315 -288.577)" fill="#c8f5ff"/>
      <path id="Path_819" data-name="Path 819" d="M107.146,34.8H93.677a1.919,1.919,0,1,0,0,3.838h13.469a1.919,1.919,0,1,0,0-3.838Zm0,0" transform="translate(-74.553 -28.272)"/>
      <path id="Path_820" data-name="Path 820" d="M85.269,54.913,69.981,39.625a7.723,7.723,0,0,0-10.893-.348,7.065,7.065,0,0,0-1.93,3.573,8.039,8.039,0,0,0-3.729-1.106,7.665,7.665,0,0,0-1.713.119V33.035h16.59a1.919,1.919,0,1,0,0-3.837H51.716V8.5a8.507,8.507,0,0,0-8.5-8.5H8.5A8.507,8.507,0,0,0,0,8.5V22.021a1.919,1.919,0,1,0,3.837,0V16.934H47.879V43.921a7.16,7.16,0,0,0-1.83,3.483,7.56,7.56,0,0,0-9.19.968,7.051,7.051,0,0,0-1.852,3.267l-6.532-6.532a7.788,7.788,0,0,0-10.326-.857,6.972,6.972,0,0,0-.567.509,7.723,7.723,0,0,0,.348,10.893l9.025,9.025H3.837V37.409a1.919,1.919,0,1,0-3.837,0V80.87a8.507,8.507,0,0,0,8.5,8.5h22.11a7.627,7.627,0,0,0,7.549,6.62L68.237,96A24.067,24.067,0,0,0,85.269,54.913ZM3.837,13.1V8.5A4.666,4.666,0,0,1,8.5,3.837H43.219a4.666,4.666,0,0,1,4.66,4.66v4.6Zm0,67.773V68.514H30.792L41.746,79.468H38.467a8.73,8.73,0,0,0-2.484.318A7.65,7.65,0,0,0,30.7,85.53H8.5a4.666,4.666,0,0,1-4.66-4.66Zm78.718,5.369A20.293,20.293,0,0,1,67.544,92.15H38.157a3.819,3.819,0,0,1-3.77-3.512c-.036-.508-.012-1.026-.01-1.535a3.784,3.784,0,0,1,3.779-3.8h7.427l2.9,2.9A1.919,1.919,0,1,0,51.2,83.493L20.644,52.938a4.23,4.23,0,0,1-1.192-3.99,3.2,3.2,0,0,1,1.2-1.775,3.584,3.584,0,0,1,2.51-.634,4.415,4.415,0,0,1,2.6,1.282l21.1,21.1a1.919,1.919,0,0,0,2.714-2.714L39.92,56.552a3.648,3.648,0,1,1,5.117-5.118l9.545,9.545A1.919,1.919,0,0,0,57.3,58.265L51.035,52a4.628,4.628,0,0,1-.749-.979,4.194,4.194,0,0,1-.562-2.2,3.353,3.353,0,0,1,.962-2.291c.072-.072.148-.138.226-.2l.054-.045a3.444,3.444,0,0,1,2.3-.713,4.359,4.359,0,0,1,2.887,1.308l6.261,6.261a1.919,1.919,0,1,0,2.714-2.713l-2.985-2.985a4.357,4.357,0,0,1-1.3-2.88,3.388,3.388,0,0,1,.959-2.579,3.893,3.893,0,0,1,5.466.348L82.556,57.627a20.254,20.254,0,0,1,0,28.611Zm0,0" transform="translate(0 0)"/>
      <path id="Path_821" data-name="Path 821" d="M.167,150.927a1.931,1.931,0,0,0,1.865,1.181A1.918,1.918,0,1,0,.873,148.6a1.934,1.934,0,0,0-.706,2.329Zm0,0" transform="translate(-0.019 -120.478)"/>
      <path id="Path_822" data-name="Path 822" d="M114.281,381.617a5.452,5.452,0,1,0,5.452,5.453A5.459,5.459,0,0,0,114.281,381.617Zm0,7.068a1.615,1.615,0,1,1,1.615-1.615A1.617,1.617,0,0,1,114.281,388.685Zm0,0" transform="translate(-88.423 -310.064)"/>
      <path id="Path_823" data-name="Path 823" d="M51.528,211.667a1.919,1.919,0,0,0-2.714,0,14.01,14.01,0,0,0,0,19.813,1.919,1.919,0,0,0,2.714-2.714,10.173,10.173,0,0,1,0-14.386,1.919,1.919,0,0,0,0-2.714Zm0,0" transform="translate(-36.327 -171.523)"/>
      <path id="Path_824" data-name="Path 824" d="M298.29,116.943h15.767a1.919,1.919,0,1,0,0-3.838H298.29a1.919,1.919,0,1,0,0,3.838Zm0,0" transform="translate(-240.801 -91.898)"/>
      <path id="Path_825" data-name="Path 825" d="M421.634,115.787a1.918,1.918,0,1,0,.76-2.363A1.935,1.935,0,0,0,421.634,115.787Zm0,0" transform="translate(-342.462 -91.926)"/>
    </g>
  </g>
</svg>
