<svg id="office" xmlns="http://www.w3.org/2000/svg" width="31.599" height="30.58" viewBox="0 0 31.599 30.58">
  <g id="Group_2726" data-name="Group 2726" transform="translate(1.799 0.51)">
    <path id="Path_396" data-name="Path 396" d="M375.135,293.251H368V280l7.135,3.058Z" transform="translate(-346.864 -263.691)" fill="#ffda44"/>
    <path id="Path_397" data-name="Path 397" d="M158.271,53.561H144V28.077L158.271,24Z" transform="translate(-137.135 -24)" fill="#76bffb"/>
    <path id="Path_398" data-name="Path 398" d="M208,368h6.116v6.116H208Z" transform="translate(-197.058 -346.084)" fill="#83d8f4"/>
    <path id="Path_399" data-name="Path 399" d="M192,464h8.155v1.529H192Z" transform="translate(-182.077 -435.968)" fill="#d8d7da"/>
    <g id="Group_2725" data-name="Group 2725" transform="translate(8.904 6.626)">
      <path id="Path_400" data-name="Path 400" d="M176,288h10.193v3.058H176Z" transform="translate(-176 -277.807)" fill="#83d8f4"/>
      <path id="Path_401" data-name="Path 401" d="M400,360h5.1v3.058H400Z" transform="translate(-385.729 -345.22)" fill="#83d8f4"/>
      <path id="Path_402" data-name="Path 402" d="M176,208h10.193v3.058H176Z" transform="translate(-176 -202.903)" fill="#83d8f4"/>
      <path id="Path_403" data-name="Path 403" d="M176,128h10.193v3.058H176Z" transform="translate(-176 -128)" fill="#83d8f4"/>
    </g>
    <ellipse id="Ellipse_61" data-name="Ellipse 61" cx="2.5" cy="3.5" rx="2.5" ry="3.5" transform="translate(0 17.78)" fill="#91cc04"/>
    <path id="Path_404" data-name="Path 404" d="M40,432l2.039,1.019" transform="translate(-39.761 -406.007)" fill="#d8d7da"/>
  </g>
  <g id="Group_2727" data-name="Group 2727">
    <path id="Path_406" data-name="Path 406" d="M39.09,45.56h-.51V35.876a.51.51,0,0,0-.309-.468l-6.826-2.926V30.27h4.077a2.548,2.548,0,0,0,0-5.1c-.049,0-.1,0-.147,0a3.565,3.565,0,0,0-3.93-2.516V16.509a.509.509,0,0,0-.65-.49L20.368,19a3.568,3.568,0,0,0-6.163-.391,3.058,3.058,0,1,0-.6,6.057h2.548v20.9H12.587V41.426a2.876,2.876,0,0,0,1.707-1.2,5.142,5.142,0,0,0,0-5.638,2.731,2.731,0,0,0-2.216-1.258,2.731,2.731,0,0,0-2.216,1.258,5.142,5.142,0,0,0,0,5.638,2.876,2.876,0,0,0,1.707,1.2V42.7l-1.3-.651a.51.51,0,0,0-.456.912l1.757.878V45.56H8.51a.51.51,0,0,0,0,1.019H39.09a.51.51,0,0,0,0-1.019ZM31.445,23.7a2.511,2.511,0,0,1,.51-.052,2.56,2.56,0,0,1,2.522,2.184.51.51,0,0,0,.639.42,1.529,1.529,0,1,1,.406,3H31.445ZM12.077,38.424a.51.51,0,0,0-.51.51v1.428a3.152,3.152,0,0,1-1.529-2.957c0-1.658.933-3.058,2.039-3.058s2.039,1.4,2.039,3.058a3.152,3.152,0,0,1-1.529,2.957V38.934A.51.51,0,0,0,12.077,38.424ZM16.524,20.1a.51.51,0,0,0-.37.49v3.058H13.606a2.039,2.039,0,1,1,.674-3.963.51.51,0,0,0,.622-.25,2.548,2.548,0,0,1,4.462-.147ZM27.367,45.56H20.232v-.51h7.135Zm-6.116-1.529v-5.1H23.29v5.1Zm3.058,0v-5.1h2.039v5.1Zm6.116,1.529H28.387V44.54a.51.51,0,0,0-.51-.51h-.51V38.424a.51.51,0,0,0-.51-.51H20.742a.51.51,0,0,0-.51.51v5.606h-.51a.51.51,0,0,0-.51.51V45.56H17.174V20.97l13.251-3.786Zm7.135-5.1H33.483V38.424h4.077Zm0-3.058H32.974a.51.51,0,0,0-.51.51v3.058a.51.51,0,0,0,.51.51h4.587V45.56H31.445V33.591l6.116,2.622Z" transform="translate(-8 -15.999)"/>
    <path id="Path_407" data-name="Path 407" d="M178.7,284.077a.51.51,0,0,0,.51-.51V280.51a.51.51,0,0,0-.51-.51H168.51a.51.51,0,0,0-.51.51v3.058a.51.51,0,0,0,.51.51Zm-9.684-3.058h9.174v2.039h-9.174Z" transform="translate(-157.807 -263.181)"/>
    <path id="Path_408" data-name="Path 408" d="M168.51,204.077H178.7a.51.51,0,0,0,.51-.51V200.51a.51.51,0,0,0-.51-.51H168.51a.51.51,0,0,0-.51.51v3.058A.51.51,0,0,0,168.51,204.077Zm.51-3.058h9.174v2.039h-9.174Z" transform="translate(-157.807 -188.278)"/>
    <path id="Path_409" data-name="Path 409" d="M168.51,124.077H178.7a.51.51,0,0,0,.51-.51V120.51a.51.51,0,0,0-.51-.51H168.51a.51.51,0,0,0-.51.51v3.058A.51.51,0,0,0,168.51,124.077Zm.51-3.058h9.174v2.039h-9.174Z" transform="translate(-157.807 -113.374)"/>
  </g>
</svg>
