<svg xmlns="http://www.w3.org/2000/svg" width="27.05" height="27.05" viewBox="0 0 27.05 27.05">
  <path id="Icon_material-gps-fixed" data-name="Icon material-gps-fixed" d="M15.025,10.107a4.918,4.918,0,1,0,4.918,4.918A4.917,4.917,0,0,0,15.025,10.107ZM26.017,13.8a11.059,11.059,0,0,0-9.763-9.763V1.5H13.8V4.033A11.059,11.059,0,0,0,4.033,13.8H1.5v2.459H4.033A11.059,11.059,0,0,0,13.8,26.017V28.55h2.459V26.017a11.059,11.059,0,0,0,9.763-9.763H28.55V13.8ZM15.025,23.632a8.607,8.607,0,1,1,8.607-8.607A8.6,8.6,0,0,1,15.025,23.632Z" transform="translate(-1.5 -1.5)" fill="#00a89b"/>
</svg>
