<svg xmlns="http://www.w3.org/2000/svg" width="36.548" height="48.731" viewBox="0 0 36.548 48.731">
  <g id="location-pin" transform="translate(0 0)">
    <path id="Path_71" data-name="Path 71" d="M43.252,23.633c0,13.9-16.751,28.8-16.751,28.8S9.75,37.538,9.75,23.633a16.752,16.752,0,1,1,33.5,0Z" transform="translate(-8.227 -5.227)" fill="#fed74b"/>
    <ellipse id="Ellipse_3" data-name="Ellipse 3" cx="8.629" cy="8.629" rx="8.629" ry="8.629" transform="translate(9.645 9.645)" fill="#f3f3f1"/>
    <path id="Path_72" data-name="Path 72" d="M14.319,23.633A16.828,16.828,0,0,1,28.785,6.925,16.614,16.614,0,0,0,26.5,6.75,16.818,16.818,0,0,0,9.75,23.633c0,13.9,16.751,28.8,16.751,28.8s.914-.82,2.284-2.209C24.213,45.59,14.319,34.332,14.319,23.633Z" transform="translate(-8.227 -5.227)" fill="#feaa4b"/>
    <path id="Path_73" data-name="Path 73" d="M18.319,19.379A8.6,8.6,0,0,1,24.664,11.1a8.63,8.63,0,1,0,0,16.568A8.6,8.6,0,0,1,18.319,19.379Z" transform="translate(-4.105 -1.105)" fill="#d5dbe1"/>
    <path id="Path_78" data-name="Path 78" d="M27.274,54.731a1.529,1.529,0,0,1-1.013-.384C25.556,53.72,9,38.828,9,24.406a18.274,18.274,0,1,1,36.548,0c0,14.422-16.556,29.314-17.261,29.939a1.521,1.521,0,0,1-1.013.386Zm0-45.685a15.312,15.312,0,0,0-15.228,15.36c0,11.123,11.675,23.273,15.228,26.71C30.827,47.679,42.5,35.527,42.5,24.406A15.312,15.312,0,0,0,27.274,9.046Z" transform="translate(-9 -6)" fill="#0e0e0e"/>
    <path id="Path_79" data-name="Path 79" d="M23.152,30.3A10.152,10.152,0,1,1,33.3,20.152,10.164,10.164,0,0,1,23.152,30.3Zm0-17.259a7.107,7.107,0,1,0,7.107,7.107A7.114,7.114,0,0,0,23.152,13.046Z" transform="translate(-4.878 -1.878)" fill="#0e0e0e"/>
  </g>
</svg>
