<svg xmlns="http://www.w3.org/2000/svg" width="47.333" height="47.329" viewBox="0 0 47.333 47.329">
  <g id="payment-method" transform="translate(0 -0.023)">
    <path id="Path_697" data-name="Path 697" d="M107.34,372.017v7.33c4.175.184,2.97.922,10.234,4.188a6.875,6.875,0,0,0,5.348-.091l0,0,14.271-5.11c.464-.214,2.807-1.486,1.883-3.857-1.08-2.528-3.86-1.473-4.093-1.4l-7.45,2.06" transform="translate(-97.417 -337.604)" fill="#eac092"/>
    <g id="Group_2963" data-name="Group 2963" transform="translate(9.923 29.597)">
      <path id="Path_698" data-name="Path 698" d="M115.77,327.8l8.3,2.629a2.726,2.726,0,0,0,3.367-1.876h0a2.991,2.991,0,0,0-2.087-3.571l-7.361-2.5a6.256,6.256,0,0,0-5.313-2.566c-2.363,0-4.4,1.91-5.332,3.581v3.338" transform="translate(-107.341 -319.921)" fill="#fedbab"/>
    </g>
    <path id="Path_699" data-name="Path 699" d="M153.674,385.706a.913.913,0,0,1-.18-.018.9.9,0,0,1-.174-.053.932.932,0,0,1-.159-.085.9.9,0,0,1-.255-.255.854.854,0,0,1-.085-.16.868.868,0,0,1-.053-.173.889.889,0,0,1,0-.361.9.9,0,0,1,.053-.174.912.912,0,0,1,.34-.414.94.94,0,0,1,.159-.085.9.9,0,0,1,.174-.053.91.91,0,0,1,.361,0,.87.87,0,0,1,.173.053.914.914,0,0,1,.16.085.9.9,0,0,1,.255.255.939.939,0,0,1,.085.159.963.963,0,0,1,.053.174.889.889,0,0,1,0,.361.931.931,0,0,1-.053.173.911.911,0,0,1-.085.16.9.9,0,0,1-.255.255.911.911,0,0,1-.16.085.87.87,0,0,1-.173.053A.913.913,0,0,1,153.674,385.706Z" transform="translate(-138.629 -348.349)"/>
    <rect id="Rectangle_979" data-name="Rectangle 979" width="3.502" height="9.933" transform="translate(6.421 33.06)" fill="#eaecf0"/>
    <rect id="Rectangle_980" data-name="Rectangle 980" width="5.497" height="11.656" transform="translate(0.924 33.06)" fill="#3688c8"/>
    <path id="Path_700" data-name="Path 700" d="M42.525,317.786l-.011-.027c-.851-1.991-2.846-2.727-5.208-1.92l-6.441,1.781a4.222,4.222,0,0,0-2.615-2.575l-.025-.009-7.08-2.4a7.3,7.3,0,0,0-5.891-2.711,7.393,7.393,0,0,0-5.774,3.463H.924a.924.924,0,0,0-.924.924v11.656a.924.924,0,0,0,.924.924h5.5a.924.924,0,0,0,.924-.924v-.8H9.923a.924.924,0,0,0,.924-.924v-.266a6.555,6.555,0,0,1,3.377,1.212,55.946,55.946,0,0,0,5.554,2.836l.041.017a8.3,8.3,0,0,0,2.974.561,7.369,7.369,0,0,0,3.063-.656l14.236-5.1c.025-.009.05-.019.075-.031C41.528,322.192,43.555,320.428,42.525,317.786ZM5.5,325.04H1.849v-9.807H5.5ZM9,323.318H7.346v-8.084H9Zm30.43-2.2L25.2,326.217l-.042.016-.037.016a5.992,5.992,0,0,1-4.6.078,53.543,53.543,0,0,1-5.368-2.742,8.321,8.321,0,0,0-4.3-1.463v-7.446c.876-1.436,2.576-2.906,4.408-2.906a5.335,5.335,0,0,1,4.526,2.126.925.925,0,0,0,.49.391l7.347,2.494a2.074,2.074,0,0,1,1.509,2.447,1.8,1.8,0,0,1-2.213,1.243l-8.283-2.625a.924.924,0,1,0-.559,1.763l8.3,2.629.026.008a3.667,3.667,0,0,0,1,.141,3.655,3.655,0,0,0,3.506-2.654q.032-.112.056-.225l6.941-1.923c1-.342,2.318-.466,2.9.884C41.415,320.055,39.838,320.927,39.429,321.122Z" transform="translate(0 -281.249)"/>
    <path id="Path_701" data-name="Path 701" d="M58.235,18.234l-8.211-8.211L39.729,20.318,57.321,37.909l9.715-9.715" transform="translate(-36.056 -9.075)" fill="#26cfad"/>
    <path id="Path_702" data-name="Path 702" d="M147.593,113.958h0l0-.006a4.345,4.345,0,1,0,4.642,4.444" transform="translate(-130.276 -103.396)" fill="#ffd36c"/>
    <path id="Path_703" data-name="Path 703" d="M209.376,37.342v-7.33c-4.175-.184-2.97-.922-10.234-4.188a6.875,6.875,0,0,0-5.348.091l0,0-4.306,1.542,4.442,4.442" transform="translate(-171.966 -22.961)" fill="#eac092"/>
    <g id="Group_2964" data-name="Group 2964" transform="translate(3.673 0.948)">
      <path id="Path_704" data-name="Path 704" d="M39.729,87.118l3.49-3.49a4.941,4.941,0,0,1,0,6.98Z" transform="translate(-39.729 -76.823)" fill="#00b192"/>
      <path id="Path_705" data-name="Path 705" d="M192.264,259.744a4.941,4.941,0,0,1,6.98,0l-3.49,3.49Z" transform="translate(-178.163 -235.348)" fill="#00b192"/>
      <path id="Path_706" data-name="Path 706" d="M113.333,13.513l3.49-3.49,3.49,3.49A4.941,4.941,0,0,1,113.333,13.513Z" transform="translate(-106.528 -10.023)" fill="#00b192"/>
      <path id="Path_707" data-name="Path 707" d="M288.3,182.048a4.942,4.942,0,0,0,1.148,5.178l2.91-2.91" transform="translate(-265.054 -166.145)" fill="#00b192"/>
    </g>
    <g id="Group_2965" data-name="Group 2965" transform="translate(17.213 8.58)">
      <path id="Path_708" data-name="Path 708" d="M197.958,95.319l-8.3-2.629a2.726,2.726,0,0,0-3.367,1.876h0a2.991,2.991,0,0,0,2.087,3.571l7.364,2.5h0a6.256,6.256,0,0,0,5.313,2.566c2.363,0,4.4-1.91,5.332-3.581V96.283" transform="translate(-186.19 -92.585)" fill="#fedbab"/>
    </g>
    <path id="Path_709" data-name="Path 709" d="M340.174,125.347a.911.911,0,0,1-.18-.018.932.932,0,0,1-.173-.053.911.911,0,0,1-.16-.085.9.9,0,0,1-.255-.255.913.913,0,0,1-.085-.16.868.868,0,0,1-.053-.173.888.888,0,0,1,0-.361.9.9,0,0,1,.053-.174.939.939,0,0,1,.085-.159.9.9,0,0,1,.255-.255.912.912,0,0,1,.16-.085.867.867,0,0,1,.173-.053.921.921,0,0,1,.534.053.939.939,0,0,1,.159.085.9.9,0,0,1,.255.255.876.876,0,0,1,.085.159.9.9,0,0,1,.054.174.935.935,0,0,1,0,.361.871.871,0,0,1-.054.173.854.854,0,0,1-.085.16.9.9,0,0,1-.255.255.938.938,0,0,1-.159.085.978.978,0,0,1-.173.053A.927.927,0,0,1,340.174,125.347Z" transform="translate(-307.887 -112.06)"/>
    <rect id="Rectangle_981" data-name="Rectangle 981" width="3.502" height="9.933" transform="translate(37.41 5.802)" fill="#eaecf0"/>
    <rect id="Rectangle_982" data-name="Rectangle 982" width="5.497" height="11.656" transform="translate(40.912 4.079)" fill="#3688c8"/>
    <path id="Path_710" data-name="Path 710" d="M73.355,3.154h-5.5a.924.924,0,0,0-.924.924v.8H64.356a.924.924,0,0,0-.924.924v.266a6.555,6.555,0,0,1-3.377-1.212A55.94,55.94,0,0,0,54.5,2.02L54.46,2a7.865,7.865,0,0,0-6.037.095L44.7,3.43,41.567.294a.925.925,0,0,0-1.307,0L29.965,10.589a.917.917,0,0,0,0,1.307L47.557,29.488a1,1,0,0,0,1.307,0l9.4-9.4c.244.021.5.032.761.032A7.393,7.393,0,0,0,64.8,16.659h8.557a.924.924,0,0,0,.924-.924V4.079A.924.924,0,0,0,73.355,3.154Zm-30.1,8.574A4.093,4.093,0,0,0,46.028,15l.024.009,1.849.627a3.421,3.421,0,1,1-4.643-3.907Zm1.849-3.61A3.624,3.624,0,0,0,43.6,9.709a5.269,5.269,0,1,0,6.058,6.523l3.121,1.059a5.9,5.9,0,0,0,.979,4.685l-2.111,2.111a5.875,5.875,0,0,0-6.877,0l-9.407-9.407a5.875,5.875,0,0,0,0-6.878l2.109-2.109a5.875,5.875,0,0,0,6.878,0l2,2A3.648,3.648,0,0,0,45.107,8.118Zm9.985,12.526a4.044,4.044,0,0,1-.591-1.923,7.188,7.188,0,0,0,1.63.883ZM40.913,2.255,43.02,4.362a4.031,4.031,0,0,1-4.214,0Zm-6.88,6.88a4.031,4.031,0,0,1,0,4.214l-2.107-2.107ZM48.21,27.527,46.1,25.42a4.025,4.025,0,0,1,4.213,0Zm10.813-9.254a6.729,6.729,0,0,1-.964-.068h0a5.3,5.3,0,0,1-3.424-1.874c-.019-.028-.1-.133-.111-.15a.921.921,0,0,0-.509-.424l-7.35-2.495a2.075,2.075,0,0,1-1.509-2.446v0a1.8,1.8,0,0,1,2.212-1.24L55.647,12.2a.924.924,0,0,0,.559-1.763L49.619,8.345l-.057-.058,0,0-3.41-3.41,2.931-1.05.032-.012.01,0,.037-.016a5.991,5.991,0,0,1,4.6-.078,53.551,53.551,0,0,1,5.368,2.742,8.32,8.32,0,0,0,4.3,1.463v7.446C62.555,16.8,60.856,18.273,59.023,18.273ZM65.28,6.726h1.653V14.81H65.28Zm7.15,8.084H68.782V5H72.43Z" transform="translate(-26.946)"/>
  </g>
</svg>
