<svg xmlns="http://www.w3.org/2000/svg" width="47.29" height="47.29" viewBox="0 0 47.29 47.29">
  <g id="history" transform="translate(0 0)">
    <path id="Path_13" data-name="Path 13" d="M51.084,10.691v26.6a3.94,3.94,0,0,1-3.941,3.941H24.484l-9.852,9.852V41.232H10.691A3.94,3.94,0,0,1,6.75,37.292v-26.6A3.94,3.94,0,0,1,10.691,6.75H47.144A3.94,3.94,0,0,1,51.084,10.691Z" transform="translate(-5.272 -4.901)" fill="#f3f3f1"/>
    <path id="Path_14" data-name="Path 14" d="M19.065,46.651V41.232H15.124a3.94,3.94,0,0,1-3.941-3.941v-26.6A3.94,3.94,0,0,1,15.124,6.75H10.691A3.94,3.94,0,0,0,6.75,10.691v26.6a3.94,3.94,0,0,0,3.941,3.941h3.941v9.852Z" transform="translate(-5.272 -5.272)" fill="#d5dbe1"/>
    <ellipse id="Ellipse_1" data-name="Ellipse 1" cx="11.33" cy="11.33" rx="11.33" ry="11.33" transform="translate(12.315 7.389)" fill="#fed74b"/>
    <path id="Path_18" data-name="Path 18" d="M16.683,21.08A11.33,11.33,0,0,1,25.8,9.971a11.33,11.33,0,1,0,0,22.218A11.33,11.33,0,0,1,16.683,21.08Z" transform="translate(0.065 -2.361)" fill="#feaa4b"/>
    <path id="Path_19" data-name="Path 19" d="M24.308,34.615A12.808,12.808,0,1,1,37.115,21.808,12.823,12.823,0,0,1,24.308,34.615Zm0-22.66a9.852,9.852,0,1,0,9.852,9.852A9.863,9.863,0,0,0,24.308,11.956Z" transform="translate(-0.663 -3.089)" fill="#0e0e0e"/>
    <path id="Path_20" data-name="Path 20" d="M21.132,22.662l-3.448-3.448a1.475,1.475,0,0,1-.433-1.044V12.751h2.956v4.806l3.015,3.015Z" transform="translate(4.917 0.551)"/>
    <path id="Path_21" data-name="Path 21" d="M15.36,53.29a1.492,1.492,0,0,1-.566-.112,1.474,1.474,0,0,1-.912-1.366V43.438H11.419A5.423,5.423,0,0,1,6,38.019v-26.6A5.424,5.424,0,0,1,11.419,6H47.871a5.426,5.426,0,0,1,5.419,5.419v26.6a5.423,5.423,0,0,1-5.419,5.419H25.822L16.4,52.857a1.471,1.471,0,0,1-1.044.433ZM11.419,8.956a2.465,2.465,0,0,0-2.463,2.463v26.6a2.466,2.466,0,0,0,2.463,2.463H15.36a1.478,1.478,0,0,1,1.478,1.478v6.284l7.33-7.33a1.478,1.478,0,0,1,1.044-.433h22.66a2.466,2.466,0,0,0,2.463-2.463v-26.6a2.466,2.466,0,0,0-2.463-2.463Z" transform="translate(-6 -6)" fill="#0e0e0e"/>
  </g>
</svg>
