<svg xmlns="http://www.w3.org/2000/svg" width="25.855" height="33.001" viewBox="0 0 25.855 33.001">
  <g id="price-tag" transform="translate(-55.432 0.001)">
    <g id="Group_2850" data-name="Group 2850" transform="translate(55.956 -0.001)">
      <path id="Path_425" data-name="Path 425" d="M75.332,104.5l-4.707,2.293a2.038,2.038,0,0,0-.95,1L63.8,122.514a2.722,2.722,0,0,0,1.383,3.589l5.841,2.588h4.338Z" transform="translate(-63.569 -97.764)" fill="#faa515"/>
      <path id="Path_426" data-name="Path 426" d="M192.729,119.868V122.7a2.93,2.93,0,0,1-2.9,2.9H177.9a2.875,2.875,0,0,1-2.836-2.9V106.01a2.086,2.086,0,0,1,.458-1.354l3.585-4.344a2.125,2.125,0,0,1,1.629-.812h6.252a2.125,2.125,0,0,1,1.629.812l3.585,4.344a2.149,2.149,0,0,1,.523,1.354v13.858Z" transform="translate(-167.881 -93.087)" fill="#fad207"/>
      <g id="Group_2848" data-name="Group 2848" transform="translate(11.263 16.642)">
        <path id="Path_427" data-name="Path 427" d="M242.065,264.69h0l-.017-.017-.027-.027-.667-.667-.095.188a2.085,2.085,0,0,0-.706-.123h-.064a2.094,2.094,0,0,0-1.98,2.778l-.2.1.691.692.009.009.009.009h0a2.087,2.087,0,0,0,1.467.6h.064a2.093,2.093,0,0,0,1.51-3.544Zm-1.51,2.577h-.064a1.128,1.128,0,1,1,0-2.256h.064a1.128,1.128,0,0,1,0,2.256Z" transform="translate(-238.315 -263.606)" fill="#f8c201" fill-rule="evenodd"/>
        <path id="Path_428" data-name="Path 428" d="M251.343,258.842l-.645-.645-8.934,8.934.645.645a.483.483,0,0,0,.684,0l8.25-8.25A.483.483,0,0,0,251.343,258.842Z" transform="translate(-241.543 -258.197)" fill="#f8c201" fill-rule="evenodd"/>
        <path id="Path_429" data-name="Path 429" d="M340.222,344.108h0l-.533-.541.035.219a2.081,2.081,0,0,0-.873-.191h-.064a2.094,2.094,0,0,0-1.919,2.934l-.237-.034.641.641q.034.036.07.07l.015.015h0a2.087,2.087,0,0,0,1.429.565h.064a2.093,2.093,0,0,0,1.371-3.677Zm-1.371,2.71h-.064a1.128,1.128,0,0,1,0-2.256h.064a1.128,1.128,0,1,1,0,2.256Z" transform="translate(-330.294 -338.064)" fill="#f8c201" fill-rule="evenodd"/>
      </g>
      <g id="Group_2849" data-name="Group 2849" transform="translate(10.7 16.436)">
        <path id="Path_430" data-name="Path 430" d="M240.051,265.217a.483.483,0,0,1-.342-.825l8.25-8.25a.483.483,0,0,1,.684.684l-8.25,8.25A.482.482,0,0,1,240.051,265.217Z" transform="translate(-238.923 -255.936)" fill="#f5f5f5"/>
        <path id="Path_431" data-name="Path 431" d="M231.727,259.19h-.064a2.095,2.095,0,1,1,0-4.19h.064a2.095,2.095,0,1,1,0,4.19Zm-.064-3.223a1.128,1.128,0,0,0,0,2.256h.064a1.128,1.128,0,0,0,0-2.256Z" transform="translate(-229.568 -255)" fill="#f5f5f5"/>
        <path id="Path_432" data-name="Path 432" d="M329.727,338.19h-.064a2.095,2.095,0,1,1,0-4.19h.064a2.095,2.095,0,0,1,0,4.19Zm-.064-3.223a1.128,1.128,0,1,0,0,2.256h.064a1.128,1.128,0,0,0,0-2.256Z" transform="translate(-321.251 -328.908)" fill="#f5f5f5"/>
      </g>
      <path id="Path_433" data-name="Path 433" d="M320.854,10.344a.483.483,0,0,1-.134-.948c.055-.016.11-.033.164-.052A3.642,3.642,0,0,0,323.348,5.9V.482a.483.483,0,0,1,.967,0V5.9a4.608,4.608,0,0,1-3.119,4.362c-.068.023-.138.045-.208.065A.482.482,0,0,1,320.854,10.344Z" transform="translate(-303.819 0.001)" fill="#e0a446"/>
      <path id="Path_434" data-name="Path 434" d="M290.083,135.029a1.515,1.515,0,1,1,1.515-1.515A1.516,1.516,0,0,1,290.083,135.029Z" transform="translate(-274.066 -123.492)" fill="#f5f5f5"/>
    </g>
    <g id="Group_2851" data-name="Group 2851" transform="translate(55.432 -0.001)">
      <path id="Path_435" data-name="Path 435" d="M80.8,25.01a.483.483,0,0,0,.483-.483v-11.6a2.641,2.641,0,0,0-.633-1.662L77.069,6.918a2.835,2.835,0,0,0-.638-.572c.014-.148.023-.3.023-.448V.484a.483.483,0,0,0-.967,0s0,5.46,0,5.483a2.393,2.393,0,0,0-.418-.037H68.815a2.482,2.482,0,0,0-1.258.35.489.489,0,0,0-.05.021L62.8,8.6A2.526,2.526,0,0,0,61.62,9.834l-.007.018-1.948,4.942a.483.483,0,1,0,.9.355l1.945-4.932a1.554,1.554,0,0,1,.716-.752l2.49-1.213-2.485,3.011a2.572,2.572,0,0,0-.569,1.662V29.618a3.455,3.455,0,0,0,.048.57l-4.981-2.207a2.241,2.241,0,0,1-1.137-2.952l.006-.015,3.151-7.83a.483.483,0,0,0-.9-.361L55.7,24.646a3.21,3.21,0,0,0,1.633,4.219l5.841,2.588.022.008A3.3,3.3,0,0,0,65.979,33H77.9a3.429,3.429,0,0,0,3.384-3.384V26.782a.483.483,0,1,0-.967,0v2.836A2.449,2.449,0,0,1,77.9,32.035H65.979a2.388,2.388,0,0,1-2.353-2.417V12.924a1.6,1.6,0,0,1,.348-1.046l3.585-4.344A1.651,1.651,0,0,1,68.815,6.9h6.252a1.424,1.424,0,0,1,.271.027,3.641,3.641,0,0,1-2.064,2.325,1.514,1.514,0,1,0,.2.96A4.606,4.606,0,0,0,76.2,7.4c.042.042.083.087.122.134l3.585,4.344a1.676,1.676,0,0,1,.412,1.046v11.6a.483.483,0,0,0,.483.483Zm-8.83-14.438a.548.548,0,1,1,.548-.548A.548.548,0,0,1,71.973,10.572Z" transform="translate(-55.432 -0.001)"/>
      <path id="Path_436" data-name="Path 436" d="M240.066,265.217a.482.482,0,0,0,.342-.142l8.25-8.25a.483.483,0,0,0-.684-.684l-8.25,8.25A.487.487,0,0,0,240.066,265.217Z" transform="translate(-227.714 -239.5)"/>
      <path id="Path_437" data-name="Path 437" d="M231.727,259.19a2.095,2.095,0,1,0,0-4.19h-.064a2.095,2.095,0,1,0,0,4.19Zm-1.192-2.095a1.129,1.129,0,0,1,1.128-1.128h.064a1.128,1.128,0,0,1,0,2.256h-.064A1.129,1.129,0,0,1,230.535,257.095Z" transform="translate(-218.344 -238.564)"/>
      <path id="Path_438" data-name="Path 438" d="M329.663,338.19h.064a2.095,2.095,0,0,0,0-4.19h-.064a2.095,2.095,0,1,0,0,4.19Zm0-3.223h.064a1.128,1.128,0,0,1,0,2.256h-.064a1.128,1.128,0,1,1,0-2.256Z" transform="translate(-310.027 -312.472)"/>
    </g>
  </g>
</svg>
