<svg xmlns="http://www.w3.org/2000/svg" width="45.097" height="46.149" viewBox="0 0 45.097 46.149">
  <g id="reminder" transform="translate(-47.785 -20.652)">
    <path id="Path_685" data-name="Path 685" d="M187.07,305.336a4.789,4.789,0,1,1-4.789-4.789A4.789,4.789,0,0,1,187.07,305.336Zm0,0" transform="translate(-113.163 -244.195)" fill="#fc8c29"/>
    <path id="Path_686" data-name="Path 686" d="M176.327,305.038a5.66,5.66,0,1,1,5.66-5.659A5.666,5.666,0,0,1,176.327,305.038Zm0-9.578a3.918,3.918,0,1,0,3.919,3.918A3.922,3.922,0,0,0,176.327,295.461Zm0,0" transform="translate(-107.209 -238.237)" fill="#0e0e0e"/>
    <path id="Path_688" data-name="Path 688" d="M184.458,29.36h-6.095a.871.871,0,0,1-.871-.871V24.571a3.918,3.918,0,1,1,7.837,0v3.918a.871.871,0,0,1-.871.871Zm-5.224-1.742h4.354V24.571a2.177,2.177,0,1,0-4.354,0Zm0,0" transform="translate(-113.162)" fill="#0e0e0e"/>
    <path id="Path_689" data-name="Path 689" d="M91.619,91.218H90.313V77.286a15.673,15.673,0,0,0-31.347,0V91.218H57.661a3.048,3.048,0,1,0,0,6.1H91.619a3.048,3.048,0,1,0,0-6.1Zm0,0" transform="translate(-5.957 -35.736)" fill="#ffce56"/>
    <path id="Path_690" data-name="Path 690" d="M85.662,92.227H51.7a3.918,3.918,0,1,1,0-7.836h.435V71.329a16.544,16.544,0,1,1,33.087,0V84.391h.435a3.918,3.918,0,0,1,0,7.836ZM51.7,86.132a2.177,2.177,0,0,0,0,4.354H85.662a2.177,2.177,0,0,0,0-4.354H84.356a.871.871,0,0,1-.871-.871V71.329a14.8,14.8,0,0,0-29.6,0V85.261a.871.871,0,0,1-.871.871Zm0,0" transform="translate(0 -29.779)" fill="#0e0e0e"/>
    <path id="Path_691" data-name="Path 691" d="M96.625,85.448V89.04c3.123,1.638,7.845.138,11.194-3.778,3.757-4.392,4.358-10.15,1.342-12.859a5.2,5.2,0,0,0-1.227-.821,14,14,0,0,0-11.31,13.866Zm0,0" transform="translate(-42.61 -44.434)" fill="#ffec95"/>
    <path id="Path_692" data-name="Path 692" d="M289.805,111.655A7.654,7.654,0,1,1,282.151,104,7.655,7.655,0,0,1,289.805,111.655Zm0,0" transform="translate(-197.795 -72.717)" fill="#fff"/>
    <g id="Group_2962" data-name="Group 2962" transform="translate(56.493 30.413)">
      <path id="Path_693" data-name="Path 693" d="M276.194,114.226a8.525,8.525,0,1,1,8.525-8.525A8.535,8.535,0,0,1,276.194,114.226Zm0-15.308a6.783,6.783,0,1,0,6.784,6.783A6.791,6.791,0,0,0,276.194,98.918Zm0,0" transform="translate(-248.33 -97.176)" fill="#0e0e0e"/>
      <path id="Path_694" data-name="Path 694" d="M214.237,288.636H212.5a.871.871,0,1,1,0-1.741h1.741a.871.871,0,1,1,0,1.741Zm0,0" transform="translate(-199.435 -262.696)" fill="#0e0e0e"/>
      <path id="Path_695" data-name="Path 695" d="M125.923,288.636h-9a.871.871,0,0,1,0-1.741h9a.871.871,0,0,1,0,1.741Zm0,0" transform="translate(-116.055 -262.696)" fill="#0e0e0e"/>
    </g>
    <path id="Path_696" data-name="Path 696" d="M303.02,142.189a2.091,2.091,0,0,1,1.305-3.422,2.354,2.354,0,0,1,.246-.012,2.4,2.4,0,0,1,2,1.076,2.4,2.4,0,0,1,2-1.076,2.356,2.356,0,0,1,.246.012,2.091,2.091,0,0,1,1.3,3.422l-3.553,4.3Zm0,0" transform="translate(-222.255 -103.038)" fill="#e66353"/>
  </g>
</svg>
