<svg xmlns="http://www.w3.org/2000/svg" width="175.74" height="227" viewBox="0 0 175.74 227">
  <g id="Group_2967" data-name="Group 2967" transform="translate(-858.129 -237)">
    <ellipse id="Ellipse_83" data-name="Ellipse 83" cx="37" cy="36.5" rx="37" ry="36.5" transform="translate(884 368)" fill="#76bffb" opacity="0.27"/>
    <ellipse id="Ellipse_84" data-name="Ellipse 84" cx="24.5" cy="25" rx="24.5" ry="25" transform="translate(975 349)" fill="#76bffb" opacity="0.27"/>
    <ellipse id="Ellipse_85" data-name="Ellipse 85" cx="17.5" cy="18" rx="17.5" ry="18" transform="translate(975 428)" fill="#76bffb" opacity="0.27"/>
    <g id="startup" transform="translate(945.999 237) rotate(45)">
      <path id="Path_711" data-name="Path 711" d="M0,0A130.823,130.823,0,0,0,7.259,34.988L34.988,7.259A130.822,130.822,0,0,0,0,0Z" transform="translate(3.061 2.988)" fill="#ff5249"/>
      <path id="Path_712" data-name="Path 712" d="M27.728,0,0,27.728c4.344,12.3,11.277,25.8,22.312,36.834A116.773,116.773,0,0,0,57.506,88.515L88.514,57.506A118.579,118.579,0,0,0,72.505,31.167a110.919,110.919,0,0,0-7.943-8.854C53.527,11.277,40.03,4.344,27.728,0Z" transform="translate(10.32 10.247)" fill="#fff"/>
      <path id="Path_713" data-name="Path 713" d="M3.5,3.5a11.95,11.95,0,1,0,16.9,0A11.95,11.95,0,0,0,3.5,3.5Z" transform="translate(33.36 33.287)" fill="#7bd8e8"/>
      <g id="Group_2966" data-name="Group 2966" transform="translate(36.697 36.623)">
        <path id="Path_714" data-name="Path 714" d="M4.387.5c-15.4,23.1,13.425,38.023,29.572,38.023-8.448-8.448-5.981-19.367-5.981-19.367l3.152-3.152A118.58,118.58,0,0,1,4.79,0Z" transform="translate(0 46.129)" fill="#ff5249"/>
        <path id="Path_715" data-name="Path 715" d="M34.48,21.879l.484-.484a5.791,5.791,0,0,0,1.628-5.464A104.1,104.1,0,0,0,31.008,0L0,31.009a104.107,104.107,0,0,0,15.931,5.583A5.791,5.791,0,0,0,21.4,34.964l.484-.484Z" transform="translate(31.129 31.13)" fill="#ff5249"/>
        <path id="Path_716" data-name="Path 716" d="M.5,4.387l-.5.4A118.58,118.58,0,0,1,16.009,31.13l3.152-3.152s10.919-2.468,19.367,5.981C38.528,17.812,23.6-11.01.5,4.387Z" transform="translate(46.129 0)" fill="#ff5249"/>
      </g>
      <path id="Path_717" data-name="Path 717" d="M12.6,0,0,12.6A23.543,23.543,0,0,0,6.3,23.2c7,7,25.347,8.448,25.347,8.448S30.2,13.3,23.2,6.3A23.543,23.543,0,0,0,12.6,0Z" transform="translate(89.705 89.632)" fill="#ffdd78"/>
      <path id="Path_718" data-name="Path 718" d="M.874,5.1A2.988,2.988,0,1,1,5.1,5.1,2.989,2.989,0,0,1,.874,5.1Z" transform="translate(71.819 71.821)"/>
      <path id="Path_719" data-name="Path 719" d="M4.378,25.5a14.937,14.937,0,1,1,21.123,0A14.93,14.93,0,0,1,4.378,25.5Zm16.9-16.9a8.962,8.962,0,1,0,0,12.675A8.958,8.958,0,0,0,21.277,8.6Z" transform="translate(30.295 30.296)"/>
      <path id="Path_720" data-name="Path 720" d="M122.422,73.342a2.986,2.986,0,0,1-3.256-.647,19.017,19.017,0,0,0-15.817-5.306L102.3,68.434a105.074,105.074,0,0,1,4.934,14.509,8.456,8.456,0,0,1-.362,5.189,28.29,28.29,0,0,1,8.067,5.688c7.69,7.69,9.251,26.431,9.314,27.225a2.987,2.987,0,0,1-2.977,3.222q-.117,0-.235-.009c-.794-.062-19.535-1.624-27.225-9.314a28.291,28.291,0,0,1-5.687-8.065,8.436,8.436,0,0,1-5.192.359A105.085,105.085,0,0,1,68.433,102.3l-1.046,1.046a19.018,19.018,0,0,0,5.306,15.816,2.987,2.987,0,0,1-2.112,5.1c-11.824,0-28.354-7.041-34.442-18.417-2.644-4.94-4.444-12.756,1.3-22.509-2.434-2.057-4.778-4.208-6.989-6.419C20.582,67.057,12.838,54.288,7.43,38.971A132.707,132.707,0,0,1,0,3.095,2.987,2.987,0,0,1,3.094,0,132.708,132.708,0,0,1,38.97,7.43c15.319,5.409,28.088,13.153,37.952,23.017,2.21,2.21,4.361,4.554,6.419,6.989,9.753-5.741,17.568-3.941,22.509-1.3,11.376,6.088,18.417,22.619,18.417,34.443A2.989,2.989,0,0,1,122.422,73.342ZM98.044,110.719c4.108,4.108,13.743,6.274,19.833,7.159-.885-6.091-3.052-15.726-7.159-19.833a21.528,21.528,0,0,0-7.648-5.026L93.017,103.071A21.524,21.524,0,0,0,98.044,110.719Zm-13.619-9.269a2.8,2.8,0,0,0,2.61-.847L100.6,87.038a2.805,2.805,0,0,0,.849-2.611,97,97,0,0,0-3.73-11.41l-24.7,24.7A96.936,96.936,0,0,0,84.424,101.451Zm-43.019,1.58c3.914,7.313,13.769,12.7,22.749,14.558-2.863-5.388-3.495-12.247-2.448-16.407a3.12,3.12,0,0,1,.908-1.509A120.829,120.829,0,0,1,42.156,87.122C39.047,92.8,38.791,98.144,41.406,103.03ZM11.557,32.439l20.88-20.88A134.305,134.305,0,0,0,6.225,6.226,134.328,134.328,0,0,0,11.557,32.439ZM72.7,34.672c-8.85-8.85-20.272-15.894-33.957-20.964L13.707,38.739C18.776,52.424,25.82,63.846,34.67,72.7a108.425,108.425,0,0,0,8.615,7.729A114.772,114.772,0,0,0,67.1,95.188L95.187,67.1A114.755,114.755,0,0,0,80.425,43.288,108.408,108.408,0,0,0,72.7,34.672Zm30.334,6.735c-4.887-2.615-10.229-2.359-15.908.75A120.786,120.786,0,0,1,99.672,62.616a3.149,3.149,0,0,1,1.581-.929,25.533,25.533,0,0,1,16.334,2.469C115.732,55.176,110.342,45.321,103.029,41.407Z" transform="translate(0 0)"/>
      <path id="Path_721" data-name="Path 721" d="M9.323,13.55.875,5.1A2.987,2.987,0,1,1,5.1.875l8.448,8.451A2.987,2.987,0,0,1,9.323,13.55Z" transform="translate(80.269 122.517)"/>
      <path id="Path_722" data-name="Path 722" d="M9.327,13.548.875,5.1A2.987,2.987,0,1,1,5.1.875L13.55,9.323a2.987,2.987,0,1,1-4.224,4.225Z" transform="translate(122.515 80.27)"/>
      <path id="Path_723" data-name="Path 723" d="M5.1.875,25.336,21.108a2.987,2.987,0,1,1-4.224,4.225L.875,5.1A2.987,2.987,0,0,1,5.1.875Z" transform="translate(101.392 126.744)"/>
      <path id="Path_724" data-name="Path 724" d="M5.1.875,25.336,21.108a2.987,2.987,0,1,1-4.224,4.225L.875,5.1A2.987,2.987,0,0,1,5.1.875Z" transform="translate(125.291 126.744)"/>
      <path id="Path_725" data-name="Path 725" d="M21.108,25.336.875,5.1A2.987,2.987,0,1,1,5.1.875L25.333,21.111a2.987,2.987,0,1,1-4.225,4.225Z" transform="translate(126.742 101.393)"/>
      <path id="Path_726" data-name="Path 726" d="M5.1,9.324.875,5.1A2.988,2.988,0,0,1,5.1.875L9.324,5.1A2.987,2.987,0,1,1,5.1,9.324Z" transform="translate(59.145 59.146)"/>
    </g>
  </g>
</svg>
