<svg xmlns="http://www.w3.org/2000/svg" width="29.652" height="29.654" viewBox="0 0 29.652 29.654">
  <g id="searching" transform="translate(-0.021 0)">
    <g id="Group_2957" data-name="Group 2957" transform="translate(0.455 0.434)">
      <path id="Path_639" data-name="Path 639" d="M302,299.482a68.634,68.634,0,0,1,9.348,7.483s.364,1.253-1.372,2.988-2.988,1.372-2.988,1.372a68.637,68.637,0,0,1-7.483-9.348" transform="translate(-282.591 -282.57)" fill="#76bffb"/>
      <path id="Path_640" data-name="Path 640" d="M299.508,327.82l.906-.906c4.391,4.835,8.053,8.554,8.934,9.443a2.867,2.867,0,0,1-2.357.811A68.627,68.627,0,0,1,299.508,327.82Z" transform="translate(-282.596 -308.414)" fill="#40a9ff"/>
      <circle id="Ellipse_81" data-name="Ellipse 81" cx="11.322" cy="11.322" r="11.322" transform="translate(0)" fill="#ffa000"/>
      <path id="Path_641" data-name="Path 641" d="M19.7,30.114q-.424.031-.855.032a11.322,11.322,0,1,1,0-22.644q.432,0,.855.032a11.323,11.323,0,0,0,0,22.58Z" transform="translate(-7.522 -7.502)" fill="#e27d47"/>
      <circle id="Ellipse_82" data-name="Ellipse 82" cx="7.726" cy="7.726" r="7.726" transform="translate(3.595 3.595)" fill="#f1f4f6"/>
      <path id="Path_642" data-name="Path 642" d="M69.6,77.3a7.727,7.727,0,0,1,7.727-7.727,7.854,7.854,0,0,1,1.061.072,7.728,7.728,0,0,0,0,15.309,7.846,7.846,0,0,1-1.061.072A7.726,7.726,0,0,1,69.6,77.3Z" transform="translate(-66.001 -65.978)" fill="#d0e2e7"/>
    </g>
    <g id="Group_2958" data-name="Group 2958" transform="translate(0.021 0)">
      <path id="Path_645" data-name="Path 645" d="M29.627,24.708a.434.434,0,0,0-.11-.186,68.061,68.061,0,0,0-7.832-6.443A11.758,11.758,0,0,0,7.185.931a.434.434,0,1,0,.34.8A10.884,10.884,0,1,1,2.306,6.383,10.962,10.962,0,0,1,6.042,2.5a.434.434,0,1,0-.458-.738,11.757,11.757,0,0,0,6.193,21.751,11.687,11.687,0,0,0,6.324-1.85c1.293,1.818,2.672,3.586,4.1,5.26a.434.434,0,0,0,.66-.565c-1.414-1.652-2.775-3.4-4.051-5.191a11.857,11.857,0,0,0,2.375-2.375A68.6,68.6,0,0,1,28.8,25.04a3.312,3.312,0,0,1-1.274,2.47,3.312,3.312,0,0,1-2.47,1.274c-.166-.17-.537-.557-1.055-1.13a.434.434,0,0,0-.644.583c.729.8,1.163,1.241,1.181,1.259a.434.434,0,0,0,.186.11,1.632,1.632,0,0,0,.431.048,2.745,2.745,0,0,0,.634-.078,5.093,5.093,0,0,0,2.351-1.452c1.9-1.9,1.5-3.355,1.482-3.416Z" transform="translate(-0.021 0)"/>
      <path id="Path_646" data-name="Path 646" d="M62.1,70.236a8.161,8.161,0,1,0,8.161-8.161A8.17,8.17,0,0,0,62.1,70.236Zm8.161-7.292a7.292,7.292,0,1,1-7.292,7.292A7.3,7.3,0,0,1,70.257,62.944Z" transform="translate(-58.501 -58.48)"/>
    </g>
  </g>
</svg>
