<svg id="shuttle" xmlns="http://www.w3.org/2000/svg" width="25.956" height="25.956" viewBox="0 0 25.956 25.956">
  <path id="Path_34669" data-name="Path 34669" d="M6.6,138.268l-2.249.174a2.006,2.006,0,0,0-1.529.9L.231,143.264a1.39,1.39,0,0,0,.947,2.14l2.059.319A18.437,18.437,0,0,1,6.6,138.268Z" transform="translate(0 -131.259)" fill="#00a89b"/>
  <path id="Path_34670" data-name="Path 34670" d="M226.682,385.129l.319,2.059a1.389,1.389,0,0,0,2.14.947l3.922-2.593a2.006,2.006,0,0,0,.9-1.529l.174-2.249A18.436,18.436,0,0,1,226.682,385.129Z" transform="translate(-215.191 -362.411)" fill="#00a89b"/>
  <path id="Path_34671" data-name="Path 34671" d="M98.057,244.8a1.307,1.307,0,0,0,.215-.018,14.9,14.9,0,0,0,3.088-.875L92.9,235.448a14.9,14.9,0,0,0-.875,3.088,1.327,1.327,0,0,0,.374,1.155l4.722,4.722A1.332,1.332,0,0,0,98.057,244.8Z" transform="translate(-87.34 -223.512)" fill="#00a89b"/>
  <path id="Path_34672" data-name="Path 34672" d="M140.568,11.508a20.5,20.5,0,0,0,2.039-10.218A1.333,1.333,0,0,0,141.348.03c-.323-.018-.706-.03-1.138-.03a20.089,20.089,0,0,0-9.081,2.07,20.657,20.657,0,0,0-8.217,8.4.764.764,0,0,1,.071.062l9.125,9.125a.762.762,0,0,1,.062.07A20.657,20.657,0,0,0,140.568,11.508Zm-8.794-6.021a3.8,3.8,0,1,1-1.114,2.688,3.806,3.806,0,0,1,1.114-2.688Z" transform="translate(-116.682 0)" fill="#00a89b"/>
  <path id="Path_34673" data-name="Path 34673" d="M306.4,120.187a2.281,2.281,0,1,0-.668-1.613A2.284,2.284,0,0,0,306.4,120.187Z" transform="translate(-290.232 -110.399)" fill="#00a89b"/>
  <path id="Path_34674" data-name="Path 34674" d="M1.065,346.968a.758.758,0,0,0,.538-.223l2.483-2.483a.76.76,0,1,0-1.075-1.075L.527,345.67a.76.76,0,0,0,.538,1.3Z" transform="translate(-0.289 -325.578)" fill="#00a89b"/>
  <path id="Path_34675" data-name="Path 34675" d="M6.075,388.068a.76.76,0,0,0-1.075,0L.226,392.841A.76.76,0,1,0,1.3,393.917l4.773-4.773a.76.76,0,0,0,0-1.075Z" transform="translate(-0.003 -368.184)" fill="#00a89b"/>
  <path id="Path_34676" data-name="Path 34676" d="M92.772,432.949l-2.483,2.483a.76.76,0,1,0,1.075,1.075l2.483-2.483a.76.76,0,1,0-1.075-1.075Z" transform="translate(-85.501 -410.79)" fill="#00a89b"/>
</svg>
