<svg id="menu_1_" data-name="menu (1)" xmlns="http://www.w3.org/2000/svg" width="54.5" height="54.5" viewBox="0 0 54.5 54.5">
  <g id="Group_2593" data-name="Group 2593">
    <path id="Path_280" data-name="Path 280" d="M48.113,29.379H35.766a6.394,6.394,0,0,0-6.387,6.387V48.113A6.394,6.394,0,0,0,35.766,54.5H48.113A6.394,6.394,0,0,0,54.5,48.113V35.766A6.394,6.394,0,0,0,48.113,29.379Zm2.129,18.734a2.131,2.131,0,0,1-2.129,2.129H35.766a2.131,2.131,0,0,1-2.129-2.129V35.766a2.131,2.131,0,0,1,2.129-2.129H48.113a2.131,2.131,0,0,1,2.129,2.129ZM18.734,29.379H6.387A6.394,6.394,0,0,0,0,35.766V48.113A6.394,6.394,0,0,0,6.387,54.5H18.734a6.394,6.394,0,0,0,6.387-6.387V35.766A6.394,6.394,0,0,0,18.734,29.379Zm2.129,18.734a2.131,2.131,0,0,1-2.129,2.129H6.387a2.131,2.131,0,0,1-2.129-2.129V35.766a2.131,2.131,0,0,1,2.129-2.129H18.734a2.131,2.131,0,0,1,2.129,2.129ZM18.734,0H6.387A6.394,6.394,0,0,0,0,6.387V18.734a6.394,6.394,0,0,0,6.387,6.387H18.734a6.394,6.394,0,0,0,6.387-6.387V6.387A6.394,6.394,0,0,0,18.734,0Zm2.129,18.734a2.131,2.131,0,0,1-2.129,2.129H6.387a2.131,2.131,0,0,1-2.129-2.129V6.387A2.131,2.131,0,0,1,6.387,4.258H18.734a2.131,2.131,0,0,1,2.129,2.129ZM48.113,0H35.766a6.394,6.394,0,0,0-6.387,6.387V18.734a6.394,6.394,0,0,0,6.387,6.387H48.113A6.394,6.394,0,0,0,54.5,18.734V6.387A6.394,6.394,0,0,0,48.113,0Zm2.129,18.734a2.131,2.131,0,0,1-2.129,2.129H35.766a2.131,2.131,0,0,1-2.129-2.129V6.387a2.131,2.131,0,0,1,2.129-2.129H48.113a2.131,2.131,0,0,1,2.129,2.129Z" fill="#00a89b"/>
  </g>
</svg>
