<svg xmlns="http://www.w3.org/2000/svg" width="47.657" height="47.659" viewBox="0 0 47.657 47.659">
  <g id="love" transform="translate(0 0)">
    <path id="Path_60" data-name="Path 60" d="M45.4,24.979a.963.963,0,0,1-.973.973H39.568V40.541a2.914,2.914,0,0,1-2.918,2.918h-21.4a2.914,2.914,0,0,1-2.918-2.918V25.952H7.473a.963.963,0,0,1-.973-.973.984.984,0,0,1,.311-.72L25.952,6.5l7.781,7.217V8.445h5.836V19.124l2.237,2.081,3.287,3.054a.984.984,0,0,1,.311.72Z" transform="translate(-5.041 -5.039)" fill="#f3f3f1"/>
    <path id="Path_61" data-name="Path 61" d="M40,24.143c0,6.594-5.563,12.266-11.2,15.579H28.8c-5.581-3.357-11.006-9.086-11.006-15.579a5.719,5.719,0,0,1,5.845-5.583,5.869,5.869,0,0,1,5.26,3.149,5.872,5.872,0,0,1,5.26-3.149A5.721,5.721,0,0,1,40,24.143Z" transform="translate(5.631 6.36)" fill="#fed74b"/>
    <path id="Path_62" data-name="Path 62" d="M16.308,34.007h-3.89A2.914,2.914,0,0,1,9.5,31.089V16.5h3.89V31.089A2.914,2.914,0,0,0,16.308,34.007Z" transform="translate(-2.206 4.413)" fill="#d5dbe1"/>
    <path id="Path_63" data-name="Path 63" d="M11.363,25.952H7.473a.963.963,0,0,1-.973-.973.984.984,0,0,1,.311-.72L25.952,6.5,27.9,8.309,10.7,24.26a.984.984,0,0,0-.311.72A.963.963,0,0,0,11.363,25.952Z" transform="translate(-5.041 -5.039)" fill="#d5dbe1"/>
    <path id="Path_64" data-name="Path 64" d="M30.784,38.459c-.661.447-1.323.875-1.984,1.264a28.3,28.3,0,0,1-7.606-6.614,14.883,14.883,0,0,1-3.4-8.967,5.848,5.848,0,0,1,7.781-5.252,5.59,5.59,0,0,0-3.89,5.252,14.883,14.883,0,0,0,3.4,8.967,26.539,26.539,0,0,0,5.7,5.349Z" transform="translate(5.63 6.36)" fill="#feaa4b"/>
    <path id="Path_65" data-name="Path 65" d="M29.88,42.065a1.466,1.466,0,0,1-.873-.29C27.752,40.839,16.75,32.421,16.75,25.3a7.551,7.551,0,0,1,13.13-5.087A7.551,7.551,0,0,1,43.01,25.3c0,7.121-11,15.538-12.257,16.476A1.466,1.466,0,0,1,29.88,42.065ZM24.3,20.668a4.635,4.635,0,0,0-4.63,4.631c0,4.408,6.715,10.671,10.212,13.463,3.5-2.793,10.212-9.063,10.212-13.463a4.631,4.631,0,0,0-8.874-1.856,1.521,1.521,0,0,1-2.677,0A4.618,4.618,0,0,0,24.3,20.668Z" transform="translate(4.647 5.594)" fill="#0e0e0e"/>
    <path id="Path_66" data-name="Path 66" d="M24.716,45.627H15.962a4.382,4.382,0,0,1-4.377-4.377V28.121h-3.4A2.435,2.435,0,0,1,5.75,25.689a2.463,2.463,0,0,1,.8-1.807L25.669,6.14a1.457,1.457,0,0,1,1.986,0l5.33,4.943V9.155A1.459,1.459,0,0,1,34.443,7.7h5.836a1.459,1.459,0,0,1,1.459,1.459V19.2L46.8,23.9l-1.986,2.14L39.287,20.9a1.471,1.471,0,0,1-.465-1.07v-9.22H35.9v3.813a1.458,1.458,0,0,1-2.451,1.07L26.661,9.2,9.413,25.2h3.632A1.459,1.459,0,0,1,14.5,26.662V41.251a1.461,1.461,0,0,0,1.459,1.459h8.753Zm-16.19-19.6-.014.012Z" transform="translate(-5.75 -5.749)" fill="#0e0e0e"/>
  </g>
</svg>
