<svg id="third-quarter" xmlns="http://www.w3.org/2000/svg" width="27.667" height="27.667" viewBox="0 0 27.667 27.667">
  <g id="Group_28" data-name="Group 28" transform="translate(4.611 4.611)">
    <path id="Path_80" data-name="Path 80" d="M21.676,12.453H13.99V4.769A.768.768,0,0,0,13.222,4a9.222,9.222,0,1,0,9.222,9.222A.769.769,0,0,0,21.676,12.453Z" transform="translate(-4 -4)" fill="#00a89b"/>
  </g>
  <g id="Group_29" data-name="Group 29">
    <path id="Path_81" data-name="Path 81" d="M13.833,27.667A13.833,13.833,0,1,1,27.667,13.833,13.849,13.849,0,0,1,13.833,27.667Zm0-25.361A11.528,11.528,0,1,0,25.361,13.833,11.541,11.541,0,0,0,13.833,2.306Z" fill="#00a89b"/>
  </g>
</svg>
