<svg xmlns="http://www.w3.org/2000/svg" width="155.612" height="200" viewBox="0 0 155.612 200">
  <g id="timer-clock" transform="translate(-5.399 -3.832)">
    <path id="Path_34682" data-name="Path 34682" d="M87.385,57.346a4.227,4.227,0,0,0-4.227,4.226v52.854L51.117,137.041a4.228,4.228,0,0,0,2.443,7.676A4.125,4.125,0,0,0,56,143.934l33.833-23.879a4.253,4.253,0,0,0,1.783-3.45V61.571a4.22,4.22,0,0,0-4.226-4.225" fill="#00a89b"/>
    <path id="Path_34683" data-name="Path 34683" d="M158.385,112.906A75.272,75.272,0,1,0,36.1,171.592L20.962,197.46a4.226,4.226,0,0,0,7.291,4.275L43.027,176.5a74.67,74.67,0,0,0,80.179.009l14.766,25.231a4.236,4.236,0,0,0,3.648,2.089,4.216,4.216,0,0,0,3.649-6.364l-15.138-25.859a75.214,75.214,0,0,0,28.254-58.7M83.109,179.722a66.817,66.817,0,1,1,66.815-66.815,66.9,66.9,0,0,1-66.815,66.815" fill="#00a89b"/>
    <path id="Path_34684" data-name="Path 34684" d="M13.294,53.169a4.187,4.187,0,0,0,2.113-.565l47.22-27.267a4.215,4.215,0,0,0,1.54-5.766A31.489,31.489,0,0,0,9.625,51.056a4.225,4.225,0,0,0,3.669,2.113m1.353-23.816A23.042,23.042,0,0,1,54.4,20.328L15.163,42.976a22.943,22.943,0,0,1-.516-13.623" fill="#00a89b"/>
    <path id="Path_34685" data-name="Path 34685" d="M103.785,25.345l47.221,27.267a4.272,4.272,0,0,0,2.113.565,4.363,4.363,0,0,0,1.1-.144,4.194,4.194,0,0,0,2.559-1.969A31.485,31.485,0,1,0,102.242,19.58a4.2,4.2,0,0,0,1.543,5.765m37.242-9.983a23.088,23.088,0,0,1,10.21,27.613L112,20.322a23.108,23.108,0,0,1,29.029-4.96" fill="#00a89b"/>
  </g>
</svg>
