<svg id="XMLID_235_" xmlns="http://www.w3.org/2000/svg" width="28.4" height="28.4" viewBox="0 0 28.4 28.4">
  <circle id="XMLID_492_" cx="14" cy="14" r="14" transform="translate(0.2 0.2)" fill="#98eaf9"/>
  <ellipse id="XMLID_413_" cx="5" cy="14" rx="5" ry="14" transform="translate(9.2 0.2)" fill="#cbf4fb"/>
  <circle id="XMLID_325_" cx="1.775" cy="1.775" r="1.775" transform="translate(16.715 16.974)" fill="#fff"/>
  <circle id="XMLID_323_" cx="2" cy="2" r="2" transform="translate(8.2 8.2)" fill="#fff"/>
  <circle id="XMLID_320_" cx="2" cy="2" r="2" transform="translate(22.2 2.2)" fill="#ffee80"/>
  <circle id="XMLID_318_" cx="2" cy="2" r="2" transform="translate(2.2 22.2)" fill="#ffee80"/>
  <g id="XMLID_164_">
    <path id="XMLID_196_" d="M25.735,5.918a2.328,2.328,0,0,0-3.252-3.252A14.2,14.2,0,0,0,6.021,2.591a.555.555,0,0,0,.64.906,12.984,12.984,0,0,1,5.326-2.2,7.123,7.123,0,0,0-.666,1.032,17.944,17.944,0,0,0-1.615,5A2.334,2.334,0,0,0,7.611,9.1H2.142A13.046,13.046,0,0,1,3.326,6.909a.555.555,0,0,0-.921-.619,14.206,14.206,0,0,0,.26,16.193,2.328,2.328,0,0,0,3.252,3.252A14.2,14.2,0,0,0,28.4,14.2a14.061,14.061,0,0,0-2.665-8.282Zm.932,12.276H20.752a2.338,2.338,0,0,0-1.516-1.652c.044-.771.067-1.556.067-2.342,0-1.372-.066-2.714-.195-3.994h7.565a13.166,13.166,0,0,1-.007,7.988ZM14.2,27.291c-.929,0-1.935-1.352-2.69-3.617a24.473,24.473,0,0,1-.971-4.37h5.688A2.339,2.339,0,0,0,17.6,20.9c-.844,4.409-2.3,6.39-3.4,6.39ZM4.548,21.522a2.315,2.315,0,0,0-1.033.242A13.047,13.047,0,0,1,2.138,19.3H9.42a25.817,25.817,0,0,0,1.038,4.721,10.375,10.375,0,0,0,1.522,3.08,12.926,12.926,0,0,1-5.343-2.22,2.328,2.328,0,0,0-2.087-3.363ZM10.206,14.2c0-.757.022-1.512.064-2.253a2.336,2.336,0,0,0,1.866-1.741h5.858a39.1,39.1,0,0,1,.2,3.994c0,.754-.022,1.507-.063,2.247a2.336,2.336,0,0,0-1.9,1.747H10.406a39.13,39.13,0,0,1-.2-3.994Zm8.283,5.769a1.22,1.22,0,1,1,1.22-1.22A1.222,1.222,0,0,1,18.49,19.969ZM17.943,4.376A10.375,10.375,0,0,0,16.421,1.3a12.923,12.923,0,0,1,5.344,2.22,2.328,2.328,0,0,0,3.12,3.121A13.04,13.04,0,0,1,26.262,9.1H18.98a25.821,25.821,0,0,0-1.038-4.721Zm7.13.173a1.22,1.22,0,1,1-1.22-1.22A1.222,1.222,0,0,1,25.073,4.549ZM14.2,1.109c.929,0,1.935,1.352,2.69,3.617a24.474,24.474,0,0,1,.971,4.37H12.136A2.339,2.339,0,0,0,10.8,7.514c.843-4.419,2.3-6.4,3.4-6.4ZM9.873,8.431a1.22,1.22,0,1,1-1.22,1.22A1.222,1.222,0,0,1,9.873,8.431ZM7.611,10.206A2.338,2.338,0,0,0,9.163,11.87c-.043.766-.066,1.547-.066,2.33,0,1.372.066,2.714.195,3.994H1.727a13.2,13.2,0,0,1,0-7.988ZM3.328,23.852a1.22,1.22,0,1,1,1.22,1.22A1.222,1.222,0,0,1,3.328,23.852ZM16.415,27.1a7.117,7.117,0,0,0,.661-1.022,17.927,17.927,0,0,0,1.62-5.011A2.334,2.334,0,0,0,20.752,19.3h5.5a13.134,13.134,0,0,1-9.84,7.8Z" transform="translate(0)"/>
    <path id="XMLID_1702_" d="M70.615,75.169a.555.555,0,1,0-.392-.163A.558.558,0,0,0,70.615,75.169Z" transform="translate(-66.174 -69.952)"/>
  </g>
</svg>
