<svg xmlns="http://www.w3.org/2000/svg" width="117" height="97" viewBox="0 0 117 97">
  <g id="Group_3121" data-name="Group 3121" transform="translate(-1018 -452)">
    <g id="Group_2982" data-name="Group 2982" transform="translate(1017.753 451.652)">
      <ellipse id="Ellipse_83" data-name="Ellipse 83" cx="15" cy="14.5" rx="15" ry="14.5" transform="translate(0.247 33.348)" fill="#76bffb" opacity="0.27"/>
      <circle id="Ellipse_84" data-name="Ellipse 84" cx="20" cy="20" r="20" transform="translate(77.247 0.348)" fill="#76bffb" opacity="0.27"/>
      <circle id="Ellipse_85" data-name="Ellipse 85" cx="14.5" cy="14.5" r="14.5" transform="translate(83.247 66.348)" fill="#76bffb" opacity="0.27"/>
    </g>
    <g id="password" transform="translate(1033.126 467.854)">
      <g id="Group_2989" data-name="Group 2989" transform="translate(1.319 14.771)">
        <g id="Group_2988" data-name="Group 2988">
          <path id="Path_799" data-name="Path 799" d="M8.375,109.29,7.5,110.867v45.578a5.446,5.446,0,0,0,5.446,5.446H89.459a5.446,5.446,0,0,0,5.446-5.446V110.867l-.875-1.577Z" transform="translate(-7.5 -109.29)" fill="#ddeafb"/>
        </g>
      </g>
      <g id="Group_2991" data-name="Group 2991" transform="translate(1.319 14.771)">
        <g id="Group_2990" data-name="Group 2990">
          <path id="Path_800" data-name="Path 800" d="M85.988,109.29v38.237a5.446,5.446,0,0,1-5.446,5.446H7.5v3.471a5.446,5.446,0,0,0,5.446,5.446H89.459a5.446,5.446,0,0,0,5.446-5.446V110.867l-.875-1.577Z" transform="translate(-7.5 -109.29)" fill="#cbe2ff"/>
        </g>
      </g>
      <g id="Group_2993" data-name="Group 2993" transform="translate(1.319 1.319)">
        <g id="Group_2992" data-name="Group 2992">
          <path id="Path_801" data-name="Path 801" d="M89.459,32.8H12.946A5.446,5.446,0,0,0,7.5,38.244v9.583H94.9V38.244A5.446,5.446,0,0,0,89.459,32.8Z" transform="translate(-7.5 -32.798)" fill="#698ed5"/>
        </g>
      </g>
      <g id="Group_2995" data-name="Group 2995" transform="translate(79.807 1.319)">
        <g id="Group_2994" data-name="Group 2994">
          <path id="Path_802" data-name="Path 802" d="M457.266,32.8h-3.471V47.827h8.917V38.244A5.446,5.446,0,0,0,457.266,32.8Z" transform="translate(-453.795 -32.798)" fill="#4073c8"/>
        </g>
      </g>
      <g id="Group_2996" data-name="Group 2996" transform="translate(9.923 27.29)">
        <path id="Path_803" data-name="Path 803" d="M106.537,201.637H61.524a5.1,5.1,0,0,1-5.1-5.1V185.575a5.1,5.1,0,0,1,5.1-5.1h45.013a5.1,5.1,0,0,1,5.1,5.1v10.962A5.1,5.1,0,0,1,106.537,201.637Z" transform="translate(-56.424 -180.475)" fill="#f6f1f1"/>
      </g>
      <g id="Group_2997" data-name="Group 2997" transform="translate(10.104 27.471)">
        <path id="Path_804" data-name="Path 804" d="M108.731,181.5a5.105,5.105,0,0,1,.181,1.346v13.794a2.268,2.268,0,0,1-2.268,2.268H58.8a5.1,5.1,0,0,1-1.346-.181,5.1,5.1,0,0,0,4.919,3.754h45.013a5.1,5.1,0,0,0,5.1-5.1V186.423A5.1,5.1,0,0,0,108.731,181.5Z" transform="translate(-57.453 -181.504)" fill="#efe7e4"/>
      </g>
      <g id="Group_3002" data-name="Group 3002" transform="translate(40.251 54.812)">
        <g id="Group_2998" data-name="Group 2998" transform="translate(14.133 14.133)">
          <path id="Path_805" data-name="Path 805" d="M319.862,423.9l-6.579-6.579-4.047,4.047,6.579,6.579a.879.879,0,0,0,1.244,0l2.8-2.8A.879.879,0,0,0,319.862,423.9Z" transform="translate(-309.236 -417.326)" fill="#f6f1f1"/>
        </g>
        <g id="Group_2999" data-name="Group 2999" transform="translate(14.133 16.349)">
          <path id="Path_806" data-name="Path 806" d="M318.654,433.084l-1.595,1.595a.879.879,0,0,1-1.244,0l-4.749-4.749-1.83,1.83,6.579,6.579a.879.879,0,0,0,1.244,0l2.8-2.8a.879.879,0,0,0,0-1.243Z" transform="translate(-309.237 -429.93)" fill="#efe7e4"/>
        </g>
        <g id="Group_3000" data-name="Group 3000" transform="translate(0 0)">
          <path id="Path_807" data-name="Path 807" d="M230.064,337.023l23.238,8.649a.7.7,0,0,1,.252,1.157l-14.816,14.816a.7.7,0,0,1-1.157-.252l-8.648-23.238A.879.879,0,0,1,230.064,337.023Z" transform="translate(-228.876 -336.966)" fill="#f6f1f1"/>
        </g>
        <g id="Group_3001" data-name="Group 3001" transform="translate(0 0)">
          <path id="Path_808" data-name="Path 808" d="M253.3,345.672l-3.027-1.127-9.9,9.9a.7.7,0,0,1-1.157-.252l-5.945-15.975-3.209-1.194a.879.879,0,0,0-1.131,1.131l8.649,23.238a.7.7,0,0,0,1.157.252l14.816-14.816A.7.7,0,0,0,253.3,345.672Z" transform="translate(-228.877 -336.966)" fill="#efe7e4"/>
        </g>
      </g>
      <g id="Group_3009" data-name="Group 3009" transform="translate(8.74 6.39)">
        <g id="Group_3004" data-name="Group 3004" transform="translate(0 0)">
          <g id="Group_3003" data-name="Group 3003">
            <ellipse id="Ellipse_91" data-name="Ellipse 91" cx="2.443" cy="2.443" rx="2.443" ry="2.443"/>
          </g>
        </g>
        <g id="Group_3006" data-name="Group 3006" transform="translate(7.516 0)">
          <g id="Group_3005" data-name="Group 3005">
            <ellipse id="Ellipse_92" data-name="Ellipse 92" cx="2.443" cy="2.443" rx="2.443" ry="2.443"/>
          </g>
        </g>
        <g id="Group_3008" data-name="Group 3008" transform="translate(15.032 0)">
          <g id="Group_3007" data-name="Group 3007">
            <ellipse id="Ellipse_93" data-name="Ellipse 93" cx="2.443" cy="2.443" rx="2.443" ry="2.443"/>
          </g>
        </g>
      </g>
      <g id="Group_3010" data-name="Group 3010" transform="translate(70.859 31.457)">
        <path id="Path_809" data-name="Path 809" d="M408.227,214.78a1.315,1.315,0,0,1-.933-.386l-3.988-3.988a1.319,1.319,0,1,1,1.865-1.865l3.056,3.056,7.044-7.044a1.319,1.319,0,1,1,1.865,1.865l-7.977,7.977A1.313,1.313,0,0,1,408.227,214.78Z" transform="translate(-402.919 -204.165)"/>
      </g>
      <g id="Group_3011" data-name="Group 3011" transform="translate(8.604 25.971)">
        <path id="Path_810" data-name="Path 810" d="M100.356,196.775H64.709a1.319,1.319,0,0,1,0-2.638h35.647a3.785,3.785,0,0,0,3.781-3.781V179.394a3.785,3.785,0,0,0-3.781-3.781H55.343a3.785,3.785,0,0,0-3.781,3.781v10.962a3.785,3.785,0,0,0,3.781,3.781H58.3a1.319,1.319,0,0,1,0,2.638H55.343a6.426,6.426,0,0,1-6.419-6.419V179.394a6.426,6.426,0,0,1,6.419-6.419h45.013a6.426,6.426,0,0,1,6.419,6.419v10.962A6.426,6.426,0,0,1,100.356,196.775Z" transform="translate(-48.924 -172.975)"/>
      </g>
      <g id="Group_3012" data-name="Group 3012" transform="translate(17.949 31.418)">
        <path id="Path_811" data-name="Path 811" d="M113.161,207.1a1.319,1.319,0,0,0-1.8-.483l-2.341,1.351v-2.7a1.319,1.319,0,0,0-2.638,0v2.7l-2.341-1.351a1.319,1.319,0,0,0-1.319,2.284l2.341,1.351-2.341,1.351a1.319,1.319,0,1,0,1.319,2.284l2.341-1.351v2.7a1.319,1.319,0,0,0,2.638,0v-2.7l2.341,1.351a1.319,1.319,0,1,0,1.319-2.284l-2.341-1.351,2.341-1.351A1.318,1.318,0,0,0,113.161,207.1Z" transform="translate(-102.061 -203.945)"/>
        <path id="Path_812" data-name="Path 812" d="M192.331,207.1a1.319,1.319,0,0,0-1.8-.483l-2.341,1.351v-2.7a1.319,1.319,0,0,0-2.638,0v2.7l-2.341-1.351a1.319,1.319,0,0,0-1.319,2.284l2.341,1.351-2.341,1.351a1.319,1.319,0,1,0,1.319,2.284l2.341-1.351v2.7a1.319,1.319,0,0,0,2.638,0v-2.7l2.341,1.351a1.319,1.319,0,0,0,1.319-2.284l-2.341-1.351,2.341-1.351A1.319,1.319,0,0,0,192.331,207.1Z" transform="translate(-167.308 -203.945)"/>
        <path id="Path_813" data-name="Path 813" d="M271.233,211.6l-2.341-1.351,2.341-1.351a1.319,1.319,0,1,0-1.319-2.284l-2.341,1.351v-2.7a1.319,1.319,0,1,0-2.638,0v2.7l-2.341-1.351a1.319,1.319,0,0,0-1.319,2.284l2.341,1.351-2.341,1.351a1.319,1.319,0,1,0,1.319,2.284l2.341-1.351v2.7a1.319,1.319,0,0,0,2.638,0v-2.7l2.341,1.351a1.319,1.319,0,1,0,1.319-2.284Z" transform="translate(-232.732 -203.945)"/>
      </g>
      <path id="Path_814" data-name="Path 814" d="M83.278,25.3H80.512a1.319,1.319,0,0,0,0,2.638h2.766A4.131,4.131,0,0,1,87.4,32.062v8.264H2.638V32.062a4.132,4.132,0,0,1,4.127-4.127H73.812a1.319,1.319,0,1,0,0-2.638H6.765A6.773,6.773,0,0,0,0,32.062V87.222a6.773,6.773,0,0,0,6.765,6.765H43.624L47.721,105a2.023,2.023,0,0,0,3.326.725l4.452-4.452L60.03,105.8a2.2,2.2,0,0,0,3.109,0l2.8-2.8a2.2,2.2,0,0,0,0-3.109l-4.532-4.532L65.862,90.9a2.023,2.023,0,0,0-.725-3.326L41.9,78.93a2.2,2.2,0,0,0-2.827,2.827l3.57,9.593H6.765a4.132,4.132,0,0,1-4.127-4.127V42.964H87.4V87.222a4.132,4.132,0,0,1-4.127,4.127H70.72a1.319,1.319,0,0,0,0,2.638H83.278a6.773,6.773,0,0,0,6.765-6.765V32.062A6.773,6.773,0,0,0,83.278,25.3ZM63.319,89.716l-4.707,4.707a1.319,1.319,0,0,0,0,1.865l5.153,5.154-2.181,2.181-5.154-5.154a1.319,1.319,0,0,0-1.865,0l-4.707,4.707L41.88,81.737Z" transform="translate(0 -25.297)"/>
    </g>
  </g>
</svg>
