<svg xmlns="http://www.w3.org/2000/svg" width="107" height="102.269" viewBox="0 0 107 102.269">
  <g id="Group_2972" data-name="Group 2972" transform="translate(-1187.094 -228.667)">
    <ellipse id="Ellipse_83" data-name="Ellipse 83" cx="14" cy="13.5" rx="14" ry="13.5" transform="translate(1187.094 258.667)" fill="#76bffb" opacity="0.27"/>
    <circle id="Ellipse_84" data-name="Ellipse 84" cx="18.5" cy="18.5" r="18.5" transform="translate(1257.094 228.667)" fill="#76bffb" opacity="0.27"/>
    <ellipse id="Ellipse_85" data-name="Ellipse 85" cx="13" cy="13.5" rx="13" ry="13.5" transform="translate(1263.094 288.667)" fill="#76bffb" opacity="0.27"/>
    <g id="browser_2_" data-name="browser (2)" transform="translate(1192.798 232.356)">
      <g id="Group_2983" data-name="Group 2983" transform="translate(6.344 1.926)">
        <path id="Path_785" data-name="Path 785" d="M94.556,15.2a5.2,5.2,0,0,0-5.2-5.2H19.619a5.2,5.2,0,0,0-5.2,5.2v8.192H94.556Z" transform="translate(-14.418 -10)" fill="#ff7e96"/>
      </g>
      <g id="Group_2984" data-name="Group 2984" transform="translate(6.344 15.319)">
        <path id="Path_786" data-name="Path 786" d="M85.066,141.83l-1.618-13.208a.62.62,0,0,1,.928-.61l10.18,5.963V79.558H14.418V136.63a5.2,5.2,0,0,0,5.2,5.2H85.066Z" transform="translate(-14.418 -79.558)" fill="#fff"/>
      </g>
      <g id="Group_2985" data-name="Group 2985" transform="translate(75.368 63.688)">
        <path id="Path_787" data-name="Path 787" d="M372.89,331.448l2.979,24.308a.62.62,0,0,0,1.1.312l3.43-4.284a.62.62,0,0,1,1,.047l7.634,11.615a.62.62,0,0,0,.858.178l3.359-2.207,3.359-2.207a.62.62,0,0,0,.178-.858l-7.634-11.615a.62.62,0,0,1,.354-.938l5.293-1.45a.62.62,0,0,0,.15-1.132l-21.131-12.378a.62.62,0,0,0-.929.61Z" transform="translate(-372.885 -330.752)" fill="#838eb1"/>
      </g>
      <g id="Group_2986" data-name="Group 2986" transform="translate(21.386 27.157)">
        <path id="Path_788" data-name="Path 788" d="M92.541,141.035h12.921v12.871H92.541Z" transform="translate(-92.541 -141.035)" fill="#ffd88e"/>
      </g>
      <g id="Group_2987" data-name="Group 2987" transform="translate(4.418 0)">
        <path id="Path_789" data-name="Path 789" d="M100.879,90.23,94.232,80.116l3.559-.975a2.567,2.567,0,0,0,.614-4.651l-10-5.857V7.126A7.134,7.134,0,0,0,81.281,0H11.544A7.134,7.134,0,0,0,4.418,7.126V72.391a7.134,7.134,0,0,0,7.126,7.126H39.489a1.926,1.926,0,0,0,0-3.851H11.544a3.278,3.278,0,0,1-3.275-3.275V17.245H84.555V66.378l-6.8-3.982a2.841,2.841,0,0,0-3.022-.3,2.548,2.548,0,0,0-1.275,2.52l1.08,8.809.274,2.239H56.357a1.926,1.926,0,1,0,0,3.851h18.93l1.153,9.41a2.567,2.567,0,0,0,4.513,1.281l2.307-2.881L89.907,97.44a2.569,2.569,0,0,0,3.525.729l6.717-4.415a2.548,2.548,0,0,0,.729-3.525ZM8.269,7.126a3.279,3.279,0,0,1,3.275-3.275H81.281a3.279,3.279,0,0,1,3.275,3.275v6.267H8.269ZM92.409,94.234,85.492,83.71a2.569,2.569,0,0,0-4.114-.193L79.886,85.38,77.605,66.77l16.179,9.477-2.3.631a2.569,2.569,0,0,0-1.455,3.853l6.917,10.524Z" transform="translate(-4.418 0)"/>
        <path id="Path_790" data-name="Path 790" d="M84.467,147.756H97.388a1.925,1.925,0,0,0,1.926-1.926V132.96a1.926,1.926,0,0,0-1.926-1.926H84.467a1.926,1.926,0,0,0-1.926,1.926V145.83A1.925,1.925,0,0,0,84.467,147.756Zm1.926-12.87h9.07v9.02h-9.07Z" transform="translate(-67.498 -105.803)"/>
        <path id="Path_791" data-name="Path 791" d="M213.652,134.886h25.211a1.926,1.926,0,1,0,0-3.851H213.652a1.926,1.926,0,1,0,0,3.851Z" transform="translate(-171.808 -105.804)"/>
        <path id="Path_792" data-name="Path 792" d="M213.652,198.056h25.211a1.926,1.926,0,1,0,0-3.851H213.652a1.926,1.926,0,1,0,0,3.851Z" transform="translate(-171.808 -156.81)"/>
        <path id="Path_793" data-name="Path 793" d="M84.467,261.226h50.086a1.926,1.926,0,1,0,0-3.851H84.467a1.926,1.926,0,1,0,0,3.851Z" transform="translate(-67.498 -207.816)"/>
        <path id="Path_794" data-name="Path 794" d="M84.467,324.4h41.6a1.926,1.926,0,0,0,0-3.851h-41.6a1.926,1.926,0,0,0,0,3.851Z" transform="translate(-67.498 -258.822)"/>
        <path id="Path_795" data-name="Path 795" d="M47.367,36.959a1.924,1.924,0,1,0-.744,2.359A1.937,1.937,0,0,0,47.367,36.959Z" transform="translate(-36.108 -28.905)"/>
        <path id="Path_796" data-name="Path 796" d="M84.018,36.862a1.925,1.925,0,1,0-1.042,2.515A1.941,1.941,0,0,0,84.018,36.862Z" transform="translate(-65.703 -28.808)"/>
        <path id="Path_797" data-name="Path 797" d="M120.725,36.862a1.925,1.925,0,1,0-1.042,2.515A1.941,1.941,0,0,0,120.725,36.862Z" transform="translate(-95.342 -28.808)"/>
        <path id="Path_798" data-name="Path 798" d="M224.5,394.169a1.925,1.925,0,1,0-1.042,2.515A1.943,1.943,0,0,0,224.5,394.169Z" transform="translate(-179.135 -317.315)"/>
      </g>
    </g>
  </g>
</svg>
