<svg xmlns="http://www.w3.org/2000/svg" width="48.275" height="48.273" viewBox="0 0 48.275 48.273">
  <g id="user_1_" data-name="user (1)" transform="translate(0 0)">
    <path id="Path_49" data-name="Path 49" d="M47.879,47.879H6.5L7.564,43.6a5.344,5.344,0,0,1,3.507-3.783l7.921-2.64a3.931,3.931,0,0,0,2.108-2.5,9.326,9.326,0,0,0,.315-1.163c.039-.177.079-.355.1-.512a13.915,13.915,0,0,0,.138-2.069c-1.281-1.064-2.857-2.9-2.857-4.453s-.887-1.793-.887-1.793a13.015,13.015,0,0,1-.887-3.566.061.061,0,0,1,.02-.039c.059-.177.355-.847.946-.847V18.5c.039-.946.1-2.148.1-3.626a7.315,7.315,0,0,1,1.5-3.961c.355-.217.65-.3.65-.493a1.561,1.561,0,0,1,.1-.473A9.324,9.324,0,0,1,27.189,6.5a9.324,9.324,0,0,1,6.857,3.448,1.561,1.561,0,0,1,.1.473c0,.2.3.276.65.493a7.315,7.315,0,0,1,1.5,3.961c0,1.478.059,2.68.1,3.626v1.734c.591,0,.887.67.946.847a.061.061,0,0,1,.02.039,13.015,13.015,0,0,1-.887,3.566s-.887.236-.887,1.793-1.576,3.389-2.857,4.453A14.2,14.2,0,0,0,32.864,33c.02.158.059.335.1.512a8.487,8.487,0,0,0,.315,1.163,3.931,3.931,0,0,0,2.108,2.5l7.921,2.64A5.344,5.344,0,0,1,46.815,43.6Z" transform="translate(-5.022 -5.024)" fill="#f3f3f1"/>
    <path id="Path_50" data-name="Path 50" d="M29.337,42.115s10.837-4.573,10.837-13.722V20.159L29.337,16.5,18.5,20.159v8.234C18.5,37.542,29.337,42.115,29.337,42.115Z" transform="translate(6.623 4.68)" fill="#fed74b"/>
    <path id="Path_51" data-name="Path 51" d="M25.593,30.933A13.915,13.915,0,0,1,25.455,33c-.02.158-.059.335-.1.512a9.325,9.325,0,0,1-.315,1.163,3.931,3.931,0,0,1-2.108,2.5l-7.921,2.64A5.344,5.344,0,0,0,11.5,43.6l-1.064,4.276H6.5L7.564,43.6a5.344,5.344,0,0,1,3.507-3.783l7.921-2.64a3.931,3.931,0,0,0,2.108-2.5,9.325,9.325,0,0,0,.315-1.163c.039-.177.079-.355.1-.512a13.915,13.915,0,0,0,.138-2.069c-1.281-1.064-2.857-2.9-2.857-4.453s-.887-1.793-.887-1.793a13.015,13.015,0,0,1-.887-3.566.061.061,0,0,1,.02-.039c.059-.177.355-.847.946-.847V18.5c.039-.946.1-2.148.1-3.626a7.315,7.315,0,0,1,1.5-3.961c.355-.217.65-.3.65-.493a1.561,1.561,0,0,1,.1-.473A9.324,9.324,0,0,1,27.189,6.5a7.321,7.321,0,0,1,1.97.276,9.9,9.9,0,0,0-4.887,3.172,1.561,1.561,0,0,0-.1.473c0,.2-.3.276-.65.493a7.315,7.315,0,0,0-1.5,3.961c0,1.478-.059,2.68-.1,3.626v1.734c-.591,0-.887.67-.946.847a.061.061,0,0,0-.02.039,13.015,13.015,0,0,0,.887,3.566s.887.236.887,1.793,1.576,3.389,2.857,4.453Z" transform="translate(-5.022 -5.024)" fill="#d5dbe1"/>
    <path id="Path_52" data-name="Path 52" d="M31.308,41.091a17.269,17.269,0,0,1-1.97,1.025S18.5,37.544,18.5,28.4V20.165L29.337,16.5l1.97.67-8.867,3V28.4c0,6.66,5.754,10.9,8.867,12.69Z" transform="translate(6.623 4.68)" fill="#feaa4b"/>
    <path id="Path_53" data-name="Path 53" d="M27.957,50.083H7.228a1.478,1.478,0,0,1-1.434-1.834l1.064-4.276a6.8,6.8,0,0,1,4.479-4.829l7.915-2.638c.912-.382,1.535-1.939,1.637-4.191-1.064-.993-2.843-2.975-2.843-5.105a1.453,1.453,0,0,0-.061-.467,1.471,1.471,0,0,1-.719-.778,13.909,13.909,0,0,1-.993-4.114,1.527,1.527,0,0,1,.041-.353,2.887,2.887,0,0,1,.873-1.468c.01-.175.02-.365.03-.566.051-.967.12-2.256.12-3.86,0-3.876,4.544-9.852,10.581-9.852,5.092,0,7.685,2.674,8.292,4.577,1.224.721,2.388,2,2.388,5.275v4.443a3.032,3.032,0,0,1,.889,1.334,1.462,1.462,0,0,1,.077.469l-1.606.043-1.273.426a.931.931,0,0,0,.435.124,1.478,1.478,0,0,1-1.478-1.478v-5.36c0-2.268-.629-2.585-1.046-2.794a1.876,1.876,0,0,1-1.2-1.663C33.32,10.831,31.966,8.7,27.917,8.7c-4.329,0-7.626,4.6-7.626,6.9,0,1.669-.069,3.009-.124,4.016-.03.56-.053,1.009-.053,1.344a1.478,1.478,0,0,1-.849,1.338,12.981,12.981,0,0,0,.577,2.124A3.412,3.412,0,0,1,21,27.207c0,.79,1,2.217,2.325,3.316a1.484,1.484,0,0,1,.534,1.137c0,3.953-1.269,6.656-3.572,7.612L12.27,41.95a3.857,3.857,0,0,0-2.542,2.743l-.609,2.435H27.957Zm-9.7-23.243h0A0,0,0,0,1,18.252,26.84Zm0,0Z" transform="translate(-5.75 -5.751)"/>
    <path id="Path_54" data-name="Path 54" d="M30.065,44.321a1.493,1.493,0,0,1-.575-.116c-.479-.2-11.74-5.07-11.74-15.084V20.887a1.475,1.475,0,0,1,1-1.4l10.837-3.659a1.467,1.467,0,0,1,.946,0l10.837,3.659a1.477,1.477,0,0,1,1,1.4v8.234C42.38,39.135,31.119,44,30.64,44.2A1.493,1.493,0,0,1,30.065,44.321ZM20.706,21.949v7.172c0,6.928,7.237,11.036,9.358,12.09,2.118-1.06,9.361-5.188,9.361-12.09V21.949l-9.36-3.161Z" transform="translate(5.895 3.952)"/>
    <path id="Path_55" data-name="Path 55" d="M26.01,29.889c-.028,0-.053,0-.081,0a1.485,1.485,0,0,1-1.074-.552l-3.941-4.926,2.309-1.848,2.91,3.637,5.728-5.728,2.091,2.091-6.9,6.9A1.489,1.489,0,0,1,26.01,29.889Z" transform="translate(8.965 8.533)"/>
  </g>
</svg>
