<?xml version="1.0" encoding="utf-8"?>
<!-- Generator: Adobe Illustrator 21.0.0, SVG Export Plug-In . SVG Version: 6.00 Build 0)  -->
<svg version="1.1" id="Layer_1" xmlns="http://www.w3.org/2000/svg" xmlns:xlink="http://www.w3.org/1999/xlink" x="0px" y="0px"
	 viewBox="0 0 146.1 181.2" style="enable-background:new 0 0 146.1 181.2;" xml:space="preserve">
<style type="text/css">
	.st0{fill:#FFFFFF;}
</style>
<title>direction</title>
<path class="st0" d="M135.4,14.1H124c-1.5,0-2.7,1.2-2.7,2.7s1.2,2.7,2.7,2.7h11.3c3,0,5.4,2.4,5.4,5.4v145.6c0,3-2.4,5.4-5.4,5.4
	H10.7c-3,0-5.4-2.4-5.4-5.4V85.8c0-1.5-1.2-2.7-2.7-2.7c-1.5,0-2.7,1.2-2.7,2.7v84.7c0,5.9,4.8,10.7,10.7,10.7h124.6
	c5.9,0,10.7-4.8,10.7-10.7V24.9C146.1,18.9,141.3,14.1,135.4,14.1z"/>
<path class="st0" d="M2.7,76.1c1.5,0,2.7-1.2,2.7-2.7V24.9c0-3,2.4-5.4,5.4-5.4l0,0h31.5V27H20.9c-3.3,0-6,2.7-6,6v129.2
	c0,3.3,2.7,6,6,6h104.3c3.3,0,6-2.7,6-6V33.1c0-3.3-2.7-6-6-6h-21.3v-7.7h7.8c1.5,0,2.7-1.2,2.7-2.7c0-1.5-1.2-2.7-2.7-2.7
	c0,0,0,0,0,0H90C88.9,6,82,0,73.9,0h-1.7c-8.1,0-15,6.1-16,14.1H10.7C4.8,14.1,0,18.9,0,24.9v48.5C0,74.9,1.2,76,2.7,76.1z
	 M47.5,19.4h11.1c1.5,0,2.7-1.2,2.7-2.7v-0.6c0-6,4.9-10.8,10.8-10.9h1.7c6,0,10.9,4.9,10.9,10.8c0,0,0,0,0,0v0.6
	c0,1.5,1.2,2.6,2.7,2.7h11.1v12.7c0,2.2-1.8,4.1-4.1,4.1H51.6c-2.3,0-4.1-1.8-4.1-4.1l0,0L47.5,19.4z M51.6,41.6h42.8
	c5.1,0,9.3-4.1,9.4-9.2h21.4c0.4,0,0.7,0.3,0.7,0.7v129.2c0,0.4-0.3,0.7-0.7,0.7H20.9c-0.4,0-0.7-0.3-0.7-0.7V33.1
	c0-0.4,0.3-0.7,0.7-0.7h21.4C42.4,37.5,46.5,41.6,51.6,41.6z"/>
<path class="st0" d="M43.9,62.3c-7.2,0-13,5.8-13,13c0,7.2,5.8,13,13,13s13-5.8,13-13c0,0,0,0,0,0C56.9,68.1,51.1,62.3,43.9,62.3z
	 M43.9,83.1c-4.3,0-7.7-3.5-7.7-7.7c0-4.3,3.5-7.7,7.7-7.7s7.7,3.5,7.7,7.7C51.7,79.6,48.2,83.1,43.9,83.1z"/>
<path class="st0" d="M103.3,59.7l5.7-6.1c1-1.1,0.9-2.8-0.1-3.8c-1.1-1-2.8-0.9-3.8,0.1l-5.4,5.8L94.3,50c-1-1.1-2.7-1.1-3.8-0.1
	c-1.1,1-1.1,2.7-0.1,3.8l5.6,6l-5.7,6.1c-1,1.1-0.9,2.7,0.1,3.7c0,0,0,0,0,0c0.5,0.5,1.1,0.7,1.8,0.7c0.8,0,1.5-0.3,2-0.8l5.4-5.8
	l5.4,5.8c0.5,0.6,1.2,0.9,2,0.8c0.7,0,1.3-0.3,1.8-0.7c1.1-1,1.1-2.7,0.1-3.8L103.3,59.7z"/>
<path class="st0" d="M47.1,107l5.7-6.1c1-1.1,0.9-2.8-0.1-3.8s-2.8-0.9-3.8,0.1l0,0l-5.4,5.8L38,97.3c-1-1.1-2.7-1.1-3.8-0.1
	s-1.1,2.7-0.1,3.8l0,0l5.7,6.1l-5.7,6.1c-1,1.1-0.9,2.7,0.1,3.7c0,0,0,0,0,0c0.5,0.5,1.1,0.7,1.8,0.7c0.8,0,1.5-0.3,2-0.8l5.4-5.8
	l5.4,5.8c0.5,0.6,1.2,0.9,2,0.8c0.7,0,1.3-0.3,1.8-0.7c1.1-1,1.1-2.7,0.1-3.8L47.1,107z"/>
<path class="st0" d="M79.8,100.3c-3-3.8-6.7-7.1-10.7-9.8l9-1.1c1.4-0.2,2.5-1.5,2.3-2.9s-1.5-2.5-2.9-2.3l0,0l-17.2,2.1
	c-0.8,0.1-1.5,0.5-1.9,1.2c-0.4,0.6-0.6,1.5-0.3,2.2l4.8,16.4c0.3,1.2,1.4,1.9,2.6,1.9c0.3,0,0.5,0,0.7-0.1c1.4-0.4,2.2-1.8,1.8-3.2
	c0,0,0,0,0-0.1l-3-10.4c4.2,2.5,7.8,5.8,10.9,9.6c8.2,10.5,9.7,23.5,4.4,38.9c-0.5,1.4,0.3,2.9,1.7,3.4c0.3,0.1,0.6,0.1,0.8,0.1
	c1.1,0,2.1-0.7,2.5-1.8C92.6,122.9,86.3,108.6,79.8,100.3z"/>
<path class="st0" d="M108.8,135.1l5.7-6.1c1-1.1,0.9-2.8-0.1-3.8s-2.8-0.9-3.8,0.1l0,0l-5.4,5.8l-5.4-5.8c-1-1.1-2.7-1.1-3.8-0.1
	c-1.1,1-1.1,2.7-0.1,3.8l5.7,6.1l-5.7,6.1c-1,1.1-0.9,2.7,0.1,3.7c0,0,0,0,0.1,0.1c0.5,0.5,1.1,0.7,1.8,0.7c0.8,0,1.5-0.3,2-0.9
	l5.4-5.8l5.4,5.8c0.5,0.6,1.2,0.9,2,0.9c0.7,0,1.3-0.3,1.8-0.7c1.1-1,1.1-2.7,0.1-3.8L108.8,135.1z"/>
</svg>
