<?xml version="1.0" encoding="utf-8"?>
<!-- Generator: Adobe Illustrator 21.0.0, SVG Export Plug-In . SVG Version: 6.00 Build 0)  -->
<svg version="1.1" id="Layer_1" xmlns="http://www.w3.org/2000/svg" xmlns:xlink="http://www.w3.org/1999/xlink" x="0px" y="0px"
	 viewBox="0 0 512 512" style="enable-background:new 0 0 512 512;" xml:space="preserve">
<style type="text/css">
	.st0{fill:#FFFFFF;}
</style>
<path class="st0" d="M480.8,327.8c-10.8-10.6-23.5-18.7-37.7-23.9c-3.9-1.4-8.2,0.6-9.7,4.4c-1.4,3.9,0.6,8.2,4.4,9.7
	c12.2,4.5,23.1,11.4,32.4,20.6c20.1,19.8,30.1,47.2,27.3,75.3c-0.1,1.3-1,1.8-1.6,2s-1.5,0.3-2.3-0.5L450,371.6
	c-4.9-4.9-11.6-7.6-18.5-7.5c-0.4,0-0.9,0.1-1.3,0.1l-33.2,6.2c-13.2,0.5-23.8,10.9-24.6,24.1l-7,34.3c-0.1,0.4-0.1,0.8-0.1,1.3
	c-0.2,7.1,2.5,14,7.5,19l43.5,43.5c0.9,0.9,0.7,1.9,0.5,2.4c-0.2,0.6-0.7,1.4-1.9,1.5c-27.8,2.8-55-6.9-74.8-26.6
	c-17.6-17.6-27.3-41.1-27.1-66c0.2-24.9,10.1-48.3,28.1-65.7c17.3-16.8,40.1-26,64.4-26h0.3c4.1,0,7.5-3.4,7.5-7.5s-3.3-7.5-7.5-7.5
	h-0.3c-9.3,0-18.4,1.2-27.1,3.4l-36.2-36.2l88.2-88.2c3.3,1.3,6.8,2,10.4,2c7.4,0,14.3-2.9,19.5-8.1l13.7-13.7
	c5.2-5.2,8.1-12.1,8.1-19.5c0-3.6-0.7-7.2-2-10.4l13.5-13.5c6.5-6.5,10.1-15.1,10.1-24.3S500,71,493.5,64.5l-45.7-45.7
	c-13.4-13.4-35.2-13.4-48.5,0l-13.5,13.5c-9.9-4.1-21.8-2-29.9,6L342.2,52c-5.2,5.2-8.1,12.1-8.1,19.5c0,3.6,0.7,7.2,2,10.4
	l-88.2,88.2l-35.4-35.4c2.2-8.5,3.4-17.4,3.5-26.4c0.2-29-11-56.3-31.5-76.8c-23-22.9-54.6-34.2-86.9-30.9
	c-6.7,0.7-12.3,5-14.5,11.4c-2.3,6.4-0.7,13.3,4.1,18.1l43.5,43.5c1.9,1.9,3.1,4.6,3.1,7.3l-7,34.2c-0.1,0.4-0.1,0.8-0.1,1.3
	c-0.2,5.7-4.8,10.2-10.5,10.3c-0.4,0-0.9,0-1.3,0.1L81.8,133c-2.7-0.1-5.2-1.2-7.1-3.1L31,86.1c-4.8-4.8-11.7-6.3-18-4.1
	C6.6,84.3,2.2,89.9,1.5,96.7c-3.3,32.6,8.3,64.5,31.7,87.5c20.1,19.7,46.7,30.6,75,30.6h0.3c9.3,0,18.4-1.2,27.1-3.4l35.5,35.5
	l-69.4,69.4c-2.9,2.9-2.9,7.7,0,10.6s7.7,2.9,10.6,0l69.4-69.4l73,73l-139,139l-73-73L88,351.3c2.9-2.9,2.9-7.7,0-10.6
	s-7.7-2.9-10.6,0c0,0-50.4,50.4-50.6,50.6c-0.9,0.9-1.9,2.8-2.1,4.1v0.1l-12.5,87.9c-0.7,5,0.9,10,4.6,13.5l0,0c0,0,0,0,0,0.1
	c3,3,6.9,4.6,11.1,4.6c0.8,0,1.7-0.1,2.5-0.2c0,0,76.4-12.1,84.5-13.5c7.6-1.3,13.5-9.8,18.8-15.1l35.4-35.4
	c14.5-14.5,29.1-29.1,43.6-43.6c12.3-12.3,24.7-24.7,37-37c5.2-5.2,10.4-10.4,15.7-15.7l36.2,36.2c-2.2,8.5-3.4,17.4-3.5,26.5
	c-0.2,29,11,56.3,31.5,76.8c20.3,20.3,47.5,31.5,75.9,31.5c3.6,0,7.3-0.2,11-0.6c6.7-0.7,12.3-5,14.5-11.4
	c2.3-6.4,0.7-13.3-4.1-18.1l-43.5-43.5c-1.9-1.9-3.1-4.6-3.1-7.3l7-34.2c0.1-0.4,0.1-0.8,0.1-1.3c0.2-5.7,4.8-10.2,10.5-10.3
	c0.4,0,0.9,0,1.3-0.1l33.1-6.2c2.7,0.1,5.2,1.2,7.1,3.1l43.7,43.7c4.8,4.8,11.7,6.3,18,4.1c6.4-2.3,10.8-7.9,11.5-14.7
	C515.7,382.7,504.2,350.8,480.8,327.8z M72.7,479.4l-39.2-39.2l3.9-27.6l62.6,62.5L72.7,479.4z M28,486.5c-0.1,0-0.4,0.1-0.7-0.2
	c-0.2-0.3-0.2-0.6-0.2-0.6l3.8-26.8l23.5,23.5L28,486.5z M409.9,29.4c7.5-7.5,19.8-7.5,27.3,0l45.7,45.7c3.6,3.6,5.7,8.5,5.7,13.6
	c0,5.2-2,10-5.7,13.6l-12,12l-73-73L409.9,29.4z M352.7,62.7L366.5,49c2.4-2.4,5.6-3.7,8.8-3.7s6.4,1.2,8.8,3.7l79.2,79.2
	c2.4,2.4,3.7,5.5,3.7,8.8s-1.3,6.5-3.7,8.8l-13.7,13.7c-2.4,2.4-5.5,3.7-8.8,3.7s-6.5-1.3-8.8-3.7l-79.2-79.2
	c-2.4-2.4-3.7-5.5-3.7-8.8C349.1,68.2,350.4,65.1,352.7,62.7z M345.2,94.1l73,73l-86.7,86.7l-73-73L345.2,94.1z M43.7,173.5
	c-20.1-19.8-30.1-47.2-27.3-75.3c0.1-1.3,1-1.8,1.6-2c0.2-0.1,0.5-0.1,0.8-0.1c0.5,0,1,0.2,1.5,0.7L64,140.4
	c4.8,4.8,11.4,7.5,18.1,7.5c0.1,0,0.2,0,0.3,0c0.4,0,0.9,0,1.3-0.1l33.2-6.2c13.2-0.5,23.8-10.9,24.6-24.1l7-34.3
	c0.1-0.4,0.1-0.8,0.1-1.3c0.2-7.1-2.5-14-7.5-19L97.7,19.4c-0.9-0.9-0.7-1.9-0.5-2.4c0.2-0.6,0.7-1.4,1.9-1.5
	c27.8-2.8,55,6.9,74.8,26.6c17.6,17.6,27.3,41.1,27.1,66s-10.1,48.3-28.1,65.7C137.2,208.5,79.3,208.3,43.7,173.5z M151.4,206
	c11.7-5.1,22.5-12.3,31.9-21.4c10.2-9.9,18.2-21.5,23.7-34.1L362.6,306c-11.7,5.1-22.5,12.3-31.9,21.4
	c-10.2,9.9-18.2,21.5-23.7,34.1L151.4,206z"/>
<path class="st0" d="M234.7,194.4c-10.3-10.3-27.2-10.3-37.5,0l-1.8,1.8c-10.4,10.3-10.4,27.2,0,37.5l81.2,81.2
	c5.2,5.2,12,7.8,18.8,7.8s13.6-2.6,18.8-7.8l1.8-1.7c10.3-10.4,10.3-27.2,0-37.5L234.7,194.4z M305.2,302.5l-1.8,1.8
	c-4.5,4.5-11.8,4.5-16.3,0L206,223c-4.5-4.5-4.5-11.8,0-16.3l1.8-1.8c2.2-2.2,5.2-3.4,8.1-3.4s5.9,1.1,8.1,3.4l81.2,81.2
	C309.7,290.7,309.7,298,305.2,302.5z"/>
</svg>
