<svg xmlns="http://www.w3.org/2000/svg" width="26.852" height="26.411" viewBox="0 0 26.852 26.411">
  <g id="calendar_7_" data-name="calendar (7)" transform="translate(0 0)">
    <path id="Path_96" data-name="Path 96" d="M20.911,83.069c.071,0,.143,0,.214.007V74.45H.1V89.366a2.144,2.144,0,0,0,2.142,2.142H14.128a7.07,7.07,0,0,1-.162-1.493,6.953,6.953,0,0,1,6.945-6.945ZM4.937,80.415H15a.454.454,0,1,1,0,.909H4.937a.454.454,0,1,1,0-.909Zm6.023,5.128H4.937a.454.454,0,0,1,0-.909h6.023a.454.454,0,0,1,0,.909Zm0,0" transform="translate(-0.095 -69.64)" fill="#00a89b"/>
    <path id="Path_97" data-name="Path 97" d="M233.736,221.25a6.036,6.036,0,1,0,6.036,6.036A6.036,6.036,0,0,0,233.736,221.25Zm3.771,4.5-4.31,4.122a.452.452,0,0,1-.311.123.479.479,0,0,1-.325-.13l-2.447-2.454a.454.454,0,1,1,.643-.642l2.135,2.135,3.992-3.81a.452.452,0,0,1,.643.013A.459.459,0,0,1,237.507,225.755Zm0,0" transform="translate(-212.919 -206.912)" fill="#00a89b"/>
    <path id="Path_98" data-name="Path 98" d="M21.03,2.494A2.144,2.144,0,0,0,18.888.352H16.032V1.786a.454.454,0,1,1-.909,0V.352H5.907V1.786a.454.454,0,1,1-.909,0V.352H2.142A2.144,2.144,0,0,0,0,2.494V4.259H21.024V2.494Zm0,0" transform="translate(0 -0.351)" fill="#00a89b"/>
  </g>
</svg>
