<svg xmlns="http://www.w3.org/2000/svg" width="23.631" height="18" viewBox="0 0 23.631 18">
  <g id="menu_2_" data-name="menu (2)" transform="translate(0 -61)">
    <g id="Group_3061" data-name="Group 3061" transform="translate(5.538 61)">
      <g id="Group_3060" data-name="Group 3060">
        <path id="Path_34662" data-name="Path 34662" d="M136.015,61H122.077a2.077,2.077,0,0,0,0,4.154h13.938a2.077,2.077,0,1,0,0-4.154Z" transform="translate(-120 -61)" fill="#00a89b"/>
      </g>
    </g>
    <g id="Group_3063" data-name="Group 3063" transform="translate(5.538 67.923)">
      <g id="Group_3062" data-name="Group 3062">
        <path id="Path_34663" data-name="Path 34663" d="M136.015,211H122.077a2.077,2.077,0,1,0,0,4.154h13.938a2.077,2.077,0,1,0,0-4.154Z" transform="translate(-120 -211)" fill="#00a89b"/>
      </g>
    </g>
    <g id="Group_3065" data-name="Group 3065" transform="translate(5.538 74.846)">
      <g id="Group_3064" data-name="Group 3064">
        <path id="Path_34664" data-name="Path 34664" d="M136.015,361H122.077a2.077,2.077,0,0,0,0,4.154h13.938a2.077,2.077,0,0,0,0-4.154Z" transform="translate(-120 -361)" fill="#00a89b"/>
      </g>
    </g>
    <g id="Group_3067" data-name="Group 3067" transform="translate(0 61)">
      <g id="Group_3066" data-name="Group 3066">
        <path id="Path_34665" data-name="Path 34665" d="M2.077,61a2.077,2.077,0,1,0,2.077,2.077A2.079,2.079,0,0,0,2.077,61Z" transform="translate(0 -61)" fill="#00a89b"/>
      </g>
    </g>
    <g id="Group_3069" data-name="Group 3069" transform="translate(0 67.923)">
      <g id="Group_3068" data-name="Group 3068">
        <path id="Path_34666" data-name="Path 34666" d="M2.077,211a2.077,2.077,0,1,0,2.077,2.077A2.079,2.079,0,0,0,2.077,211Z" transform="translate(0 -211)" fill="#00a89b"/>
      </g>
    </g>
    <g id="Group_3071" data-name="Group 3071" transform="translate(0 74.846)">
      <g id="Group_3070" data-name="Group 3070">
        <path id="Path_34667" data-name="Path 34667" d="M2.077,361a2.077,2.077,0,1,0,2.077,2.077A2.079,2.079,0,0,0,2.077,361Z" transform="translate(0 -361)" fill="#00a89b"/>
      </g>
    </g>
  </g>
</svg>
