<svg xmlns="http://www.w3.org/2000/svg" width="22.185" height="22.185" viewBox="0 0 22.185 22.185">
  <path id="Icon_material-local-offer" data-name="Icon material-local-offer" d="M24.53,13.626,14.547,3.643A2.2,2.2,0,0,0,12.983,3H5.218A2.225,2.225,0,0,0,3,5.218v7.765a2.214,2.214,0,0,0,.654,1.575l9.983,9.983a2.2,2.2,0,0,0,1.564.643,2.169,2.169,0,0,0,1.564-.654l7.765-7.765a2.169,2.169,0,0,0,.654-1.564,2.24,2.24,0,0,0-.654-1.575ZM6.882,8.546A1.664,1.664,0,1,1,8.546,6.882,1.662,1.662,0,0,1,6.882,8.546Z" transform="translate(-3 -3)" fill="#00a89b"/>
</svg>
