<svg xmlns="http://www.w3.org/2000/svg" width="24.2" height="19.683" viewBox="0 0 24.2 19.683">
  <g id="audience" transform="translate(0 0)">
    <g id="Group_71" data-name="Group 71" transform="translate(0 11.615)">
      <g id="Group_70" data-name="Group 70" transform="translate(0)">
        <path id="Path_101" data-name="Path 101" d="M159.194,282.8a6.133,6.133,0,0,0-2.949-.75h-2.539a6.165,6.165,0,0,0-6.166,6.166v1.9h14.871v-1.9A6.164,6.164,0,0,0,159.194,282.8Z" transform="translate(-147.54 -282.045)" fill="#00a89b"/>
      </g>
    </g>
    <g id="Group_73" data-name="Group 73" transform="translate(12.598 10.093)">
      <g id="Group_72" data-name="Group 72" transform="translate(0 0)">
        <path id="Path_102" data-name="Path 102" d="M347.035,257.225h-2.111a6.191,6.191,0,0,0-3.344.973,8.165,8.165,0,0,1,1.3,1.039,7.921,7.921,0,0,1,2.4,5.693v.877h7.9v-2.553A6.1,6.1,0,0,0,347.035,257.225Z" transform="translate(-341.58 -257.225)" fill="#00a89b"/>
      </g>
    </g>
    <g id="Group_77" data-name="Group 77" transform="translate(13.388 1.447)">
      <g id="Group_76" data-name="Group 76" transform="translate(0 0)">
        <path id="Path_104" data-name="Path 104" d="M348.943,121.416h-.029a3.81,3.81,0,0,0,.034,7.608h.029a3.493,3.493,0,0,0,2.564-1.157,3.891,3.891,0,0,0,1.014-2.676A3.716,3.716,0,0,0,348.943,121.416Z" transform="translate(-345.337 -121.416)" fill="#00a89b"/>
      </g>
    </g>
    <g id="Group_81" data-name="Group 81" transform="translate(2.659 0)">
      <g id="Group_80" data-name="Group 80" transform="translate(0)">
        <path id="Path_106" data-name="Path 106" d="M191.377,111.445a4.922,4.922,0,0,0-4.777,5.047,5.079,5.079,0,0,0,2.735,4.561,4.542,4.542,0,0,0,4.083,0,5.079,5.079,0,0,0,2.735-4.561A4.922,4.922,0,0,0,191.377,111.445Z" transform="translate(-186.6 -111.445)" fill="#00a89b"/>
      </g>
    </g>
  </g>
</svg>
