<svg xmlns="http://www.w3.org/2000/svg" width="21.346" height="24.287" viewBox="0 0 21.346 24.287">
  <g id="staff" transform="translate(-31)">
    <g id="Group_3072" data-name="Group 3072" transform="translate(31)">
      <path id="Path_34668" data-name="Path 34668" d="M47.579,14.292,44.96,12.983a8.927,8.927,0,0,0,3.116-6.532,6.4,6.4,0,1,0-12.807,0,8.927,8.927,0,0,0,3.116,6.532l-2.618,1.309A4.979,4.979,0,0,0,31,19.259v4.317a.7.7,0,0,0,.712.712h9.25v-5.3l.712-.356.712.356v5.3h9.25a.7.7,0,0,0,.712-.712V19.259A4.979,4.979,0,0,0,47.579,14.292Zm-8.51,4.056L37.019,15.26l1.565-.783,2.049,3.088Zm2.6-1.793-1.864-2.789c.366-.439.37-1.177-.406-1.782a7.7,7.7,0,0,1-2.668-4.821H40.25A3.544,3.544,0,0,0,43.1,5.74a3.54,3.54,0,0,0,2.846,1.418h.669a7.673,7.673,0,0,1-2.746,4.886,1.192,1.192,0,0,0-.4,1.821Zm1.039,1.01,2.049-3.088,1.565.783-2.049,3.088Zm6.076,3.828H45.942a.712.712,0,1,1,0-1.423h2.846a.712.712,0,1,1,0,1.423Z" transform="translate(-31)" fill="#00a89b"/>
    </g>
  </g>
</svg>
