<svg id="Layer_1" data-name="Layer 1" xmlns="http://www.w3.org/2000/svg" viewBox="0 0 263.26 86.61"><defs><style>.cls-1{fill:#231f20;}.cls-2{fill:#871719;}.cls-3{fill:#e31837;}</style></defs><title>logo-color</title><path class="cls-1" d="M57,71.79a3.31,3.31,0,0,0-2.58.8,8.06,8.06,0,0,0-1.18,3.51q-.48,2.74-.07,3.55c.28.54,1,.82,2.3.82a3.34,3.34,0,0,0,2.66-.9,8.56,8.56,0,0,0,1.26-3.72c.29-1.67.28-2.76,0-3.28s-1.09-.79-2.36-.79m5-1.18L59.83,82.37a5.13,5.13,0,0,1-1.61,3.31,6.58,6.58,0,0,1-3.91.9q-2.43,0-3.19-.76T50.75,83h1.53c-.17.95-.1,1.57.19,1.85a3.55,3.55,0,0,0,2.19.43,4.32,4.32,0,0,0,2.54-.56,3.4,3.4,0,0,0,1-2.17l.39-2.22h0c-.59,1-1.86,1.54-3.82,1.54q-2.41,0-3.11-1.21c-.47-.81-.51-2.27-.13-4.41a9.14,9.14,0,0,1,1.73-4.53,4.8,4.8,0,0,1,3.65-1.22q2.67,0,3.2,1.66h0l.18-1.49"/><path class="cls-1" d="M72.47,71.79q-2.11,0-2.75.7a8.82,8.82,0,0,0-1.15,3.64q-.52,2.94-.14,3.64c.26.47,1.09.7,2.5.7s2.33-.23,2.75-.7a8.76,8.76,0,0,0,1.15-3.64c.35-2,.39-3.18.13-3.64s-1.09-.7-2.51-.7m.24-1.34c2,0,3.25.35,3.72,1.06s.5,2.24.09,4.62-1,3.91-1.71,4.62-2.09,1.07-4.1,1.07-3.24-.36-3.71-1.07-.5-2.25-.09-4.62,1-3.91,1.72-4.62,2.09-1.06,4.09-1.06"/><path class="cls-1" d="M87.75,71.79q-2.11,0-2.75.7a8.79,8.79,0,0,0-1.15,3.64c-.35,2-.39,3.18-.14,3.64s1.09.7,2.5.7,2.34-.23,2.76-.7a8.79,8.79,0,0,0,1.15-3.64c.35-2,.39-3.18.14-3.64s-1.09-.7-2.51-.7M88,70.46c2,0,3.25.35,3.72,1.06s.5,2.24.08,4.62-1,3.91-1.71,4.62S88,81.82,86,81.82s-3.24-.36-3.71-1.07-.5-2.25-.08-4.62,1-3.91,1.72-4.62S86,70.46,88,70.46"/><path class="cls-1" d="M102.83,71.79a3.19,3.19,0,0,0-2.49.83A7.42,7.42,0,0,0,99.17,76c-.33,1.85-.35,3.06-.07,3.64s1,.87,2.23.87A3.47,3.47,0,0,0,104,79.6a8.9,8.9,0,0,0,1.26-3.79c.28-1.58.25-2.64-.09-3.19s-1.13-.83-2.39-.83m5.83-5.9-2.78,15.77h-1.59l.33-1.44h0c-.69,1.07-1.94,1.61-3.77,1.61-1.67,0-2.73-.41-3.2-1.24s-.5-2.36-.1-4.61a8.59,8.59,0,0,1,1.68-4.31,4.61,4.61,0,0,1,3.51-1.21q3,0,3.26,1.56l0,0,1.08-6.1"/><path class="cls-1" d="M129.66,77.67h1.59l-.1.6q-.63,3.54-5.2,3.54c-2,0-3.18-.37-3.68-1.12s-.54-2.29-.13-4.62,1-3.67,1.74-4.45a5.3,5.3,0,0,1,3.86-1.18q2.65,0,3.48.79c.55.53.7,1.52.44,3h-1.59l.05-.29q.22-1.28-.32-1.71a4.46,4.46,0,0,0-2.42-.43,3,3,0,0,0-2.45.81,9.12,9.12,0,0,0-1.15,3.63q-.48,2.75,0,3.5c.3.5,1.17.75,2.6.75a4,4,0,0,0,2.4-.49,4.15,4.15,0,0,0,.9-2.32"/><path class="cls-1" d="M140.61,65.89,139.54,72l0,0q.87-1.54,3.61-1.55,4.06,0,3.41,3.69l-.08.45-1.24,7.06h-1.58l1.24-7.06.05-.31q.44-2.5-2.05-2.5a4.18,4.18,0,0,0-2.81.74,5.2,5.2,0,0,0-1.19,2.92l-1.09,6.21h-1.58L139,65.89"/><path class="cls-1" d="M160.45,75.18l.08-.52q.31-1.79-.17-2.33c-.32-.36-1.13-.54-2.41-.54a4,4,0,0,0-2.62.63,5.14,5.14,0,0,0-1.06,2.75Zm-.55,3.14h1.63l-.06.4A3.29,3.29,0,0,1,160,81.13a7.65,7.65,0,0,1-3.73.69q-3,0-3.74-1.12c-.5-.74-.53-2.3-.11-4.68q.58-3.3,1.73-4.43A5.43,5.43,0,0,1,158,70.45q3,0,3.77,1t.2,4.14l-.15.87H154q-.46,2.61,0,3.32c.28.48,1.1.72,2.45.72a6.24,6.24,0,0,0,2.56-.34,1.94,1.94,0,0,0,.83-1.47"/><path class="cls-1" d="M168.89,70.61h1.59l-.33,1.66,0,0a4.34,4.34,0,0,1,3.88-1.86c1.84,0,2.85.62,3,1.86h0a4.7,4.7,0,0,1,4.07-1.86q3.84,0,3.14,4l-1.27,7.21h-1.59l1.3-7.37a2.56,2.56,0,0,0-.17-2,2.36,2.36,0,0,0-1.84-.52,4,4,0,0,0-2.68.72,4.83,4.83,0,0,0-1.16,2.76l-1.13,6.38h-1.59l1.28-7.21.07-.51c.25-1.42-.43-2.14-2-2.14q-3.25,0-3.89,3.59l-1.11,6.27h-1.59"/><path class="cls-1" d="M194,65.89l-.32,1.82h-1.59l.32-1.82Zm-.83,4.72-1.95,11h-1.59l1.95-11"/><path class="cls-1" d="M207.41,73.5h-1.59c.13-.77.07-1.25-.21-1.43a5.54,5.54,0,0,0-2.32-.27,5.74,5.74,0,0,0-2.3.29,1.94,1.94,0,0,0-.73,1.42c-.2,1.13.23,1.72,1.29,1.78l1.27.07,1.61.08q2.93.15,2.4,3.14a3.56,3.56,0,0,1-1.42,2.55,7.33,7.33,0,0,1-3.71.69,6.53,6.53,0,0,1-3.56-.66c-.59-.44-.79-1.24-.58-2.41l.12-.6h1.65l-.08.52c-.13.72,0,1.2.29,1.45a3.88,3.88,0,0,0,2.08.36,6.15,6.15,0,0,0,2.66-.38,2.11,2.11,0,0,0,.9-1.59c.2-1.17-.21-1.75-1.25-1.75-2.42,0-4-.21-4.66-.63s-.92-1.28-.69-2.58a3.44,3.44,0,0,1,1.34-2.48,7.75,7.75,0,0,1,3.71-.62q4.33,0,3.86,2.65"/><path class="cls-1" d="M219.78,70.61,219.55,72h-4.18l-1.19,6.76q-.31,1.77,1.23,1.76a1.69,1.69,0,0,0,1.82-1.58l.11-.55.13-.61h1.48l-.13.82q-.58,3.26-3.62,3.26t-2.67-2.71l.07-.39L213.77,72h-1.5l.24-1.34H214l.47-2.66h1.59l-.47,2.66"/><path class="cls-1" d="M225.26,70.61h1.59l-.39,1.27,0,0a4.07,4.07,0,0,1,3.39-1.56q3,0,2.45,3.14l-.14.76h-1.57l.08-.28c.07-.29.12-.49.14-.59.2-1.13-.3-1.7-1.52-1.7q-2.66,0-3.25,3.33l-1.17,6.62h-1.59"/><path class="cls-1" d="M245.6,70.61l-5.14,11.68a11.31,11.31,0,0,1-2,3.39,3.35,3.35,0,0,1-2.42.93,4.19,4.19,0,0,1-.75-.09l.24-1.34a3.58,3.58,0,0,0,.55.08q1.27.06,2.28-2.12l.5-1.09.18-.42h-.6l-2-11h1.69l.81,4.92L239.3,78l.19,1.24.2,1.22h0l.51-1.22.5-1.24,1-2.45,2.1-4.92"/><polyline class="cls-1" points="116.29 4.77 116.29 15.94 122.27 15.94 122.27 9.65 169.66 9.65 169.66 4.77"/><polyline class="cls-1" points="122.26 44.04 122.26 37.75 116.29 37.75 116.29 48.91 169.66 48.91 169.66 44.04"/><rect class="cls-1" x="122.72" y="23.74" width="46.94" height="4.88"/><path class="cls-1" d="M80.75,9.65,65.93,34.71H95.57ZM77,4.77h7.44l26.22,44.14h-6.77l-5.49-9.33H63.07l-5.49,9.33H50.81"/><path class="cls-1" d="M214.92,44.52H194c-5.73,0-10.36-1.71-10.36-9.39V18.55c0-7.68,4.63-9.39,10.36-9.39h20.73c4.64,0,8.67.27,9.8,4.88h5.51c-.41-5.38-3.69-9.76-13.8-9.76H193.4c-12,0-15.73,5.37-15.73,16.52V32.88c0,11.16,3.78,16.52,15.73,16.52H216c11,0,14.23-3.41,14.83-9.76H225c-.77,3.73-3.51,4.88-10.12,4.88"/><rect class="cls-1" x="239.62" y="4.77" width="5.98" height="44.14"/><rect class="cls-1" x="50.66" y="57.74" width="194.93" height="0.96"/><path class="cls-2" d="M49.23,24.62a24.55,24.55,0,0,0-7.79-18L32.88,18.39a16.66,16.66,0,0,1-4,30.47A24.62,24.62,0,0,0,49.23,24.62"/><path class="cls-3" d="M7.81,32.78a16.63,16.63,0,0,1,5.71-12.55h0l18.83-19A24.62,24.62,0,1,0,19.54,48.71,16.68,16.68,0,0,1,7.81,32.78"/><path class="cls-1" d="M255.37,10.62h2.2q1.45,0,1.45-1.17a1.87,1.87,0,0,0-.22-1.12,1.28,1.28,0,0,0-1-.26h-2.47Zm-.89,3.46V7.28h3.35q2.08,0,2.08,2c0,1-.31,1.55-.93,1.76a1.24,1.24,0,0,1,.83,1.31v1.74h-.89V12.52c0-.73-.33-1.09-1-1.09h-2.56v2.65Zm2.72-8.79a5.1,5.1,0,0,0-3.78,1.59,5.31,5.31,0,0,0-1.56,3.86,5.33,5.33,0,0,0,1.56,3.86,5.24,5.24,0,0,0,7.53,0,5.31,5.31,0,0,0,1.56-3.86A5.31,5.31,0,0,0,261,6.88a5.05,5.05,0,0,0-3.76-1.59m0-.63a5.82,5.82,0,0,1,4.27,1.78,5.87,5.87,0,0,1,1.78,4.3,5.87,5.87,0,0,1-1.78,4.3,5.81,5.81,0,0,1-4.27,1.78,6.08,6.08,0,0,1-6.09-6.09,5.86,5.86,0,0,1,1.78-4.3,5.88,5.88,0,0,1,4.31-1.78"/></svg>