<?xml version="1.0" encoding="utf-8"?>
<!-- Generator: Adobe Illustrator 21.0.0, SVG Export Plug-In . SVG Version: 6.00 Build 0)  -->
<svg version="1.1" id="Layer_1" xmlns="http://www.w3.org/2000/svg" xmlns:xlink="http://www.w3.org/1999/xlink" x="0px" y="0px"
	 viewBox="0 0 263.3 86.6" style="enable-background:new 0 0 263.3 86.6;" xml:space="preserve">
<style type="text/css">
	.st0{fill:#FFFFFF;}
	.st1{fill:#871719;}
	.st2{fill:#E31837;}
</style>
<title>logo-color</title>
<path class="st0" d="M57,71.8c-0.9-0.1-1.9,0.2-2.6,0.8c-0.7,1.1-1.1,2.3-1.2,3.5c-0.3,1.8-0.3,3-0.1,3.6c0.3,0.5,1,0.8,2.3,0.8
	c1,0.1,1.9-0.2,2.7-0.9c0.7-1.1,1.1-2.4,1.3-3.7c0.3-1.7,0.3-2.8,0-3.3S58.3,71.8,57,71.8 M62,70.6l-2.2,11.8
	c-0.1,1.3-0.7,2.4-1.6,3.3c-1.2,0.7-2.5,1-3.9,0.9c-1.6,0-2.7-0.3-3.2-0.8s-0.6-1.4-0.4-2.8h1.5c-0.2,0.9-0.1,1.6,0.2,1.8
	c0.7,0.4,1.4,0.5,2.2,0.4c0.9,0.1,1.8-0.1,2.5-0.6c0.6-0.6,0.9-1.3,1-2.2l0.4-2.2l0,0c-0.6,1-1.9,1.5-3.8,1.5
	c-1.6,0-2.6-0.4-3.1-1.2c-0.5-0.8-0.5-2.3-0.1-4.4c0.2-1.6,0.8-3.2,1.7-4.5c1-0.9,2.3-1.3,3.7-1.2c1.8,0,2.8,0.6,3.2,1.7l0,0
	l0.2-1.5"/>
<path class="st0" d="M72.5,71.8c-1.4,0-2.3,0.2-2.8,0.7c-0.6,1.1-1,2.4-1.2,3.6c-0.3,2-0.4,3.2-0.1,3.6c0.3,0.5,1.1,0.7,2.5,0.7
	s2.3-0.2,2.8-0.7c0.6-1.1,1-2.4,1.2-3.6c0.3-2,0.4-3.2,0.1-3.6S73.9,71.8,72.5,71.8 M72.7,70.5c2,0,3.3,0.3,3.7,1.1s0.5,2.2,0.1,4.6
	s-1,3.9-1.7,4.6s-2.1,1.1-4.1,1.1s-3.2-0.4-3.7-1.1s-0.5-2.3-0.1-4.6s1-3.9,1.7-4.6S70.7,70.5,72.7,70.5"/>
<path class="st0" d="M87.8,71.8c-1.4,0-2.3,0.2-2.8,0.7c-0.6,1.1-1,2.4-1.2,3.6c-0.3,2-0.4,3.2-0.1,3.6s1.1,0.7,2.5,0.7
	s2.3-0.2,2.8-0.7c0.6-1.1,1-2.4,1.2-3.6c0.3-2,0.4-3.2,0.1-3.6S89.2,71.8,87.8,71.8 M88,70.5c2,0,3.3,0.3,3.7,1.1s0.5,2.2,0.1,4.6
	s-1,3.9-1.7,4.6S88,81.8,86,81.8s-3.2-0.4-3.7-1.1s-0.5-2.3-0.1-4.6s1-3.9,1.7-4.6S86,70.5,88,70.5"/>
<path class="st0" d="M102.8,71.8c-0.9-0.1-1.8,0.2-2.5,0.8c-0.7,1-1.1,2.2-1.2,3.4c-0.3,1.8-0.3,3.1-0.1,3.6s1,0.9,2.2,0.9
	c1,0.1,1.9-0.2,2.7-0.9c0.7-1.2,1.1-2.4,1.3-3.8c0.3-1.6,0.3-2.6-0.1-3.2S104,71.8,102.8,71.8 M108.6,65.9l-2.8,15.8h-1.6l0.3-1.4
	l0,0c-0.7,1.1-1.9,1.6-3.8,1.6c-1.7,0-2.7-0.4-3.2-1.2s-0.5-2.4-0.1-4.6c0.2-1.6,0.7-3.1,1.7-4.3c0.9-0.9,2.2-1.3,3.5-1.2
	c2,0,3.1,0.5,3.3,1.6l0,0l1.1-6.1"/>
<path class="st0" d="M129.7,77.7h1.6l-0.1,0.6c-0.4,2.4-2.2,3.5-5.2,3.5c-2,0-3.2-0.4-3.7-1.1s-0.5-2.3-0.1-4.6s1-3.7,1.7-4.4
	c1.1-0.9,2.5-1.3,3.9-1.2c1.8,0,2.9,0.3,3.5,0.8c0.6,0.5,0.7,1.5,0.4,3h-1.6l0.1-0.3c0.1-0.9,0-1.4-0.3-1.7
	c-0.8-0.4-1.6-0.5-2.4-0.4c-0.9-0.1-1.8,0.2-2.4,0.8c-0.6,1.1-1,2.4-1.2,3.6c-0.3,1.8-0.3,3,0,3.5c0.3,0.5,1.2,0.8,2.6,0.8
	c0.8,0.1,1.7-0.1,2.4-0.5C129.3,79.3,129.6,78.5,129.7,77.7"/>
<path class="st0" d="M140.6,65.9l-1.1,6.1l0,0c0.6-1,1.8-1.5,3.6-1.6c2.7,0,3.8,1.2,3.4,3.7l-0.1,0.4l-1.2,7.1h-1.6l1.2-7.1l0.1-0.3
	c0.3-1.7-0.4-2.5-2.1-2.5c-1-0.1-2,0.2-2.8,0.7c-0.7,0.8-1.1,1.8-1.2,2.9l-1.1,6.2h-1.6l2.8-15.8"/>
<path class="st0" d="M160.4,75.2l0.1-0.5c0.2-1.2,0.1-2-0.2-2.3c-0.3-0.4-1.1-0.5-2.4-0.5c-0.9-0.1-1.8,0.1-2.6,0.6
	c-0.6,0.8-1,1.7-1.1,2.8L160.4,75.2z M159.9,78.3h1.6l-0.1,0.4c-0.1,1-0.6,1.9-1.5,2.4c-1.2,0.5-2.4,0.8-3.7,0.7
	c-2,0-3.2-0.4-3.7-1.1c-0.5-0.7-0.5-2.3-0.1-4.7c0.4-2.2,1-3.7,1.7-4.4c1.1-0.9,2.5-1.3,3.9-1.1c2,0,3.3,0.3,3.8,1s0.6,2,0.2,4.1
	l-0.1,0.9H154c-0.3,1.7-0.3,2.8,0,3.3c0.3,0.5,1.1,0.7,2.4,0.7c0.9,0.1,1.7,0,2.6-0.3c0.5-0.3,0.8-0.9,0.8-1.5"/>
<path class="st0" d="M168.9,70.6h1.6l-0.3,1.7l0,0c0.9-1.3,2.3-2,3.9-1.9c1.8,0,2.9,0.6,3,1.9l0,0c1-1.3,2.5-2,4.1-1.9
	c2.6,0,3.6,1.3,3.1,4l-1.3,7.2h-1.6l1.3-7.4c0.2-0.7,0.2-1.4-0.2-2c-0.5-0.4-1.2-0.6-1.8-0.5c-1-0.1-1.9,0.2-2.7,0.7
	c-0.7,0.8-1.1,1.7-1.2,2.8l-1.1,6.4h-1.6l1.3-7.2l0.1-0.5c0.3-1.4-0.4-2.1-2-2.1c-2.2,0-3.5,1.2-3.9,3.6l-1.1,6.3h-1.6"/>
<path class="st0" d="M194,65.9l-0.3,1.8h-1.6l0.3-1.8H194z M193.2,70.6l-1.9,11h-1.6l1.9-11"/>
<path class="st0" d="M207.4,73.5h-1.6c0.1-0.8,0.1-1.3-0.2-1.4c-0.7-0.3-1.5-0.3-2.3-0.3c-0.8-0.1-1.6,0-2.3,0.3
	c-0.4,0.3-0.7,0.9-0.7,1.4c-0.2,1.1,0.2,1.7,1.3,1.8l1.3,0.1l1.6,0.1c2,0.1,2.8,1.1,2.4,3.1c-0.1,1-0.6,1.9-1.4,2.6
	c-1.2,0.5-2.4,0.8-3.7,0.7c-1.2,0.1-2.5-0.1-3.6-0.7c-0.6-0.4-0.8-1.2-0.6-2.4l0.1-0.6h1.6l-0.1,0.5c-0.1,0.7,0,1.2,0.3,1.4
	c0.6,0.3,1.4,0.4,2.1,0.4c0.9,0.1,1.8-0.1,2.7-0.4c0.5-0.4,0.9-1,0.9-1.6c0.2-1.2-0.2-1.8-1.3-1.8c-2.4,0-4-0.2-4.7-0.6
	s-0.9-1.3-0.7-2.6c0.1-1,0.6-1.9,1.3-2.5c1.2-0.5,2.4-0.7,3.7-0.6c2.9,0,4.2,0.9,3.9,2.7"/>
<path class="st0" d="M219.8,70.6l-0.2,1.4h-4.2l-1.2,6.8c-0.2,1.2,0.2,1.8,1.2,1.8c0.9,0.1,1.7-0.6,1.8-1.6c0,0,0,0,0,0l0.1-0.6
	l0.1-0.6h1.5l-0.1,0.8c-0.4,2.2-1.6,3.3-3.6,3.3s-2.9-0.9-2.7-2.7l0.1-0.4l1.2-6.8h-1.5l0.2-1.3h1.5l0.5-2.7h1.6l-0.5,2.7"/>
<path class="st0" d="M225.3,70.6h1.6l-0.4,1.3l0,0c0.8-1,2.1-1.6,3.4-1.6c2,0,2.8,1,2.4,3.1l-0.1,0.8h-1.6l0.1-0.3
	c0.1-0.3,0.1-0.5,0.1-0.6c0.2-1.1-0.3-1.7-1.5-1.7c-1.8,0-2.9,1.1-3.3,3.3l-1.2,6.6h-1.6"/>
<path class="st0" d="M245.6,70.6l-5.1,11.7c-0.5,1.2-1.1,2.4-2,3.4c-0.6,0.6-1.5,1-2.4,0.9c-0.3,0-0.5,0-0.8-0.1l0.2-1.3
	c0.2,0,0.4,0.1,0.6,0.1c0.8,0,1.6-0.7,2.3-2.1l0.5-1.1l0.2-0.4h-0.6l-2-11h1.7l0.8,4.9l0.4,2.4l0.2,1.2l0.2,1.2l0,0l0.5-1.2l0.5-1.2
	l1-2.4l2.1-4.9"/>
<polyline class="st0" points="116.3,4.8 116.3,15.9 122.3,15.9 122.3,9.6 169.7,9.6 169.7,4.8 "/>
<polyline class="st0" points="122.3,44 122.3,37.8 116.3,37.8 116.3,48.9 169.7,48.9 169.7,44 "/>
<rect x="122.7" y="23.7" class="st0" width="46.9" height="4.9"/>
<path class="st0" d="M80.8,9.6L65.9,34.7h29.6L80.8,9.6z M77,4.8h7.4l26.2,44.1h-6.8l-5.5-9.3H63.1l-5.5,9.3h-6.8"/>
<path class="st0" d="M214.9,44.5H194c-5.7,0-10.4-1.7-10.4-9.4V18.5c0-7.7,4.6-9.4,10.4-9.4h20.7c4.6,0,8.7,0.3,9.8,4.9h5.5
	c-0.4-5.4-3.7-9.8-13.8-9.8h-22.8c-12,0-15.7,5.4-15.7,16.5v12.1c0,11.2,3.8,16.5,15.7,16.5H216c11,0,14.2-3.4,14.8-9.8H225
	C224.2,43.4,221.5,44.5,214.9,44.5"/>
<rect x="239.6" y="4.8" class="st0" width="6" height="44.1"/>
<rect x="50.7" y="57.7" class="st0" width="194.9" height="1"/>
<path class="st1" d="M49.2,24.6c0-6.8-2.8-13.3-7.8-18l-8.6,11.8c8,4.6,10.6,14.8,6,22.8c-2.2,3.8-5.8,6.5-10,7.7
	C40.6,46.8,49.2,36.6,49.2,24.6"/>
<path class="st2" d="M7.8,32.8c0-4.8,2.1-9.4,5.7-12.5l0,0l18.8-19C19.4-3,5.5,4.1,1.3,17s2.9,26.8,15.8,31c0.8,0.3,1.6,0.5,2.4,0.6
	C12.6,46.5,7.8,40.1,7.8,32.8"/>
<path class="st0" d="M255.4,10.6h2.2c1,0,1.5-0.4,1.5-1.2c0-0.4,0-0.8-0.2-1.1c-0.3-0.2-0.6-0.3-1-0.3h-2.5L255.4,10.6z M254.5,14.1
	V7.3h3.3c1.4,0,2.1,0.7,2.1,2c0,1-0.3,1.6-0.9,1.8c0.5,0.2,0.9,0.7,0.8,1.3v1.7h-0.9v-1.6c0-0.7-0.3-1.1-1-1.1h-2.6v2.6H254.5z
	 M257.2,5.3c-1.4,0-2.8,0.6-3.8,1.6c-1,1-1.6,2.4-1.6,3.9c0,1.4,0.5,2.8,1.6,3.9c2,2.1,5.3,2.1,7.4,0.1c0,0,0.1-0.1,0.1-0.1
	c1-1,1.6-2.4,1.6-3.9c0-1.4-0.5-2.8-1.5-3.9C260,5.8,258.7,5.3,257.2,5.3 M257.2,4.7c1.6,0,3.2,0.6,4.3,1.8c1.2,1.1,1.8,2.7,1.8,4.3
	c0,1.6-0.6,3.2-1.8,4.3c-1.1,1.2-2.7,1.8-4.3,1.8c-3.4,0-6.1-2.7-6.1-6.1c0,0,0,0,0,0c0-1.6,0.6-3.2,1.8-4.3
	C254.1,5.3,255.6,4.6,257.2,4.7"/>
</svg>
